<?xml version="1.0" encoding="utf-8" standalone="no"?>
<!DOCTYPE svg PUBLIC "-//W3C//DTD SVG 1.1//EN"
  "http://www.w3.org/Graphics/SVG/1.1/DTD/svg11.dtd">
<svg xmlns:xlink="http://www.w3.org/1999/xlink" width="504pt" height="360pt" viewBox="0 0 504 360" xmlns="http://www.w3.org/2000/svg" version="1.1">
 <metadata>
  <rdf:RDF xmlns:dc="http://purl.org/dc/elements/1.1/" xmlns:cc="http://creativecommons.org/ns#" xmlns:rdf="http://www.w3.org/1999/02/22-rdf-syntax-ns#">
   <cc:Work>
    <dc:type rdf:resource="http://purl.org/dc/dcmitype/StillImage"/>
    <dc:date>2024-11-19T17:01:34.110842</dc:date>
    <dc:format>image/svg+xml</dc:format>
    <dc:creator>
     <cc:Agent>
      <dc:title>Matplotlib v3.9.2, https://matplotlib.org/</dc:title>
     </cc:Agent>
    </dc:creator>
   </cc:Work>
  </rdf:RDF>
 </metadata>
 <defs>
  <style type="text/css">*{stroke-linejoin: round; stroke-linecap: butt}</style>
 </defs>
 <g id="figure_1">
  <g id="patch_1">
   <path d="M 0 360 
L 504 360 
L 504 0 
L 0 0 
z
" style="fill: #ffffff"/>
  </g>
  <g id="axes_1">
   <g id="patch_2">
    <path d="M 50.675 225.23125 
L 382.35625 225.23125 
L 382.35625 10.8 
L 50.675 10.8 
z
" style="fill: #ffffff"/>
   </g>
   <g id="patch_3">
    <path d="M 61.040039 225.23125 
L 81.770117 225.23125 
L 81.770117 30.069168 
L 61.040039 30.069168 
z
" clip-path="url(#p837f4b0c49)" style="fill: #8dd3c7"/>
   </g>
   <g id="patch_4">
    <path d="M 102.500195 225.23125 
L 123.230273 225.23125 
L 123.230273 84.027167 
L 102.500195 84.027167 
z
" clip-path="url(#p837f4b0c49)" style="fill: #8dd3c7"/>
   </g>
   <g id="patch_5">
    <path d="M 143.960352 225.23125 
L 164.69043 225.23125 
L 164.69043 77.604424 
L 143.960352 77.604424 
z
" clip-path="url(#p837f4b0c49)" style="fill: #8dd3c7"/>
   </g>
   <g id="patch_6">
    <path d="M 185.420508 225.23125 
L 206.150586 225.23125 
L 206.150586 85.799143 
L 185.420508 85.799143 
z
" clip-path="url(#p837f4b0c49)" style="fill: #8dd3c7"/>
   </g>
   <g id="patch_7">
    <path d="M 226.880664 225.23125 
L 247.610742 225.23125 
L 247.610742 15.706894 
L 226.880664 15.706894 
z
" clip-path="url(#p837f4b0c49)" style="fill: #8dd3c7"/>
   </g>
   <g id="patch_8">
    <path d="M 268.34082 225.23125 
L 289.070898 225.23125 
L 289.070898 152.44984 
L 268.34082 152.44984 
z
" clip-path="url(#p837f4b0c49)" style="fill: #8dd3c7"/>
   </g>
   <g id="patch_9">
    <path d="M 309.800977 225.23125 
L 330.531055 225.23125 
L 330.531055 142.504415 
L 309.800977 142.504415 
z
" clip-path="url(#p837f4b0c49)" style="fill: #8dd3c7"/>
   </g>
   <g id="patch_10">
    <path d="M 351.261133 225.23125 
L 371.991211 225.23125 
L 371.991211 144.86926 
L 351.261133 144.86926 
z
" clip-path="url(#p837f4b0c49)" style="fill: #8dd3c7"/>
   </g>
   <g id="patch_11">
    <path d="M 61.040039 30.069168 
L 81.770117 30.069168 
L 81.770117 14.258569 
L 61.040039 14.258569 
z
" clip-path="url(#p837f4b0c49)" style="fill: #ffffb3"/>
   </g>
   <g id="patch_12">
    <path d="M 102.500195 84.027167 
L 123.230273 84.027167 
L 123.230273 46.99909 
L 102.500195 46.99909 
z
" clip-path="url(#p837f4b0c49)" style="fill: #ffffb3"/>
   </g>
   <g id="patch_13">
    <path d="M 143.960352 77.604424 
L 164.69043 77.604424 
L 164.69043 50.006531 
L 143.960352 50.006531 
z
" clip-path="url(#p837f4b0c49)" style="fill: #ffffb3"/>
   </g>
   <g id="patch_14">
    <path d="M 185.420508 85.799143 
L 206.150586 85.799143 
L 206.150586 60.523188 
L 185.420508 60.523188 
z
" clip-path="url(#p837f4b0c49)" style="fill: #ffffb3"/>
   </g>
   <g id="patch_15">
    <path d="M 226.880664 15.706894 
L 247.610742 15.706894 
L 247.610742 11.290689 
L 226.880664 11.290689 
z
" clip-path="url(#p837f4b0c49)" style="fill: #ffffb3"/>
   </g>
   <g id="patch_16">
    <path d="M 268.34082 152.44984 
L 289.070898 152.44984 
L 289.070898 117.233029 
L 268.34082 117.233029 
z
" clip-path="url(#p837f4b0c49)" style="fill: #ffffb3"/>
   </g>
   <g id="patch_17">
    <path d="M 309.800977 142.504415 
L 330.531055 142.504415 
L 330.531055 100.112056 
L 309.800977 100.112056 
z
" clip-path="url(#p837f4b0c49)" style="fill: #ffffb3"/>
   </g>
   <g id="patch_18">
    <path d="M 351.261133 144.86926 
L 371.991211 144.86926 
L 371.991211 105.483929 
L 351.261133 105.483929 
z
" clip-path="url(#p837f4b0c49)" style="fill: #ffffb3"/>
   </g>
   <g id="patch_19">
    <path d="M 61.040039 14.258569 
L 81.770117 14.258569 
L 81.770117 11.294081 
L 61.040039 11.294081 
z
" clip-path="url(#p837f4b0c49)" style="fill: #bebada"/>
   </g>
   <g id="patch_20">
    <path d="M 102.500195 46.99909 
L 123.230273 46.99909 
L 123.230273 24.616447 
L 102.500195 24.616447 
z
" clip-path="url(#p837f4b0c49)" style="fill: #bebada"/>
   </g>
   <g id="patch_21">
    <path d="M 143.960352 50.006531 
L 164.69043 50.006531 
L 164.69043 30.074719 
L 143.960352 30.074719 
z
" clip-path="url(#p837f4b0c49)" style="fill: #bebada"/>
   </g>
   <g id="patch_22">
    <path d="M 185.420508 60.523188 
L 206.150586 60.523188 
L 206.150586 41.048273 
L 185.420508 41.048273 
z
" clip-path="url(#p837f4b0c49)" style="fill: #bebada"/>
   </g>
   <g id="patch_23">
    <path d="M 226.880664 11.290689 
L 247.610742 11.290689 
L 247.610742 10.8 
L 226.880664 10.8 
z
" clip-path="url(#p837f4b0c49)" style="fill: #bebada"/>
   </g>
   <g id="patch_24">
    <path d="M 268.34082 117.233029 
L 289.070898 117.233029 
L 289.070898 76.538047 
L 268.34082 76.538047 
z
" clip-path="url(#p837f4b0c49)" style="fill: #bebada"/>
   </g>
   <g id="patch_25">
    <path d="M 309.800977 100.112056 
L 330.531055 100.112056 
L 330.531055 67.597529 
L 309.800977 67.597529 
z
" clip-path="url(#p837f4b0c49)" style="fill: #bebada"/>
   </g>
   <g id="patch_26">
    <path d="M 351.261133 105.483929 
L 371.991211 105.483929 
L 371.991211 68.485587 
L 351.261133 68.485587 
z
" clip-path="url(#p837f4b0c49)" style="fill: #bebada"/>
   </g>
   <g id="patch_27">
    <path d="M 61.040039 11.294081 
L 81.770117 11.294081 
L 81.770117 11.047041 
L 61.040039 11.047041 
z
" clip-path="url(#p837f4b0c49)" style="fill: #fb8072"/>
   </g>
   <g id="patch_28">
    <path d="M 102.500195 24.616447 
L 123.230273 24.616447 
L 123.230273 15.221263 
L 102.500195 15.221263 
z
" clip-path="url(#p837f4b0c49)" style="fill: #fb8072"/>
   </g>
   <g id="patch_29">
    <path d="M 143.960352 30.074719 
L 164.69043 30.074719 
L 164.69043 17.808989 
L 143.960352 17.808989 
z
" clip-path="url(#p837f4b0c49)" style="fill: #fb8072"/>
   </g>
   <g id="patch_30">
    <path d="M 185.420508 41.048273 
L 206.150586 41.048273 
L 206.150586 25.924136 
L 185.420508 25.924136 
z
" clip-path="url(#p837f4b0c49)" style="fill: #fb8072"/>
   </g>
   <g id="patch_31">
    <path d="M 226.880664 225.23125 
L 247.610742 225.23125 
L 247.610742 225.23125 
L 226.880664 225.23125 
z
" clip-path="url(#p837f4b0c49)" style="fill: #fb8072"/>
   </g>
   <g id="patch_32">
    <path d="M 268.34082 76.538047 
L 289.070898 76.538047 
L 289.070898 46.799407 
L 268.34082 46.799407 
z
" clip-path="url(#p837f4b0c49)" style="fill: #fb8072"/>
   </g>
   <g id="patch_33">
    <path d="M 309.800977 67.597529 
L 330.531055 67.597529 
L 330.531055 42.902951 
L 309.800977 42.902951 
z
" clip-path="url(#p837f4b0c49)" style="fill: #fb8072"/>
   </g>
   <g id="patch_34">
    <path d="M 351.261133 68.485587 
L 371.991211 68.485587 
L 371.991211 45.411352 
L 351.261133 45.411352 
z
" clip-path="url(#p837f4b0c49)" style="fill: #fb8072"/>
   </g>
   <g id="patch_35">
    <path d="M 61.040039 11.047041 
L 81.770117 11.047041 
L 81.770117 10.8 
L 61.040039 10.8 
z
" clip-path="url(#p837f4b0c49)" style="fill: #80b1d3"/>
   </g>
   <g id="patch_36">
    <path d="M 102.500195 15.221263 
L 123.230273 15.221263 
L 123.230273 10.8 
L 102.500195 10.8 
z
" clip-path="url(#p837f4b0c49)" style="fill: #80b1d3"/>
   </g>
   <g id="patch_37">
    <path d="M 143.960352 17.808989 
L 164.69043 17.808989 
L 164.69043 10.8 
L 143.960352 10.8 
z
" clip-path="url(#p837f4b0c49)" style="fill: #80b1d3"/>
   </g>
   <g id="patch_38">
    <path d="M 185.420508 25.924136 
L 206.150586 25.924136 
L 206.150586 10.8 
L 185.420508 10.8 
z
" clip-path="url(#p837f4b0c49)" style="fill: #80b1d3"/>
   </g>
   <g id="patch_39">
    <path d="M 226.880664 225.23125 
L 247.610742 225.23125 
L 247.610742 225.23125 
L 226.880664 225.23125 
z
" clip-path="url(#p837f4b0c49)" style="fill: #80b1d3"/>
   </g>
   <g id="patch_40">
    <path d="M 268.34082 46.799407 
L 289.070898 46.799407 
L 289.070898 10.8 
L 268.34082 10.8 
z
" clip-path="url(#p837f4b0c49)" style="fill: #80b1d3"/>
   </g>
   <g id="patch_41">
    <path d="M 309.800977 42.902951 
L 330.531055 42.902951 
L 330.531055 10.8 
L 309.800977 10.8 
z
" clip-path="url(#p837f4b0c49)" style="fill: #80b1d3"/>
   </g>
   <g id="patch_42">
    <path d="M 351.261133 45.411352 
L 371.991211 45.411352 
L 371.991211 10.8 
L 351.261133 10.8 
z
" clip-path="url(#p837f4b0c49)" style="fill: #80b1d3"/>
   </g>
   <g id="matplotlib.axis_1">
    <g id="xtick_1">
     <g id="line2d_1">
      <defs>
       <path id="m5088eb1b05" d="M 0 0 
L 0 3.5 
" style="stroke: #000000; stroke-width: 0.8"/>
      </defs>
      <g>
       <use xlink:href="#m5088eb1b05" x="71.405078" y="225.23125" style="stroke: #000000; stroke-width: 0.8"/>
      </g>
     </g>
     <g id="text_1">
      <!-- (WT, CT) -->
      <g transform="translate(74.164453 275.476562) rotate(-90) scale(0.1 -0.1)">
       <defs>
        <path id="DejaVuSans-28" d="M 1984 4856 
Q 1566 4138 1362 3434 
Q 1159 2731 1159 2009 
Q 1159 1288 1364 580 
Q 1569 -128 1984 -844 
L 1484 -844 
Q 1016 -109 783 600 
Q 550 1309 550 2009 
Q 550 2706 781 3412 
Q 1013 4119 1484 4856 
L 1984 4856 
z
" transform="scale(0.015625)"/>
        <path id="DejaVuSans-57" d="M 213 4666 
L 850 4666 
L 1831 722 
L 2809 4666 
L 3519 4666 
L 4500 722 
L 5478 4666 
L 6119 4666 
L 4947 0 
L 4153 0 
L 3169 4050 
L 2175 0 
L 1381 0 
L 213 4666 
z
" transform="scale(0.015625)"/>
        <path id="DejaVuSans-54" d="M -19 4666 
L 3928 4666 
L 3928 4134 
L 2272 4134 
L 2272 0 
L 1638 0 
L 1638 4134 
L -19 4134 
L -19 4666 
z
" transform="scale(0.015625)"/>
        <path id="DejaVuSans-2c" d="M 750 794 
L 1409 794 
L 1409 256 
L 897 -744 
L 494 -744 
L 750 256 
L 750 794 
z
" transform="scale(0.015625)"/>
        <path id="DejaVuSans-20" transform="scale(0.015625)"/>
        <path id="DejaVuSans-43" d="M 4122 4306 
L 4122 3641 
Q 3803 3938 3442 4084 
Q 3081 4231 2675 4231 
Q 1875 4231 1450 3742 
Q 1025 3253 1025 2328 
Q 1025 1406 1450 917 
Q 1875 428 2675 428 
Q 3081 428 3442 575 
Q 3803 722 4122 1019 
L 4122 359 
Q 3791 134 3420 21 
Q 3050 -91 2638 -91 
Q 1578 -91 968 557 
Q 359 1206 359 2328 
Q 359 3453 968 4101 
Q 1578 4750 2638 4750 
Q 3056 4750 3426 4639 
Q 3797 4528 4122 4306 
z
" transform="scale(0.015625)"/>
        <path id="DejaVuSans-29" d="M 513 4856 
L 1013 4856 
Q 1481 4119 1714 3412 
Q 1947 2706 1947 2009 
Q 1947 1309 1714 600 
Q 1481 -109 1013 -844 
L 513 -844 
Q 928 -128 1133 580 
Q 1338 1288 1338 2009 
Q 1338 2731 1133 3434 
Q 928 4138 513 4856 
z
" transform="scale(0.015625)"/>
       </defs>
       <use xlink:href="#DejaVuSans-28"/>
       <use xlink:href="#DejaVuSans-57" x="39.013672"/>
       <use xlink:href="#DejaVuSans-54" x="137.890625"/>
       <use xlink:href="#DejaVuSans-2c" x="198.974609"/>
       <use xlink:href="#DejaVuSans-20" x="230.761719"/>
       <use xlink:href="#DejaVuSans-43" x="262.548828"/>
       <use xlink:href="#DejaVuSans-54" x="332.373047"/>
       <use xlink:href="#DejaVuSans-29" x="393.457031"/>
      </g>
     </g>
    </g>
    <g id="xtick_2">
     <g id="line2d_2">
      <g>
       <use xlink:href="#m5088eb1b05" x="112.865234" y="225.23125" style="stroke: #000000; stroke-width: 0.8"/>
      </g>
     </g>
     <g id="text_2">
      <!-- (WT, ARS) -->
      <g transform="translate(115.624609 282.523438) rotate(-90) scale(0.1 -0.1)">
       <defs>
        <path id="DejaVuSans-41" d="M 2188 4044 
L 1331 1722 
L 3047 1722 
L 2188 4044 
z
M 1831 4666 
L 2547 4666 
L 4325 0 
L 3669 0 
L 3244 1197 
L 1141 1197 
L 716 0 
L 50 0 
L 1831 4666 
z
" transform="scale(0.015625)"/>
        <path id="DejaVuSans-52" d="M 2841 2188 
Q 3044 2119 3236 1894 
Q 3428 1669 3622 1275 
L 4263 0 
L 3584 0 
L 2988 1197 
Q 2756 1666 2539 1819 
Q 2322 1972 1947 1972 
L 1259 1972 
L 1259 0 
L 628 0 
L 628 4666 
L 2053 4666 
Q 2853 4666 3247 4331 
Q 3641 3997 3641 3322 
Q 3641 2881 3436 2590 
Q 3231 2300 2841 2188 
z
M 1259 4147 
L 1259 2491 
L 2053 2491 
Q 2509 2491 2742 2702 
Q 2975 2913 2975 3322 
Q 2975 3731 2742 3939 
Q 2509 4147 2053 4147 
L 1259 4147 
z
" transform="scale(0.015625)"/>
        <path id="DejaVuSans-53" d="M 3425 4513 
L 3425 3897 
Q 3066 4069 2747 4153 
Q 2428 4238 2131 4238 
Q 1616 4238 1336 4038 
Q 1056 3838 1056 3469 
Q 1056 3159 1242 3001 
Q 1428 2844 1947 2747 
L 2328 2669 
Q 3034 2534 3370 2195 
Q 3706 1856 3706 1288 
Q 3706 609 3251 259 
Q 2797 -91 1919 -91 
Q 1588 -91 1214 -16 
Q 841 59 441 206 
L 441 856 
Q 825 641 1194 531 
Q 1563 422 1919 422 
Q 2459 422 2753 634 
Q 3047 847 3047 1241 
Q 3047 1584 2836 1778 
Q 2625 1972 2144 2069 
L 1759 2144 
Q 1053 2284 737 2584 
Q 422 2884 422 3419 
Q 422 4038 858 4394 
Q 1294 4750 2059 4750 
Q 2388 4750 2728 4690 
Q 3069 4631 3425 4513 
z
" transform="scale(0.015625)"/>
       </defs>
       <use xlink:href="#DejaVuSans-28"/>
       <use xlink:href="#DejaVuSans-57" x="39.013672"/>
       <use xlink:href="#DejaVuSans-54" x="137.890625"/>
       <use xlink:href="#DejaVuSans-2c" x="198.974609"/>
       <use xlink:href="#DejaVuSans-20" x="230.761719"/>
       <use xlink:href="#DejaVuSans-41" x="262.548828"/>
       <use xlink:href="#DejaVuSans-52" x="330.957031"/>
       <use xlink:href="#DejaVuSans-53" x="400.439453"/>
       <use xlink:href="#DejaVuSans-29" x="463.916016"/>
      </g>
     </g>
    </g>
    <g id="xtick_3">
     <g id="line2d_3">
      <g>
       <use xlink:href="#m5088eb1b05" x="154.325391" y="225.23125" style="stroke: #000000; stroke-width: 0.8"/>
      </g>
     </g>
     <g id="text_3">
      <!-- (WT, GLU-20min) -->
      <g transform="translate(157.084766 317.714063) rotate(-90) scale(0.1 -0.1)">
       <defs>
        <path id="DejaVuSans-47" d="M 3809 666 
L 3809 1919 
L 2778 1919 
L 2778 2438 
L 4434 2438 
L 4434 434 
Q 4069 175 3628 42 
Q 3188 -91 2688 -91 
Q 1594 -91 976 548 
Q 359 1188 359 2328 
Q 359 3472 976 4111 
Q 1594 4750 2688 4750 
Q 3144 4750 3555 4637 
Q 3966 4525 4313 4306 
L 4313 3634 
Q 3963 3931 3569 4081 
Q 3175 4231 2741 4231 
Q 1884 4231 1454 3753 
Q 1025 3275 1025 2328 
Q 1025 1384 1454 906 
Q 1884 428 2741 428 
Q 3075 428 3337 486 
Q 3600 544 3809 666 
z
" transform="scale(0.015625)"/>
        <path id="DejaVuSans-4c" d="M 628 4666 
L 1259 4666 
L 1259 531 
L 3531 531 
L 3531 0 
L 628 0 
L 628 4666 
z
" transform="scale(0.015625)"/>
        <path id="DejaVuSans-55" d="M 556 4666 
L 1191 4666 
L 1191 1831 
Q 1191 1081 1462 751 
Q 1734 422 2344 422 
Q 2950 422 3222 751 
Q 3494 1081 3494 1831 
L 3494 4666 
L 4128 4666 
L 4128 1753 
Q 4128 841 3676 375 
Q 3225 -91 2344 -91 
Q 1459 -91 1007 375 
Q 556 841 556 1753 
L 556 4666 
z
" transform="scale(0.015625)"/>
        <path id="DejaVuSans-2d" d="M 313 2009 
L 1997 2009 
L 1997 1497 
L 313 1497 
L 313 2009 
z
" transform="scale(0.015625)"/>
        <path id="DejaVuSans-32" d="M 1228 531 
L 3431 531 
L 3431 0 
L 469 0 
L 469 531 
Q 828 903 1448 1529 
Q 2069 2156 2228 2338 
Q 2531 2678 2651 2914 
Q 2772 3150 2772 3378 
Q 2772 3750 2511 3984 
Q 2250 4219 1831 4219 
Q 1534 4219 1204 4116 
Q 875 4013 500 3803 
L 500 4441 
Q 881 4594 1212 4672 
Q 1544 4750 1819 4750 
Q 2544 4750 2975 4387 
Q 3406 4025 3406 3419 
Q 3406 3131 3298 2873 
Q 3191 2616 2906 2266 
Q 2828 2175 2409 1742 
Q 1991 1309 1228 531 
z
" transform="scale(0.015625)"/>
        <path id="DejaVuSans-30" d="M 2034 4250 
Q 1547 4250 1301 3770 
Q 1056 3291 1056 2328 
Q 1056 1369 1301 889 
Q 1547 409 2034 409 
Q 2525 409 2770 889 
Q 3016 1369 3016 2328 
Q 3016 3291 2770 3770 
Q 2525 4250 2034 4250 
z
M 2034 4750 
Q 2819 4750 3233 4129 
Q 3647 3509 3647 2328 
Q 3647 1150 3233 529 
Q 2819 -91 2034 -91 
Q 1250 -91 836 529 
Q 422 1150 422 2328 
Q 422 3509 836 4129 
Q 1250 4750 2034 4750 
z
" transform="scale(0.015625)"/>
        <path id="DejaVuSans-6d" d="M 3328 2828 
Q 3544 3216 3844 3400 
Q 4144 3584 4550 3584 
Q 5097 3584 5394 3201 
Q 5691 2819 5691 2113 
L 5691 0 
L 5113 0 
L 5113 2094 
Q 5113 2597 4934 2840 
Q 4756 3084 4391 3084 
Q 3944 3084 3684 2787 
Q 3425 2491 3425 1978 
L 3425 0 
L 2847 0 
L 2847 2094 
Q 2847 2600 2669 2842 
Q 2491 3084 2119 3084 
Q 1678 3084 1418 2786 
Q 1159 2488 1159 1978 
L 1159 0 
L 581 0 
L 581 3500 
L 1159 3500 
L 1159 2956 
Q 1356 3278 1631 3431 
Q 1906 3584 2284 3584 
Q 2666 3584 2933 3390 
Q 3200 3197 3328 2828 
z
" transform="scale(0.015625)"/>
        <path id="DejaVuSans-69" d="M 603 3500 
L 1178 3500 
L 1178 0 
L 603 0 
L 603 3500 
z
M 603 4863 
L 1178 4863 
L 1178 4134 
L 603 4134 
L 603 4863 
z
" transform="scale(0.015625)"/>
        <path id="DejaVuSans-6e" d="M 3513 2113 
L 3513 0 
L 2938 0 
L 2938 2094 
Q 2938 2591 2744 2837 
Q 2550 3084 2163 3084 
Q 1697 3084 1428 2787 
Q 1159 2491 1159 1978 
L 1159 0 
L 581 0 
L 581 3500 
L 1159 3500 
L 1159 2956 
Q 1366 3272 1645 3428 
Q 1925 3584 2291 3584 
Q 2894 3584 3203 3211 
Q 3513 2838 3513 2113 
z
" transform="scale(0.015625)"/>
       </defs>
       <use xlink:href="#DejaVuSans-28"/>
       <use xlink:href="#DejaVuSans-57" x="39.013672"/>
       <use xlink:href="#DejaVuSans-54" x="137.890625"/>
       <use xlink:href="#DejaVuSans-2c" x="198.974609"/>
       <use xlink:href="#DejaVuSans-20" x="230.761719"/>
       <use xlink:href="#DejaVuSans-47" x="262.548828"/>
       <use xlink:href="#DejaVuSans-4c" x="340.039062"/>
       <use xlink:href="#DejaVuSans-55" x="390.751953"/>
       <use xlink:href="#DejaVuSans-2d" x="463.945312"/>
       <use xlink:href="#DejaVuSans-32" x="500.029297"/>
       <use xlink:href="#DejaVuSans-30" x="563.652344"/>
       <use xlink:href="#DejaVuSans-6d" x="627.275391"/>
       <use xlink:href="#DejaVuSans-69" x="724.6875"/>
       <use xlink:href="#DejaVuSans-6e" x="752.470703"/>
       <use xlink:href="#DejaVuSans-29" x="815.849609"/>
      </g>
     </g>
    </g>
    <g id="xtick_4">
     <g id="line2d_4">
      <g>
       <use xlink:href="#m5088eb1b05" x="195.785547" y="225.23125" style="stroke: #000000; stroke-width: 0.8"/>
      </g>
     </g>
     <g id="text_4">
      <!-- (WT, GLU-40min) -->
      <g transform="translate(198.544922 317.714063) rotate(-90) scale(0.1 -0.1)">
       <defs>
        <path id="DejaVuSans-34" d="M 2419 4116 
L 825 1625 
L 2419 1625 
L 2419 4116 
z
M 2253 4666 
L 3047 4666 
L 3047 1625 
L 3713 1625 
L 3713 1100 
L 3047 1100 
L 3047 0 
L 2419 0 
L 2419 1100 
L 313 1100 
L 313 1709 
L 2253 4666 
z
" transform="scale(0.015625)"/>
       </defs>
       <use xlink:href="#DejaVuSans-28"/>
       <use xlink:href="#DejaVuSans-57" x="39.013672"/>
       <use xlink:href="#DejaVuSans-54" x="137.890625"/>
       <use xlink:href="#DejaVuSans-2c" x="198.974609"/>
       <use xlink:href="#DejaVuSans-20" x="230.761719"/>
       <use xlink:href="#DejaVuSans-47" x="262.548828"/>
       <use xlink:href="#DejaVuSans-4c" x="340.039062"/>
       <use xlink:href="#DejaVuSans-55" x="390.751953"/>
       <use xlink:href="#DejaVuSans-2d" x="463.945312"/>
       <use xlink:href="#DejaVuSans-34" x="500.029297"/>
       <use xlink:href="#DejaVuSans-30" x="563.652344"/>
       <use xlink:href="#DejaVuSans-6d" x="627.275391"/>
       <use xlink:href="#DejaVuSans-69" x="724.6875"/>
       <use xlink:href="#DejaVuSans-6e" x="752.470703"/>
       <use xlink:href="#DejaVuSans-29" x="815.849609"/>
      </g>
     </g>
    </g>
    <g id="xtick_5">
     <g id="line2d_5">
      <g>
       <use xlink:href="#m5088eb1b05" x="237.245703" y="225.23125" style="stroke: #000000; stroke-width: 0.8"/>
      </g>
     </g>
     <g id="text_5">
      <!-- (R326H, CT) -->
      <g transform="translate(240.005078 293.0375) rotate(-90) scale(0.1 -0.1)">
       <defs>
        <path id="DejaVuSans-33" d="M 2597 2516 
Q 3050 2419 3304 2112 
Q 3559 1806 3559 1356 
Q 3559 666 3084 287 
Q 2609 -91 1734 -91 
Q 1441 -91 1130 -33 
Q 819 25 488 141 
L 488 750 
Q 750 597 1062 519 
Q 1375 441 1716 441 
Q 2309 441 2620 675 
Q 2931 909 2931 1356 
Q 2931 1769 2642 2001 
Q 2353 2234 1838 2234 
L 1294 2234 
L 1294 2753 
L 1863 2753 
Q 2328 2753 2575 2939 
Q 2822 3125 2822 3475 
Q 2822 3834 2567 4026 
Q 2313 4219 1838 4219 
Q 1578 4219 1281 4162 
Q 984 4106 628 3988 
L 628 4550 
Q 988 4650 1302 4700 
Q 1616 4750 1894 4750 
Q 2613 4750 3031 4423 
Q 3450 4097 3450 3541 
Q 3450 3153 3228 2886 
Q 3006 2619 2597 2516 
z
" transform="scale(0.015625)"/>
        <path id="DejaVuSans-36" d="M 2113 2584 
Q 1688 2584 1439 2293 
Q 1191 2003 1191 1497 
Q 1191 994 1439 701 
Q 1688 409 2113 409 
Q 2538 409 2786 701 
Q 3034 994 3034 1497 
Q 3034 2003 2786 2293 
Q 2538 2584 2113 2584 
z
M 3366 4563 
L 3366 3988 
Q 3128 4100 2886 4159 
Q 2644 4219 2406 4219 
Q 1781 4219 1451 3797 
Q 1122 3375 1075 2522 
Q 1259 2794 1537 2939 
Q 1816 3084 2150 3084 
Q 2853 3084 3261 2657 
Q 3669 2231 3669 1497 
Q 3669 778 3244 343 
Q 2819 -91 2113 -91 
Q 1303 -91 875 529 
Q 447 1150 447 2328 
Q 447 3434 972 4092 
Q 1497 4750 2381 4750 
Q 2619 4750 2861 4703 
Q 3103 4656 3366 4563 
z
" transform="scale(0.015625)"/>
        <path id="DejaVuSans-48" d="M 628 4666 
L 1259 4666 
L 1259 2753 
L 3553 2753 
L 3553 4666 
L 4184 4666 
L 4184 0 
L 3553 0 
L 3553 2222 
L 1259 2222 
L 1259 0 
L 628 0 
L 628 4666 
z
" transform="scale(0.015625)"/>
       </defs>
       <use xlink:href="#DejaVuSans-28"/>
       <use xlink:href="#DejaVuSans-52" x="39.013672"/>
       <use xlink:href="#DejaVuSans-33" x="108.496094"/>
       <use xlink:href="#DejaVuSans-32" x="172.119141"/>
       <use xlink:href="#DejaVuSans-36" x="235.742188"/>
       <use xlink:href="#DejaVuSans-48" x="299.365234"/>
       <use xlink:href="#DejaVuSans-2c" x="374.560547"/>
       <use xlink:href="#DejaVuSans-20" x="406.347656"/>
       <use xlink:href="#DejaVuSans-43" x="438.134766"/>
       <use xlink:href="#DejaVuSans-54" x="507.958984"/>
       <use xlink:href="#DejaVuSans-29" x="569.042969"/>
      </g>
     </g>
    </g>
    <g id="xtick_6">
     <g id="line2d_6">
      <g>
       <use xlink:href="#m5088eb1b05" x="278.705859" y="225.23125" style="stroke: #000000; stroke-width: 0.8"/>
      </g>
     </g>
     <g id="text_6">
      <!-- (R326H, ARS) -->
      <g transform="translate(281.465234 300.084375) rotate(-90) scale(0.1 -0.1)">
       <use xlink:href="#DejaVuSans-28"/>
       <use xlink:href="#DejaVuSans-52" x="39.013672"/>
       <use xlink:href="#DejaVuSans-33" x="108.496094"/>
       <use xlink:href="#DejaVuSans-32" x="172.119141"/>
       <use xlink:href="#DejaVuSans-36" x="235.742188"/>
       <use xlink:href="#DejaVuSans-48" x="299.365234"/>
       <use xlink:href="#DejaVuSans-2c" x="374.560547"/>
       <use xlink:href="#DejaVuSans-20" x="406.347656"/>
       <use xlink:href="#DejaVuSans-41" x="438.134766"/>
       <use xlink:href="#DejaVuSans-52" x="506.542969"/>
       <use xlink:href="#DejaVuSans-53" x="576.025391"/>
       <use xlink:href="#DejaVuSans-29" x="639.501953"/>
      </g>
     </g>
    </g>
    <g id="xtick_7">
     <g id="line2d_7">
      <g>
       <use xlink:href="#m5088eb1b05" x="320.166016" y="225.23125" style="stroke: #000000; stroke-width: 0.8"/>
      </g>
     </g>
     <g id="text_7">
      <!-- (R326H, GLU-20min) -->
      <g transform="translate(322.925391 335.275) rotate(-90) scale(0.1 -0.1)">
       <use xlink:href="#DejaVuSans-28"/>
       <use xlink:href="#DejaVuSans-52" x="39.013672"/>
       <use xlink:href="#DejaVuSans-33" x="108.496094"/>
       <use xlink:href="#DejaVuSans-32" x="172.119141"/>
       <use xlink:href="#DejaVuSans-36" x="235.742188"/>
       <use xlink:href="#DejaVuSans-48" x="299.365234"/>
       <use xlink:href="#DejaVuSans-2c" x="374.560547"/>
       <use xlink:href="#DejaVuSans-20" x="406.347656"/>
       <use xlink:href="#DejaVuSans-47" x="438.134766"/>
       <use xlink:href="#DejaVuSans-4c" x="515.625"/>
       <use xlink:href="#DejaVuSans-55" x="566.337891"/>
       <use xlink:href="#DejaVuSans-2d" x="639.53125"/>
       <use xlink:href="#DejaVuSans-32" x="675.615234"/>
       <use xlink:href="#DejaVuSans-30" x="739.238281"/>
       <use xlink:href="#DejaVuSans-6d" x="802.861328"/>
       <use xlink:href="#DejaVuSans-69" x="900.273438"/>
       <use xlink:href="#DejaVuSans-6e" x="928.056641"/>
       <use xlink:href="#DejaVuSans-29" x="991.435547"/>
      </g>
     </g>
    </g>
    <g id="xtick_8">
     <g id="line2d_8">
      <g>
       <use xlink:href="#m5088eb1b05" x="361.626172" y="225.23125" style="stroke: #000000; stroke-width: 0.8"/>
      </g>
     </g>
     <g id="text_8">
      <!-- (R326H, GLU-40min) -->
      <g transform="translate(364.385547 335.275) rotate(-90) scale(0.1 -0.1)">
       <use xlink:href="#DejaVuSans-28"/>
       <use xlink:href="#DejaVuSans-52" x="39.013672"/>
       <use xlink:href="#DejaVuSans-33" x="108.496094"/>
       <use xlink:href="#DejaVuSans-32" x="172.119141"/>
       <use xlink:href="#DejaVuSans-36" x="235.742188"/>
       <use xlink:href="#DejaVuSans-48" x="299.365234"/>
       <use xlink:href="#DejaVuSans-2c" x="374.560547"/>
       <use xlink:href="#DejaVuSans-20" x="406.347656"/>
       <use xlink:href="#DejaVuSans-47" x="438.134766"/>
       <use xlink:href="#DejaVuSans-4c" x="515.625"/>
       <use xlink:href="#DejaVuSans-55" x="566.337891"/>
       <use xlink:href="#DejaVuSans-2d" x="639.53125"/>
       <use xlink:href="#DejaVuSans-34" x="675.615234"/>
       <use xlink:href="#DejaVuSans-30" x="739.238281"/>
       <use xlink:href="#DejaVuSans-6d" x="802.861328"/>
       <use xlink:href="#DejaVuSans-69" x="900.273438"/>
       <use xlink:href="#DejaVuSans-6e" x="928.056641"/>
       <use xlink:href="#DejaVuSans-29" x="991.435547"/>
      </g>
     </g>
    </g>
   </g>
   <g id="matplotlib.axis_2">
    <g id="ytick_1">
     <g id="line2d_9">
      <path d="M 50.675 225.23125 
L 382.35625 225.23125 
" clip-path="url(#p837f4b0c49)" style="fill: none; stroke: #b0b0b0; stroke-width: 0.2; stroke-linecap: square"/>
     </g>
     <g id="line2d_10">
      <defs>
       <path id="m11b1c4a31b" d="M 0 0 
L -3.5 0 
" style="stroke: #000000; stroke-width: 0.8"/>
      </defs>
      <g>
       <use xlink:href="#m11b1c4a31b" x="50.675" y="225.23125" style="stroke: #000000; stroke-width: 0.8"/>
      </g>
     </g>
     <g id="text_9">
      <!-- 0 -->
      <g transform="translate(37.3125 229.030469) scale(0.1 -0.1)">
       <use xlink:href="#DejaVuSans-30"/>
      </g>
     </g>
    </g>
    <g id="ytick_2">
     <g id="line2d_11">
      <path d="M 50.675 182.345 
L 382.35625 182.345 
" clip-path="url(#p837f4b0c49)" style="fill: none; stroke: #b0b0b0; stroke-width: 0.2; stroke-linecap: square"/>
     </g>
     <g id="line2d_12">
      <g>
       <use xlink:href="#m11b1c4a31b" x="50.675" y="182.345" style="stroke: #000000; stroke-width: 0.8"/>
      </g>
     </g>
     <g id="text_10">
      <!-- 20 -->
      <g transform="translate(30.95 186.144219) scale(0.1 -0.1)">
       <use xlink:href="#DejaVuSans-32"/>
       <use xlink:href="#DejaVuSans-30" x="63.623047"/>
      </g>
     </g>
    </g>
    <g id="ytick_3">
     <g id="line2d_13">
      <path d="M 50.675 139.45875 
L 382.35625 139.45875 
" clip-path="url(#p837f4b0c49)" style="fill: none; stroke: #b0b0b0; stroke-width: 0.2; stroke-linecap: square"/>
     </g>
     <g id="line2d_14">
      <g>
       <use xlink:href="#m11b1c4a31b" x="50.675" y="139.45875" style="stroke: #000000; stroke-width: 0.8"/>
      </g>
     </g>
     <g id="text_11">
      <!-- 40 -->
      <g transform="translate(30.95 143.257969) scale(0.1 -0.1)">
       <use xlink:href="#DejaVuSans-34"/>
       <use xlink:href="#DejaVuSans-30" x="63.623047"/>
      </g>
     </g>
    </g>
    <g id="ytick_4">
     <g id="line2d_15">
      <path d="M 50.675 96.5725 
L 382.35625 96.5725 
" clip-path="url(#p837f4b0c49)" style="fill: none; stroke: #b0b0b0; stroke-width: 0.2; stroke-linecap: square"/>
     </g>
     <g id="line2d_16">
      <g>
       <use xlink:href="#m11b1c4a31b" x="50.675" y="96.5725" style="stroke: #000000; stroke-width: 0.8"/>
      </g>
     </g>
     <g id="text_12">
      <!-- 60 -->
      <g transform="translate(30.95 100.371719) scale(0.1 -0.1)">
       <use xlink:href="#DejaVuSans-36"/>
       <use xlink:href="#DejaVuSans-30" x="63.623047"/>
      </g>
     </g>
    </g>
    <g id="ytick_5">
     <g id="line2d_17">
      <path d="M 50.675 53.68625 
L 382.35625 53.68625 
" clip-path="url(#p837f4b0c49)" style="fill: none; stroke: #b0b0b0; stroke-width: 0.2; stroke-linecap: square"/>
     </g>
     <g id="line2d_18">
      <g>
       <use xlink:href="#m11b1c4a31b" x="50.675" y="53.68625" style="stroke: #000000; stroke-width: 0.8"/>
      </g>
     </g>
     <g id="text_13">
      <!-- 80 -->
      <g transform="translate(30.95 57.485469) scale(0.1 -0.1)">
       <defs>
        <path id="DejaVuSans-38" d="M 2034 2216 
Q 1584 2216 1326 1975 
Q 1069 1734 1069 1313 
Q 1069 891 1326 650 
Q 1584 409 2034 409 
Q 2484 409 2743 651 
Q 3003 894 3003 1313 
Q 3003 1734 2745 1975 
Q 2488 2216 2034 2216 
z
M 1403 2484 
Q 997 2584 770 2862 
Q 544 3141 544 3541 
Q 544 4100 942 4425 
Q 1341 4750 2034 4750 
Q 2731 4750 3128 4425 
Q 3525 4100 3525 3541 
Q 3525 3141 3298 2862 
Q 3072 2584 2669 2484 
Q 3125 2378 3379 2068 
Q 3634 1759 3634 1313 
Q 3634 634 3220 271 
Q 2806 -91 2034 -91 
Q 1263 -91 848 271 
Q 434 634 434 1313 
Q 434 1759 690 2068 
Q 947 2378 1403 2484 
z
M 1172 3481 
Q 1172 3119 1398 2916 
Q 1625 2713 2034 2713 
Q 2441 2713 2670 2916 
Q 2900 3119 2900 3481 
Q 2900 3844 2670 4047 
Q 2441 4250 2034 4250 
Q 1625 4250 1398 4047 
Q 1172 3844 1172 3481 
z
" transform="scale(0.015625)"/>
       </defs>
       <use xlink:href="#DejaVuSans-38"/>
       <use xlink:href="#DejaVuSans-30" x="63.623047"/>
      </g>
     </g>
    </g>
    <g id="ytick_6">
     <g id="line2d_19">
      <path d="M 50.675 10.8 
L 382.35625 10.8 
" clip-path="url(#p837f4b0c49)" style="fill: none; stroke: #b0b0b0; stroke-width: 0.2; stroke-linecap: square"/>
     </g>
     <g id="line2d_20">
      <g>
       <use xlink:href="#m11b1c4a31b" x="50.675" y="10.8" style="stroke: #000000; stroke-width: 0.8"/>
      </g>
     </g>
     <g id="text_14">
      <!-- 100 -->
      <g transform="translate(24.5875 14.599219) scale(0.1 -0.1)">
       <defs>
        <path id="DejaVuSans-31" d="M 794 531 
L 1825 531 
L 1825 4091 
L 703 3866 
L 703 4441 
L 1819 4666 
L 2450 4666 
L 2450 531 
L 3481 531 
L 3481 0 
L 794 0 
L 794 531 
z
" transform="scale(0.015625)"/>
       </defs>
       <use xlink:href="#DejaVuSans-31"/>
       <use xlink:href="#DejaVuSans-30" x="63.623047"/>
       <use xlink:href="#DejaVuSans-30" x="127.246094"/>
      </g>
     </g>
    </g>
    <g id="text_15">
     <!-- Cells (%) -->
     <g transform="translate(18.507812 140.207812) rotate(-90) scale(0.1 -0.1)">
      <defs>
       <path id="DejaVuSans-65" d="M 3597 1894 
L 3597 1613 
L 953 1613 
Q 991 1019 1311 708 
Q 1631 397 2203 397 
Q 2534 397 2845 478 
Q 3156 559 3463 722 
L 3463 178 
Q 3153 47 2828 -22 
Q 2503 -91 2169 -91 
Q 1331 -91 842 396 
Q 353 884 353 1716 
Q 353 2575 817 3079 
Q 1281 3584 2069 3584 
Q 2775 3584 3186 3129 
Q 3597 2675 3597 1894 
z
M 3022 2063 
Q 3016 2534 2758 2815 
Q 2500 3097 2075 3097 
Q 1594 3097 1305 2825 
Q 1016 2553 972 2059 
L 3022 2063 
z
" transform="scale(0.015625)"/>
       <path id="DejaVuSans-6c" d="M 603 4863 
L 1178 4863 
L 1178 0 
L 603 0 
L 603 4863 
z
" transform="scale(0.015625)"/>
       <path id="DejaVuSans-73" d="M 2834 3397 
L 2834 2853 
Q 2591 2978 2328 3040 
Q 2066 3103 1784 3103 
Q 1356 3103 1142 2972 
Q 928 2841 928 2578 
Q 928 2378 1081 2264 
Q 1234 2150 1697 2047 
L 1894 2003 
Q 2506 1872 2764 1633 
Q 3022 1394 3022 966 
Q 3022 478 2636 193 
Q 2250 -91 1575 -91 
Q 1294 -91 989 -36 
Q 684 19 347 128 
L 347 722 
Q 666 556 975 473 
Q 1284 391 1588 391 
Q 1994 391 2212 530 
Q 2431 669 2431 922 
Q 2431 1156 2273 1281 
Q 2116 1406 1581 1522 
L 1381 1569 
Q 847 1681 609 1914 
Q 372 2147 372 2553 
Q 372 3047 722 3315 
Q 1072 3584 1716 3584 
Q 2034 3584 2315 3537 
Q 2597 3491 2834 3397 
z
" transform="scale(0.015625)"/>
       <path id="DejaVuSans-25" d="M 4653 2053 
Q 4381 2053 4226 1822 
Q 4072 1591 4072 1178 
Q 4072 772 4226 539 
Q 4381 306 4653 306 
Q 4919 306 5073 539 
Q 5228 772 5228 1178 
Q 5228 1588 5073 1820 
Q 4919 2053 4653 2053 
z
M 4653 2450 
Q 5147 2450 5437 2106 
Q 5728 1763 5728 1178 
Q 5728 594 5436 251 
Q 5144 -91 4653 -91 
Q 4153 -91 3862 251 
Q 3572 594 3572 1178 
Q 3572 1766 3864 2108 
Q 4156 2450 4653 2450 
z
M 1428 4353 
Q 1159 4353 1004 4120 
Q 850 3888 850 3481 
Q 850 3069 1003 2837 
Q 1156 2606 1428 2606 
Q 1700 2606 1854 2837 
Q 2009 3069 2009 3481 
Q 2009 3884 1853 4118 
Q 1697 4353 1428 4353 
z
M 4250 4750 
L 4750 4750 
L 1831 -91 
L 1331 -91 
L 4250 4750 
z
M 1428 4750 
Q 1922 4750 2215 4408 
Q 2509 4066 2509 3481 
Q 2509 2891 2217 2550 
Q 1925 2209 1428 2209 
Q 931 2209 642 2551 
Q 353 2894 353 3481 
Q 353 4063 643 4406 
Q 934 4750 1428 4750 
z
" transform="scale(0.015625)"/>
      </defs>
      <use xlink:href="#DejaVuSans-43"/>
      <use xlink:href="#DejaVuSans-65" x="69.824219"/>
      <use xlink:href="#DejaVuSans-6c" x="131.347656"/>
      <use xlink:href="#DejaVuSans-6c" x="159.130859"/>
      <use xlink:href="#DejaVuSans-73" x="186.914062"/>
      <use xlink:href="#DejaVuSans-20" x="239.013672"/>
      <use xlink:href="#DejaVuSans-28" x="270.800781"/>
      <use xlink:href="#DejaVuSans-25" x="309.814453"/>
      <use xlink:href="#DejaVuSans-29" x="404.833984"/>
     </g>
    </g>
   </g>
   <g id="patch_43">
    <path d="M 50.675 225.23125 
L 50.675 10.8 
" style="fill: none; stroke: #000000; stroke-width: 0.8; stroke-linejoin: miter; stroke-linecap: square"/>
   </g>
   <g id="patch_44">
    <path d="M 382.35625 225.23125 
L 382.35625 10.8 
" style="fill: none; stroke: #000000; stroke-width: 0.8; stroke-linejoin: miter; stroke-linecap: square"/>
   </g>
   <g id="patch_45">
    <path d="M 50.675 225.23125 
L 382.35625 225.23125 
" style="fill: none; stroke: #000000; stroke-width: 0.8; stroke-linejoin: miter; stroke-linecap: square"/>
   </g>
   <g id="patch_46">
    <path d="M 50.675 10.8 
L 382.35625 10.8 
" style="fill: none; stroke: #000000; stroke-width: 0.8; stroke-linejoin: miter; stroke-linecap: square"/>
   </g>
   <g id="legend_1">
    <g id="patch_47">
     <path d="M 389.35625 104.724437 
L 491.059375 104.724437 
Q 493.059375 104.724437 493.059375 102.724437 
L 493.059375 15.655687 
Q 493.059375 13.655687 491.059375 13.655687 
L 389.35625 13.655687 
Q 387.35625 13.655687 387.35625 15.655687 
L 387.35625 102.724437 
Q 387.35625 104.724437 389.35625 104.724437 
z
" style="fill: #ffffff; opacity: 0.8; stroke: #cccccc; stroke-linejoin: miter"/>
    </g>
    <g id="text_16">
     <!-- Granule Count -->
     <g transform="translate(403.973437 25.254125) scale(0.1 -0.1)">
      <defs>
       <path id="DejaVuSans-72" d="M 2631 2963 
Q 2534 3019 2420 3045 
Q 2306 3072 2169 3072 
Q 1681 3072 1420 2755 
Q 1159 2438 1159 1844 
L 1159 0 
L 581 0 
L 581 3500 
L 1159 3500 
L 1159 2956 
Q 1341 3275 1631 3429 
Q 1922 3584 2338 3584 
Q 2397 3584 2469 3576 
Q 2541 3569 2628 3553 
L 2631 2963 
z
" transform="scale(0.015625)"/>
       <path id="DejaVuSans-61" d="M 2194 1759 
Q 1497 1759 1228 1600 
Q 959 1441 959 1056 
Q 959 750 1161 570 
Q 1363 391 1709 391 
Q 2188 391 2477 730 
Q 2766 1069 2766 1631 
L 2766 1759 
L 2194 1759 
z
M 3341 1997 
L 3341 0 
L 2766 0 
L 2766 531 
Q 2569 213 2275 61 
Q 1981 -91 1556 -91 
Q 1019 -91 701 211 
Q 384 513 384 1019 
Q 384 1609 779 1909 
Q 1175 2209 1959 2209 
L 2766 2209 
L 2766 2266 
Q 2766 2663 2505 2880 
Q 2244 3097 1772 3097 
Q 1472 3097 1187 3025 
Q 903 2953 641 2809 
L 641 3341 
Q 956 3463 1253 3523 
Q 1550 3584 1831 3584 
Q 2591 3584 2966 3190 
Q 3341 2797 3341 1997 
z
" transform="scale(0.015625)"/>
       <path id="DejaVuSans-75" d="M 544 1381 
L 544 3500 
L 1119 3500 
L 1119 1403 
Q 1119 906 1312 657 
Q 1506 409 1894 409 
Q 2359 409 2629 706 
Q 2900 1003 2900 1516 
L 2900 3500 
L 3475 3500 
L 3475 0 
L 2900 0 
L 2900 538 
Q 2691 219 2414 64 
Q 2138 -91 1772 -91 
Q 1169 -91 856 284 
Q 544 659 544 1381 
z
M 1991 3584 
L 1991 3584 
z
" transform="scale(0.015625)"/>
       <path id="DejaVuSans-6f" d="M 1959 3097 
Q 1497 3097 1228 2736 
Q 959 2375 959 1747 
Q 959 1119 1226 758 
Q 1494 397 1959 397 
Q 2419 397 2687 759 
Q 2956 1122 2956 1747 
Q 2956 2369 2687 2733 
Q 2419 3097 1959 3097 
z
M 1959 3584 
Q 2709 3584 3137 3096 
Q 3566 2609 3566 1747 
Q 3566 888 3137 398 
Q 2709 -91 1959 -91 
Q 1206 -91 779 398 
Q 353 888 353 1747 
Q 353 2609 779 3096 
Q 1206 3584 1959 3584 
z
" transform="scale(0.015625)"/>
       <path id="DejaVuSans-74" d="M 1172 4494 
L 1172 3500 
L 2356 3500 
L 2356 3053 
L 1172 3053 
L 1172 1153 
Q 1172 725 1289 603 
Q 1406 481 1766 481 
L 2356 481 
L 2356 0 
L 1766 0 
Q 1100 0 847 248 
Q 594 497 594 1153 
L 594 3053 
L 172 3053 
L 172 3500 
L 594 3500 
L 594 4494 
L 1172 4494 
z
" transform="scale(0.015625)"/>
      </defs>
      <use xlink:href="#DejaVuSans-47"/>
      <use xlink:href="#DejaVuSans-72" x="77.490234"/>
      <use xlink:href="#DejaVuSans-61" x="118.603516"/>
      <use xlink:href="#DejaVuSans-6e" x="179.882812"/>
      <use xlink:href="#DejaVuSans-75" x="243.261719"/>
      <use xlink:href="#DejaVuSans-6c" x="306.640625"/>
      <use xlink:href="#DejaVuSans-65" x="334.423828"/>
      <use xlink:href="#DejaVuSans-20" x="395.947266"/>
      <use xlink:href="#DejaVuSans-43" x="427.734375"/>
      <use xlink:href="#DejaVuSans-6f" x="497.558594"/>
      <use xlink:href="#DejaVuSans-75" x="558.740234"/>
      <use xlink:href="#DejaVuSans-6e" x="622.119141"/>
      <use xlink:href="#DejaVuSans-74" x="685.498047"/>
     </g>
    </g>
    <g id="patch_48">
     <path d="M 391.35625 39.93225 
L 411.35625 39.93225 
L 411.35625 32.93225 
L 391.35625 32.93225 
z
" style="fill: #8dd3c7"/>
    </g>
    <g id="text_17">
     <!-- 0 granules -->
     <g transform="translate(419.35625 39.93225) scale(0.1 -0.1)">
      <defs>
       <path id="DejaVuSans-67" d="M 2906 1791 
Q 2906 2416 2648 2759 
Q 2391 3103 1925 3103 
Q 1463 3103 1205 2759 
Q 947 2416 947 1791 
Q 947 1169 1205 825 
Q 1463 481 1925 481 
Q 2391 481 2648 825 
Q 2906 1169 2906 1791 
z
M 3481 434 
Q 3481 -459 3084 -895 
Q 2688 -1331 1869 -1331 
Q 1566 -1331 1297 -1286 
Q 1028 -1241 775 -1147 
L 775 -588 
Q 1028 -725 1275 -790 
Q 1522 -856 1778 -856 
Q 2344 -856 2625 -561 
Q 2906 -266 2906 331 
L 2906 616 
Q 2728 306 2450 153 
Q 2172 0 1784 0 
Q 1141 0 747 490 
Q 353 981 353 1791 
Q 353 2603 747 3093 
Q 1141 3584 1784 3584 
Q 2172 3584 2450 3431 
Q 2728 3278 2906 2969 
L 2906 3500 
L 3481 3500 
L 3481 434 
z
" transform="scale(0.015625)"/>
      </defs>
      <use xlink:href="#DejaVuSans-30"/>
      <use xlink:href="#DejaVuSans-20" x="63.623047"/>
      <use xlink:href="#DejaVuSans-67" x="95.410156"/>
      <use xlink:href="#DejaVuSans-72" x="158.886719"/>
      <use xlink:href="#DejaVuSans-61" x="200"/>
      <use xlink:href="#DejaVuSans-6e" x="261.279297"/>
      <use xlink:href="#DejaVuSans-75" x="324.658203"/>
      <use xlink:href="#DejaVuSans-6c" x="388.037109"/>
      <use xlink:href="#DejaVuSans-65" x="415.820312"/>
      <use xlink:href="#DejaVuSans-73" x="477.34375"/>
     </g>
    </g>
    <g id="patch_49">
     <path d="M 391.35625 54.610375 
L 411.35625 54.610375 
L 411.35625 47.610375 
L 391.35625 47.610375 
z
" style="fill: #ffffb3"/>
    </g>
    <g id="text_18">
     <!-- 1 granule -->
     <g transform="translate(419.35625 54.610375) scale(0.1 -0.1)">
      <use xlink:href="#DejaVuSans-31"/>
      <use xlink:href="#DejaVuSans-20" x="63.623047"/>
      <use xlink:href="#DejaVuSans-67" x="95.410156"/>
      <use xlink:href="#DejaVuSans-72" x="158.886719"/>
      <use xlink:href="#DejaVuSans-61" x="200"/>
      <use xlink:href="#DejaVuSans-6e" x="261.279297"/>
      <use xlink:href="#DejaVuSans-75" x="324.658203"/>
      <use xlink:href="#DejaVuSans-6c" x="388.037109"/>
      <use xlink:href="#DejaVuSans-65" x="415.820312"/>
     </g>
    </g>
    <g id="patch_50">
     <path d="M 391.35625 69.2885 
L 411.35625 69.2885 
L 411.35625 62.2885 
L 391.35625 62.2885 
z
" style="fill: #bebada"/>
    </g>
    <g id="text_19">
     <!-- 2 granules -->
     <g transform="translate(419.35625 69.2885) scale(0.1 -0.1)">
      <use xlink:href="#DejaVuSans-32"/>
      <use xlink:href="#DejaVuSans-20" x="63.623047"/>
      <use xlink:href="#DejaVuSans-67" x="95.410156"/>
      <use xlink:href="#DejaVuSans-72" x="158.886719"/>
      <use xlink:href="#DejaVuSans-61" x="200"/>
      <use xlink:href="#DejaVuSans-6e" x="261.279297"/>
      <use xlink:href="#DejaVuSans-75" x="324.658203"/>
      <use xlink:href="#DejaVuSans-6c" x="388.037109"/>
      <use xlink:href="#DejaVuSans-65" x="415.820312"/>
      <use xlink:href="#DejaVuSans-73" x="477.34375"/>
     </g>
    </g>
    <g id="patch_51">
     <path d="M 391.35625 83.966625 
L 411.35625 83.966625 
L 411.35625 76.966625 
L 391.35625 76.966625 
z
" style="fill: #fb8072"/>
    </g>
    <g id="text_20">
     <!-- 3 granules -->
     <g transform="translate(419.35625 83.966625) scale(0.1 -0.1)">
      <use xlink:href="#DejaVuSans-33"/>
      <use xlink:href="#DejaVuSans-20" x="63.623047"/>
      <use xlink:href="#DejaVuSans-67" x="95.410156"/>
      <use xlink:href="#DejaVuSans-72" x="158.886719"/>
      <use xlink:href="#DejaVuSans-61" x="200"/>
      <use xlink:href="#DejaVuSans-6e" x="261.279297"/>
      <use xlink:href="#DejaVuSans-75" x="324.658203"/>
      <use xlink:href="#DejaVuSans-6c" x="388.037109"/>
      <use xlink:href="#DejaVuSans-65" x="415.820312"/>
      <use xlink:href="#DejaVuSans-73" x="477.34375"/>
     </g>
    </g>
    <g id="patch_52">
     <path d="M 391.35625 98.64475 
L 411.35625 98.64475 
L 411.35625 91.64475 
L 391.35625 91.64475 
z
" style="fill: #80b1d3"/>
    </g>
    <g id="text_21">
     <!-- &gt;=4 granules -->
     <g transform="translate(419.35625 98.64475) scale(0.1 -0.1)">
      <defs>
       <path id="DejaVuSans-3e" d="M 678 3150 
L 678 3719 
L 4684 2266 
L 4684 1747 
L 678 294 
L 678 863 
L 3897 2003 
L 678 3150 
z
" transform="scale(0.015625)"/>
       <path id="DejaVuSans-3d" d="M 678 2906 
L 4684 2906 
L 4684 2381 
L 678 2381 
L 678 2906 
z
M 678 1631 
L 4684 1631 
L 4684 1100 
L 678 1100 
L 678 1631 
z
" transform="scale(0.015625)"/>
      </defs>
      <use xlink:href="#DejaVuSans-3e"/>
      <use xlink:href="#DejaVuSans-3d" x="83.789062"/>
      <use xlink:href="#DejaVuSans-34" x="167.578125"/>
      <use xlink:href="#DejaVuSans-20" x="231.201172"/>
      <use xlink:href="#DejaVuSans-67" x="262.988281"/>
      <use xlink:href="#DejaVuSans-72" x="326.464844"/>
      <use xlink:href="#DejaVuSans-61" x="367.578125"/>
      <use xlink:href="#DejaVuSans-6e" x="428.857422"/>
      <use xlink:href="#DejaVuSans-75" x="492.236328"/>
      <use xlink:href="#DejaVuSans-6c" x="555.615234"/>
      <use xlink:href="#DejaVuSans-65" x="583.398438"/>
      <use xlink:href="#DejaVuSans-73" x="644.921875"/>
     </g>
    </g>
   </g>
  </g>
 </g>
 <defs>
  <clipPath id="p837f4b0c49">
   <rect x="50.675" y="10.8" width="331.68125" height="214.43125"/>
  </clipPath>
 </defs>
</svg>
