<?xml version="1.0" encoding="utf-8" standalone="no"?>
<!DOCTYPE svg PUBLIC "-//W3C//DTD SVG 1.1//EN"
  "http://www.w3.org/Graphics/SVG/1.1/DTD/svg11.dtd">
<svg xmlns:xlink="http://www.w3.org/1999/xlink" width="288pt" height="360pt" viewBox="0 0 288 360" xmlns="http://www.w3.org/2000/svg" version="1.1">
 <metadata>
  <rdf:RDF xmlns:dc="http://purl.org/dc/elements/1.1/" xmlns:cc="http://creativecommons.org/ns#" xmlns:rdf="http://www.w3.org/1999/02/22-rdf-syntax-ns#">
   <cc:Work>
    <dc:type rdf:resource="http://purl.org/dc/dcmitype/StillImage"/>
    <dc:date>2024-11-19T17:01:32.642498</dc:date>
    <dc:format>image/svg+xml</dc:format>
    <dc:creator>
     <cc:Agent>
      <dc:title>Matplotlib v3.9.2, https://matplotlib.org/</dc:title>
     </cc:Agent>
    </dc:creator>
   </cc:Work>
  </rdf:RDF>
 </metadata>
 <defs>
  <style type="text/css">*{stroke-linejoin: round; stroke-linecap: butt}</style>
 </defs>
 <g id="figure_1">
  <g id="patch_1">
   <path d="M 0 360 
L 288 360 
L 288 0 
L 0 0 
z
" style="fill: #ffffff"/>
  </g>
  <g id="axes_1">
   <g id="patch_2">
    <path d="M 36.403365 294.671635 
L 155.951323 294.671635 
L 155.951323 18.118365 
L 36.403365 18.118365 
z
" style="fill: #ffffff"/>
   </g>
   <g id="PolyCollection_1">
    <path d="M 57.02435 297.907029 
L 55.631699 297.907029 
L 55.166092 296.31695 
L 54.482627 294.726871 
L 53.536528 293.136792 
L 52.302947 291.546713 
L 50.790462 289.956634 
L 49.050762 288.366555 
L 47.180174 286.776476 
L 45.310448 285.186397 
L 43.589429 283.596318 
L 42.155978 282.006239 
L 41.115915 280.41616 
L 40.525744 278.826081 
L 40.388297 277.236002 
L 40.6602 275.645923 
L 41.267294 274.055844 
L 42.122171 272.465765 
L 43.138683 270.875687 
L 44.24072 269.285608 
L 45.365439 267.695529 
L 46.463038 266.10545 
L 47.495507 264.515371 
L 48.435904 262.925292 
L 49.268394 261.335213 
L 49.988354 259.745134 
L 50.601668 258.155055 
L 51.12268 256.564976 
L 51.570906 254.974897 
L 51.967107 253.384818 
L 52.329581 251.794739 
L 52.671538 250.20466 
L 53.000128 248.614581 
L 53.317239 247.024502 
L 53.621569 245.434423 
L 53.911052 243.844344 
L 54.18463 242.254265 
L 54.442709 240.664186 
L 54.68635 239.074107 
L 54.915855 237.484028 
L 55.1297 235.893949 
L 55.324504 234.30387 
L 55.496136 232.713791 
L 55.641427 231.123712 
L 55.759676 229.533634 
L 55.85324 227.943555 
L 55.926988 226.353476 
L 55.986916 224.763397 
L 56.038513 223.173318 
L 56.085537 221.583239 
L 56.129518 219.99316 
L 56.170015 218.403081 
L 56.205347 216.813002 
L 56.233418 215.222923 
L 56.252371 213.632844 
L 56.260964 212.042765 
L 56.25874 210.452686 
L 56.246112 208.862607 
L 56.224462 207.272528 
L 56.19624 205.682449 
L 56.164941 204.09237 
L 56.134847 202.502291 
L 56.110447 200.912212 
L 56.09564 199.322133 
L 56.092914 197.732054 
L 56.102797 196.141975 
L 56.123765 194.551896 
L 56.152667 192.961817 
L 56.185517 191.371738 
L 56.218397 189.78166 
L 56.248195 188.191581 
L 56.272996 186.601502 
L 56.292114 185.011423 
L 56.305829 183.421344 
L 56.315005 181.831265 
L 56.320711 180.241186 
L 56.323933 178.651107 
L 56.325404 177.061028 
L 56.325521 175.470949 
L 56.324319 173.88087 
L 56.321465 172.290791 
L 56.316284 170.700712 
L 56.307828 169.110633 
L 56.295024 167.520554 
L 56.276945 165.930475 
L 56.253172 164.340396 
L 56.224188 162.750317 
L 56.191675 161.160238 
L 56.158542 159.570159 
L 56.12861 157.98008 
L 56.105922 156.390001 
L 56.093865 154.799922 
L 56.094337 153.209843 
L 56.107265 151.619764 
L 56.130615 150.029685 
L 56.160923 148.439607 
L 56.194133 146.849528 
L 56.226472 145.259449 
L 56.255114 143.66937 
L 56.278473 142.079291 
L 56.296147 140.489212 
L 56.359902 140.489212 
L 56.359902 140.489212 
L 56.377576 142.079291 
L 56.400935 143.66937 
L 56.429577 145.259449 
L 56.461916 146.849528 
L 56.495126 148.439607 
L 56.525434 150.029685 
L 56.548784 151.619764 
L 56.561712 153.209843 
L 56.562185 154.799922 
L 56.550127 156.390001 
L 56.527439 157.98008 
L 56.497507 159.570159 
L 56.464374 161.160238 
L 56.431861 162.750317 
L 56.402878 164.340396 
L 56.379104 165.930475 
L 56.361025 167.520554 
L 56.348221 169.110633 
L 56.339765 170.700712 
L 56.334584 172.290791 
L 56.33173 173.88087 
L 56.330528 175.470949 
L 56.330645 177.061028 
L 56.332116 178.651107 
L 56.335338 180.241186 
L 56.341044 181.831265 
L 56.35022 183.421344 
L 56.363935 185.011423 
L 56.383053 186.601502 
L 56.407854 188.191581 
L 56.437652 189.78166 
L 56.470532 191.371738 
L 56.503383 192.961817 
L 56.532284 194.551896 
L 56.553253 196.141975 
L 56.563136 197.732054 
L 56.560409 199.322133 
L 56.545602 200.912212 
L 56.521202 202.502291 
L 56.491108 204.09237 
L 56.45981 205.682449 
L 56.431587 207.272528 
L 56.409937 208.862607 
L 56.397309 210.452686 
L 56.395085 212.042765 
L 56.403678 213.632844 
L 56.422631 215.222923 
L 56.450702 216.813002 
L 56.486034 218.403081 
L 56.526532 219.99316 
L 56.570512 221.583239 
L 56.617536 223.173318 
L 56.669134 224.763397 
L 56.729061 226.353476 
L 56.80281 227.943555 
L 56.896373 229.533634 
L 57.014622 231.123712 
L 57.159913 232.713791 
L 57.331545 234.30387 
L 57.52635 235.893949 
L 57.740194 237.484028 
L 57.969699 239.074107 
L 58.21334 240.664186 
L 58.471419 242.254265 
L 58.744997 243.844344 
L 59.03448 245.434423 
L 59.33881 247.024502 
L 59.655921 248.614581 
L 59.984511 250.20466 
L 60.326468 251.794739 
L 60.688943 253.384818 
L 61.085144 254.974897 
L 61.53337 256.564976 
L 62.054381 258.155055 
L 62.667695 259.745134 
L 63.387655 261.335213 
L 64.220145 262.925292 
L 65.160542 264.515371 
L 66.193011 266.10545 
L 67.29061 267.695529 
L 68.415329 269.285608 
L 69.517366 270.875687 
L 70.533878 272.465765 
L 71.388755 274.055844 
L 71.995849 275.645923 
L 72.267752 277.236002 
L 72.130305 278.826081 
L 71.540135 280.41616 
L 70.500071 282.006239 
L 69.06662 283.596318 
L 67.345601 285.186397 
L 65.475875 286.776476 
L 63.605288 288.366555 
L 61.865587 289.956634 
L 60.353103 291.546713 
L 59.119521 293.136792 
L 58.173422 294.726871 
L 57.489957 296.31695 
L 57.02435 297.907029 
L 57.02435 297.907029 
z
" clip-path="url(#p8821b118f7)" style="fill: none; stroke: #000000"/>
   </g>
   <g id="PolyCollection_2">
    <path d="M 96.698274 295.419012 
L 95.656413 295.419012 
L 95.260176 293.969704 
L 94.655311 292.520397 
L 93.793022 291.071089 
L 92.645058 289.621781 
L 91.217966 288.172474 
L 89.561733 286.723166 
L 87.768289 285.273858 
L 85.958711 283.824551 
L 84.262264 282.375243 
L 82.793677 280.925935 
L 81.635347 279.476628 
L 80.828517 278.02732 
L 80.373694 276.578012 
L 80.237616 275.128705 
L 80.363349 273.679397 
L 80.681015 272.230089 
L 81.117953 270.780782 
L 81.607765 269.331474 
L 82.097637 267.882167 
L 82.553066 266.432859 
L 82.959298 264.983551 
L 83.319321 263.534244 
L 83.649034 262.084936 
L 83.97078 260.635628 
L 84.306885 259.186321 
L 84.674775 257.737013 
L 85.084717 256.287705 
L 85.54011 254.838398 
L 86.039201 253.38909 
L 86.576676 251.939782 
L 87.144206 250.490475 
L 87.730175 249.041167 
L 88.319689 247.591859 
L 88.89581 246.142552 
L 89.442071 244.693244 
L 89.945289 243.243937 
L 90.397421 241.794629 
L 90.795653 240.345321 
L 91.14086 238.896014 
L 91.435393 237.446706 
L 91.681356 235.997398 
L 91.880297 234.548091 
L 92.034516 233.098783 
L 92.149414 231.649475 
L 92.235693 230.200168 
L 92.31008 228.75086 
L 92.393679 227.301552 
L 92.507999 225.852245 
L 92.669792 224.402937 
L 92.886468 222.953629 
L 93.153838 221.504322 
L 93.457076 220.055014 
L 93.774601 218.605706 
L 94.083497 217.156399 
L 94.36466 215.707091 
L 94.606149 214.257784 
L 94.804095 212.808476 
L 94.961448 211.359168 
L 95.085518 209.909861 
L 95.185317 208.460553 
L 95.26945 207.011245 
L 95.344817 205.561938 
L 95.416093 204.11263 
L 95.485788 202.663322 
L 95.55471 201.214015 
L 95.622647 199.764707 
L 95.689046 198.315399 
L 95.753481 196.866092 
L 95.815746 195.416784 
L 95.875634 193.967476 
L 95.932602 192.518169 
L 95.985588 191.068861 
L 96.033152 189.619554 
L 96.073877 188.170246 
L 96.106832 186.720938 
L 96.13187 185.271631 
L 96.149639 183.822323 
L 96.161342 182.373015 
L 96.168376 180.923708 
L 96.171995 179.4744 
L 96.173078 178.025092 
L 96.17205 176.575785 
L 96.168916 175.126477 
L 96.16342 173.677169 
L 96.155281 172.227862 
L 96.144491 170.778554 
L 96.131593 169.329246 
L 96.117821 167.879939 
L 96.105015 166.430631 
L 96.095261 164.981324 
L 96.090346 163.532016 
L 96.091229 162.082708 
L 96.097736 160.633401 
L 96.108615 159.184093 
L 96.121927 157.734785 
L 96.135614 156.285478 
L 96.147996 154.83617 
L 96.158068 153.386862 
L 96.16552 151.937555 
L 96.189167 151.937555 
L 96.189167 151.937555 
L 96.196619 153.386862 
L 96.206691 154.83617 
L 96.219074 156.285478 
L 96.23276 157.734785 
L 96.246073 159.184093 
L 96.256951 160.633401 
L 96.263458 162.082708 
L 96.264342 163.532016 
L 96.259427 164.981324 
L 96.249672 166.430631 
L 96.236867 167.879939 
L 96.223095 169.329246 
L 96.210196 170.778554 
L 96.199406 172.227862 
L 96.191267 173.677169 
L 96.185771 175.126477 
L 96.182638 176.575785 
L 96.18161 178.025092 
L 96.182693 179.4744 
L 96.186311 180.923708 
L 96.193346 182.373015 
L 96.205049 183.822323 
L 96.222818 185.271631 
L 96.247856 186.720938 
L 96.280811 188.170246 
L 96.321535 189.619554 
L 96.369099 191.068861 
L 96.422085 192.518169 
L 96.479053 193.967476 
L 96.538942 195.416784 
L 96.601207 196.866092 
L 96.665642 198.315399 
L 96.732041 199.764707 
L 96.799977 201.214015 
L 96.8689 202.663322 
L 96.938595 204.11263 
L 97.009871 205.561938 
L 97.085238 207.011245 
L 97.16937 208.460553 
L 97.26917 209.909861 
L 97.39324 211.359168 
L 97.550593 212.808476 
L 97.748538 214.257784 
L 97.990028 215.707091 
L 98.271191 217.156399 
L 98.580086 218.605706 
L 98.897611 220.055014 
L 99.20085 221.504322 
L 99.46822 222.953629 
L 99.684895 224.402937 
L 99.846688 225.852245 
L 99.961009 227.301552 
L 100.044607 228.75086 
L 100.118994 230.200168 
L 100.205273 231.649475 
L 100.320171 233.098783 
L 100.474391 234.548091 
L 100.673332 235.997398 
L 100.919294 237.446706 
L 101.213827 238.896014 
L 101.559035 240.345321 
L 101.957266 241.794629 
L 102.409399 243.243937 
L 102.912617 244.693244 
L 103.458877 246.142552 
L 104.034999 247.591859 
L 104.624512 249.041167 
L 105.210481 250.490475 
L 105.778011 251.939782 
L 106.315487 253.38909 
L 106.814577 254.838398 
L 107.26997 256.287705 
L 107.679912 257.737013 
L 108.047803 259.186321 
L 108.383908 260.635628 
L 108.705654 262.084936 
L 109.035366 263.534244 
L 109.39539 264.983551 
L 109.801622 266.432859 
L 110.257051 267.882167 
L 110.746922 269.331474 
L 111.236734 270.780782 
L 111.673672 272.230089 
L 111.991339 273.679397 
L 112.117071 275.128705 
L 111.980993 276.578012 
L 111.526171 278.02732 
L 110.719341 279.476628 
L 109.56101 280.925935 
L 108.092424 282.375243 
L 106.395976 283.824551 
L 104.586399 285.273858 
L 102.792955 286.723166 
L 101.136721 288.172474 
L 99.70963 289.621781 
L 98.561665 291.071089 
L 97.699376 292.520397 
L 97.094511 293.969704 
L 96.698274 295.419012 
L 96.698274 295.419012 
z
" clip-path="url(#p8821b118f7)" style="fill: none; stroke: #000000"/>
   </g>
   <g id="PolyCollection_3">
    <path d="M 136.483565 297.438026 
L 135.569761 297.438026 
L 134.957761 294.806132 
L 133.849914 292.174239 
L 132.142504 289.542346 
L 129.900389 286.910452 
L 127.388354 284.278559 
L 124.981866 281.646666 
L 123.004317 279.014772 
L 121.604273 276.382879 
L 120.746502 273.750986 
L 120.293735 271.119092 
L 120.103937 268.487199 
L 120.086935 265.855305 
L 120.208258 263.223412 
L 120.459876 260.591519 
L 120.831832 257.959625 
L 121.309986 255.327732 
L 121.893257 252.695839 
L 122.598001 250.063945 
L 123.431886 247.432052 
L 124.361774 244.800159 
L 125.315456 242.168265 
L 126.220978 239.536372 
L 127.043585 236.904478 
L 127.785084 234.272585 
L 128.456561 231.640692 
L 129.062823 229.008798 
L 129.612908 226.376905 
L 130.131856 223.745012 
L 130.649186 221.113118 
L 131.176075 218.481225 
L 131.70117 215.849331 
L 132.209603 213.217438 
L 132.699793 210.585545 
L 133.178256 207.953651 
L 133.641115 205.321758 
L 134.065128 202.689865 
L 134.419046 200.057971 
L 134.685301 197.426078 
L 134.87272 194.794185 
L 135.010071 192.162291 
L 135.127523 189.530398 
L 135.241789 186.898504 
L 135.354216 184.266611 
L 135.45831 181.634718 
L 135.547272 179.002824 
L 135.616709 176.370931 
L 135.665121 173.739038 
L 135.695459 171.107144 
L 135.71577 168.475251 
L 135.735137 165.843358 
L 135.756814 163.211464 
L 135.775804 160.579571 
L 135.784778 157.947677 
L 135.783056 155.315784 
L 135.779289 152.683891 
L 135.784862 150.051997 
L 135.804818 147.420104 
L 135.834963 144.788211 
L 135.866555 142.156317 
L 135.893027 139.524424 
L 135.913304 136.89253 
L 135.930568 134.260637 
L 135.948528 131.628744 
L 135.968268 128.99685 
L 135.987797 126.364957 
L 136.004077 123.733064 
L 136.015332 121.10117 
L 136.021788 118.469277 
L 136.02487 115.837384 
L 136.0261 113.20549 
L 136.026513 110.573597 
L 136.026629 107.941703 
L 136.026656 105.30981 
L 136.026662 102.677917 
L 136.026663 100.046023 
L 136.026663 97.41413 
L 136.026663 94.782237 
L 136.026663 92.150343 
L 136.026663 89.51845 
L 136.026663 86.886557 
L 136.026663 84.254663 
L 136.026662 81.62277 
L 136.026659 78.990876 
L 136.026643 76.358983 
L 136.026572 73.72709 
L 136.026304 71.095196 
L 136.025457 68.463303 
L 136.023209 65.83141 
L 136.018247 63.199516 
L 136.009212 60.567623 
L 135.995868 57.935729 
L 135.980417 55.303836 
L 135.967559 52.671943 
L 135.962381 50.040049 
L 135.967165 47.408156 
L 135.979798 44.776263 
L 135.995248 42.144369 
L 136.008742 39.512476 
L 136.017963 36.880583 
L 136.035363 36.880583 
L 136.035363 36.880583 
L 136.044584 39.512476 
L 136.058078 42.144369 
L 136.073528 44.776263 
L 136.086161 47.408156 
L 136.090945 50.040049 
L 136.085767 52.671943 
L 136.072909 55.303836 
L 136.057457 57.935729 
L 136.044113 60.567623 
L 136.035078 63.199516 
L 136.030117 65.83141 
L 136.027869 68.463303 
L 136.027021 71.095196 
L 136.026754 73.72709 
L 136.026682 76.358983 
L 136.026666 78.990876 
L 136.026663 81.62277 
L 136.026663 84.254663 
L 136.026663 86.886557 
L 136.026663 89.51845 
L 136.026663 92.150343 
L 136.026663 94.782237 
L 136.026663 97.41413 
L 136.026663 100.046023 
L 136.026664 102.677917 
L 136.02667 105.30981 
L 136.026697 107.941703 
L 136.026813 110.573597 
L 136.027225 113.20549 
L 136.028456 115.837384 
L 136.031538 118.469277 
L 136.037993 121.10117 
L 136.049249 123.733064 
L 136.065529 126.364957 
L 136.085057 128.99685 
L 136.104798 131.628744 
L 136.122758 134.260637 
L 136.140022 136.89253 
L 136.160299 139.524424 
L 136.186771 142.156317 
L 136.218363 144.788211 
L 136.248508 147.420104 
L 136.268463 150.051997 
L 136.274037 152.683891 
L 136.27027 155.315784 
L 136.268547 157.947677 
L 136.277521 160.579571 
L 136.296512 163.211464 
L 136.318189 165.843358 
L 136.337556 168.475251 
L 136.357867 171.107144 
L 136.388205 173.739038 
L 136.436617 176.370931 
L 136.506054 179.002824 
L 136.595016 181.634718 
L 136.69911 184.266611 
L 136.811537 186.898504 
L 136.925803 189.530398 
L 137.043255 192.162291 
L 137.180606 194.794185 
L 137.368025 197.426078 
L 137.63428 200.057971 
L 137.988198 202.689865 
L 138.412211 205.321758 
L 138.87507 207.953651 
L 139.353532 210.585545 
L 139.843723 213.217438 
L 140.352155 215.849331 
L 140.877251 218.481225 
L 141.40414 221.113118 
L 141.92147 223.745012 
L 142.440418 226.376905 
L 142.990503 229.008798 
L 143.596765 231.640692 
L 144.268242 234.272585 
L 145.009741 236.904478 
L 145.832348 239.536372 
L 146.737869 242.168265 
L 147.691552 244.800159 
L 148.62144 247.432052 
L 149.455325 250.063945 
L 150.160069 252.695839 
L 150.743339 255.327732 
L 151.221494 257.959625 
L 151.59345 260.591519 
L 151.845068 263.223412 
L 151.966391 265.855305 
L 151.949389 268.487199 
L 151.75959 271.119092 
L 151.306824 273.750986 
L 150.449053 276.382879 
L 149.049009 279.014772 
L 147.071459 281.646666 
L 144.664972 284.278559 
L 142.152936 286.910452 
L 139.910822 289.542346 
L 138.203412 292.174239 
L 137.095565 294.806132 
L 136.483565 297.438026 
L 136.483565 297.438026 
z
" clip-path="url(#p8821b118f7)" style="fill: none; stroke: #000000"/>
   </g>
   <g id="matplotlib.axis_1">
    <g id="xtick_1">
     <g id="line2d_1">
      <defs>
       <path id="m7d9d8025ee" d="M 0 0 
L 0 3.5 
" style="stroke: #000000; stroke-width: 0.8"/>
      </defs>
      <g>
       <use xlink:href="#m7d9d8025ee" x="56.328025" y="294.671635" style="stroke: #000000; stroke-width: 0.8"/>
      </g>
     </g>
     <g id="text_1">
      <!-- CT -->
      <g transform="translate(59.0874 314.76226) rotate(-90) scale(0.1 -0.1)">
       <defs>
        <path id="DejaVuSans-43" d="M 4122 4306 
L 4122 3641 
Q 3803 3938 3442 4084 
Q 3081 4231 2675 4231 
Q 1875 4231 1450 3742 
Q 1025 3253 1025 2328 
Q 1025 1406 1450 917 
Q 1875 428 2675 428 
Q 3081 428 3442 575 
Q 3803 722 4122 1019 
L 4122 359 
Q 3791 134 3420 21 
Q 3050 -91 2638 -91 
Q 1578 -91 968 557 
Q 359 1206 359 2328 
Q 359 3453 968 4101 
Q 1578 4750 2638 4750 
Q 3056 4750 3426 4639 
Q 3797 4528 4122 4306 
z
" transform="scale(0.015625)"/>
        <path id="DejaVuSans-54" d="M -19 4666 
L 3928 4666 
L 3928 4134 
L 2272 4134 
L 2272 0 
L 1638 0 
L 1638 4134 
L -19 4134 
L -19 4666 
z
" transform="scale(0.015625)"/>
       </defs>
       <use xlink:href="#DejaVuSans-43"/>
       <use xlink:href="#DejaVuSans-54" x="69.824219"/>
      </g>
     </g>
    </g>
    <g id="xtick_2">
     <g id="line2d_2">
      <g>
       <use xlink:href="#m7d9d8025ee" x="96.177344" y="294.671635" style="stroke: #000000; stroke-width: 0.8"/>
      </g>
     </g>
     <g id="text_2">
      <!-- ARS -->
      <g transform="translate(98.936719 321.809135) rotate(-90) scale(0.1 -0.1)">
       <defs>
        <path id="DejaVuSans-41" d="M 2188 4044 
L 1331 1722 
L 3047 1722 
L 2188 4044 
z
M 1831 4666 
L 2547 4666 
L 4325 0 
L 3669 0 
L 3244 1197 
L 1141 1197 
L 716 0 
L 50 0 
L 1831 4666 
z
" transform="scale(0.015625)"/>
        <path id="DejaVuSans-52" d="M 2841 2188 
Q 3044 2119 3236 1894 
Q 3428 1669 3622 1275 
L 4263 0 
L 3584 0 
L 2988 1197 
Q 2756 1666 2539 1819 
Q 2322 1972 1947 1972 
L 1259 1972 
L 1259 0 
L 628 0 
L 628 4666 
L 2053 4666 
Q 2853 4666 3247 4331 
Q 3641 3997 3641 3322 
Q 3641 2881 3436 2590 
Q 3231 2300 2841 2188 
z
M 1259 4147 
L 1259 2491 
L 2053 2491 
Q 2509 2491 2742 2702 
Q 2975 2913 2975 3322 
Q 2975 3731 2742 3939 
Q 2509 4147 2053 4147 
L 1259 4147 
z
" transform="scale(0.015625)"/>
        <path id="DejaVuSans-53" d="M 3425 4513 
L 3425 3897 
Q 3066 4069 2747 4153 
Q 2428 4238 2131 4238 
Q 1616 4238 1336 4038 
Q 1056 3838 1056 3469 
Q 1056 3159 1242 3001 
Q 1428 2844 1947 2747 
L 2328 2669 
Q 3034 2534 3370 2195 
Q 3706 1856 3706 1288 
Q 3706 609 3251 259 
Q 2797 -91 1919 -91 
Q 1588 -91 1214 -16 
Q 841 59 441 206 
L 441 856 
Q 825 641 1194 531 
Q 1563 422 1919 422 
Q 2459 422 2753 634 
Q 3047 847 3047 1241 
Q 3047 1584 2836 1778 
Q 2625 1972 2144 2069 
L 1759 2144 
Q 1053 2284 737 2584 
Q 422 2884 422 3419 
Q 422 4038 858 4394 
Q 1294 4750 2059 4750 
Q 2388 4750 2728 4690 
Q 3069 4631 3425 4513 
z
" transform="scale(0.015625)"/>
       </defs>
       <use xlink:href="#DejaVuSans-41"/>
       <use xlink:href="#DejaVuSans-52" x="68.408203"/>
       <use xlink:href="#DejaVuSans-53" x="137.890625"/>
      </g>
     </g>
    </g>
    <g id="xtick_3">
     <g id="line2d_3">
      <g>
       <use xlink:href="#m7d9d8025ee" x="136.026663" y="294.671635" style="stroke: #000000; stroke-width: 0.8"/>
      </g>
     </g>
     <g id="text_3">
      <!-- GLU-40min -->
      <g transform="translate(138.786038 356.99976) rotate(-90) scale(0.1 -0.1)">
       <defs>
        <path id="DejaVuSans-47" d="M 3809 666 
L 3809 1919 
L 2778 1919 
L 2778 2438 
L 4434 2438 
L 4434 434 
Q 4069 175 3628 42 
Q 3188 -91 2688 -91 
Q 1594 -91 976 548 
Q 359 1188 359 2328 
Q 359 3472 976 4111 
Q 1594 4750 2688 4750 
Q 3144 4750 3555 4637 
Q 3966 4525 4313 4306 
L 4313 3634 
Q 3963 3931 3569 4081 
Q 3175 4231 2741 4231 
Q 1884 4231 1454 3753 
Q 1025 3275 1025 2328 
Q 1025 1384 1454 906 
Q 1884 428 2741 428 
Q 3075 428 3337 486 
Q 3600 544 3809 666 
z
" transform="scale(0.015625)"/>
        <path id="DejaVuSans-4c" d="M 628 4666 
L 1259 4666 
L 1259 531 
L 3531 531 
L 3531 0 
L 628 0 
L 628 4666 
z
" transform="scale(0.015625)"/>
        <path id="DejaVuSans-55" d="M 556 4666 
L 1191 4666 
L 1191 1831 
Q 1191 1081 1462 751 
Q 1734 422 2344 422 
Q 2950 422 3222 751 
Q 3494 1081 3494 1831 
L 3494 4666 
L 4128 4666 
L 4128 1753 
Q 4128 841 3676 375 
Q 3225 -91 2344 -91 
Q 1459 -91 1007 375 
Q 556 841 556 1753 
L 556 4666 
z
" transform="scale(0.015625)"/>
        <path id="DejaVuSans-2d" d="M 313 2009 
L 1997 2009 
L 1997 1497 
L 313 1497 
L 313 2009 
z
" transform="scale(0.015625)"/>
        <path id="DejaVuSans-34" d="M 2419 4116 
L 825 1625 
L 2419 1625 
L 2419 4116 
z
M 2253 4666 
L 3047 4666 
L 3047 1625 
L 3713 1625 
L 3713 1100 
L 3047 1100 
L 3047 0 
L 2419 0 
L 2419 1100 
L 313 1100 
L 313 1709 
L 2253 4666 
z
" transform="scale(0.015625)"/>
        <path id="DejaVuSans-30" d="M 2034 4250 
Q 1547 4250 1301 3770 
Q 1056 3291 1056 2328 
Q 1056 1369 1301 889 
Q 1547 409 2034 409 
Q 2525 409 2770 889 
Q 3016 1369 3016 2328 
Q 3016 3291 2770 3770 
Q 2525 4250 2034 4250 
z
M 2034 4750 
Q 2819 4750 3233 4129 
Q 3647 3509 3647 2328 
Q 3647 1150 3233 529 
Q 2819 -91 2034 -91 
Q 1250 -91 836 529 
Q 422 1150 422 2328 
Q 422 3509 836 4129 
Q 1250 4750 2034 4750 
z
" transform="scale(0.015625)"/>
        <path id="DejaVuSans-6d" d="M 3328 2828 
Q 3544 3216 3844 3400 
Q 4144 3584 4550 3584 
Q 5097 3584 5394 3201 
Q 5691 2819 5691 2113 
L 5691 0 
L 5113 0 
L 5113 2094 
Q 5113 2597 4934 2840 
Q 4756 3084 4391 3084 
Q 3944 3084 3684 2787 
Q 3425 2491 3425 1978 
L 3425 0 
L 2847 0 
L 2847 2094 
Q 2847 2600 2669 2842 
Q 2491 3084 2119 3084 
Q 1678 3084 1418 2786 
Q 1159 2488 1159 1978 
L 1159 0 
L 581 0 
L 581 3500 
L 1159 3500 
L 1159 2956 
Q 1356 3278 1631 3431 
Q 1906 3584 2284 3584 
Q 2666 3584 2933 3390 
Q 3200 3197 3328 2828 
z
" transform="scale(0.015625)"/>
        <path id="DejaVuSans-69" d="M 603 3500 
L 1178 3500 
L 1178 0 
L 603 0 
L 603 3500 
z
M 603 4863 
L 1178 4863 
L 1178 4134 
L 603 4134 
L 603 4863 
z
" transform="scale(0.015625)"/>
        <path id="DejaVuSans-6e" d="M 3513 2113 
L 3513 0 
L 2938 0 
L 2938 2094 
Q 2938 2591 2744 2837 
Q 2550 3084 2163 3084 
Q 1697 3084 1428 2787 
Q 1159 2491 1159 1978 
L 1159 0 
L 581 0 
L 581 3500 
L 1159 3500 
L 1159 2956 
Q 1366 3272 1645 3428 
Q 1925 3584 2291 3584 
Q 2894 3584 3203 3211 
Q 3513 2838 3513 2113 
z
" transform="scale(0.015625)"/>
       </defs>
       <use xlink:href="#DejaVuSans-47"/>
       <use xlink:href="#DejaVuSans-4c" x="77.490234"/>
       <use xlink:href="#DejaVuSans-55" x="128.203125"/>
       <use xlink:href="#DejaVuSans-2d" x="201.396484"/>
       <use xlink:href="#DejaVuSans-34" x="237.480469"/>
       <use xlink:href="#DejaVuSans-30" x="301.103516"/>
       <use xlink:href="#DejaVuSans-6d" x="364.726562"/>
       <use xlink:href="#DejaVuSans-69" x="462.138672"/>
       <use xlink:href="#DejaVuSans-6e" x="489.921875"/>
      </g>
     </g>
    </g>
   </g>
   <g id="matplotlib.axis_2">
    <g id="ytick_1">
     <g id="line2d_4">
      <path d="M 36.403365 294.671635 
L 155.951323 294.671635 
" clip-path="url(#p8821b118f7)" style="fill: none; stroke: #b0b0b0; stroke-width: 0.2; stroke-linecap: square"/>
     </g>
     <g id="line2d_5">
      <defs>
       <path id="m2b67f479a0" d="M 0 0 
L -3.5 0 
" style="stroke: #000000; stroke-width: 0.8"/>
      </defs>
      <g>
       <use xlink:href="#m2b67f479a0" x="36.403365" y="294.671635" style="stroke: #000000; stroke-width: 0.8"/>
      </g>
     </g>
     <g id="text_4">
      <!-- 0 -->
      <g transform="translate(23.040865 298.470854) scale(0.1 -0.1)">
       <use xlink:href="#DejaVuSans-30"/>
      </g>
     </g>
    </g>
    <g id="ytick_2">
     <g id="line2d_6">
      <path d="M 36.403365 273.398307 
L 155.951323 273.398307 
" clip-path="url(#p8821b118f7)" style="fill: none; stroke: #b0b0b0; stroke-width: 0.2; stroke-linecap: square"/>
     </g>
     <g id="line2d_7">
      <g>
       <use xlink:href="#m2b67f479a0" x="36.403365" y="273.398307" style="stroke: #000000; stroke-width: 0.8"/>
      </g>
     </g>
     <g id="text_5">
      <!-- 1 -->
      <g transform="translate(23.040865 277.197525) scale(0.1 -0.1)">
       <defs>
        <path id="DejaVuSans-31" d="M 794 531 
L 1825 531 
L 1825 4091 
L 703 3866 
L 703 4441 
L 1819 4666 
L 2450 4666 
L 2450 531 
L 3481 531 
L 3481 0 
L 794 0 
L 794 531 
z
" transform="scale(0.015625)"/>
       </defs>
       <use xlink:href="#DejaVuSans-31"/>
      </g>
     </g>
    </g>
    <g id="ytick_3">
     <g id="line2d_8">
      <path d="M 36.403365 252.124978 
L 155.951323 252.124978 
" clip-path="url(#p8821b118f7)" style="fill: none; stroke: #b0b0b0; stroke-width: 0.2; stroke-linecap: square"/>
     </g>
     <g id="line2d_9">
      <g>
       <use xlink:href="#m2b67f479a0" x="36.403365" y="252.124978" style="stroke: #000000; stroke-width: 0.8"/>
      </g>
     </g>
     <g id="text_6">
      <!-- 2 -->
      <g transform="translate(23.040865 255.924197) scale(0.1 -0.1)">
       <defs>
        <path id="DejaVuSans-32" d="M 1228 531 
L 3431 531 
L 3431 0 
L 469 0 
L 469 531 
Q 828 903 1448 1529 
Q 2069 2156 2228 2338 
Q 2531 2678 2651 2914 
Q 2772 3150 2772 3378 
Q 2772 3750 2511 3984 
Q 2250 4219 1831 4219 
Q 1534 4219 1204 4116 
Q 875 4013 500 3803 
L 500 4441 
Q 881 4594 1212 4672 
Q 1544 4750 1819 4750 
Q 2544 4750 2975 4387 
Q 3406 4025 3406 3419 
Q 3406 3131 3298 2873 
Q 3191 2616 2906 2266 
Q 2828 2175 2409 1742 
Q 1991 1309 1228 531 
z
" transform="scale(0.015625)"/>
       </defs>
       <use xlink:href="#DejaVuSans-32"/>
      </g>
     </g>
    </g>
    <g id="ytick_4">
     <g id="line2d_10">
      <path d="M 36.403365 230.85165 
L 155.951323 230.85165 
" clip-path="url(#p8821b118f7)" style="fill: none; stroke: #b0b0b0; stroke-width: 0.2; stroke-linecap: square"/>
     </g>
     <g id="line2d_11">
      <g>
       <use xlink:href="#m2b67f479a0" x="36.403365" y="230.85165" style="stroke: #000000; stroke-width: 0.8"/>
      </g>
     </g>
     <g id="text_7">
      <!-- 3 -->
      <g transform="translate(23.040865 234.650868) scale(0.1 -0.1)">
       <defs>
        <path id="DejaVuSans-33" d="M 2597 2516 
Q 3050 2419 3304 2112 
Q 3559 1806 3559 1356 
Q 3559 666 3084 287 
Q 2609 -91 1734 -91 
Q 1441 -91 1130 -33 
Q 819 25 488 141 
L 488 750 
Q 750 597 1062 519 
Q 1375 441 1716 441 
Q 2309 441 2620 675 
Q 2931 909 2931 1356 
Q 2931 1769 2642 2001 
Q 2353 2234 1838 2234 
L 1294 2234 
L 1294 2753 
L 1863 2753 
Q 2328 2753 2575 2939 
Q 2822 3125 2822 3475 
Q 2822 3834 2567 4026 
Q 2313 4219 1838 4219 
Q 1578 4219 1281 4162 
Q 984 4106 628 3988 
L 628 4550 
Q 988 4650 1302 4700 
Q 1616 4750 1894 4750 
Q 2613 4750 3031 4423 
Q 3450 4097 3450 3541 
Q 3450 3153 3228 2886 
Q 3006 2619 2597 2516 
z
" transform="scale(0.015625)"/>
       </defs>
       <use xlink:href="#DejaVuSans-33"/>
      </g>
     </g>
    </g>
    <g id="ytick_5">
     <g id="line2d_12">
      <path d="M 36.403365 209.578321 
L 155.951323 209.578321 
" clip-path="url(#p8821b118f7)" style="fill: none; stroke: #b0b0b0; stroke-width: 0.2; stroke-linecap: square"/>
     </g>
     <g id="line2d_13">
      <g>
       <use xlink:href="#m2b67f479a0" x="36.403365" y="209.578321" style="stroke: #000000; stroke-width: 0.8"/>
      </g>
     </g>
     <g id="text_8">
      <!-- 4 -->
      <g transform="translate(23.040865 213.37754) scale(0.1 -0.1)">
       <use xlink:href="#DejaVuSans-34"/>
      </g>
     </g>
    </g>
    <g id="ytick_6">
     <g id="line2d_14">
      <path d="M 36.403365 188.304993 
L 155.951323 188.304993 
" clip-path="url(#p8821b118f7)" style="fill: none; stroke: #b0b0b0; stroke-width: 0.2; stroke-linecap: square"/>
     </g>
     <g id="line2d_15">
      <g>
       <use xlink:href="#m2b67f479a0" x="36.403365" y="188.304993" style="stroke: #000000; stroke-width: 0.8"/>
      </g>
     </g>
     <g id="text_9">
      <!-- 5 -->
      <g transform="translate(23.040865 192.104211) scale(0.1 -0.1)">
       <defs>
        <path id="DejaVuSans-35" d="M 691 4666 
L 3169 4666 
L 3169 4134 
L 1269 4134 
L 1269 2991 
Q 1406 3038 1543 3061 
Q 1681 3084 1819 3084 
Q 2600 3084 3056 2656 
Q 3513 2228 3513 1497 
Q 3513 744 3044 326 
Q 2575 -91 1722 -91 
Q 1428 -91 1123 -41 
Q 819 9 494 109 
L 494 744 
Q 775 591 1075 516 
Q 1375 441 1709 441 
Q 2250 441 2565 725 
Q 2881 1009 2881 1497 
Q 2881 1984 2565 2268 
Q 2250 2553 1709 2553 
Q 1456 2553 1204 2497 
Q 953 2441 691 2322 
L 691 4666 
z
" transform="scale(0.015625)"/>
       </defs>
       <use xlink:href="#DejaVuSans-35"/>
      </g>
     </g>
    </g>
    <g id="ytick_7">
     <g id="line2d_16">
      <path d="M 36.403365 167.031664 
L 155.951323 167.031664 
" clip-path="url(#p8821b118f7)" style="fill: none; stroke: #b0b0b0; stroke-width: 0.2; stroke-linecap: square"/>
     </g>
     <g id="line2d_17">
      <g>
       <use xlink:href="#m2b67f479a0" x="36.403365" y="167.031664" style="stroke: #000000; stroke-width: 0.8"/>
      </g>
     </g>
     <g id="text_10">
      <!-- 6 -->
      <g transform="translate(23.040865 170.830883) scale(0.1 -0.1)">
       <defs>
        <path id="DejaVuSans-36" d="M 2113 2584 
Q 1688 2584 1439 2293 
Q 1191 2003 1191 1497 
Q 1191 994 1439 701 
Q 1688 409 2113 409 
Q 2538 409 2786 701 
Q 3034 994 3034 1497 
Q 3034 2003 2786 2293 
Q 2538 2584 2113 2584 
z
M 3366 4563 
L 3366 3988 
Q 3128 4100 2886 4159 
Q 2644 4219 2406 4219 
Q 1781 4219 1451 3797 
Q 1122 3375 1075 2522 
Q 1259 2794 1537 2939 
Q 1816 3084 2150 3084 
Q 2853 3084 3261 2657 
Q 3669 2231 3669 1497 
Q 3669 778 3244 343 
Q 2819 -91 2113 -91 
Q 1303 -91 875 529 
Q 447 1150 447 2328 
Q 447 3434 972 4092 
Q 1497 4750 2381 4750 
Q 2619 4750 2861 4703 
Q 3103 4656 3366 4563 
z
" transform="scale(0.015625)"/>
       </defs>
       <use xlink:href="#DejaVuSans-36"/>
      </g>
     </g>
    </g>
    <g id="ytick_8">
     <g id="line2d_18">
      <path d="M 36.403365 145.758336 
L 155.951323 145.758336 
" clip-path="url(#p8821b118f7)" style="fill: none; stroke: #b0b0b0; stroke-width: 0.2; stroke-linecap: square"/>
     </g>
     <g id="line2d_19">
      <g>
       <use xlink:href="#m2b67f479a0" x="36.403365" y="145.758336" style="stroke: #000000; stroke-width: 0.8"/>
      </g>
     </g>
     <g id="text_11">
      <!-- 7 -->
      <g transform="translate(23.040865 149.557555) scale(0.1 -0.1)">
       <defs>
        <path id="DejaVuSans-37" d="M 525 4666 
L 3525 4666 
L 3525 4397 
L 1831 0 
L 1172 0 
L 2766 4134 
L 525 4134 
L 525 4666 
z
" transform="scale(0.015625)"/>
       </defs>
       <use xlink:href="#DejaVuSans-37"/>
      </g>
     </g>
    </g>
    <g id="ytick_9">
     <g id="line2d_20">
      <path d="M 36.403365 124.485007 
L 155.951323 124.485007 
" clip-path="url(#p8821b118f7)" style="fill: none; stroke: #b0b0b0; stroke-width: 0.2; stroke-linecap: square"/>
     </g>
     <g id="line2d_21">
      <g>
       <use xlink:href="#m2b67f479a0" x="36.403365" y="124.485007" style="stroke: #000000; stroke-width: 0.8"/>
      </g>
     </g>
     <g id="text_12">
      <!-- 8 -->
      <g transform="translate(23.040865 128.284226) scale(0.1 -0.1)">
       <defs>
        <path id="DejaVuSans-38" d="M 2034 2216 
Q 1584 2216 1326 1975 
Q 1069 1734 1069 1313 
Q 1069 891 1326 650 
Q 1584 409 2034 409 
Q 2484 409 2743 651 
Q 3003 894 3003 1313 
Q 3003 1734 2745 1975 
Q 2488 2216 2034 2216 
z
M 1403 2484 
Q 997 2584 770 2862 
Q 544 3141 544 3541 
Q 544 4100 942 4425 
Q 1341 4750 2034 4750 
Q 2731 4750 3128 4425 
Q 3525 4100 3525 3541 
Q 3525 3141 3298 2862 
Q 3072 2584 2669 2484 
Q 3125 2378 3379 2068 
Q 3634 1759 3634 1313 
Q 3634 634 3220 271 
Q 2806 -91 2034 -91 
Q 1263 -91 848 271 
Q 434 634 434 1313 
Q 434 1759 690 2068 
Q 947 2378 1403 2484 
z
M 1172 3481 
Q 1172 3119 1398 2916 
Q 1625 2713 2034 2713 
Q 2441 2713 2670 2916 
Q 2900 3119 2900 3481 
Q 2900 3844 2670 4047 
Q 2441 4250 2034 4250 
Q 1625 4250 1398 4047 
Q 1172 3844 1172 3481 
z
" transform="scale(0.015625)"/>
       </defs>
       <use xlink:href="#DejaVuSans-38"/>
      </g>
     </g>
    </g>
    <g id="ytick_10">
     <g id="line2d_22">
      <path d="M 36.403365 103.211679 
L 155.951323 103.211679 
" clip-path="url(#p8821b118f7)" style="fill: none; stroke: #b0b0b0; stroke-width: 0.2; stroke-linecap: square"/>
     </g>
     <g id="line2d_23">
      <g>
       <use xlink:href="#m2b67f479a0" x="36.403365" y="103.211679" style="stroke: #000000; stroke-width: 0.8"/>
      </g>
     </g>
     <g id="text_13">
      <!-- 9 -->
      <g transform="translate(23.040865 107.010898) scale(0.1 -0.1)">
       <defs>
        <path id="DejaVuSans-39" d="M 703 97 
L 703 672 
Q 941 559 1184 500 
Q 1428 441 1663 441 
Q 2288 441 2617 861 
Q 2947 1281 2994 2138 
Q 2813 1869 2534 1725 
Q 2256 1581 1919 1581 
Q 1219 1581 811 2004 
Q 403 2428 403 3163 
Q 403 3881 828 4315 
Q 1253 4750 1959 4750 
Q 2769 4750 3195 4129 
Q 3622 3509 3622 2328 
Q 3622 1225 3098 567 
Q 2575 -91 1691 -91 
Q 1453 -91 1209 -44 
Q 966 3 703 97 
z
M 1959 2075 
Q 2384 2075 2632 2365 
Q 2881 2656 2881 3163 
Q 2881 3666 2632 3958 
Q 2384 4250 1959 4250 
Q 1534 4250 1286 3958 
Q 1038 3666 1038 3163 
Q 1038 2656 1286 2365 
Q 1534 2075 1959 2075 
z
" transform="scale(0.015625)"/>
       </defs>
       <use xlink:href="#DejaVuSans-39"/>
      </g>
     </g>
    </g>
    <g id="ytick_11">
     <g id="line2d_24">
      <path d="M 36.403365 81.93835 
L 155.951323 81.93835 
" clip-path="url(#p8821b118f7)" style="fill: none; stroke: #b0b0b0; stroke-width: 0.2; stroke-linecap: square"/>
     </g>
     <g id="line2d_25">
      <g>
       <use xlink:href="#m2b67f479a0" x="36.403365" y="81.93835" style="stroke: #000000; stroke-width: 0.8"/>
      </g>
     </g>
     <g id="text_14">
      <!-- 10 -->
      <g transform="translate(16.678365 85.737569) scale(0.1 -0.1)">
       <use xlink:href="#DejaVuSans-31"/>
       <use xlink:href="#DejaVuSans-30" x="63.623047"/>
      </g>
     </g>
    </g>
    <g id="ytick_12">
     <g id="line2d_26">
      <path d="M 36.403365 60.665022 
L 155.951323 60.665022 
" clip-path="url(#p8821b118f7)" style="fill: none; stroke: #b0b0b0; stroke-width: 0.2; stroke-linecap: square"/>
     </g>
     <g id="line2d_27">
      <g>
       <use xlink:href="#m2b67f479a0" x="36.403365" y="60.665022" style="stroke: #000000; stroke-width: 0.8"/>
      </g>
     </g>
     <g id="text_15">
      <!-- 11 -->
      <g transform="translate(16.678365 64.464241) scale(0.1 -0.1)">
       <use xlink:href="#DejaVuSans-31"/>
       <use xlink:href="#DejaVuSans-31" x="63.623047"/>
      </g>
     </g>
    </g>
    <g id="ytick_13">
     <g id="line2d_28">
      <path d="M 36.403365 39.391693 
L 155.951323 39.391693 
" clip-path="url(#p8821b118f7)" style="fill: none; stroke: #b0b0b0; stroke-width: 0.2; stroke-linecap: square"/>
     </g>
     <g id="line2d_29">
      <g>
       <use xlink:href="#m2b67f479a0" x="36.403365" y="39.391693" style="stroke: #000000; stroke-width: 0.8"/>
      </g>
     </g>
     <g id="text_16">
      <!-- 12 -->
      <g transform="translate(16.678365 43.190912) scale(0.1 -0.1)">
       <use xlink:href="#DejaVuSans-31"/>
       <use xlink:href="#DejaVuSans-32" x="63.623047"/>
      </g>
     </g>
    </g>
    <g id="ytick_14">
     <g id="line2d_30">
      <path d="M 36.403365 18.118365 
L 155.951323 18.118365 
" clip-path="url(#p8821b118f7)" style="fill: none; stroke: #b0b0b0; stroke-width: 0.2; stroke-linecap: square"/>
     </g>
     <g id="line2d_31">
      <g>
       <use xlink:href="#m2b67f479a0" x="36.403365" y="18.118365" style="stroke: #000000; stroke-width: 0.8"/>
      </g>
     </g>
     <g id="text_17">
      <!-- 13 -->
      <g transform="translate(16.678365 21.917584) scale(0.1 -0.1)">
       <use xlink:href="#DejaVuSans-31"/>
       <use xlink:href="#DejaVuSans-33" x="63.623047"/>
      </g>
     </g>
    </g>
    <g id="text_18">
     <!-- Area -->
     <g transform="translate(10.598677 167.898906) rotate(-90) scale(0.1 -0.1)">
      <defs>
       <path id="DejaVuSans-72" d="M 2631 2963 
Q 2534 3019 2420 3045 
Q 2306 3072 2169 3072 
Q 1681 3072 1420 2755 
Q 1159 2438 1159 1844 
L 1159 0 
L 581 0 
L 581 3500 
L 1159 3500 
L 1159 2956 
Q 1341 3275 1631 3429 
Q 1922 3584 2338 3584 
Q 2397 3584 2469 3576 
Q 2541 3569 2628 3553 
L 2631 2963 
z
" transform="scale(0.015625)"/>
       <path id="DejaVuSans-65" d="M 3597 1894 
L 3597 1613 
L 953 1613 
Q 991 1019 1311 708 
Q 1631 397 2203 397 
Q 2534 397 2845 478 
Q 3156 559 3463 722 
L 3463 178 
Q 3153 47 2828 -22 
Q 2503 -91 2169 -91 
Q 1331 -91 842 396 
Q 353 884 353 1716 
Q 353 2575 817 3079 
Q 1281 3584 2069 3584 
Q 2775 3584 3186 3129 
Q 3597 2675 3597 1894 
z
M 3022 2063 
Q 3016 2534 2758 2815 
Q 2500 3097 2075 3097 
Q 1594 3097 1305 2825 
Q 1016 2553 972 2059 
L 3022 2063 
z
" transform="scale(0.015625)"/>
       <path id="DejaVuSans-61" d="M 2194 1759 
Q 1497 1759 1228 1600 
Q 959 1441 959 1056 
Q 959 750 1161 570 
Q 1363 391 1709 391 
Q 2188 391 2477 730 
Q 2766 1069 2766 1631 
L 2766 1759 
L 2194 1759 
z
M 3341 1997 
L 3341 0 
L 2766 0 
L 2766 531 
Q 2569 213 2275 61 
Q 1981 -91 1556 -91 
Q 1019 -91 701 211 
Q 384 513 384 1019 
Q 384 1609 779 1909 
Q 1175 2209 1959 2209 
L 2766 2209 
L 2766 2266 
Q 2766 2663 2505 2880 
Q 2244 3097 1772 3097 
Q 1472 3097 1187 3025 
Q 903 2953 641 2809 
L 641 3341 
Q 956 3463 1253 3523 
Q 1550 3584 1831 3584 
Q 2591 3584 2966 3190 
Q 3341 2797 3341 1997 
z
" transform="scale(0.015625)"/>
      </defs>
      <use xlink:href="#DejaVuSans-41"/>
      <use xlink:href="#DejaVuSans-72" x="68.408203"/>
      <use xlink:href="#DejaVuSans-65" x="107.271484"/>
      <use xlink:href="#DejaVuSans-61" x="168.794922"/>
     </g>
    </g>
   </g>
   <g id="line2d_32">
    <path d="M 56.328025 284.332797 
L 56.328025 241.598935 
" clip-path="url(#p8821b118f7)" style="fill: none; stroke: #000000; stroke-width: 1.5; stroke-linecap: square"/>
   </g>
   <g id="line2d_33">
    <path d="M 56.328025 280.197262 
L 56.328025 264.689006 
" clip-path="url(#p8821b118f7)" style="fill: none; stroke: #000000; stroke-width: 4.5; stroke-linecap: square"/>
   </g>
   <g id="line2d_34">
    <path d="M 56.328025 274.338588 
" clip-path="url(#p8821b118f7)" style="fill: none; stroke: #000000; stroke-width: 1.5; stroke-linecap: square"/>
    <defs>
     <path id="m99d0bae649" d="M 1.875 0 
L -1.875 -0 
" style="stroke: #ffffff; stroke-width: 0.9"/>
    </defs>
    <g clip-path="url(#p8821b118f7)">
     <use xlink:href="#m99d0bae649" x="56.328025" y="274.338588" style="fill: #ffffff; stroke: #ffffff; stroke-width: 0.9"/>
    </g>
   </g>
   <g id="line2d_35">
    <path d="M 96.177344 284.332797 
L 96.177344 213.339446 
" clip-path="url(#p8821b118f7)" style="fill: none; stroke: #000000; stroke-width: 1.5; stroke-linecap: square"/>
   </g>
   <g id="line2d_36">
    <path d="M 96.177344 275.372471 
L 96.177344 249.870005 
" clip-path="url(#p8821b118f7)" style="fill: none; stroke: #000000; stroke-width: 4.5; stroke-linecap: square"/>
   </g>
   <g id="line2d_37">
    <path d="M 96.177344 264.344378 
" clip-path="url(#p8821b118f7)" style="fill: none; stroke: #000000; stroke-width: 1.5; stroke-linecap: square"/>
    <g clip-path="url(#p8821b118f7)">
     <use xlink:href="#m99d0bae649" x="96.177344" y="264.344378" style="fill: #ffffff; stroke: #ffffff; stroke-width: 0.9"/>
    </g>
   </g>
   <g id="line2d_38">
    <path d="M 136.026663 284.332797 
L 136.026663 193.351026 
" clip-path="url(#p8821b118f7)" style="fill: none; stroke: #000000; stroke-width: 1.5; stroke-linecap: square"/>
   </g>
   <g id="line2d_39">
    <path d="M 136.026663 271.236936 
L 136.026663 238.841912 
" clip-path="url(#p8821b118f7)" style="fill: none; stroke: #000000; stroke-width: 4.5; stroke-linecap: square"/>
   </g>
   <g id="line2d_40">
    <path d="M 136.026663 256.762564 
" clip-path="url(#p8821b118f7)" style="fill: none; stroke: #000000; stroke-width: 1.5; stroke-linecap: square"/>
    <g clip-path="url(#p8821b118f7)">
     <use xlink:href="#m99d0bae649" x="136.026663" y="256.762564" style="fill: #ffffff; stroke: #ffffff; stroke-width: 0.9"/>
    </g>
   </g>
   <g id="patch_3">
    <path d="M 36.403365 294.671635 
L 36.403365 18.118365 
" style="fill: none; stroke: #000000; stroke-width: 0.8; stroke-linejoin: miter; stroke-linecap: square"/>
   </g>
   <g id="patch_4">
    <path d="M 155.951323 294.671635 
L 155.951323 18.118365 
" style="fill: none; stroke: #000000; stroke-width: 0.8; stroke-linejoin: miter; stroke-linecap: square"/>
   </g>
   <g id="patch_5">
    <path d="M 36.403365 294.671635 
L 155.951322 294.671635 
" style="fill: none; stroke: #000000; stroke-width: 0.8; stroke-linejoin: miter; stroke-linecap: square"/>
   </g>
   <g id="patch_6">
    <path d="M 36.403365 18.118365 
L 155.951322 18.118365 
" style="fill: none; stroke: #000000; stroke-width: 0.8; stroke-linejoin: miter; stroke-linecap: square"/>
   </g>
   <g id="text_19">
    <!-- DDX3X WT -->
    <g transform="translate(63.395781 12.118365) scale(0.12 -0.12)">
     <defs>
      <path id="DejaVuSans-44" d="M 1259 4147 
L 1259 519 
L 2022 519 
Q 2988 519 3436 956 
Q 3884 1394 3884 2338 
Q 3884 3275 3436 3711 
Q 2988 4147 2022 4147 
L 1259 4147 
z
M 628 4666 
L 1925 4666 
Q 3281 4666 3915 4102 
Q 4550 3538 4550 2338 
Q 4550 1131 3912 565 
Q 3275 0 1925 0 
L 628 0 
L 628 4666 
z
" transform="scale(0.015625)"/>
      <path id="DejaVuSans-58" d="M 403 4666 
L 1081 4666 
L 2241 2931 
L 3406 4666 
L 4084 4666 
L 2584 2425 
L 4184 0 
L 3506 0 
L 2194 1984 
L 872 0 
L 191 0 
L 1856 2491 
L 403 4666 
z
" transform="scale(0.015625)"/>
      <path id="DejaVuSans-20" transform="scale(0.015625)"/>
      <path id="DejaVuSans-57" d="M 213 4666 
L 850 4666 
L 1831 722 
L 2809 4666 
L 3519 4666 
L 4500 722 
L 5478 4666 
L 6119 4666 
L 4947 0 
L 4153 0 
L 3169 4050 
L 2175 0 
L 1381 0 
L 213 4666 
z
" transform="scale(0.015625)"/>
     </defs>
     <use xlink:href="#DejaVuSans-44"/>
     <use xlink:href="#DejaVuSans-44" x="77.001953"/>
     <use xlink:href="#DejaVuSans-58" x="154.003906"/>
     <use xlink:href="#DejaVuSans-33" x="222.509766"/>
     <use xlink:href="#DejaVuSans-58" x="286.132812"/>
     <use xlink:href="#DejaVuSans-20" x="354.638672"/>
     <use xlink:href="#DejaVuSans-57" x="386.425781"/>
     <use xlink:href="#DejaVuSans-54" x="485.302734"/>
    </g>
   </g>
  </g>
  <g id="axes_2">
   <g id="patch_7">
    <path d="M 165.451802 294.671635 
L 284.99976 294.671635 
L 284.99976 18.118365 
L 165.451802 18.118365 
z
" style="fill: #ffffff"/>
   </g>
   <g id="PolyCollection_4">
    <path d="M 186.175706 292.098199 
L 184.577218 292.098199 
L 184.401575 291.718533 
L 184.197979 291.338866 
L 183.964513 290.9592 
L 183.699663 290.579533 
L 183.402434 290.199867 
L 183.072438 289.8202 
L 182.70997 289.440533 
L 182.316055 289.060867 
L 181.892457 288.6812 
L 181.44165 288.301534 
L 180.96675 287.921867 
L 180.471402 287.542201 
L 179.959635 287.162534 
L 179.435688 286.782867 
L 178.903821 286.403201 
L 178.368122 286.023534 
L 177.832331 285.643868 
L 177.299689 285.264201 
L 176.772833 284.884534 
L 176.253746 284.504868 
L 175.743761 284.125201 
L 175.243641 283.745535 
L 174.753698 283.365868 
L 174.273984 282.986202 
L 173.80449 282.606535 
L 173.34538 282.226868 
L 172.897207 281.847202 
L 172.461099 281.467535 
L 172.038903 281.087869 
L 171.63326 280.708202 
L 171.247607 280.328536 
L 170.886103 279.948869 
L 170.553474 279.569202 
L 170.254803 279.189536 
L 169.995267 278.809869 
L 169.77985 278.430203 
L 169.613051 278.050536 
L 169.498616 277.67087 
L 169.439308 277.291203 
L 169.436734 276.911536 
L 169.491253 276.53187 
L 169.601944 276.152203 
L 169.766661 275.772537 
L 169.982147 275.39287 
L 170.24421 275.013203 
L 170.547927 274.633537 
L 170.887878 274.25387 
L 171.258373 273.874204 
L 171.653677 273.494537 
L 172.068196 273.114871 
L 172.496635 272.735204 
L 172.934112 272.355537 
L 173.376229 271.975871 
L 173.819112 271.596204 
L 174.259408 271.216538 
L 174.694269 270.836871 
L 175.121309 270.457205 
L 175.538565 270.077538 
L 175.944448 269.697871 
L 176.337708 269.318205 
L 176.7174 268.938538 
L 177.082865 268.558872 
L 177.433718 268.179205 
L 177.769845 267.799539 
L 178.0914 267.419872 
L 178.398803 267.040205 
L 178.692737 266.660539 
L 178.974128 266.280872 
L 179.244125 265.901206 
L 179.504066 265.521539 
L 179.755424 265.141872 
L 179.999756 264.762206 
L 180.238633 264.382539 
L 180.473572 264.002873 
L 180.705963 263.623206 
L 180.937005 263.24354 
L 181.167645 262.863873 
L 181.398531 262.484206 
L 181.629978 262.10454 
L 181.861956 261.724873 
L 182.094089 261.345207 
L 182.325683 260.96554 
L 182.555754 260.585874 
L 182.783091 260.206207 
L 183.006311 259.82654 
L 183.223937 259.446874 
L 183.434465 259.067207 
L 183.63644 258.687541 
L 183.828517 258.307874 
L 184.009526 257.928208 
L 184.178507 257.548541 
L 184.334749 257.168874 
L 184.477804 256.789208 
L 184.607489 256.409541 
L 184.72388 256.029875 
L 184.827286 255.650208 
L 184.918227 255.270541 
L 184.997391 254.890875 
L 185.0656 254.511208 
L 185.687324 254.511208 
L 185.687324 254.511208 
L 185.755533 254.890875 
L 185.834697 255.270541 
L 185.925638 255.650208 
L 186.029044 256.029875 
L 186.145435 256.409541 
L 186.27512 256.789208 
L 186.418175 257.168874 
L 186.574417 257.548541 
L 186.743398 257.928208 
L 186.924407 258.307874 
L 187.116485 258.687541 
L 187.318459 259.067207 
L 187.528987 259.446874 
L 187.746613 259.82654 
L 187.969834 260.206207 
L 188.19717 260.585874 
L 188.427242 260.96554 
L 188.658835 261.345207 
L 188.890969 261.724873 
L 189.122946 262.10454 
L 189.354393 262.484206 
L 189.585279 262.863873 
L 189.815919 263.24354 
L 190.046962 263.623206 
L 190.279353 264.002873 
L 190.514291 264.382539 
L 190.753168 264.762206 
L 190.9975 265.141872 
L 191.248858 265.521539 
L 191.508799 265.901206 
L 191.778797 266.280872 
L 192.060187 266.660539 
L 192.354121 267.040205 
L 192.661524 267.419872 
L 192.983079 267.799539 
L 193.319206 268.179205 
L 193.670059 268.558872 
L 194.035524 268.938538 
L 194.415216 269.318205 
L 194.808476 269.697871 
L 195.214359 270.077538 
L 195.631615 270.457205 
L 196.058655 270.836871 
L 196.493516 271.216538 
L 196.933813 271.596204 
L 197.376695 271.975871 
L 197.818812 272.355537 
L 198.256289 272.735204 
L 198.684728 273.114871 
L 199.099247 273.494537 
L 199.494551 273.874204 
L 199.865047 274.25387 
L 200.204997 274.633537 
L 200.508714 275.013203 
L 200.770777 275.39287 
L 200.986263 275.772537 
L 201.15098 276.152203 
L 201.261671 276.53187 
L 201.31619 276.911536 
L 201.313617 277.291203 
L 201.254308 277.67087 
L 201.139873 278.050536 
L 200.973075 278.430203 
L 200.757657 278.809869 
L 200.498121 279.189536 
L 200.19945 279.569202 
L 199.866821 279.948869 
L 199.505317 280.328536 
L 199.119665 280.708202 
L 198.714021 281.087869 
L 198.291825 281.467535 
L 197.855717 281.847202 
L 197.407544 282.226868 
L 196.948434 282.606535 
L 196.478941 282.986202 
L 195.999226 283.365868 
L 195.509284 283.745535 
L 195.009163 284.125201 
L 194.499178 284.504868 
L 193.980091 284.884534 
L 193.453235 285.264201 
L 192.920593 285.643868 
L 192.384802 286.023534 
L 191.849103 286.403201 
L 191.317236 286.782867 
L 190.793289 287.162534 
L 190.281522 287.542201 
L 189.786174 287.921867 
L 189.311274 288.301534 
L 188.860467 288.6812 
L 188.436869 289.060867 
L 188.042954 289.440533 
L 187.680487 289.8202 
L 187.35049 290.199867 
L 187.053261 290.579533 
L 186.788411 290.9592 
L 186.554945 291.338866 
L 186.35135 291.718533 
L 186.175706 292.098199 
L 186.175706 292.098199 
z
" clip-path="url(#pc377cbae2c)" style="fill: none; stroke: #00ffff"/>
   </g>
   <g id="PolyCollection_5">
    <path d="M 225.783733 297.574358 
L 224.667829 297.574358 
L 224.22981 295.816945 
L 223.554755 294.059532 
L 222.58713 292.302119 
L 221.298081 290.544706 
L 219.703838 288.787294 
L 217.87628 287.029881 
L 215.939175 285.272468 
L 214.048254 283.515055 
L 212.359989 281.757642 
L 210.999139 280.000229 
L 210.035898 278.242816 
L 209.479219 276.485404 
L 209.286054 274.727991 
L 209.380426 272.970578 
L 209.674273 271.213165 
L 210.083821 269.455752 
L 210.539082 267.698339 
L 210.987426 265.940927 
L 211.393661 264.183514 
L 211.738794 262.426101 
L 212.018432 260.668688 
L 212.2407 258.911275 
L 212.42315 257.153862 
L 212.588521 255.39645 
L 212.76001 253.639037 
L 212.957413 251.881624 
L 213.19541 250.124211 
L 213.484262 248.366798 
L 213.831753 246.609385 
L 214.244337 244.851973 
L 214.725908 243.09456 
L 215.274329 241.337147 
L 215.877728 239.579734 
L 216.513313 237.822321 
L 217.15044 236.064908 
L 217.757478 234.307496 
L 218.309888 232.550083 
L 218.796193 230.79267 
L 219.219402 229.035257 
L 219.593485 227.277844 
L 219.936636 225.520431 
L 220.264259 223.763019 
L 220.584508 222.005606 
L 220.897835 220.248193 
L 221.200081 218.49078 
L 221.487023 216.733367 
L 221.75787 214.975954 
L 222.016021 213.218542 
L 222.267127 211.461129 
L 222.515955 209.703716 
L 222.764047 207.946303 
L 223.009367 206.18889 
L 223.247777 204.431477 
L 223.475131 202.674064 
L 223.688681 200.916652 
L 223.887187 199.159239 
L 224.070114 197.401826 
L 224.236754 195.644413 
L 224.385968 193.887 
L 224.516667 192.129587 
L 224.62858 190.372175 
L 224.722741 188.614762 
L 224.801324 186.857349 
L 224.866909 185.099936 
L 224.921585 183.342523 
L 224.966404 181.58511 
L 225.001448 179.827698 
L 225.026442 178.070285 
L 225.041553 176.312872 
L 225.04792 174.555459 
L 225.047673 172.798046 
L 225.043442 171.040633 
L 225.037649 169.283221 
L 225.031891 167.525808 
L 225.026695 165.768395 
L 225.02168 164.010982 
L 225.016047 162.253569 
L 225.009199 160.496156 
L 225.001275 158.738744 
L 224.993406 156.981331 
L 224.987575 155.223918 
L 224.986074 153.466505 
L 224.990707 151.709092 
L 225.002026 149.951679 
L 225.018974 148.194267 
L 225.039128 146.436854 
L 225.059533 144.679441 
L 225.077762 142.922028 
L 225.092728 141.164615 
L 225.104883 139.407202 
L 225.115745 137.64979 
L 225.127031 135.892377 
L 225.139839 134.134964 
L 225.154237 132.377551 
L 225.169368 130.620138 
L 225.183917 128.862725 
L 225.196658 127.105313 
L 225.206836 125.3479 
L 225.214272 123.590487 
L 225.23729 123.590487 
L 225.23729 123.590487 
L 225.244727 125.3479 
L 225.254904 127.105313 
L 225.267646 128.862725 
L 225.282195 130.620138 
L 225.297325 132.377551 
L 225.311723 134.134964 
L 225.324531 135.892377 
L 225.335817 137.64979 
L 225.34668 139.407202 
L 225.358835 141.164615 
L 225.373801 142.922028 
L 225.392029 144.679441 
L 225.412435 146.436854 
L 225.432589 148.194267 
L 225.449536 149.951679 
L 225.460856 151.709092 
L 225.465488 153.466505 
L 225.463987 155.223918 
L 225.458156 156.981331 
L 225.450287 158.738744 
L 225.442364 160.496156 
L 225.435516 162.253569 
L 225.429882 164.010982 
L 225.424867 165.768395 
L 225.419671 167.525808 
L 225.413914 169.283221 
L 225.40812 171.040633 
L 225.40389 172.798046 
L 225.403642 174.555459 
L 225.41001 176.312872 
L 225.42512 178.070285 
L 225.450115 179.827698 
L 225.485159 181.58511 
L 225.529978 183.342523 
L 225.584654 185.099936 
L 225.650238 186.857349 
L 225.728822 188.614762 
L 225.822983 190.372175 
L 225.934896 192.129587 
L 226.065594 193.887 
L 226.214809 195.644413 
L 226.381448 197.401826 
L 226.564375 199.159239 
L 226.762881 200.916652 
L 226.976431 202.674064 
L 227.203786 204.431477 
L 227.442195 206.18889 
L 227.687515 207.946303 
L 227.935608 209.703716 
L 228.184436 211.461129 
L 228.435541 213.218542 
L 228.693693 214.975954 
L 228.96454 216.733367 
L 229.251482 218.49078 
L 229.553727 220.248193 
L 229.867055 222.005606 
L 230.187303 223.763019 
L 230.514926 225.520431 
L 230.858077 227.277844 
L 231.232161 229.035257 
L 231.655369 230.79267 
L 232.141675 232.550083 
L 232.694084 234.307496 
L 233.301122 236.064908 
L 233.938249 237.822321 
L 234.573834 239.579734 
L 235.177234 241.337147 
L 235.725655 243.09456 
L 236.207225 244.851973 
L 236.619809 246.609385 
L 236.9673 248.366798 
L 237.256152 250.124211 
L 237.49415 251.881624 
L 237.691553 253.639037 
L 237.863041 255.39645 
L 238.028412 257.153862 
L 238.210862 258.911275 
L 238.43313 260.668688 
L 238.712768 262.426101 
L 239.057902 264.183514 
L 239.464136 265.940927 
L 239.91248 267.698339 
L 240.367742 269.455752 
L 240.777289 271.213165 
L 241.071137 272.970578 
L 241.165509 274.727991 
L 240.972344 276.485404 
L 240.415665 278.242816 
L 239.452423 280.000229 
L 238.091574 281.757642 
L 236.403309 283.515055 
L 234.512388 285.272468 
L 232.575283 287.029881 
L 230.747725 288.787294 
L 229.153481 290.544706 
L 227.864433 292.302119 
L 226.896807 294.059532 
L 226.221752 295.816945 
L 225.783733 297.574358 
L 225.783733 297.574358 
z
" clip-path="url(#pc377cbae2c)" style="fill: none; stroke: #00ffff"/>
   </g>
   <g id="PolyCollection_6">
    <path d="M 265.536622 297.922601 
L 264.613579 297.922601 
L 264.258824 296.192964 
L 263.710598 294.463327 
L 262.916808 292.73369 
L 261.840346 291.004053 
L 260.47396 289.274416 
L 258.852098 287.544778 
L 257.054686 285.815141 
L 255.199608 284.085504 
L 253.424391 282.355867 
L 251.861681 280.62623 
L 250.615605 278.896593 
L 249.745796 277.166955 
L 249.262922 275.437318 
L 249.135373 273.707681 
L 249.30328 271.978044 
L 249.694581 270.248407 
L 250.23847 268.51877 
L 250.873734 266.789132 
L 251.551819 265.059495 
L 252.236173 263.329858 
L 252.899999 261.600221 
L 253.524125 259.870584 
L 254.095808 258.140947 
L 254.608391 256.411309 
L 255.061259 254.681672 
L 255.459475 252.952035 
L 255.812749 251.222398 
L 256.133753 249.492761 
L 256.436052 247.763124 
L 256.732007 246.033487 
L 257.030963 244.303849 
L 257.337908 242.574212 
L 257.65275 240.844575 
L 257.970371 239.114938 
L 258.281626 237.385301 
L 258.575373 235.655664 
L 258.841327 233.926026 
L 259.073113 232.196389 
L 259.270626 230.466752 
L 259.440797 228.737115 
L 259.596316 227.007478 
L 259.752548 225.277841 
L 259.923547 223.548203 
L 260.118449 221.818566 
L 260.339453 220.088929 
L 260.581994 218.359292 
L 260.836951 216.629655 
L 261.093916 214.900018 
L 261.344236 213.17038 
L 261.58271 211.440743 
L 261.807548 209.711106 
L 262.019 207.981469 
L 262.217641 206.251832 
L 262.403279 204.522195 
L 262.574995 202.792557 
L 262.732078 201.06292 
L 262.875167 199.333283 
L 263.006771 197.603646 
L 263.130759 195.874009 
L 263.25097 194.144372 
L 263.369625 192.414735 
L 263.48637 190.685097 
L 263.598469 188.95546 
L 263.702083 187.225823 
L 263.794079 185.496186 
L 263.873525 183.766549 
L 263.942272 182.036912 
L 264.004476 180.307274 
L 264.065339 178.577637 
L 264.129649 176.848 
L 264.20062 175.118363 
L 264.279311 173.388726 
L 264.364629 171.659089 
L 264.453768 169.929451 
L 264.542872 168.199814 
L 264.627771 166.470177 
L 264.704694 164.74054 
L 264.770895 163.010903 
L 264.82508 161.281266 
L 264.867536 159.551628 
L 264.899884 157.821991 
L 264.924515 156.092354 
L 264.943868 154.362717 
L 264.959828 152.63308 
L 264.973436 150.903443 
L 264.984987 149.173805 
L 264.99442 147.444168 
L 265.00176 145.714531 
L 265.00741 143.984894 
L 265.012162 142.255257 
L 265.016956 140.52562 
L 265.022555 138.795982 
L 265.029279 137.066345 
L 265.036936 135.336708 
L 265.044954 133.607071 
L 265.052619 131.877434 
L 265.059318 130.147797 
L 265.064689 128.41816 
L 265.068652 126.688522 
L 265.081549 126.688522 
L 265.081549 126.688522 
L 265.085512 128.41816 
L 265.090883 130.147797 
L 265.097581 131.877434 
L 265.105247 133.607071 
L 265.113265 135.336708 
L 265.120922 137.066345 
L 265.127646 138.795982 
L 265.133245 140.52562 
L 265.138039 142.255257 
L 265.14279 143.984894 
L 265.148441 145.714531 
L 265.155781 147.444168 
L 265.165213 149.173805 
L 265.176765 150.903443 
L 265.190373 152.63308 
L 265.206333 154.362717 
L 265.225686 156.092354 
L 265.250317 157.821991 
L 265.282665 159.551628 
L 265.32512 161.281266 
L 265.379305 163.010903 
L 265.445506 164.74054 
L 265.52243 166.470177 
L 265.607329 168.199814 
L 265.696433 169.929451 
L 265.785572 171.659089 
L 265.87089 173.388726 
L 265.94958 175.118363 
L 266.020552 176.848 
L 266.084862 178.577637 
L 266.145725 180.307274 
L 266.207929 182.036912 
L 266.276676 183.766549 
L 266.356121 185.496186 
L 266.448118 187.225823 
L 266.551732 188.95546 
L 266.66383 190.685097 
L 266.780576 192.414735 
L 266.899231 194.144372 
L 267.019441 195.874009 
L 267.14343 197.603646 
L 267.275034 199.333283 
L 267.418123 201.06292 
L 267.575206 202.792557 
L 267.746922 204.522195 
L 267.93256 206.251832 
L 268.1312 207.981469 
L 268.342653 209.711106 
L 268.567491 211.440743 
L 268.805965 213.17038 
L 269.056284 214.900018 
L 269.31325 216.629655 
L 269.568207 218.359292 
L 269.810748 220.088929 
L 270.031751 221.818566 
L 270.226654 223.548203 
L 270.397653 225.277841 
L 270.553885 227.007478 
L 270.709404 228.737115 
L 270.879574 230.466752 
L 271.077088 232.196389 
L 271.308874 233.926026 
L 271.574828 235.655664 
L 271.868575 237.385301 
L 272.179829 239.114938 
L 272.497451 240.844575 
L 272.812293 242.574212 
L 273.119237 244.303849 
L 273.418194 246.033487 
L 273.714149 247.763124 
L 274.016448 249.492761 
L 274.337452 251.222398 
L 274.690726 252.952035 
L 275.088941 254.681672 
L 275.54181 256.411309 
L 276.054393 258.140947 
L 276.626076 259.870584 
L 277.250202 261.600221 
L 277.914028 263.329858 
L 278.598382 265.059495 
L 279.276467 266.789132 
L 279.911731 268.51877 
L 280.45562 270.248407 
L 280.846921 271.978044 
L 281.014828 273.707681 
L 280.887278 275.437318 
L 280.404405 277.166955 
L 279.534596 278.896593 
L 278.288519 280.62623 
L 276.72581 282.355867 
L 274.950593 284.085504 
L 273.095515 285.815141 
L 271.298103 287.544778 
L 269.676241 289.274416 
L 268.309855 291.004053 
L 267.233393 292.73369 
L 266.439602 294.463327 
L 265.891377 296.192964 
L 265.536622 297.922601 
L 265.536622 297.922601 
z
" clip-path="url(#pc377cbae2c)" style="fill: none; stroke: #00ffff"/>
   </g>
   <g id="matplotlib.axis_3">
    <g id="xtick_4">
     <g id="line2d_41">
      <g>
       <use xlink:href="#m7d9d8025ee" x="185.376462" y="294.671635" style="stroke: #000000; stroke-width: 0.8"/>
      </g>
     </g>
     <g id="text_20">
      <!-- CT -->
      <g transform="translate(188.135837 314.76226) rotate(-90) scale(0.1 -0.1)">
       <use xlink:href="#DejaVuSans-43"/>
       <use xlink:href="#DejaVuSans-54" x="69.824219"/>
      </g>
     </g>
    </g>
    <g id="xtick_5">
     <g id="line2d_42">
      <g>
       <use xlink:href="#m7d9d8025ee" x="225.225781" y="294.671635" style="stroke: #000000; stroke-width: 0.8"/>
      </g>
     </g>
     <g id="text_21">
      <!-- ARS -->
      <g transform="translate(227.985156 321.809135) rotate(-90) scale(0.1 -0.1)">
       <use xlink:href="#DejaVuSans-41"/>
       <use xlink:href="#DejaVuSans-52" x="68.408203"/>
       <use xlink:href="#DejaVuSans-53" x="137.890625"/>
      </g>
     </g>
    </g>
    <g id="xtick_6">
     <g id="line2d_43">
      <g>
       <use xlink:href="#m7d9d8025ee" x="265.0751" y="294.671635" style="stroke: #000000; stroke-width: 0.8"/>
      </g>
     </g>
     <g id="text_22">
      <!-- GLU-40min -->
      <g transform="translate(267.834475 356.99976) rotate(-90) scale(0.1 -0.1)">
       <use xlink:href="#DejaVuSans-47"/>
       <use xlink:href="#DejaVuSans-4c" x="77.490234"/>
       <use xlink:href="#DejaVuSans-55" x="128.203125"/>
       <use xlink:href="#DejaVuSans-2d" x="201.396484"/>
       <use xlink:href="#DejaVuSans-34" x="237.480469"/>
       <use xlink:href="#DejaVuSans-30" x="301.103516"/>
       <use xlink:href="#DejaVuSans-6d" x="364.726562"/>
       <use xlink:href="#DejaVuSans-69" x="462.138672"/>
       <use xlink:href="#DejaVuSans-6e" x="489.921875"/>
      </g>
     </g>
    </g>
   </g>
   <g id="matplotlib.axis_4">
    <g id="ytick_15">
     <g id="line2d_44">
      <path d="M 165.451802 294.671635 
L 284.99976 294.671635 
" clip-path="url(#pc377cbae2c)" style="fill: none; stroke: #b0b0b0; stroke-width: 0.2; stroke-linecap: square"/>
     </g>
     <g id="line2d_45">
      <g>
       <use xlink:href="#m2b67f479a0" x="165.451802" y="294.671635" style="stroke: #000000; stroke-width: 0.8"/>
      </g>
     </g>
    </g>
    <g id="ytick_16">
     <g id="line2d_46">
      <path d="M 165.451802 273.398307 
L 284.99976 273.398307 
" clip-path="url(#pc377cbae2c)" style="fill: none; stroke: #b0b0b0; stroke-width: 0.2; stroke-linecap: square"/>
     </g>
     <g id="line2d_47">
      <g>
       <use xlink:href="#m2b67f479a0" x="165.451802" y="273.398307" style="stroke: #000000; stroke-width: 0.8"/>
      </g>
     </g>
    </g>
    <g id="ytick_17">
     <g id="line2d_48">
      <path d="M 165.451802 252.124978 
L 284.99976 252.124978 
" clip-path="url(#pc377cbae2c)" style="fill: none; stroke: #b0b0b0; stroke-width: 0.2; stroke-linecap: square"/>
     </g>
     <g id="line2d_49">
      <g>
       <use xlink:href="#m2b67f479a0" x="165.451802" y="252.124978" style="stroke: #000000; stroke-width: 0.8"/>
      </g>
     </g>
    </g>
    <g id="ytick_18">
     <g id="line2d_50">
      <path d="M 165.451802 230.85165 
L 284.99976 230.85165 
" clip-path="url(#pc377cbae2c)" style="fill: none; stroke: #b0b0b0; stroke-width: 0.2; stroke-linecap: square"/>
     </g>
     <g id="line2d_51">
      <g>
       <use xlink:href="#m2b67f479a0" x="165.451802" y="230.85165" style="stroke: #000000; stroke-width: 0.8"/>
      </g>
     </g>
    </g>
    <g id="ytick_19">
     <g id="line2d_52">
      <path d="M 165.451802 209.578321 
L 284.99976 209.578321 
" clip-path="url(#pc377cbae2c)" style="fill: none; stroke: #b0b0b0; stroke-width: 0.2; stroke-linecap: square"/>
     </g>
     <g id="line2d_53">
      <g>
       <use xlink:href="#m2b67f479a0" x="165.451802" y="209.578321" style="stroke: #000000; stroke-width: 0.8"/>
      </g>
     </g>
    </g>
    <g id="ytick_20">
     <g id="line2d_54">
      <path d="M 165.451802 188.304993 
L 284.99976 188.304993 
" clip-path="url(#pc377cbae2c)" style="fill: none; stroke: #b0b0b0; stroke-width: 0.2; stroke-linecap: square"/>
     </g>
     <g id="line2d_55">
      <g>
       <use xlink:href="#m2b67f479a0" x="165.451802" y="188.304993" style="stroke: #000000; stroke-width: 0.8"/>
      </g>
     </g>
    </g>
    <g id="ytick_21">
     <g id="line2d_56">
      <path d="M 165.451802 167.031664 
L 284.99976 167.031664 
" clip-path="url(#pc377cbae2c)" style="fill: none; stroke: #b0b0b0; stroke-width: 0.2; stroke-linecap: square"/>
     </g>
     <g id="line2d_57">
      <g>
       <use xlink:href="#m2b67f479a0" x="165.451802" y="167.031664" style="stroke: #000000; stroke-width: 0.8"/>
      </g>
     </g>
    </g>
    <g id="ytick_22">
     <g id="line2d_58">
      <path d="M 165.451802 145.758336 
L 284.99976 145.758336 
" clip-path="url(#pc377cbae2c)" style="fill: none; stroke: #b0b0b0; stroke-width: 0.2; stroke-linecap: square"/>
     </g>
     <g id="line2d_59">
      <g>
       <use xlink:href="#m2b67f479a0" x="165.451802" y="145.758336" style="stroke: #000000; stroke-width: 0.8"/>
      </g>
     </g>
    </g>
    <g id="ytick_23">
     <g id="line2d_60">
      <path d="M 165.451802 124.485007 
L 284.99976 124.485007 
" clip-path="url(#pc377cbae2c)" style="fill: none; stroke: #b0b0b0; stroke-width: 0.2; stroke-linecap: square"/>
     </g>
     <g id="line2d_61">
      <g>
       <use xlink:href="#m2b67f479a0" x="165.451802" y="124.485007" style="stroke: #000000; stroke-width: 0.8"/>
      </g>
     </g>
    </g>
    <g id="ytick_24">
     <g id="line2d_62">
      <path d="M 165.451802 103.211679 
L 284.99976 103.211679 
" clip-path="url(#pc377cbae2c)" style="fill: none; stroke: #b0b0b0; stroke-width: 0.2; stroke-linecap: square"/>
     </g>
     <g id="line2d_63">
      <g>
       <use xlink:href="#m2b67f479a0" x="165.451802" y="103.211679" style="stroke: #000000; stroke-width: 0.8"/>
      </g>
     </g>
    </g>
    <g id="ytick_25">
     <g id="line2d_64">
      <path d="M 165.451802 81.93835 
L 284.99976 81.93835 
" clip-path="url(#pc377cbae2c)" style="fill: none; stroke: #b0b0b0; stroke-width: 0.2; stroke-linecap: square"/>
     </g>
     <g id="line2d_65">
      <g>
       <use xlink:href="#m2b67f479a0" x="165.451802" y="81.93835" style="stroke: #000000; stroke-width: 0.8"/>
      </g>
     </g>
    </g>
    <g id="ytick_26">
     <g id="line2d_66">
      <path d="M 165.451802 60.665022 
L 284.99976 60.665022 
" clip-path="url(#pc377cbae2c)" style="fill: none; stroke: #b0b0b0; stroke-width: 0.2; stroke-linecap: square"/>
     </g>
     <g id="line2d_67">
      <g>
       <use xlink:href="#m2b67f479a0" x="165.451802" y="60.665022" style="stroke: #000000; stroke-width: 0.8"/>
      </g>
     </g>
    </g>
    <g id="ytick_27">
     <g id="line2d_68">
      <path d="M 165.451802 39.391693 
L 284.99976 39.391693 
" clip-path="url(#pc377cbae2c)" style="fill: none; stroke: #b0b0b0; stroke-width: 0.2; stroke-linecap: square"/>
     </g>
     <g id="line2d_69">
      <g>
       <use xlink:href="#m2b67f479a0" x="165.451802" y="39.391693" style="stroke: #000000; stroke-width: 0.8"/>
      </g>
     </g>
    </g>
    <g id="ytick_28">
     <g id="line2d_70">
      <path d="M 165.451802 18.118365 
L 284.99976 18.118365 
" clip-path="url(#pc377cbae2c)" style="fill: none; stroke: #b0b0b0; stroke-width: 0.2; stroke-linecap: square"/>
     </g>
     <g id="line2d_71">
      <g>
       <use xlink:href="#m2b67f479a0" x="165.451802" y="18.118365" style="stroke: #000000; stroke-width: 0.8"/>
      </g>
     </g>
    </g>
   </g>
   <g id="line2d_72">
    <path d="M 185.376462 284.332797 
L 185.376462 262.27661 
" clip-path="url(#pc377cbae2c)" style="fill: none; stroke: #00ffff; stroke-width: 1.5; stroke-linecap: square"/>
   </g>
   <g id="line2d_73">
    <path d="M 185.376462 278.991065 
L 185.376462 272.098506 
" clip-path="url(#pc377cbae2c)" style="fill: none; stroke: #00ffff; stroke-width: 4.5; stroke-linecap: square"/>
   </g>
   <g id="line2d_74">
    <path d="M 185.376462 277.440239 
" clip-path="url(#pc377cbae2c)" style="fill: none; stroke: #00ffff; stroke-width: 1.5; stroke-linecap: square"/>
    <g clip-path="url(#pc377cbae2c)">
     <use xlink:href="#m99d0bae649" x="185.376462" y="277.440239" style="fill: #ffffff; stroke: #ffffff; stroke-width: 0.9"/>
    </g>
   </g>
   <g id="line2d_75">
    <path d="M 225.225781 284.332797 
L 225.225781 193.351026 
" clip-path="url(#pc377cbae2c)" style="fill: none; stroke: #00ffff; stroke-width: 1.5; stroke-linecap: square"/>
   </g>
   <g id="line2d_76">
    <path d="M 225.225781 273.304704 
L 225.225781 240.909679 
" clip-path="url(#pc377cbae2c)" style="fill: none; stroke: #00ffff; stroke-width: 4.5; stroke-linecap: square"/>
   </g>
   <g id="line2d_77">
    <path d="M 225.225781 258.830331 
" clip-path="url(#pc377cbae2c)" style="fill: none; stroke: #00ffff; stroke-width: 1.5; stroke-linecap: square"/>
    <g clip-path="url(#pc377cbae2c)">
     <use xlink:href="#m99d0bae649" x="225.225781" y="258.830331" style="fill: #ffffff; stroke: #ffffff; stroke-width: 0.9"/>
    </g>
   </g>
   <g id="line2d_78">
    <path d="M 265.0751 284.332797 
L 265.0751 180.944421 
" clip-path="url(#pc377cbae2c)" style="fill: none; stroke: #00ffff; stroke-width: 1.5; stroke-linecap: square"/>
   </g>
   <g id="line2d_79">
    <path d="M 265.0751 273.99396 
L 265.0751 236.774144 
" clip-path="url(#pc377cbae2c)" style="fill: none; stroke: #00ffff; stroke-width: 4.5; stroke-linecap: square"/>
   </g>
   <g id="line2d_80">
    <path d="M 265.0751 259.519587 
" clip-path="url(#pc377cbae2c)" style="fill: none; stroke: #00ffff; stroke-width: 1.5; stroke-linecap: square"/>
    <g clip-path="url(#pc377cbae2c)">
     <use xlink:href="#m99d0bae649" x="265.0751" y="259.519587" style="fill: #ffffff; stroke: #ffffff; stroke-width: 0.9"/>
    </g>
   </g>
   <g id="patch_8">
    <path d="M 165.451802 294.671635 
L 165.451802 18.118365 
" style="fill: none; stroke: #000000; stroke-width: 0.8; stroke-linejoin: miter; stroke-linecap: square"/>
   </g>
   <g id="patch_9">
    <path d="M 284.99976 294.671635 
L 284.99976 18.118365 
" style="fill: none; stroke: #000000; stroke-width: 0.8; stroke-linejoin: miter; stroke-linecap: square"/>
   </g>
   <g id="patch_10">
    <path d="M 165.451802 294.671635 
L 284.99976 294.671635 
" style="fill: none; stroke: #000000; stroke-width: 0.8; stroke-linejoin: miter; stroke-linecap: square"/>
   </g>
   <g id="patch_11">
    <path d="M 165.451802 18.118365 
L 284.99976 18.118365 
" style="fill: none; stroke: #000000; stroke-width: 0.8; stroke-linejoin: miter; stroke-linecap: square"/>
   </g>
   <g id="text_23">
    <!-- DDX3X R326H -->
    <g transform="translate(181.907656 12.118365) scale(0.12 -0.12)">
     <defs>
      <path id="DejaVuSans-48" d="M 628 4666 
L 1259 4666 
L 1259 2753 
L 3553 2753 
L 3553 4666 
L 4184 4666 
L 4184 0 
L 3553 0 
L 3553 2222 
L 1259 2222 
L 1259 0 
L 628 0 
L 628 4666 
z
" transform="scale(0.015625)"/>
     </defs>
     <use xlink:href="#DejaVuSans-44"/>
     <use xlink:href="#DejaVuSans-44" x="77.001953"/>
     <use xlink:href="#DejaVuSans-58" x="154.003906"/>
     <use xlink:href="#DejaVuSans-33" x="222.509766"/>
     <use xlink:href="#DejaVuSans-58" x="286.132812"/>
     <use xlink:href="#DejaVuSans-20" x="354.638672"/>
     <use xlink:href="#DejaVuSans-52" x="386.425781"/>
     <use xlink:href="#DejaVuSans-33" x="455.908203"/>
     <use xlink:href="#DejaVuSans-32" x="519.53125"/>
     <use xlink:href="#DejaVuSans-36" x="583.154297"/>
     <use xlink:href="#DejaVuSans-48" x="646.777344"/>
    </g>
   </g>
  </g>
 </g>
 <defs>
  <clipPath id="p8821b118f7">
   <rect x="36.403365" y="18.118365" width="119.547957" height="276.55327"/>
  </clipPath>
  <clipPath id="pc377cbae2c">
   <rect x="165.451802" y="18.118365" width="119.547958" height="276.55327"/>
  </clipPath>
 </defs>
</svg>
