<?xml version="1.0" encoding="utf-8" standalone="no"?>
<!DOCTYPE svg PUBLIC "-//W3C//DTD SVG 1.1//EN"
  "http://www.w3.org/Graphics/SVG/1.1/DTD/svg11.dtd">
<svg xmlns:xlink="http://www.w3.org/1999/xlink" width="288pt" height="360pt" viewBox="0 0 288 360" xmlns="http://www.w3.org/2000/svg" version="1.1">
 <metadata>
  <rdf:RDF xmlns:dc="http://purl.org/dc/elements/1.1/" xmlns:cc="http://creativecommons.org/ns#" xmlns:rdf="http://www.w3.org/1999/02/22-rdf-syntax-ns#">
   <cc:Work>
    <dc:type rdf:resource="http://purl.org/dc/dcmitype/StillImage"/>
    <dc:date>2024-11-19T17:01:33.719948</dc:date>
    <dc:format>image/svg+xml</dc:format>
    <dc:creator>
     <cc:Agent>
      <dc:title>Matplotlib v3.9.2, https://matplotlib.org/</dc:title>
     </cc:Agent>
    </dc:creator>
   </cc:Work>
  </rdf:RDF>
 </metadata>
 <defs>
  <style type="text/css">*{stroke-linejoin: round; stroke-linecap: butt}</style>
 </defs>
 <g id="figure_1">
  <g id="patch_1">
   <path d="M 0 360 
L 288 360 
L 288 0 
L 0 0 
z
" style="fill: #ffffff"/>
  </g>
  <g id="axes_1">
   <g id="patch_2">
    <path d="M 36.403365 294.671635 
L 155.951323 294.671635 
L 155.951323 18.118365 
L 36.403365 18.118365 
z
" style="fill: #ffffff"/>
   </g>
   <g id="PolyCollection_1">
    <path d="M 58.529542 298.312673 
L 54.126508 298.312673 
L 51.437714 297.494192 
L 47.453038 296.675711 
L 43.169238 295.85723 
L 40.388297 295.038749 
L 40.553262 294.220268 
L 43.573578 293.401787 
L 47.902881 292.583307 
L 51.781182 291.764826 
L 54.323278 290.946345 
L 55.605877 290.127864 
L 56.1155 289.309383 
L 56.276926 288.490902 
L 56.317987 287.672421 
L 56.326414 286.85394 
L 56.327813 286.035459 
L 56.327995 285.216978 
L 56.327966 284.398497 
L 56.32764 283.580016 
L 56.325892 282.761535 
L 56.318365 281.943054 
L 56.292273 281.124573 
L 56.219921 280.306092 
L 56.060966 279.487611 
L 55.789026 278.66913 
L 55.43926 277.850649 
L 55.130726 277.032168 
L 55.010269 276.213687 
L 55.143118 275.395206 
L 55.457561 274.576725 
L 55.805588 273.758244 
L 56.071851 272.939763 
L 56.2254 272.121282 
L 56.294437 271.302802 
L 56.319043 270.484321 
L 56.326063 269.66584 
L 56.327674 268.847359 
L 56.327973 268.028878 
L 56.328018 267.210397 
L 56.32802 266.391916 
L 56.327998 265.573435 
L 56.327858 264.754954 
L 56.327185 263.936473 
L 56.32457 263.117992 
L 56.316406 262.299511 
L 56.296105 261.48103 
L 56.256378 260.662549 
L 56.19664 259.844068 
L 56.131186 259.025587 
L 56.087094 258.207106 
L 56.087094 257.388625 
L 56.131186 256.570144 
L 56.19664 255.751663 
L 56.256378 254.933182 
L 56.296105 254.114701 
L 56.316406 253.29622 
L 56.32457 252.477739 
L 56.327185 251.659258 
L 56.327858 250.840777 
L 56.327998 250.022297 
L 56.328021 249.203816 
L 56.328024 248.385335 
L 56.328024 247.566854 
L 56.328019 246.748373 
L 56.327994 245.929892 
L 56.327884 245.111411 
L 56.3275 244.29293 
L 56.326421 243.474449 
L 56.324022 242.655968 
L 56.319862 241.837487 
L 56.314424 241.019006 
L 56.30951 240.200525 
L 56.307435 239.382044 
L 56.309317 238.563563 
L 56.314138 237.745082 
L 56.319603 236.926601 
L 56.323852 236.10812 
L 56.326335 235.289639 
L 56.327466 234.471158 
L 56.327874 233.652677 
L 56.327991 232.834196 
L 56.328019 232.015715 
L 56.328024 231.197234 
L 56.328024 230.378753 
L 56.328024 229.560273 
L 56.328023 228.741792 
L 56.328012 227.923311 
L 56.32796 227.10483 
L 56.327756 226.286349 
L 56.32711 225.467868 
L 56.325487 224.649387 
L 56.322269 223.830906 
L 56.31736 223.012425 
L 56.31188 222.193944 
L 56.308057 221.375463 
L 56.307848 220.556982 
L 56.311368 219.738501 
L 56.31679 218.92002 
L 56.321834 218.101539 
L 56.325238 217.283058 
L 56.330811 217.283058 
L 56.330811 217.283058 
L 56.334215 218.101539 
L 56.339259 218.92002 
L 56.344681 219.738501 
L 56.348201 220.556982 
L 56.347993 221.375463 
L 56.344169 222.193944 
L 56.338689 223.012425 
L 56.33378 223.830906 
L 56.330562 224.649387 
L 56.328939 225.467868 
L 56.328294 226.286349 
L 56.328089 227.10483 
L 56.328037 227.923311 
L 56.328027 228.741792 
L 56.328025 229.560273 
L 56.328025 230.378753 
L 56.328025 231.197234 
L 56.328031 232.015715 
L 56.328058 232.834196 
L 56.328176 233.652677 
L 56.328583 234.471158 
L 56.329714 235.289639 
L 56.332197 236.10812 
L 56.336446 236.926601 
L 56.341912 237.745082 
L 56.346732 238.563563 
L 56.348615 239.382044 
L 56.346539 240.200525 
L 56.341626 241.019006 
L 56.336188 241.837487 
L 56.332027 242.655968 
L 56.329628 243.474449 
L 56.328549 244.29293 
L 56.328165 245.111411 
L 56.328055 245.929892 
L 56.32803 246.748373 
L 56.328025 247.566854 
L 56.328025 248.385335 
L 56.328028 249.203816 
L 56.328052 250.022297 
L 56.328191 250.840777 
L 56.328864 251.659258 
L 56.33148 252.477739 
L 56.339643 253.29622 
L 56.359944 254.114701 
L 56.399671 254.933182 
L 56.459409 255.751663 
L 56.524863 256.570144 
L 56.568955 257.388625 
L 56.568955 258.207106 
L 56.524863 259.025587 
L 56.459409 259.844068 
L 56.399671 260.662549 
L 56.359944 261.48103 
L 56.339643 262.299511 
L 56.33148 263.117992 
L 56.328864 263.936473 
L 56.328191 264.754954 
L 56.328052 265.573435 
L 56.328029 266.391916 
L 56.328031 267.210397 
L 56.328076 268.028878 
L 56.328375 268.847359 
L 56.329987 269.66584 
L 56.337006 270.484321 
L 56.361613 271.302802 
L 56.430649 272.121282 
L 56.584198 272.939763 
L 56.850461 273.758244 
L 57.198488 274.576725 
L 57.512932 275.395206 
L 57.64578 276.213687 
L 57.525323 277.032168 
L 57.216789 277.850649 
L 56.867024 278.66913 
L 56.595083 279.487611 
L 56.436128 280.306092 
L 56.363776 281.124573 
L 56.337684 281.943054 
L 56.330157 282.761535 
L 56.328409 283.580016 
L 56.328083 284.398497 
L 56.328054 285.216978 
L 56.328236 286.035459 
L 56.329636 286.85394 
L 56.338062 287.672421 
L 56.379123 288.490902 
L 56.540549 289.309383 
L 57.050172 290.127864 
L 58.332771 290.946345 
L 60.874867 291.764826 
L 64.753169 292.583307 
L 69.082472 293.401787 
L 72.102787 294.220268 
L 72.267752 295.038749 
L 69.486812 295.85723 
L 65.203011 296.675711 
L 61.218335 297.494192 
L 58.529542 298.312673 
L 58.529542 298.312673 
z
" clip-path="url(#paeddf164e9)" style="fill: none; stroke: #000000"/>
   </g>
   <g id="PolyCollection_2">
    <path d="M 98.351214 304.581285 
L 94.003473 304.581285 
L 92.605825 303.263703 
L 90.710179 301.946121 
L 88.37973 300.628539 
L 85.815134 299.310958 
L 83.347054 297.993376 
L 81.375351 296.675794 
L 80.265515 295.358212 
L 80.237616 294.04063 
L 81.293245 292.723048 
L 83.212508 291.405466 
L 85.621942 290.087884 
L 88.102762 288.770302 
L 90.295106 287.45272 
L 91.963723 286.135139 
L 93.014697 284.817557 
L 93.475259 283.499975 
L 93.457817 282.182393 
L 93.124354 280.864811 
L 92.65629 279.547229 
L 92.227316 278.229647 
L 91.976779 276.912065 
L 91.986466 275.594483 
L 92.26804 274.276901 
L 92.767243 272.959319 
L 93.384611 271.641738 
L 94.005227 270.324156 
L 94.526836 269.006574 
L 94.878344 267.688992 
L 95.026746 266.37141 
L 94.975772 265.053828 
L 94.760854 263.736246 
L 94.44272 262.418664 
L 94.098766 261.101082 
L 93.810413 259.7835 
L 93.646795 258.465919 
L 93.648736 257.148337 
L 93.818996 255.830755 
L 94.12322 254.513173 
L 94.50156 253.195591 
L 94.886214 251.878009 
L 95.218106 250.560427 
L 95.457569 249.242845 
L 95.587622 247.925263 
L 95.611824 246.607681 
L 95.549789 245.2901 
L 95.432352 243.972518 
L 95.296601 242.654936 
L 95.180029 241.337354 
L 95.113724 240.019772 
L 95.115969 238.70219 
L 95.188525 237.384608 
L 95.317366 236.067026 
L 95.477809 234.749444 
L 95.642015 233.431862 
L 95.786037 232.114281 
L 95.894208 230.796699 
L 95.96027 229.479117 
L 95.9861 228.161535 
L 95.979412 226.843953 
L 95.951464 225.526371 
L 95.915044 224.208789 
L 95.882529 222.891207 
L 95.863898 221.573625 
L 95.864962 220.256043 
L 95.886404 218.938462 
L 95.924087 217.62088 
L 95.97061 216.303298 
L 96.01753 214.985716 
L 96.057444 213.668134 
L 96.085325 212.350552 
L 96.098967 211.03297 
L 96.098781 209.715388 
L 96.087318 208.397806 
L 96.068724 207.080224 
L 96.048108 205.762643 
L 96.030724 204.445061 
L 96.020964 203.127479 
L 96.021399 201.809897 
L 96.032218 200.492315 
L 96.05133 199.174733 
L 96.075122 197.857151 
L 96.099562 196.539569 
L 96.121227 195.221987 
L 96.137934 193.904405 
L 96.148867 192.586823 
L 96.154354 191.269242 
L 96.155474 189.95166 
L 96.153698 188.634078 
L 96.1506 187.316496 
L 96.14763 185.998914 
L 96.145917 184.681332 
L 96.146118 183.36375 
L 96.148347 182.046168 
L 96.152226 180.728586 
L 96.157063 179.411004 
L 96.162083 178.093423 
L 96.166645 176.775841 
L 96.170354 175.458259 
L 96.17309 174.140677 
L 96.181598 174.140677 
L 96.181598 174.140677 
L 96.184333 175.458259 
L 96.188043 176.775841 
L 96.192604 178.093423 
L 96.197625 179.411004 
L 96.202462 180.728586 
L 96.20634 182.046168 
L 96.208569 183.36375 
L 96.208771 184.681332 
L 96.207058 185.998914 
L 96.204087 187.316496 
L 96.200989 188.634078 
L 96.199214 189.95166 
L 96.200334 191.269242 
L 96.20582 192.586823 
L 96.216754 193.904405 
L 96.23346 195.221987 
L 96.255126 196.539569 
L 96.279566 197.857151 
L 96.303358 199.174733 
L 96.32247 200.492315 
L 96.333288 201.809897 
L 96.333723 203.127479 
L 96.323964 204.445061 
L 96.30658 205.762643 
L 96.285964 207.080224 
L 96.267369 208.397806 
L 96.255906 209.715388 
L 96.25572 211.03297 
L 96.269362 212.350552 
L 96.297243 213.668134 
L 96.337157 214.985716 
L 96.384077 216.303298 
L 96.4306 217.62088 
L 96.468284 218.938462 
L 96.489726 220.256043 
L 96.49079 221.573625 
L 96.472159 222.891207 
L 96.439644 224.208789 
L 96.403223 225.526371 
L 96.375275 226.843953 
L 96.368587 228.161535 
L 96.394417 229.479117 
L 96.460479 230.796699 
L 96.56865 232.114281 
L 96.712673 233.431862 
L 96.876879 234.749444 
L 97.037321 236.067026 
L 97.166163 237.384608 
L 97.238718 238.70219 
L 97.240963 240.019772 
L 97.174659 241.337354 
L 97.058086 242.654936 
L 96.922336 243.972518 
L 96.804899 245.2901 
L 96.742863 246.607681 
L 96.767066 247.925263 
L 96.897119 249.242845 
L 97.136581 250.560427 
L 97.468473 251.878009 
L 97.853127 253.195591 
L 98.231468 254.513173 
L 98.535692 255.830755 
L 98.705951 257.148337 
L 98.707893 258.465919 
L 98.544275 259.7835 
L 98.255921 261.101082 
L 97.911967 262.418664 
L 97.593833 263.736246 
L 97.378916 265.053828 
L 97.327941 266.37141 
L 97.476343 267.688992 
L 97.827851 269.006574 
L 98.349461 270.324156 
L 98.970076 271.641738 
L 99.587445 272.959319 
L 100.086647 274.276901 
L 100.368221 275.594483 
L 100.377908 276.912065 
L 100.127372 278.229647 
L 99.698398 279.547229 
L 99.230333 280.864811 
L 98.89687 282.182393 
L 98.879429 283.499975 
L 99.33999 284.817557 
L 100.390964 286.135139 
L 102.059582 287.45272 
L 104.251926 288.770302 
L 106.732745 290.087884 
L 109.14218 291.405466 
L 111.061443 292.723048 
L 112.117071 294.04063 
L 112.089173 295.358212 
L 110.979336 296.675794 
L 109.007634 297.993376 
L 106.539553 299.310958 
L 103.974957 300.628539 
L 101.644509 301.946121 
L 99.748862 303.263703 
L 98.351214 304.581285 
L 98.351214 304.581285 
z
" clip-path="url(#paeddf164e9)" style="fill: none; stroke: #000000"/>
   </g>
   <g id="PolyCollection_3">
    <path d="M 138.182255 307.186682 
L 133.871071 307.186682 
L 132.407361 305.444004 
L 130.403194 303.701325 
L 127.941086 301.958647 
L 125.268005 300.215968 
L 122.777892 298.47329 
L 120.92476 296.730611 
L 120.086935 294.987933 
L 120.435693 293.245254 
L 121.868848 291.502576 
L 124.042579 289.759897 
L 126.487467 288.017219 
L 128.756199 286.27454 
L 130.542382 284.531862 
L 131.732527 282.789183 
L 132.387964 281.046505 
L 132.679838 279.303826 
L 132.809349 277.561148 
L 132.940302 275.818469 
L 133.159924 274.075791 
L 133.472338 272.333112 
L 133.819407 270.590434 
L 134.117131 268.847755 
L 134.293576 267.105077 
L 134.316518 265.362398 
L 134.204108 263.61972 
L 134.017519 261.877041 
L 133.839375 260.134363 
L 133.745508 258.391684 
L 133.779616 256.649006 
L 133.939657 254.906327 
L 134.180653 253.163649 
L 134.432245 251.42097 
L 134.623872 249.678292 
L 134.708287 247.935613 
L 134.675833 246.192935 
L 134.555733 244.450256 
L 134.404823 242.707578 
L 134.2877 240.964899 
L 134.254828 239.222221 
L 134.326038 237.479542 
L 134.485165 235.736864 
L 134.68745 233.994185 
L 134.876358 232.251507 
L 135.003183 230.508828 
L 135.042534 228.76615 
L 134.999105 227.023471 
L 134.90442 225.280793 
L 134.805256 223.538114 
L 134.747788 221.795436 
L 134.762733 220.052757 
L 134.856594 218.310079 
L 135.011797 216.5674 
L 135.195025 214.824722 
L 135.369769 213.082043 
L 135.507955 211.339365 
L 135.596753 209.596686 
L 135.639266 207.854008 
L 135.650241 206.111329 
L 135.649224 204.368651 
L 135.653729 202.625972 
L 135.674432 200.883294 
L 135.713454 199.140615 
L 135.765696 197.397937 
L 135.822216 195.655258 
L 135.874045 193.91258 
L 135.915044 192.169901 
L 135.943056 190.427223 
L 135.959459 188.684544 
L 135.967759 186.941866 
L 135.971955 185.199187 
L 135.975248 183.456509 
L 135.979353 181.71383 
L 135.984438 179.971152 
L 135.989561 178.228473 
L 135.993342 176.485795 
L 135.994655 174.743116 
L 135.993117 173.000438 
L 135.989277 171.257759 
L 135.984462 169.515081 
L 135.980353 167.772402 
L 135.978433 166.029724 
L 135.979495 164.287045 
L 135.983405 162.544367 
L 135.989186 160.801688 
L 135.995398 159.05901 
L 136.000639 157.316331 
L 136.003976 155.573653 
L 136.005177 153.830974 
L 136.004692 152.088296 
L 136.003432 150.345617 
L 136.002427 148.602939 
L 136.002496 146.86026 
L 136.004022 145.117582 
L 136.006899 143.374903 
L 136.010649 141.632225 
L 136.014639 139.889546 
L 136.018304 138.146868 
L 136.021284 136.404189 
L 136.02346 134.661511 
L 136.029866 134.661511 
L 136.029866 134.661511 
L 136.032042 136.404189 
L 136.035022 138.146868 
L 136.038686 139.889546 
L 136.042677 141.632225 
L 136.046427 143.374903 
L 136.049304 145.117582 
L 136.05083 146.86026 
L 136.050899 148.602939 
L 136.049894 150.345617 
L 136.048633 152.088296 
L 136.048149 153.830974 
L 136.04935 155.573653 
L 136.052687 157.316331 
L 136.057928 159.05901 
L 136.06414 160.801688 
L 136.069921 162.544367 
L 136.073831 164.287045 
L 136.074893 166.029724 
L 136.072972 167.772402 
L 136.068863 169.515081 
L 136.064048 171.257759 
L 136.060209 173.000438 
L 136.058671 174.743116 
L 136.059984 176.485795 
L 136.063765 178.228473 
L 136.068888 179.971152 
L 136.073973 181.71383 
L 136.078077 183.456509 
L 136.081371 185.199187 
L 136.085567 186.941866 
L 136.093867 188.684544 
L 136.11027 190.427223 
L 136.138281 192.169901 
L 136.17928 193.91258 
L 136.23111 195.655258 
L 136.28763 197.397937 
L 136.339872 199.140615 
L 136.378893 200.883294 
L 136.399597 202.625972 
L 136.404102 204.368651 
L 136.403085 206.111329 
L 136.41406 207.854008 
L 136.456573 209.596686 
L 136.545371 211.339365 
L 136.683557 213.082043 
L 136.8583 214.824722 
L 137.041529 216.5674 
L 137.196732 218.310079 
L 137.290592 220.052757 
L 137.305538 221.795436 
L 137.248069 223.538114 
L 137.148906 225.280793 
L 137.054221 227.023471 
L 137.010792 228.76615 
L 137.050143 230.508828 
L 137.176967 232.251507 
L 137.365876 233.994185 
L 137.56816 235.736864 
L 137.727288 237.479542 
L 137.798498 239.222221 
L 137.765626 240.964899 
L 137.648502 242.707578 
L 137.497592 244.450256 
L 137.377493 246.192935 
L 137.345039 247.935613 
L 137.429453 249.678292 
L 137.621081 251.42097 
L 137.872673 253.163649 
L 138.113669 254.906327 
L 138.27371 256.649006 
L 138.307818 258.391684 
L 138.213951 260.134363 
L 138.035807 261.877041 
L 137.849218 263.61972 
L 137.736808 265.362398 
L 137.75975 267.105077 
L 137.936195 268.847755 
L 138.233919 270.590434 
L 138.580987 272.333112 
L 138.893402 274.075791 
L 139.113024 275.818469 
L 139.243977 277.561148 
L 139.373488 279.303826 
L 139.665362 281.046505 
L 140.320798 282.789183 
L 141.510944 284.531862 
L 143.297127 286.27454 
L 145.565859 288.017219 
L 148.010747 289.759897 
L 150.184478 291.502576 
L 151.617633 293.245254 
L 151.966391 294.987933 
L 151.128565 296.730611 
L 149.275434 298.47329 
L 146.785321 300.215968 
L 144.11224 301.958647 
L 141.650132 303.701325 
L 139.645965 305.444004 
L 138.182255 307.186682 
L 138.182255 307.186682 
z
" clip-path="url(#paeddf164e9)" style="fill: none; stroke: #000000"/>
   </g>
   <g id="matplotlib.axis_1">
    <g id="xtick_1">
     <g id="line2d_1">
      <defs>
       <path id="mdb81bbace0" d="M 0 0 
L 0 3.5 
" style="stroke: #000000; stroke-width: 0.8"/>
      </defs>
      <g>
       <use xlink:href="#mdb81bbace0" x="56.328025" y="294.671635" style="stroke: #000000; stroke-width: 0.8"/>
      </g>
     </g>
     <g id="text_1">
      <!-- CT -->
      <g transform="translate(59.0874 314.76226) rotate(-90) scale(0.1 -0.1)">
       <defs>
        <path id="DejaVuSans-43" d="M 4122 4306 
L 4122 3641 
Q 3803 3938 3442 4084 
Q 3081 4231 2675 4231 
Q 1875 4231 1450 3742 
Q 1025 3253 1025 2328 
Q 1025 1406 1450 917 
Q 1875 428 2675 428 
Q 3081 428 3442 575 
Q 3803 722 4122 1019 
L 4122 359 
Q 3791 134 3420 21 
Q 3050 -91 2638 -91 
Q 1578 -91 968 557 
Q 359 1206 359 2328 
Q 359 3453 968 4101 
Q 1578 4750 2638 4750 
Q 3056 4750 3426 4639 
Q 3797 4528 4122 4306 
z
" transform="scale(0.015625)"/>
        <path id="DejaVuSans-54" d="M -19 4666 
L 3928 4666 
L 3928 4134 
L 2272 4134 
L 2272 0 
L 1638 0 
L 1638 4134 
L -19 4134 
L -19 4666 
z
" transform="scale(0.015625)"/>
       </defs>
       <use xlink:href="#DejaVuSans-43"/>
       <use xlink:href="#DejaVuSans-54" x="69.824219"/>
      </g>
     </g>
    </g>
    <g id="xtick_2">
     <g id="line2d_2">
      <g>
       <use xlink:href="#mdb81bbace0" x="96.177344" y="294.671635" style="stroke: #000000; stroke-width: 0.8"/>
      </g>
     </g>
     <g id="text_2">
      <!-- ARS -->
      <g transform="translate(98.936719 321.809135) rotate(-90) scale(0.1 -0.1)">
       <defs>
        <path id="DejaVuSans-41" d="M 2188 4044 
L 1331 1722 
L 3047 1722 
L 2188 4044 
z
M 1831 4666 
L 2547 4666 
L 4325 0 
L 3669 0 
L 3244 1197 
L 1141 1197 
L 716 0 
L 50 0 
L 1831 4666 
z
" transform="scale(0.015625)"/>
        <path id="DejaVuSans-52" d="M 2841 2188 
Q 3044 2119 3236 1894 
Q 3428 1669 3622 1275 
L 4263 0 
L 3584 0 
L 2988 1197 
Q 2756 1666 2539 1819 
Q 2322 1972 1947 1972 
L 1259 1972 
L 1259 0 
L 628 0 
L 628 4666 
L 2053 4666 
Q 2853 4666 3247 4331 
Q 3641 3997 3641 3322 
Q 3641 2881 3436 2590 
Q 3231 2300 2841 2188 
z
M 1259 4147 
L 1259 2491 
L 2053 2491 
Q 2509 2491 2742 2702 
Q 2975 2913 2975 3322 
Q 2975 3731 2742 3939 
Q 2509 4147 2053 4147 
L 1259 4147 
z
" transform="scale(0.015625)"/>
        <path id="DejaVuSans-53" d="M 3425 4513 
L 3425 3897 
Q 3066 4069 2747 4153 
Q 2428 4238 2131 4238 
Q 1616 4238 1336 4038 
Q 1056 3838 1056 3469 
Q 1056 3159 1242 3001 
Q 1428 2844 1947 2747 
L 2328 2669 
Q 3034 2534 3370 2195 
Q 3706 1856 3706 1288 
Q 3706 609 3251 259 
Q 2797 -91 1919 -91 
Q 1588 -91 1214 -16 
Q 841 59 441 206 
L 441 856 
Q 825 641 1194 531 
Q 1563 422 1919 422 
Q 2459 422 2753 634 
Q 3047 847 3047 1241 
Q 3047 1584 2836 1778 
Q 2625 1972 2144 2069 
L 1759 2144 
Q 1053 2284 737 2584 
Q 422 2884 422 3419 
Q 422 4038 858 4394 
Q 1294 4750 2059 4750 
Q 2388 4750 2728 4690 
Q 3069 4631 3425 4513 
z
" transform="scale(0.015625)"/>
       </defs>
       <use xlink:href="#DejaVuSans-41"/>
       <use xlink:href="#DejaVuSans-52" x="68.408203"/>
       <use xlink:href="#DejaVuSans-53" x="137.890625"/>
      </g>
     </g>
    </g>
    <g id="xtick_3">
     <g id="line2d_3">
      <g>
       <use xlink:href="#mdb81bbace0" x="136.026663" y="294.671635" style="stroke: #000000; stroke-width: 0.8"/>
      </g>
     </g>
     <g id="text_3">
      <!-- GLU-40min -->
      <g transform="translate(138.786038 356.99976) rotate(-90) scale(0.1 -0.1)">
       <defs>
        <path id="DejaVuSans-47" d="M 3809 666 
L 3809 1919 
L 2778 1919 
L 2778 2438 
L 4434 2438 
L 4434 434 
Q 4069 175 3628 42 
Q 3188 -91 2688 -91 
Q 1594 -91 976 548 
Q 359 1188 359 2328 
Q 359 3472 976 4111 
Q 1594 4750 2688 4750 
Q 3144 4750 3555 4637 
Q 3966 4525 4313 4306 
L 4313 3634 
Q 3963 3931 3569 4081 
Q 3175 4231 2741 4231 
Q 1884 4231 1454 3753 
Q 1025 3275 1025 2328 
Q 1025 1384 1454 906 
Q 1884 428 2741 428 
Q 3075 428 3337 486 
Q 3600 544 3809 666 
z
" transform="scale(0.015625)"/>
        <path id="DejaVuSans-4c" d="M 628 4666 
L 1259 4666 
L 1259 531 
L 3531 531 
L 3531 0 
L 628 0 
L 628 4666 
z
" transform="scale(0.015625)"/>
        <path id="DejaVuSans-55" d="M 556 4666 
L 1191 4666 
L 1191 1831 
Q 1191 1081 1462 751 
Q 1734 422 2344 422 
Q 2950 422 3222 751 
Q 3494 1081 3494 1831 
L 3494 4666 
L 4128 4666 
L 4128 1753 
Q 4128 841 3676 375 
Q 3225 -91 2344 -91 
Q 1459 -91 1007 375 
Q 556 841 556 1753 
L 556 4666 
z
" transform="scale(0.015625)"/>
        <path id="DejaVuSans-2d" d="M 313 2009 
L 1997 2009 
L 1997 1497 
L 313 1497 
L 313 2009 
z
" transform="scale(0.015625)"/>
        <path id="DejaVuSans-34" d="M 2419 4116 
L 825 1625 
L 2419 1625 
L 2419 4116 
z
M 2253 4666 
L 3047 4666 
L 3047 1625 
L 3713 1625 
L 3713 1100 
L 3047 1100 
L 3047 0 
L 2419 0 
L 2419 1100 
L 313 1100 
L 313 1709 
L 2253 4666 
z
" transform="scale(0.015625)"/>
        <path id="DejaVuSans-30" d="M 2034 4250 
Q 1547 4250 1301 3770 
Q 1056 3291 1056 2328 
Q 1056 1369 1301 889 
Q 1547 409 2034 409 
Q 2525 409 2770 889 
Q 3016 1369 3016 2328 
Q 3016 3291 2770 3770 
Q 2525 4250 2034 4250 
z
M 2034 4750 
Q 2819 4750 3233 4129 
Q 3647 3509 3647 2328 
Q 3647 1150 3233 529 
Q 2819 -91 2034 -91 
Q 1250 -91 836 529 
Q 422 1150 422 2328 
Q 422 3509 836 4129 
Q 1250 4750 2034 4750 
z
" transform="scale(0.015625)"/>
        <path id="DejaVuSans-6d" d="M 3328 2828 
Q 3544 3216 3844 3400 
Q 4144 3584 4550 3584 
Q 5097 3584 5394 3201 
Q 5691 2819 5691 2113 
L 5691 0 
L 5113 0 
L 5113 2094 
Q 5113 2597 4934 2840 
Q 4756 3084 4391 3084 
Q 3944 3084 3684 2787 
Q 3425 2491 3425 1978 
L 3425 0 
L 2847 0 
L 2847 2094 
Q 2847 2600 2669 2842 
Q 2491 3084 2119 3084 
Q 1678 3084 1418 2786 
Q 1159 2488 1159 1978 
L 1159 0 
L 581 0 
L 581 3500 
L 1159 3500 
L 1159 2956 
Q 1356 3278 1631 3431 
Q 1906 3584 2284 3584 
Q 2666 3584 2933 3390 
Q 3200 3197 3328 2828 
z
" transform="scale(0.015625)"/>
        <path id="DejaVuSans-69" d="M 603 3500 
L 1178 3500 
L 1178 0 
L 603 0 
L 603 3500 
z
M 603 4863 
L 1178 4863 
L 1178 4134 
L 603 4134 
L 603 4863 
z
" transform="scale(0.015625)"/>
        <path id="DejaVuSans-6e" d="M 3513 2113 
L 3513 0 
L 2938 0 
L 2938 2094 
Q 2938 2591 2744 2837 
Q 2550 3084 2163 3084 
Q 1697 3084 1428 2787 
Q 1159 2491 1159 1978 
L 1159 0 
L 581 0 
L 581 3500 
L 1159 3500 
L 1159 2956 
Q 1366 3272 1645 3428 
Q 1925 3584 2291 3584 
Q 2894 3584 3203 3211 
Q 3513 2838 3513 2113 
z
" transform="scale(0.015625)"/>
       </defs>
       <use xlink:href="#DejaVuSans-47"/>
       <use xlink:href="#DejaVuSans-4c" x="77.490234"/>
       <use xlink:href="#DejaVuSans-55" x="128.203125"/>
       <use xlink:href="#DejaVuSans-2d" x="201.396484"/>
       <use xlink:href="#DejaVuSans-34" x="237.480469"/>
       <use xlink:href="#DejaVuSans-30" x="301.103516"/>
       <use xlink:href="#DejaVuSans-6d" x="364.726562"/>
       <use xlink:href="#DejaVuSans-69" x="462.138672"/>
       <use xlink:href="#DejaVuSans-6e" x="489.921875"/>
      </g>
     </g>
    </g>
   </g>
   <g id="matplotlib.axis_2">
    <g id="ytick_1">
     <g id="line2d_4">
      <path d="M 36.403365 294.671635 
L 155.951323 294.671635 
" clip-path="url(#paeddf164e9)" style="fill: none; stroke: #b0b0b0; stroke-width: 0.2; stroke-linecap: square"/>
     </g>
     <g id="line2d_5">
      <defs>
       <path id="m130ae6af1b" d="M 0 0 
L -3.5 0 
" style="stroke: #000000; stroke-width: 0.8"/>
      </defs>
      <g>
       <use xlink:href="#m130ae6af1b" x="36.403365" y="294.671635" style="stroke: #000000; stroke-width: 0.8"/>
      </g>
     </g>
     <g id="text_4">
      <!-- 0 -->
      <g transform="translate(23.040865 298.470854) scale(0.1 -0.1)">
       <use xlink:href="#DejaVuSans-30"/>
      </g>
     </g>
    </g>
    <g id="ytick_2">
     <g id="line2d_6">
      <path d="M 36.403365 276.23475 
L 155.951323 276.23475 
" clip-path="url(#paeddf164e9)" style="fill: none; stroke: #b0b0b0; stroke-width: 0.2; stroke-linecap: square"/>
     </g>
     <g id="line2d_7">
      <g>
       <use xlink:href="#m130ae6af1b" x="36.403365" y="276.23475" style="stroke: #000000; stroke-width: 0.8"/>
      </g>
     </g>
     <g id="text_5">
      <!-- 1 -->
      <g transform="translate(23.040865 280.033969) scale(0.1 -0.1)">
       <defs>
        <path id="DejaVuSans-31" d="M 794 531 
L 1825 531 
L 1825 4091 
L 703 3866 
L 703 4441 
L 1819 4666 
L 2450 4666 
L 2450 531 
L 3481 531 
L 3481 0 
L 794 0 
L 794 531 
z
" transform="scale(0.015625)"/>
       </defs>
       <use xlink:href="#DejaVuSans-31"/>
      </g>
     </g>
    </g>
    <g id="ytick_3">
     <g id="line2d_8">
      <path d="M 36.403365 257.797866 
L 155.951323 257.797866 
" clip-path="url(#paeddf164e9)" style="fill: none; stroke: #b0b0b0; stroke-width: 0.2; stroke-linecap: square"/>
     </g>
     <g id="line2d_9">
      <g>
       <use xlink:href="#m130ae6af1b" x="36.403365" y="257.797866" style="stroke: #000000; stroke-width: 0.8"/>
      </g>
     </g>
     <g id="text_6">
      <!-- 2 -->
      <g transform="translate(23.040865 261.597084) scale(0.1 -0.1)">
       <defs>
        <path id="DejaVuSans-32" d="M 1228 531 
L 3431 531 
L 3431 0 
L 469 0 
L 469 531 
Q 828 903 1448 1529 
Q 2069 2156 2228 2338 
Q 2531 2678 2651 2914 
Q 2772 3150 2772 3378 
Q 2772 3750 2511 3984 
Q 2250 4219 1831 4219 
Q 1534 4219 1204 4116 
Q 875 4013 500 3803 
L 500 4441 
Q 881 4594 1212 4672 
Q 1544 4750 1819 4750 
Q 2544 4750 2975 4387 
Q 3406 4025 3406 3419 
Q 3406 3131 3298 2873 
Q 3191 2616 2906 2266 
Q 2828 2175 2409 1742 
Q 1991 1309 1228 531 
z
" transform="scale(0.015625)"/>
       </defs>
       <use xlink:href="#DejaVuSans-32"/>
      </g>
     </g>
    </g>
    <g id="ytick_4">
     <g id="line2d_10">
      <path d="M 36.403365 239.360981 
L 155.951323 239.360981 
" clip-path="url(#paeddf164e9)" style="fill: none; stroke: #b0b0b0; stroke-width: 0.2; stroke-linecap: square"/>
     </g>
     <g id="line2d_11">
      <g>
       <use xlink:href="#m130ae6af1b" x="36.403365" y="239.360981" style="stroke: #000000; stroke-width: 0.8"/>
      </g>
     </g>
     <g id="text_7">
      <!-- 3 -->
      <g transform="translate(23.040865 243.1602) scale(0.1 -0.1)">
       <defs>
        <path id="DejaVuSans-33" d="M 2597 2516 
Q 3050 2419 3304 2112 
Q 3559 1806 3559 1356 
Q 3559 666 3084 287 
Q 2609 -91 1734 -91 
Q 1441 -91 1130 -33 
Q 819 25 488 141 
L 488 750 
Q 750 597 1062 519 
Q 1375 441 1716 441 
Q 2309 441 2620 675 
Q 2931 909 2931 1356 
Q 2931 1769 2642 2001 
Q 2353 2234 1838 2234 
L 1294 2234 
L 1294 2753 
L 1863 2753 
Q 2328 2753 2575 2939 
Q 2822 3125 2822 3475 
Q 2822 3834 2567 4026 
Q 2313 4219 1838 4219 
Q 1578 4219 1281 4162 
Q 984 4106 628 3988 
L 628 4550 
Q 988 4650 1302 4700 
Q 1616 4750 1894 4750 
Q 2613 4750 3031 4423 
Q 3450 4097 3450 3541 
Q 3450 3153 3228 2886 
Q 3006 2619 2597 2516 
z
" transform="scale(0.015625)"/>
       </defs>
       <use xlink:href="#DejaVuSans-33"/>
      </g>
     </g>
    </g>
    <g id="ytick_5">
     <g id="line2d_12">
      <path d="M 36.403365 220.924096 
L 155.951323 220.924096 
" clip-path="url(#paeddf164e9)" style="fill: none; stroke: #b0b0b0; stroke-width: 0.2; stroke-linecap: square"/>
     </g>
     <g id="line2d_13">
      <g>
       <use xlink:href="#m130ae6af1b" x="36.403365" y="220.924096" style="stroke: #000000; stroke-width: 0.8"/>
      </g>
     </g>
     <g id="text_8">
      <!-- 4 -->
      <g transform="translate(23.040865 224.723315) scale(0.1 -0.1)">
       <use xlink:href="#DejaVuSans-34"/>
      </g>
     </g>
    </g>
    <g id="ytick_6">
     <g id="line2d_14">
      <path d="M 36.403365 202.487212 
L 155.951323 202.487212 
" clip-path="url(#paeddf164e9)" style="fill: none; stroke: #b0b0b0; stroke-width: 0.2; stroke-linecap: square"/>
     </g>
     <g id="line2d_15">
      <g>
       <use xlink:href="#m130ae6af1b" x="36.403365" y="202.487212" style="stroke: #000000; stroke-width: 0.8"/>
      </g>
     </g>
     <g id="text_9">
      <!-- 5 -->
      <g transform="translate(23.040865 206.28643) scale(0.1 -0.1)">
       <defs>
        <path id="DejaVuSans-35" d="M 691 4666 
L 3169 4666 
L 3169 4134 
L 1269 4134 
L 1269 2991 
Q 1406 3038 1543 3061 
Q 1681 3084 1819 3084 
Q 2600 3084 3056 2656 
Q 3513 2228 3513 1497 
Q 3513 744 3044 326 
Q 2575 -91 1722 -91 
Q 1428 -91 1123 -41 
Q 819 9 494 109 
L 494 744 
Q 775 591 1075 516 
Q 1375 441 1709 441 
Q 2250 441 2565 725 
Q 2881 1009 2881 1497 
Q 2881 1984 2565 2268 
Q 2250 2553 1709 2553 
Q 1456 2553 1204 2497 
Q 953 2441 691 2322 
L 691 4666 
z
" transform="scale(0.015625)"/>
       </defs>
       <use xlink:href="#DejaVuSans-35"/>
      </g>
     </g>
    </g>
    <g id="ytick_7">
     <g id="line2d_16">
      <path d="M 36.403365 184.050327 
L 155.951323 184.050327 
" clip-path="url(#paeddf164e9)" style="fill: none; stroke: #b0b0b0; stroke-width: 0.2; stroke-linecap: square"/>
     </g>
     <g id="line2d_17">
      <g>
       <use xlink:href="#m130ae6af1b" x="36.403365" y="184.050327" style="stroke: #000000; stroke-width: 0.8"/>
      </g>
     </g>
     <g id="text_10">
      <!-- 6 -->
      <g transform="translate(23.040865 187.849546) scale(0.1 -0.1)">
       <defs>
        <path id="DejaVuSans-36" d="M 2113 2584 
Q 1688 2584 1439 2293 
Q 1191 2003 1191 1497 
Q 1191 994 1439 701 
Q 1688 409 2113 409 
Q 2538 409 2786 701 
Q 3034 994 3034 1497 
Q 3034 2003 2786 2293 
Q 2538 2584 2113 2584 
z
M 3366 4563 
L 3366 3988 
Q 3128 4100 2886 4159 
Q 2644 4219 2406 4219 
Q 1781 4219 1451 3797 
Q 1122 3375 1075 2522 
Q 1259 2794 1537 2939 
Q 1816 3084 2150 3084 
Q 2853 3084 3261 2657 
Q 3669 2231 3669 1497 
Q 3669 778 3244 343 
Q 2819 -91 2113 -91 
Q 1303 -91 875 529 
Q 447 1150 447 2328 
Q 447 3434 972 4092 
Q 1497 4750 2381 4750 
Q 2619 4750 2861 4703 
Q 3103 4656 3366 4563 
z
" transform="scale(0.015625)"/>
       </defs>
       <use xlink:href="#DejaVuSans-36"/>
      </g>
     </g>
    </g>
    <g id="ytick_8">
     <g id="line2d_18">
      <path d="M 36.403365 165.613442 
L 155.951323 165.613442 
" clip-path="url(#paeddf164e9)" style="fill: none; stroke: #b0b0b0; stroke-width: 0.2; stroke-linecap: square"/>
     </g>
     <g id="line2d_19">
      <g>
       <use xlink:href="#m130ae6af1b" x="36.403365" y="165.613442" style="stroke: #000000; stroke-width: 0.8"/>
      </g>
     </g>
     <g id="text_11">
      <!-- 7 -->
      <g transform="translate(23.040865 169.412661) scale(0.1 -0.1)">
       <defs>
        <path id="DejaVuSans-37" d="M 525 4666 
L 3525 4666 
L 3525 4397 
L 1831 0 
L 1172 0 
L 2766 4134 
L 525 4134 
L 525 4666 
z
" transform="scale(0.015625)"/>
       </defs>
       <use xlink:href="#DejaVuSans-37"/>
      </g>
     </g>
    </g>
    <g id="ytick_9">
     <g id="line2d_20">
      <path d="M 36.403365 147.176558 
L 155.951323 147.176558 
" clip-path="url(#paeddf164e9)" style="fill: none; stroke: #b0b0b0; stroke-width: 0.2; stroke-linecap: square"/>
     </g>
     <g id="line2d_21">
      <g>
       <use xlink:href="#m130ae6af1b" x="36.403365" y="147.176558" style="stroke: #000000; stroke-width: 0.8"/>
      </g>
     </g>
     <g id="text_12">
      <!-- 8 -->
      <g transform="translate(23.040865 150.975776) scale(0.1 -0.1)">
       <defs>
        <path id="DejaVuSans-38" d="M 2034 2216 
Q 1584 2216 1326 1975 
Q 1069 1734 1069 1313 
Q 1069 891 1326 650 
Q 1584 409 2034 409 
Q 2484 409 2743 651 
Q 3003 894 3003 1313 
Q 3003 1734 2745 1975 
Q 2488 2216 2034 2216 
z
M 1403 2484 
Q 997 2584 770 2862 
Q 544 3141 544 3541 
Q 544 4100 942 4425 
Q 1341 4750 2034 4750 
Q 2731 4750 3128 4425 
Q 3525 4100 3525 3541 
Q 3525 3141 3298 2862 
Q 3072 2584 2669 2484 
Q 3125 2378 3379 2068 
Q 3634 1759 3634 1313 
Q 3634 634 3220 271 
Q 2806 -91 2034 -91 
Q 1263 -91 848 271 
Q 434 634 434 1313 
Q 434 1759 690 2068 
Q 947 2378 1403 2484 
z
M 1172 3481 
Q 1172 3119 1398 2916 
Q 1625 2713 2034 2713 
Q 2441 2713 2670 2916 
Q 2900 3119 2900 3481 
Q 2900 3844 2670 4047 
Q 2441 4250 2034 4250 
Q 1625 4250 1398 4047 
Q 1172 3844 1172 3481 
z
" transform="scale(0.015625)"/>
       </defs>
       <use xlink:href="#DejaVuSans-38"/>
      </g>
     </g>
    </g>
    <g id="ytick_10">
     <g id="line2d_22">
      <path d="M 36.403365 128.739673 
L 155.951323 128.739673 
" clip-path="url(#paeddf164e9)" style="fill: none; stroke: #b0b0b0; stroke-width: 0.2; stroke-linecap: square"/>
     </g>
     <g id="line2d_23">
      <g>
       <use xlink:href="#m130ae6af1b" x="36.403365" y="128.739673" style="stroke: #000000; stroke-width: 0.8"/>
      </g>
     </g>
     <g id="text_13">
      <!-- 9 -->
      <g transform="translate(23.040865 132.538892) scale(0.1 -0.1)">
       <defs>
        <path id="DejaVuSans-39" d="M 703 97 
L 703 672 
Q 941 559 1184 500 
Q 1428 441 1663 441 
Q 2288 441 2617 861 
Q 2947 1281 2994 2138 
Q 2813 1869 2534 1725 
Q 2256 1581 1919 1581 
Q 1219 1581 811 2004 
Q 403 2428 403 3163 
Q 403 3881 828 4315 
Q 1253 4750 1959 4750 
Q 2769 4750 3195 4129 
Q 3622 3509 3622 2328 
Q 3622 1225 3098 567 
Q 2575 -91 1691 -91 
Q 1453 -91 1209 -44 
Q 966 3 703 97 
z
M 1959 2075 
Q 2384 2075 2632 2365 
Q 2881 2656 2881 3163 
Q 2881 3666 2632 3958 
Q 2384 4250 1959 4250 
Q 1534 4250 1286 3958 
Q 1038 3666 1038 3163 
Q 1038 2656 1286 2365 
Q 1534 2075 1959 2075 
z
" transform="scale(0.015625)"/>
       </defs>
       <use xlink:href="#DejaVuSans-39"/>
      </g>
     </g>
    </g>
    <g id="ytick_11">
     <g id="line2d_24">
      <path d="M 36.403365 110.302788 
L 155.951323 110.302788 
" clip-path="url(#paeddf164e9)" style="fill: none; stroke: #b0b0b0; stroke-width: 0.2; stroke-linecap: square"/>
     </g>
     <g id="line2d_25">
      <g>
       <use xlink:href="#m130ae6af1b" x="36.403365" y="110.302788" style="stroke: #000000; stroke-width: 0.8"/>
      </g>
     </g>
     <g id="text_14">
      <!-- 10 -->
      <g transform="translate(16.678365 114.102007) scale(0.1 -0.1)">
       <use xlink:href="#DejaVuSans-31"/>
       <use xlink:href="#DejaVuSans-30" x="63.623047"/>
      </g>
     </g>
    </g>
    <g id="ytick_12">
     <g id="line2d_26">
      <path d="M 36.403365 91.865904 
L 155.951323 91.865904 
" clip-path="url(#paeddf164e9)" style="fill: none; stroke: #b0b0b0; stroke-width: 0.2; stroke-linecap: square"/>
     </g>
     <g id="line2d_27">
      <g>
       <use xlink:href="#m130ae6af1b" x="36.403365" y="91.865904" style="stroke: #000000; stroke-width: 0.8"/>
      </g>
     </g>
     <g id="text_15">
      <!-- 11 -->
      <g transform="translate(16.678365 95.665122) scale(0.1 -0.1)">
       <use xlink:href="#DejaVuSans-31"/>
       <use xlink:href="#DejaVuSans-31" x="63.623047"/>
      </g>
     </g>
    </g>
    <g id="ytick_13">
     <g id="line2d_28">
      <path d="M 36.403365 73.429019 
L 155.951323 73.429019 
" clip-path="url(#paeddf164e9)" style="fill: none; stroke: #b0b0b0; stroke-width: 0.2; stroke-linecap: square"/>
     </g>
     <g id="line2d_29">
      <g>
       <use xlink:href="#m130ae6af1b" x="36.403365" y="73.429019" style="stroke: #000000; stroke-width: 0.8"/>
      </g>
     </g>
     <g id="text_16">
      <!-- 12 -->
      <g transform="translate(16.678365 77.228238) scale(0.1 -0.1)">
       <use xlink:href="#DejaVuSans-31"/>
       <use xlink:href="#DejaVuSans-32" x="63.623047"/>
      </g>
     </g>
    </g>
    <g id="ytick_14">
     <g id="line2d_30">
      <path d="M 36.403365 54.992134 
L 155.951323 54.992134 
" clip-path="url(#paeddf164e9)" style="fill: none; stroke: #b0b0b0; stroke-width: 0.2; stroke-linecap: square"/>
     </g>
     <g id="line2d_31">
      <g>
       <use xlink:href="#m130ae6af1b" x="36.403365" y="54.992134" style="stroke: #000000; stroke-width: 0.8"/>
      </g>
     </g>
     <g id="text_17">
      <!-- 13 -->
      <g transform="translate(16.678365 58.791353) scale(0.1 -0.1)">
       <use xlink:href="#DejaVuSans-31"/>
       <use xlink:href="#DejaVuSans-33" x="63.623047"/>
      </g>
     </g>
    </g>
    <g id="ytick_15">
     <g id="line2d_32">
      <path d="M 36.403365 36.55525 
L 155.951323 36.55525 
" clip-path="url(#paeddf164e9)" style="fill: none; stroke: #b0b0b0; stroke-width: 0.2; stroke-linecap: square"/>
     </g>
     <g id="line2d_33">
      <g>
       <use xlink:href="#m130ae6af1b" x="36.403365" y="36.55525" style="stroke: #000000; stroke-width: 0.8"/>
      </g>
     </g>
     <g id="text_18">
      <!-- 14 -->
      <g transform="translate(16.678365 40.354468) scale(0.1 -0.1)">
       <use xlink:href="#DejaVuSans-31"/>
       <use xlink:href="#DejaVuSans-34" x="63.623047"/>
      </g>
     </g>
    </g>
    <g id="text_19">
     <!-- Granules -->
     <g transform="translate(10.598678 178.796562) rotate(-90) scale(0.1 -0.1)">
      <defs>
       <path id="DejaVuSans-72" d="M 2631 2963 
Q 2534 3019 2420 3045 
Q 2306 3072 2169 3072 
Q 1681 3072 1420 2755 
Q 1159 2438 1159 1844 
L 1159 0 
L 581 0 
L 581 3500 
L 1159 3500 
L 1159 2956 
Q 1341 3275 1631 3429 
Q 1922 3584 2338 3584 
Q 2397 3584 2469 3576 
Q 2541 3569 2628 3553 
L 2631 2963 
z
" transform="scale(0.015625)"/>
       <path id="DejaVuSans-61" d="M 2194 1759 
Q 1497 1759 1228 1600 
Q 959 1441 959 1056 
Q 959 750 1161 570 
Q 1363 391 1709 391 
Q 2188 391 2477 730 
Q 2766 1069 2766 1631 
L 2766 1759 
L 2194 1759 
z
M 3341 1997 
L 3341 0 
L 2766 0 
L 2766 531 
Q 2569 213 2275 61 
Q 1981 -91 1556 -91 
Q 1019 -91 701 211 
Q 384 513 384 1019 
Q 384 1609 779 1909 
Q 1175 2209 1959 2209 
L 2766 2209 
L 2766 2266 
Q 2766 2663 2505 2880 
Q 2244 3097 1772 3097 
Q 1472 3097 1187 3025 
Q 903 2953 641 2809 
L 641 3341 
Q 956 3463 1253 3523 
Q 1550 3584 1831 3584 
Q 2591 3584 2966 3190 
Q 3341 2797 3341 1997 
z
" transform="scale(0.015625)"/>
       <path id="DejaVuSans-75" d="M 544 1381 
L 544 3500 
L 1119 3500 
L 1119 1403 
Q 1119 906 1312 657 
Q 1506 409 1894 409 
Q 2359 409 2629 706 
Q 2900 1003 2900 1516 
L 2900 3500 
L 3475 3500 
L 3475 0 
L 2900 0 
L 2900 538 
Q 2691 219 2414 64 
Q 2138 -91 1772 -91 
Q 1169 -91 856 284 
Q 544 659 544 1381 
z
M 1991 3584 
L 1991 3584 
z
" transform="scale(0.015625)"/>
       <path id="DejaVuSans-6c" d="M 603 4863 
L 1178 4863 
L 1178 0 
L 603 0 
L 603 4863 
z
" transform="scale(0.015625)"/>
       <path id="DejaVuSans-65" d="M 3597 1894 
L 3597 1613 
L 953 1613 
Q 991 1019 1311 708 
Q 1631 397 2203 397 
Q 2534 397 2845 478 
Q 3156 559 3463 722 
L 3463 178 
Q 3153 47 2828 -22 
Q 2503 -91 2169 -91 
Q 1331 -91 842 396 
Q 353 884 353 1716 
Q 353 2575 817 3079 
Q 1281 3584 2069 3584 
Q 2775 3584 3186 3129 
Q 3597 2675 3597 1894 
z
M 3022 2063 
Q 3016 2534 2758 2815 
Q 2500 3097 2075 3097 
Q 1594 3097 1305 2825 
Q 1016 2553 972 2059 
L 3022 2063 
z
" transform="scale(0.015625)"/>
       <path id="DejaVuSans-73" d="M 2834 3397 
L 2834 2853 
Q 2591 2978 2328 3040 
Q 2066 3103 1784 3103 
Q 1356 3103 1142 2972 
Q 928 2841 928 2578 
Q 928 2378 1081 2264 
Q 1234 2150 1697 2047 
L 1894 2003 
Q 2506 1872 2764 1633 
Q 3022 1394 3022 966 
Q 3022 478 2636 193 
Q 2250 -91 1575 -91 
Q 1294 -91 989 -36 
Q 684 19 347 128 
L 347 722 
Q 666 556 975 473 
Q 1284 391 1588 391 
Q 1994 391 2212 530 
Q 2431 669 2431 922 
Q 2431 1156 2273 1281 
Q 2116 1406 1581 1522 
L 1381 1569 
Q 847 1681 609 1914 
Q 372 2147 372 2553 
Q 372 3047 722 3315 
Q 1072 3584 1716 3584 
Q 2034 3584 2315 3537 
Q 2597 3491 2834 3397 
z
" transform="scale(0.015625)"/>
      </defs>
      <use xlink:href="#DejaVuSans-47"/>
      <use xlink:href="#DejaVuSans-72" x="77.490234"/>
      <use xlink:href="#DejaVuSans-61" x="118.603516"/>
      <use xlink:href="#DejaVuSans-6e" x="179.882812"/>
      <use xlink:href="#DejaVuSans-75" x="243.261719"/>
      <use xlink:href="#DejaVuSans-6c" x="306.640625"/>
      <use xlink:href="#DejaVuSans-65" x="334.423828"/>
      <use xlink:href="#DejaVuSans-73" x="395.947266"/>
     </g>
    </g>
   </g>
   <g id="line2d_34">
    <path d="M 56.328025 294.671635 
L 56.328025 294.671635 
" clip-path="url(#paeddf164e9)" style="fill: none; stroke: #000000; stroke-width: 1.5; stroke-linecap: square"/>
   </g>
   <g id="line2d_35">
    <path d="M 56.328025 294.671635 
L 56.328025 294.671635 
" clip-path="url(#paeddf164e9)" style="fill: none; stroke: #000000; stroke-width: 4.5; stroke-linecap: square"/>
   </g>
   <g id="line2d_36">
    <path d="M 56.328025 294.671635 
" clip-path="url(#paeddf164e9)" style="fill: none; stroke: #000000; stroke-width: 1.5; stroke-linecap: square"/>
    <defs>
     <path id="m04feddb695" d="M 1.875 0 
L -1.875 -0 
" style="stroke: #ffffff; stroke-width: 0.9"/>
    </defs>
    <g clip-path="url(#paeddf164e9)">
     <use xlink:href="#m04feddb695" x="56.328025" y="294.671635" style="fill: #ffffff; stroke: #ffffff; stroke-width: 0.9"/>
    </g>
   </g>
   <g id="line2d_37">
    <path d="M 96.177344 294.671635 
L 96.177344 257.797866 
" clip-path="url(#paeddf164e9)" style="fill: none; stroke: #000000; stroke-width: 1.5; stroke-linecap: square"/>
   </g>
   <g id="line2d_38">
    <path d="M 96.177344 294.671635 
L 96.177344 276.23475 
" clip-path="url(#paeddf164e9)" style="fill: none; stroke: #000000; stroke-width: 4.5; stroke-linecap: square"/>
   </g>
   <g id="line2d_39">
    <path d="M 96.177344 294.671635 
" clip-path="url(#paeddf164e9)" style="fill: none; stroke: #000000; stroke-width: 1.5; stroke-linecap: square"/>
    <g clip-path="url(#paeddf164e9)">
     <use xlink:href="#m04feddb695" x="96.177344" y="294.671635" style="fill: #ffffff; stroke: #ffffff; stroke-width: 0.9"/>
    </g>
   </g>
   <g id="line2d_40">
    <path d="M 136.026663 294.671635 
L 136.026663 257.797866 
" clip-path="url(#paeddf164e9)" style="fill: none; stroke: #000000; stroke-width: 1.5; stroke-linecap: square"/>
   </g>
   <g id="line2d_41">
    <path d="M 136.026663 294.671635 
L 136.026663 276.23475 
" clip-path="url(#paeddf164e9)" style="fill: none; stroke: #000000; stroke-width: 4.5; stroke-linecap: square"/>
   </g>
   <g id="line2d_42">
    <path d="M 136.026663 294.671635 
" clip-path="url(#paeddf164e9)" style="fill: none; stroke: #000000; stroke-width: 1.5; stroke-linecap: square"/>
    <g clip-path="url(#paeddf164e9)">
     <use xlink:href="#m04feddb695" x="136.026663" y="294.671635" style="fill: #ffffff; stroke: #ffffff; stroke-width: 0.9"/>
    </g>
   </g>
   <g id="patch_3">
    <path d="M 36.403365 294.671635 
L 36.403365 18.118365 
" style="fill: none; stroke: #000000; stroke-width: 0.8; stroke-linejoin: miter; stroke-linecap: square"/>
   </g>
   <g id="patch_4">
    <path d="M 155.951323 294.671635 
L 155.951323 18.118365 
" style="fill: none; stroke: #000000; stroke-width: 0.8; stroke-linejoin: miter; stroke-linecap: square"/>
   </g>
   <g id="patch_5">
    <path d="M 36.403365 294.671635 
L 155.951322 294.671635 
" style="fill: none; stroke: #000000; stroke-width: 0.8; stroke-linejoin: miter; stroke-linecap: square"/>
   </g>
   <g id="patch_6">
    <path d="M 36.403365 18.118365 
L 155.951322 18.118365 
" style="fill: none; stroke: #000000; stroke-width: 0.8; stroke-linejoin: miter; stroke-linecap: square"/>
   </g>
   <g id="text_20">
    <!-- DDX3X WT -->
    <g transform="translate(63.395781 12.118365) scale(0.12 -0.12)">
     <defs>
      <path id="DejaVuSans-44" d="M 1259 4147 
L 1259 519 
L 2022 519 
Q 2988 519 3436 956 
Q 3884 1394 3884 2338 
Q 3884 3275 3436 3711 
Q 2988 4147 2022 4147 
L 1259 4147 
z
M 628 4666 
L 1925 4666 
Q 3281 4666 3915 4102 
Q 4550 3538 4550 2338 
Q 4550 1131 3912 565 
Q 3275 0 1925 0 
L 628 0 
L 628 4666 
z
" transform="scale(0.015625)"/>
      <path id="DejaVuSans-58" d="M 403 4666 
L 1081 4666 
L 2241 2931 
L 3406 4666 
L 4084 4666 
L 2584 2425 
L 4184 0 
L 3506 0 
L 2194 1984 
L 872 0 
L 191 0 
L 1856 2491 
L 403 4666 
z
" transform="scale(0.015625)"/>
      <path id="DejaVuSans-20" transform="scale(0.015625)"/>
      <path id="DejaVuSans-57" d="M 213 4666 
L 850 4666 
L 1831 722 
L 2809 4666 
L 3519 4666 
L 4500 722 
L 5478 4666 
L 6119 4666 
L 4947 0 
L 4153 0 
L 3169 4050 
L 2175 0 
L 1381 0 
L 213 4666 
z
" transform="scale(0.015625)"/>
     </defs>
     <use xlink:href="#DejaVuSans-44"/>
     <use xlink:href="#DejaVuSans-44" x="77.001953"/>
     <use xlink:href="#DejaVuSans-58" x="154.003906"/>
     <use xlink:href="#DejaVuSans-33" x="222.509766"/>
     <use xlink:href="#DejaVuSans-58" x="286.132812"/>
     <use xlink:href="#DejaVuSans-20" x="354.638672"/>
     <use xlink:href="#DejaVuSans-57" x="386.425781"/>
     <use xlink:href="#DejaVuSans-54" x="485.302734"/>
    </g>
   </g>
  </g>
  <g id="axes_2">
   <g id="patch_7">
    <path d="M 165.451802 294.671635 
L 284.99976 294.671635 
L 284.99976 18.118365 
L 165.451802 18.118365 
z
" style="fill: #ffffff"/>
   </g>
   <g id="PolyCollection_4">
    <path d="M 187.575877 296.538766 
L 183.177048 296.538766 
L 180.567839 296.128583 
L 176.70894 295.718401 
L 172.496051 295.308219 
L 169.595807 294.898037 
L 169.436734 294.487855 
L 172.102599 294.077673 
L 176.263191 293.667491 
L 180.2181 293.257309 
L 182.969275 292.847126 
L 184.450339 292.436944 
L 185.082705 292.026762 
L 185.299643 291.61658 
L 185.3599 291.206398 
L 185.373518 290.796216 
L 185.376031 290.386034 
L 185.37641 289.975852 
L 185.376457 289.565669 
L 185.376462 289.155487 
L 185.376462 288.745305 
L 185.376462 288.335123 
L 185.376462 287.924941 
L 185.376462 287.514759 
L 185.376462 287.104577 
L 185.376462 286.694395 
L 185.376462 286.284212 
L 185.376462 285.87403 
L 185.376462 285.463848 
L 185.376462 285.053666 
L 185.376462 284.643484 
L 185.376462 284.233302 
L 185.376462 283.82312 
L 185.376462 283.412938 
L 185.376462 283.002755 
L 185.376462 282.592573 
L 185.376462 282.182391 
L 185.376462 281.772209 
L 185.376462 281.362027 
L 185.376461 280.951845 
L 185.376454 280.541663 
L 185.376406 280.131481 
L 185.376141 279.721298 
L 185.37496 279.311116 
L 185.37066 278.900934 
L 185.357985 278.490752 
L 185.327952 278.08057 
L 185.271461 277.670388 
L 185.189087 277.260206 
L 185.100791 276.850024 
L 185.042089 276.439841 
L 185.042089 276.029659 
L 185.100791 275.619477 
L 185.189087 275.209295 
L 185.271461 274.799113 
L 185.327952 274.388931 
L 185.357985 273.978749 
L 185.37066 273.568567 
L 185.37496 273.158384 
L 185.376141 272.748202 
L 185.376406 272.33802 
L 185.376454 271.927838 
L 185.376461 271.517656 
L 185.376462 271.107474 
L 185.376462 270.697292 
L 185.376462 270.28711 
L 185.376462 269.876927 
L 185.376462 269.466745 
L 185.376462 269.056563 
L 185.376462 268.646381 
L 185.376462 268.236199 
L 185.376462 267.826017 
L 185.376462 267.415835 
L 185.376462 267.005653 
L 185.376462 266.59547 
L 185.376462 266.185288 
L 185.376462 265.775106 
L 185.376462 265.364924 
L 185.376462 264.954742 
L 185.376462 264.54456 
L 185.376462 264.134378 
L 185.376462 263.724196 
L 185.376462 263.314013 
L 185.376462 262.903831 
L 185.376462 262.493649 
L 185.376461 262.083467 
L 185.376455 261.673285 
L 185.376423 261.263103 
L 185.376282 260.852921 
L 185.375774 260.442739 
L 185.374293 260.032556 
L 185.370825 259.622374 
L 185.364382 259.212192 
L 185.35512 258.80201 
L 185.345376 258.391828 
L 185.339133 257.981646 
L 185.339505 257.571464 
L 185.346297 257.161282 
L 185.356163 256.751099 
L 185.365201 256.340917 
L 185.371311 255.930735 
L 185.381613 255.930735 
L 185.381613 255.930735 
L 185.387723 256.340917 
L 185.396761 256.751099 
L 185.406627 257.161282 
L 185.413419 257.571464 
L 185.413792 257.981646 
L 185.407548 258.391828 
L 185.397805 258.80201 
L 185.388543 259.212192 
L 185.3821 259.622374 
L 185.378631 260.032556 
L 185.37715 260.442739 
L 185.376642 260.852921 
L 185.376501 261.263103 
L 185.376469 261.673285 
L 185.376463 262.083467 
L 185.376462 262.493649 
L 185.376462 262.903831 
L 185.376462 263.314013 
L 185.376462 263.724196 
L 185.376462 264.134378 
L 185.376462 264.54456 
L 185.376462 264.954742 
L 185.376462 265.364924 
L 185.376462 265.775106 
L 185.376462 266.185288 
L 185.376462 266.59547 
L 185.376462 267.005653 
L 185.376462 267.415835 
L 185.376462 267.826017 
L 185.376462 268.236199 
L 185.376462 268.646381 
L 185.376462 269.056563 
L 185.376462 269.466745 
L 185.376462 269.876927 
L 185.376462 270.28711 
L 185.376462 270.697292 
L 185.376462 271.107474 
L 185.376463 271.517656 
L 185.37647 271.927838 
L 185.376519 272.33802 
L 185.376783 272.748202 
L 185.377964 273.158384 
L 185.382264 273.568567 
L 185.394939 273.978749 
L 185.424973 274.388931 
L 185.481463 274.799113 
L 185.563837 275.209295 
L 185.652133 275.619477 
L 185.710835 276.029659 
L 185.710835 276.439841 
L 185.652133 276.850024 
L 185.563837 277.260206 
L 185.481463 277.670388 
L 185.424973 278.08057 
L 185.394939 278.490752 
L 185.382264 278.900934 
L 185.377964 279.311116 
L 185.376783 279.721298 
L 185.376519 280.131481 
L 185.37647 280.541663 
L 185.376463 280.951845 
L 185.376462 281.362027 
L 185.376462 281.772209 
L 185.376462 282.182391 
L 185.376462 282.592573 
L 185.376462 283.002755 
L 185.376462 283.412938 
L 185.376462 283.82312 
L 185.376462 284.233302 
L 185.376462 284.643484 
L 185.376462 285.053666 
L 185.376462 285.463848 
L 185.376462 285.87403 
L 185.376462 286.284212 
L 185.376462 286.694395 
L 185.376462 287.104577 
L 185.376462 287.514759 
L 185.376462 287.924941 
L 185.376462 288.335123 
L 185.376462 288.745305 
L 185.376463 289.155487 
L 185.376467 289.565669 
L 185.376514 289.975852 
L 185.376893 290.386034 
L 185.379406 290.796216 
L 185.393024 291.206398 
L 185.453281 291.61658 
L 185.670219 292.026762 
L 186.302585 292.436944 
L 187.783649 292.847126 
L 190.534824 293.257309 
L 194.489733 293.667491 
L 198.650325 294.077673 
L 201.31619 294.487855 
L 201.157117 294.898037 
L 198.256873 295.308219 
L 194.043984 295.718401 
L 190.185085 296.128583 
L 187.575877 296.538766 
L 187.575877 296.538766 
z
" clip-path="url(#pcba38d7eee)" style="fill: none; stroke: #00ffff"/>
   </g>
   <g id="PolyCollection_5">
    <path d="M 227.149584 315.577251 
L 223.301979 315.577251 
L 222.49502 313.665066 
L 221.475525 311.752881 
L 220.241956 309.840696 
L 218.815359 307.928511 
L 217.242794 306.016326 
L 215.596787 304.104141 
L 213.969886 302.191956 
L 212.464438 300.279771 
L 211.178985 298.367586 
L 210.193819 296.455401 
L 209.558771 294.543216 
L 209.286054 292.631031 
L 209.349903 290.718847 
L 209.693012 288.806662 
L 210.238081 286.894477 
L 210.901506 284.982292 
L 211.605932 283.070107 
L 212.289025 281.157922 
L 212.907241 279.245737 
L 213.434985 277.333552 
L 213.860839 275.421367 
L 214.183049 273.509182 
L 214.406118 271.596997 
L 214.539345 269.684812 
L 214.597008 267.772627 
L 214.599 265.860442 
L 214.570552 263.948257 
L 214.540109 262.036072 
L 214.535404 260.123888 
L 214.578682 258.211703 
L 214.682626 256.299518 
L 214.848433 254.387333 
L 215.066839 252.475148 
L 215.321826 250.562963 
L 215.595822 248.650778 
L 215.874681 246.738593 
L 216.150874 244.826408 
L 216.424005 242.914223 
L 216.698795 241.002038 
L 216.981532 239.089853 
L 217.276475 237.177668 
L 217.583577 235.265483 
L 217.898257 233.353298 
L 218.213135 231.441113 
L 218.520869 229.528929 
L 218.81689 227.616744 
L 219.100966 225.704559 
L 219.377033 223.792374 
L 219.651456 221.880189 
L 219.930455 219.968004 
L 220.217695 218.055819 
L 220.512888 216.143634 
L 220.81184 214.231449 
L 221.107796 212.319264 
L 221.393489 210.407079 
L 221.663118 208.494894 
L 221.913603 206.582709 
L 222.144787 204.670524 
L 222.358692 202.758339 
L 222.558249 200.846154 
L 222.74604 198.93397 
L 222.923513 197.021785 
L 223.090866 195.1096 
L 223.24752 193.197415 
L 223.392877 191.28523 
L 223.527011 189.373045 
L 223.650992 187.46086 
L 223.766757 185.548675 
L 223.876601 183.63649 
L 223.982526 181.724305 
L 224.085694 179.81212 
L 224.186189 177.899935 
L 224.283119 175.98775 
L 224.375016 174.075565 
L 224.460339 172.16338 
L 224.537927 170.251196 
L 224.607255 168.339011 
L 224.668469 166.426826 
L 224.722222 164.514641 
L 224.769429 162.602456 
L 224.811037 160.690271 
L 224.847882 158.778086 
L 224.880658 156.865901 
L 224.909981 154.953716 
L 224.936466 153.041531 
L 224.960782 151.129346 
L 224.983651 149.217161 
L 225.005765 147.304976 
L 225.027687 145.392791 
L 225.049741 143.480606 
L 225.071955 141.568421 
L 225.094066 139.656237 
L 225.11559 137.744052 
L 225.135933 135.831867 
L 225.154514 133.919682 
L 225.170872 132.007497 
L 225.184736 130.095312 
L 225.196038 128.183127 
L 225.204901 126.270942 
L 225.246661 126.270942 
L 225.246661 126.270942 
L 225.255524 128.183127 
L 225.266827 130.095312 
L 225.28069 132.007497 
L 225.297049 133.919682 
L 225.31563 135.831867 
L 225.335972 137.744052 
L 225.357496 139.656237 
L 225.379608 141.568421 
L 225.401822 143.480606 
L 225.423875 145.392791 
L 225.445797 147.304976 
L 225.467912 149.217161 
L 225.49078 151.129346 
L 225.515097 153.041531 
L 225.541581 154.953716 
L 225.570904 156.865901 
L 225.603681 158.778086 
L 225.640525 160.690271 
L 225.682133 162.602456 
L 225.729341 164.514641 
L 225.783094 166.426826 
L 225.844307 168.339011 
L 225.913636 170.251196 
L 225.991223 172.16338 
L 226.076546 174.075565 
L 226.168443 175.98775 
L 226.265374 177.899935 
L 226.365868 179.81212 
L 226.469037 181.724305 
L 226.574961 183.63649 
L 226.684806 185.548675 
L 226.800571 187.46086 
L 226.924552 189.373045 
L 227.058685 191.28523 
L 227.204042 193.197415 
L 227.360696 195.1096 
L 227.52805 197.021785 
L 227.705523 198.93397 
L 227.893314 200.846154 
L 228.09287 202.758339 
L 228.306776 204.670524 
L 228.537959 206.582709 
L 228.788444 208.494894 
L 229.058074 210.407079 
L 229.343766 212.319264 
L 229.639723 214.231449 
L 229.938675 216.143634 
L 230.233867 218.055819 
L 230.521107 219.968004 
L 230.800107 221.880189 
L 231.074529 223.792374 
L 231.350596 225.704559 
L 231.634672 227.616744 
L 231.930694 229.528929 
L 232.238427 231.441113 
L 232.553305 233.353298 
L 232.867985 235.265483 
L 233.175087 237.177668 
L 233.470031 239.089853 
L 233.752768 241.002038 
L 234.027558 242.914223 
L 234.300689 244.826408 
L 234.576881 246.738593 
L 234.855741 248.650778 
L 235.129736 250.562963 
L 235.384723 252.475148 
L 235.603129 254.387333 
L 235.768936 256.299518 
L 235.87288 258.211703 
L 235.916159 260.123888 
L 235.911454 262.036072 
L 235.881011 263.948257 
L 235.852562 265.860442 
L 235.854555 267.772627 
L 235.912217 269.684812 
L 236.045444 271.596997 
L 236.268513 273.509182 
L 236.590723 275.421367 
L 237.016577 277.333552 
L 237.544321 279.245737 
L 238.162537 281.157922 
L 238.84563 283.070107 
L 239.550056 284.982292 
L 240.213481 286.894477 
L 240.75855 288.806662 
L 241.10166 290.718847 
L 241.165509 292.631031 
L 240.892792 294.543216 
L 240.257743 296.455401 
L 239.272578 298.367586 
L 237.987125 300.279771 
L 236.481676 302.191956 
L 234.854775 304.104141 
L 233.208768 306.016326 
L 231.636203 307.928511 
L 230.209607 309.840696 
L 228.976037 311.752881 
L 227.956543 313.665066 
L 227.149584 315.577251 
L 227.149584 315.577251 
z
" clip-path="url(#pcba38d7eee)" style="fill: none; stroke: #00ffff"/>
   </g>
   <g id="PolyCollection_6">
    <path d="M 267.049976 313.977972 
L 263.100225 313.977972 
L 261.792822 311.353172 
L 260.004625 308.728371 
L 257.7907 306.10357 
L 255.334166 303.478769 
L 252.932458 300.853968 
L 250.930721 298.229167 
L 249.619017 295.604366 
L 249.135373 292.979565 
L 249.42197 290.354764 
L 250.258596 287.729963 
L 251.356962 285.105162 
L 252.466788 282.480361 
L 253.441484 279.855561 
L 254.239706 277.23076 
L 254.879178 274.605959 
L 255.383891 271.981158 
L 255.760455 269.356357 
L 256.011106 266.731556 
L 256.161979 264.106755 
L 256.276159 261.481954 
L 256.435998 258.857153 
L 256.704893 256.232352 
L 257.095328 253.607551 
L 257.565752 250.98275 
L 258.048267 248.35795 
L 258.48798 245.733149 
L 258.868379 243.108348 
L 259.208761 240.483547 
L 259.539784 237.858746 
L 259.876996 235.233945 
L 260.210741 232.609144 
L 260.516881 229.984343 
L 260.777544 227.359542 
L 260.995379 224.734741 
L 261.191455 222.10994 
L 261.389935 219.485139 
L 261.601821 216.860338 
L 261.819558 214.235538 
L 262.025301 211.610737 
L 262.205657 208.985936 
L 262.361832 206.361135 
L 262.508456 203.736334 
L 262.662999 201.111533 
L 262.834027 198.486732 
L 263.016482 195.861931 
L 263.196431 193.23713 
L 263.361008 190.612329 
L 263.506313 187.987528 
L 263.63838 185.362727 
L 263.767563 182.737927 
L 263.901015 180.113126 
L 264.038377 177.488325 
L 264.172896 174.863524 
L 264.296296 172.238723 
L 264.403678 169.613922 
L 264.49544 166.989121 
L 264.575704 164.36432 
L 264.648997 161.739519 
L 264.717577 159.114718 
L 264.780812 156.489917 
L 264.836399 153.865116 
L 264.882193 151.240316 
L 264.91742 148.615515 
L 264.942819 145.990714 
L 264.96004 143.365913 
L 264.970974 140.741112 
L 264.977434 138.116311 
L 264.981199 135.49151 
L 264.984105 132.866709 
L 264.987937 130.241908 
L 264.994058 127.617107 
L 265.003026 124.992306 
L 265.014435 122.367505 
L 265.027116 119.742704 
L 265.039595 117.117904 
L 265.050589 114.493103 
L 265.059327 111.868302 
L 265.065613 109.243501 
L 265.069674 106.6187 
L 265.071919 103.993899 
L 265.072711 101.369098 
L 265.072208 98.744297 
L 265.070309 96.119496 
L 265.066695 93.494695 
L 265.060969 90.869894 
L 265.052883 88.245093 
L 265.042613 85.620293 
L 265.030967 82.995492 
L 265.019416 80.370691 
L 265.009848 77.74589 
L 265.004085 75.121089 
L 265.003321 72.496288 
L 265.00772 69.871487 
L 265.016357 67.246686 
L 265.027537 64.621885 
L 265.039334 61.997084 
L 265.050122 59.372283 
L 265.058899 56.747482 
L 265.065341 54.122682 
L 265.08486 54.122682 
L 265.08486 54.122682 
L 265.091302 56.747482 
L 265.100079 59.372283 
L 265.110867 61.997084 
L 265.122664 64.621885 
L 265.133844 67.246686 
L 265.142481 69.871487 
L 265.146879 72.496288 
L 265.146116 75.121089 
L 265.140353 77.74589 
L 265.130785 80.370691 
L 265.119234 82.995492 
L 265.107588 85.620293 
L 265.097318 88.245093 
L 265.089232 90.869894 
L 265.083505 93.494695 
L 265.079892 96.119496 
L 265.077993 98.744297 
L 265.07749 101.369098 
L 265.078281 103.993899 
L 265.080527 106.6187 
L 265.084588 109.243501 
L 265.090873 111.868302 
L 265.099612 114.493103 
L 265.110606 117.117904 
L 265.123085 119.742704 
L 265.135766 122.367505 
L 265.147175 124.992306 
L 265.156143 127.617107 
L 265.162264 130.241908 
L 265.166096 132.866709 
L 265.169002 135.49151 
L 265.172766 138.116311 
L 265.179227 140.741112 
L 265.190161 143.365913 
L 265.207382 145.990714 
L 265.232781 148.615515 
L 265.268008 151.240316 
L 265.313802 153.865116 
L 265.369389 156.489917 
L 265.432624 159.114718 
L 265.501204 161.739519 
L 265.574497 164.36432 
L 265.654761 166.989121 
L 265.746523 169.613922 
L 265.853905 172.238723 
L 265.977305 174.863524 
L 266.111823 177.488325 
L 266.249186 180.113126 
L 266.382638 182.737927 
L 266.511821 185.362727 
L 266.643887 187.987528 
L 266.789193 190.612329 
L 266.953769 193.23713 
L 267.133719 195.861931 
L 267.316174 198.486732 
L 267.487202 201.111533 
L 267.641745 203.736334 
L 267.788369 206.361135 
L 267.944544 208.985936 
L 268.1249 211.610737 
L 268.330643 214.235538 
L 268.54838 216.860338 
L 268.760266 219.485139 
L 268.958746 222.10994 
L 269.154822 224.734741 
L 269.372656 227.359542 
L 269.63332 229.984343 
L 269.93946 232.609144 
L 270.273205 235.233945 
L 270.610417 237.858746 
L 270.941439 240.483547 
L 271.281822 243.108348 
L 271.662221 245.733149 
L 272.101934 248.35795 
L 272.584449 250.98275 
L 273.054872 253.607551 
L 273.445308 256.232352 
L 273.714203 258.857153 
L 273.874042 261.481954 
L 273.988222 264.106755 
L 274.139094 266.731556 
L 274.389746 269.356357 
L 274.76631 271.981158 
L 275.271022 274.605959 
L 275.910495 277.23076 
L 276.708717 279.855561 
L 277.683413 282.480361 
L 278.793239 285.105162 
L 279.891605 287.729963 
L 280.728231 290.354764 
L 281.014828 292.979565 
L 280.531184 295.604366 
L 279.219479 298.229167 
L 277.217742 300.853968 
L 274.816035 303.478769 
L 272.359501 306.10357 
L 270.145576 308.728371 
L 268.357379 311.353172 
L 267.049976 313.977972 
L 267.049976 313.977972 
z
" clip-path="url(#pcba38d7eee)" style="fill: none; stroke: #00ffff"/>
   </g>
   <g id="matplotlib.axis_3">
    <g id="xtick_4">
     <g id="line2d_43">
      <g>
       <use xlink:href="#mdb81bbace0" x="185.376462" y="294.671635" style="stroke: #000000; stroke-width: 0.8"/>
      </g>
     </g>
     <g id="text_21">
      <!-- CT -->
      <g transform="translate(188.135837 314.76226) rotate(-90) scale(0.1 -0.1)">
       <use xlink:href="#DejaVuSans-43"/>
       <use xlink:href="#DejaVuSans-54" x="69.824219"/>
      </g>
     </g>
    </g>
    <g id="xtick_5">
     <g id="line2d_44">
      <g>
       <use xlink:href="#mdb81bbace0" x="225.225781" y="294.671635" style="stroke: #000000; stroke-width: 0.8"/>
      </g>
     </g>
     <g id="text_22">
      <!-- ARS -->
      <g transform="translate(227.985156 321.809135) rotate(-90) scale(0.1 -0.1)">
       <use xlink:href="#DejaVuSans-41"/>
       <use xlink:href="#DejaVuSans-52" x="68.408203"/>
       <use xlink:href="#DejaVuSans-53" x="137.890625"/>
      </g>
     </g>
    </g>
    <g id="xtick_6">
     <g id="line2d_45">
      <g>
       <use xlink:href="#mdb81bbace0" x="265.0751" y="294.671635" style="stroke: #000000; stroke-width: 0.8"/>
      </g>
     </g>
     <g id="text_23">
      <!-- GLU-40min -->
      <g transform="translate(267.834475 356.99976) rotate(-90) scale(0.1 -0.1)">
       <use xlink:href="#DejaVuSans-47"/>
       <use xlink:href="#DejaVuSans-4c" x="77.490234"/>
       <use xlink:href="#DejaVuSans-55" x="128.203125"/>
       <use xlink:href="#DejaVuSans-2d" x="201.396484"/>
       <use xlink:href="#DejaVuSans-34" x="237.480469"/>
       <use xlink:href="#DejaVuSans-30" x="301.103516"/>
       <use xlink:href="#DejaVuSans-6d" x="364.726562"/>
       <use xlink:href="#DejaVuSans-69" x="462.138672"/>
       <use xlink:href="#DejaVuSans-6e" x="489.921875"/>
      </g>
     </g>
    </g>
   </g>
   <g id="matplotlib.axis_4">
    <g id="ytick_16">
     <g id="line2d_46">
      <path d="M 165.451802 294.671635 
L 284.99976 294.671635 
" clip-path="url(#pcba38d7eee)" style="fill: none; stroke: #b0b0b0; stroke-width: 0.2; stroke-linecap: square"/>
     </g>
     <g id="line2d_47">
      <g>
       <use xlink:href="#m130ae6af1b" x="165.451802" y="294.671635" style="stroke: #000000; stroke-width: 0.8"/>
      </g>
     </g>
    </g>
    <g id="ytick_17">
     <g id="line2d_48">
      <path d="M 165.451802 276.23475 
L 284.99976 276.23475 
" clip-path="url(#pcba38d7eee)" style="fill: none; stroke: #b0b0b0; stroke-width: 0.2; stroke-linecap: square"/>
     </g>
     <g id="line2d_49">
      <g>
       <use xlink:href="#m130ae6af1b" x="165.451802" y="276.23475" style="stroke: #000000; stroke-width: 0.8"/>
      </g>
     </g>
    </g>
    <g id="ytick_18">
     <g id="line2d_50">
      <path d="M 165.451802 257.797866 
L 284.99976 257.797866 
" clip-path="url(#pcba38d7eee)" style="fill: none; stroke: #b0b0b0; stroke-width: 0.2; stroke-linecap: square"/>
     </g>
     <g id="line2d_51">
      <g>
       <use xlink:href="#m130ae6af1b" x="165.451802" y="257.797866" style="stroke: #000000; stroke-width: 0.8"/>
      </g>
     </g>
    </g>
    <g id="ytick_19">
     <g id="line2d_52">
      <path d="M 165.451802 239.360981 
L 284.99976 239.360981 
" clip-path="url(#pcba38d7eee)" style="fill: none; stroke: #b0b0b0; stroke-width: 0.2; stroke-linecap: square"/>
     </g>
     <g id="line2d_53">
      <g>
       <use xlink:href="#m130ae6af1b" x="165.451802" y="239.360981" style="stroke: #000000; stroke-width: 0.8"/>
      </g>
     </g>
    </g>
    <g id="ytick_20">
     <g id="line2d_54">
      <path d="M 165.451802 220.924096 
L 284.99976 220.924096 
" clip-path="url(#pcba38d7eee)" style="fill: none; stroke: #b0b0b0; stroke-width: 0.2; stroke-linecap: square"/>
     </g>
     <g id="line2d_55">
      <g>
       <use xlink:href="#m130ae6af1b" x="165.451802" y="220.924096" style="stroke: #000000; stroke-width: 0.8"/>
      </g>
     </g>
    </g>
    <g id="ytick_21">
     <g id="line2d_56">
      <path d="M 165.451802 202.487212 
L 284.99976 202.487212 
" clip-path="url(#pcba38d7eee)" style="fill: none; stroke: #b0b0b0; stroke-width: 0.2; stroke-linecap: square"/>
     </g>
     <g id="line2d_57">
      <g>
       <use xlink:href="#m130ae6af1b" x="165.451802" y="202.487212" style="stroke: #000000; stroke-width: 0.8"/>
      </g>
     </g>
    </g>
    <g id="ytick_22">
     <g id="line2d_58">
      <path d="M 165.451802 184.050327 
L 284.99976 184.050327 
" clip-path="url(#pcba38d7eee)" style="fill: none; stroke: #b0b0b0; stroke-width: 0.2; stroke-linecap: square"/>
     </g>
     <g id="line2d_59">
      <g>
       <use xlink:href="#m130ae6af1b" x="165.451802" y="184.050327" style="stroke: #000000; stroke-width: 0.8"/>
      </g>
     </g>
    </g>
    <g id="ytick_23">
     <g id="line2d_60">
      <path d="M 165.451802 165.613442 
L 284.99976 165.613442 
" clip-path="url(#pcba38d7eee)" style="fill: none; stroke: #b0b0b0; stroke-width: 0.2; stroke-linecap: square"/>
     </g>
     <g id="line2d_61">
      <g>
       <use xlink:href="#m130ae6af1b" x="165.451802" y="165.613442" style="stroke: #000000; stroke-width: 0.8"/>
      </g>
     </g>
    </g>
    <g id="ytick_24">
     <g id="line2d_62">
      <path d="M 165.451802 147.176558 
L 284.99976 147.176558 
" clip-path="url(#pcba38d7eee)" style="fill: none; stroke: #b0b0b0; stroke-width: 0.2; stroke-linecap: square"/>
     </g>
     <g id="line2d_63">
      <g>
       <use xlink:href="#m130ae6af1b" x="165.451802" y="147.176558" style="stroke: #000000; stroke-width: 0.8"/>
      </g>
     </g>
    </g>
    <g id="ytick_25">
     <g id="line2d_64">
      <path d="M 165.451802 128.739673 
L 284.99976 128.739673 
" clip-path="url(#pcba38d7eee)" style="fill: none; stroke: #b0b0b0; stroke-width: 0.2; stroke-linecap: square"/>
     </g>
     <g id="line2d_65">
      <g>
       <use xlink:href="#m130ae6af1b" x="165.451802" y="128.739673" style="stroke: #000000; stroke-width: 0.8"/>
      </g>
     </g>
    </g>
    <g id="ytick_26">
     <g id="line2d_66">
      <path d="M 165.451802 110.302788 
L 284.99976 110.302788 
" clip-path="url(#pcba38d7eee)" style="fill: none; stroke: #b0b0b0; stroke-width: 0.2; stroke-linecap: square"/>
     </g>
     <g id="line2d_67">
      <g>
       <use xlink:href="#m130ae6af1b" x="165.451802" y="110.302788" style="stroke: #000000; stroke-width: 0.8"/>
      </g>
     </g>
    </g>
    <g id="ytick_27">
     <g id="line2d_68">
      <path d="M 165.451802 91.865904 
L 284.99976 91.865904 
" clip-path="url(#pcba38d7eee)" style="fill: none; stroke: #b0b0b0; stroke-width: 0.2; stroke-linecap: square"/>
     </g>
     <g id="line2d_69">
      <g>
       <use xlink:href="#m130ae6af1b" x="165.451802" y="91.865904" style="stroke: #000000; stroke-width: 0.8"/>
      </g>
     </g>
    </g>
    <g id="ytick_28">
     <g id="line2d_70">
      <path d="M 165.451802 73.429019 
L 284.99976 73.429019 
" clip-path="url(#pcba38d7eee)" style="fill: none; stroke: #b0b0b0; stroke-width: 0.2; stroke-linecap: square"/>
     </g>
     <g id="line2d_71">
      <g>
       <use xlink:href="#m130ae6af1b" x="165.451802" y="73.429019" style="stroke: #000000; stroke-width: 0.8"/>
      </g>
     </g>
    </g>
    <g id="ytick_29">
     <g id="line2d_72">
      <path d="M 165.451802 54.992134 
L 284.99976 54.992134 
" clip-path="url(#pcba38d7eee)" style="fill: none; stroke: #b0b0b0; stroke-width: 0.2; stroke-linecap: square"/>
     </g>
     <g id="line2d_73">
      <g>
       <use xlink:href="#m130ae6af1b" x="165.451802" y="54.992134" style="stroke: #000000; stroke-width: 0.8"/>
      </g>
     </g>
    </g>
    <g id="ytick_30">
     <g id="line2d_74">
      <path d="M 165.451802 36.55525 
L 284.99976 36.55525 
" clip-path="url(#pcba38d7eee)" style="fill: none; stroke: #b0b0b0; stroke-width: 0.2; stroke-linecap: square"/>
     </g>
     <g id="line2d_75">
      <g>
       <use xlink:href="#m130ae6af1b" x="165.451802" y="36.55525" style="stroke: #000000; stroke-width: 0.8"/>
      </g>
     </g>
    </g>
   </g>
   <g id="line2d_76">
    <path d="M 185.376462 294.671635 
L 185.376462 294.671635 
" clip-path="url(#pcba38d7eee)" style="fill: none; stroke: #00ffff; stroke-width: 1.5; stroke-linecap: square"/>
   </g>
   <g id="line2d_77">
    <path d="M 185.376462 294.671635 
L 185.376462 294.671635 
" clip-path="url(#pcba38d7eee)" style="fill: none; stroke: #00ffff; stroke-width: 4.5; stroke-linecap: square"/>
   </g>
   <g id="line2d_78">
    <path d="M 185.376462 294.671635 
" clip-path="url(#pcba38d7eee)" style="fill: none; stroke: #00ffff; stroke-width: 1.5; stroke-linecap: square"/>
    <g clip-path="url(#pcba38d7eee)">
     <use xlink:href="#m04feddb695" x="185.376462" y="294.671635" style="fill: #ffffff; stroke: #ffffff; stroke-width: 0.9"/>
    </g>
   </g>
   <g id="line2d_79">
    <path d="M 225.225781 294.671635 
L 225.225781 165.613442 
" clip-path="url(#pcba38d7eee)" style="fill: none; stroke: #00ffff; stroke-width: 1.5; stroke-linecap: square"/>
   </g>
   <g id="line2d_80">
    <path d="M 225.225781 294.671635 
L 225.225781 239.360981 
" clip-path="url(#pcba38d7eee)" style="fill: none; stroke: #00ffff; stroke-width: 4.5; stroke-linecap: square"/>
   </g>
   <g id="line2d_81">
    <path d="M 225.225781 276.23475 
" clip-path="url(#pcba38d7eee)" style="fill: none; stroke: #00ffff; stroke-width: 1.5; stroke-linecap: square"/>
    <g clip-path="url(#pcba38d7eee)">
     <use xlink:href="#m04feddb695" x="225.225781" y="276.23475" style="fill: #ffffff; stroke: #ffffff; stroke-width: 0.9"/>
    </g>
   </g>
   <g id="line2d_82">
    <path d="M 265.0751 294.671635 
L 265.0751 165.613442 
" clip-path="url(#pcba38d7eee)" style="fill: none; stroke: #00ffff; stroke-width: 1.5; stroke-linecap: square"/>
   </g>
   <g id="line2d_83">
    <path d="M 265.0751 294.671635 
L 265.0751 239.360981 
" clip-path="url(#pcba38d7eee)" style="fill: none; stroke: #00ffff; stroke-width: 4.5; stroke-linecap: square"/>
   </g>
   <g id="line2d_84">
    <path d="M 265.0751 276.23475 
" clip-path="url(#pcba38d7eee)" style="fill: none; stroke: #00ffff; stroke-width: 1.5; stroke-linecap: square"/>
    <g clip-path="url(#pcba38d7eee)">
     <use xlink:href="#m04feddb695" x="265.0751" y="276.23475" style="fill: #ffffff; stroke: #ffffff; stroke-width: 0.9"/>
    </g>
   </g>
   <g id="patch_8">
    <path d="M 165.451802 294.671635 
L 165.451802 18.118365 
" style="fill: none; stroke: #000000; stroke-width: 0.8; stroke-linejoin: miter; stroke-linecap: square"/>
   </g>
   <g id="patch_9">
    <path d="M 284.99976 294.671635 
L 284.99976 18.118365 
" style="fill: none; stroke: #000000; stroke-width: 0.8; stroke-linejoin: miter; stroke-linecap: square"/>
   </g>
   <g id="patch_10">
    <path d="M 165.451802 294.671635 
L 284.99976 294.671635 
" style="fill: none; stroke: #000000; stroke-width: 0.8; stroke-linejoin: miter; stroke-linecap: square"/>
   </g>
   <g id="patch_11">
    <path d="M 165.451802 18.118365 
L 284.99976 18.118365 
" style="fill: none; stroke: #000000; stroke-width: 0.8; stroke-linejoin: miter; stroke-linecap: square"/>
   </g>
   <g id="text_24">
    <!-- DDX3X R326H -->
    <g transform="translate(181.907656 12.118365) scale(0.12 -0.12)">
     <defs>
      <path id="DejaVuSans-48" d="M 628 4666 
L 1259 4666 
L 1259 2753 
L 3553 2753 
L 3553 4666 
L 4184 4666 
L 4184 0 
L 3553 0 
L 3553 2222 
L 1259 2222 
L 1259 0 
L 628 0 
L 628 4666 
z
" transform="scale(0.015625)"/>
     </defs>
     <use xlink:href="#DejaVuSans-44"/>
     <use xlink:href="#DejaVuSans-44" x="77.001953"/>
     <use xlink:href="#DejaVuSans-58" x="154.003906"/>
     <use xlink:href="#DejaVuSans-33" x="222.509766"/>
     <use xlink:href="#DejaVuSans-58" x="286.132812"/>
     <use xlink:href="#DejaVuSans-20" x="354.638672"/>
     <use xlink:href="#DejaVuSans-52" x="386.425781"/>
     <use xlink:href="#DejaVuSans-33" x="455.908203"/>
     <use xlink:href="#DejaVuSans-32" x="519.53125"/>
     <use xlink:href="#DejaVuSans-36" x="583.154297"/>
     <use xlink:href="#DejaVuSans-48" x="646.777344"/>
    </g>
   </g>
  </g>
 </g>
 <defs>
  <clipPath id="paeddf164e9">
   <rect x="36.403365" y="18.118365" width="119.547957" height="276.55327"/>
  </clipPath>
  <clipPath id="pcba38d7eee">
   <rect x="165.451802" y="18.118365" width="119.547958" height="276.55327"/>
  </clipPath>
 </defs>
</svg>
