<?xml version="1.0" encoding="utf-8" standalone="no"?>
<!DOCTYPE svg PUBLIC "-//W3C//DTD SVG 1.1//EN"
  "http://www.w3.org/Graphics/SVG/1.1/DTD/svg11.dtd">
<svg xmlns:xlink="http://www.w3.org/1999/xlink" width="288pt" height="360pt" viewBox="0 0 288 360" xmlns="http://www.w3.org/2000/svg" version="1.1">
 <metadata>
  <rdf:RDF xmlns:dc="http://purl.org/dc/elements/1.1/" xmlns:cc="http://creativecommons.org/ns#" xmlns:rdf="http://www.w3.org/1999/02/22-rdf-syntax-ns#">
   <cc:Work>
    <dc:type rdf:resource="http://purl.org/dc/dcmitype/StillImage"/>
    <dc:date>2024-11-19T17:01:33.173389</dc:date>
    <dc:format>image/svg+xml</dc:format>
    <dc:creator>
     <cc:Agent>
      <dc:title>Matplotlib v3.9.2, https://matplotlib.org/</dc:title>
     </cc:Agent>
    </dc:creator>
   </cc:Work>
  </rdf:RDF>
 </metadata>
 <defs>
  <style type="text/css">*{stroke-linejoin: round; stroke-linecap: butt}</style>
 </defs>
 <g id="figure_1">
  <g id="patch_1">
   <path d="M 0 360 
L 288 360 
L 288 0 
L 0 0 
z
" style="fill: #ffffff"/>
  </g>
  <g id="axes_1">
   <g id="patch_2">
    <path d="M 36.403365 294.671635 
L 155.951323 294.671635 
L 155.951323 18.118365 
L 36.403365 18.118365 
z
" style="fill: #ffffff"/>
   </g>
   <g id="PolyCollection_1">
    <path d="M 58.486998 284.347924 
L 54.169051 284.347924 
L 53.293587 283.625328 
L 52.196324 282.902732 
L 50.877988 282.180136 
L 49.363526 281.45754 
L 47.706181 280.734944 
L 45.987792 280.012348 
L 44.314227 279.289752 
L 42.805734 278.567156 
L 41.58318 277.84456 
L 40.752228 277.121964 
L 40.388297 276.399368 
L 40.525266 275.676772 
L 41.150246 274.954176 
L 42.20554 274.23158 
L 43.597356 273.508984 
L 45.209421 272.786388 
L 46.918735 272.063792 
L 48.610462 271.341196 
L 50.189487 270.6186 
L 51.58716 269.896004 
L 52.762949 269.173409 
L 53.701777 268.450813 
L 54.408517 267.728217 
L 54.901346 267.005621 
L 55.205462 266.283025 
L 55.348242 265.560429 
L 55.35631 264.837833 
L 55.254484 264.115237 
L 55.066149 263.392641 
L 54.814378 262.670045 
L 54.523084 261.947449 
L 54.21759 261.224853 
L 53.924257 260.502257 
L 53.669085 259.779661 
L 53.475527 259.057065 
L 53.361986 258.334469 
L 53.339588 257.611873 
L 53.410768 256.889277 
L 53.569058 256.166681 
L 53.800173 255.444085 
L 54.084186 254.721489 
L 54.398372 253.998893 
L 54.720177 253.276297 
L 55.029768 252.553701 
L 55.311806 251.831105 
L 55.556259 251.108509 
L 55.758306 250.385913 
L 55.917556 249.663317 
L 56.036857 248.940721 
L 56.121025 248.218125 
L 56.175721 247.495529 
L 56.206607 246.772933 
L 56.218863 246.050337 
L 56.216987 245.327741 
L 56.204835 244.605145 
L 56.185765 243.88255 
L 56.162801 243.159954 
L 56.138751 242.437358 
L 56.116226 241.714762 
L 56.097559 240.992166 
L 56.08467 240.26957 
L 56.078897 239.546974 
L 56.080866 238.824378 
L 56.090432 238.101782 
L 56.106726 237.379186 
L 56.128292 236.65659 
L 56.153303 235.933994 
L 56.179799 235.211398 
L 56.205919 234.488802 
L 56.230067 233.766206 
L 56.251015 233.04361 
L 56.267917 232.321014 
L 56.280256 231.598418 
L 56.287764 230.875822 
L 56.290326 230.153226 
L 56.287911 229.43063 
L 56.280548 228.708034 
L 56.268349 227.985438 
L 56.251577 227.262842 
L 56.230738 226.540246 
L 56.206668 225.81765 
L 56.180587 225.095054 
L 56.154077 224.372458 
L 56.128996 223.649862 
L 56.107305 222.927266 
L 56.090845 222.20467 
L 56.081094 221.482074 
L 56.078961 220.759478 
L 56.08465 220.036882 
L 56.097635 219.314287 
L 56.116738 218.591691 
L 56.140309 217.869095 
L 56.166458 217.146499 
L 56.193308 216.423903 
L 56.219204 215.701307 
L 56.242868 214.978711 
L 56.263467 214.256115 
L 56.280612 213.533519 
L 56.294291 212.810923 
L 56.361759 212.810923 
L 56.361759 212.810923 
L 56.375438 213.533519 
L 56.392582 214.256115 
L 56.413181 214.978711 
L 56.436845 215.701307 
L 56.462741 216.423903 
L 56.489591 217.146499 
L 56.51574 217.869095 
L 56.539311 218.591691 
L 56.558414 219.314287 
L 56.571399 220.036882 
L 56.577088 220.759478 
L 56.574955 221.482074 
L 56.565204 222.20467 
L 56.548744 222.927266 
L 56.527053 223.649862 
L 56.501973 224.372458 
L 56.475462 225.095054 
L 56.449381 225.81765 
L 56.425312 226.540246 
L 56.404472 227.262842 
L 56.3877 227.985438 
L 56.375501 228.708034 
L 56.368138 229.43063 
L 56.365723 230.153226 
L 56.368285 230.875822 
L 56.375793 231.598418 
L 56.388132 232.321014 
L 56.405034 233.04361 
L 56.425982 233.766206 
L 56.450131 234.488802 
L 56.47625 235.211398 
L 56.502746 235.933994 
L 56.527757 236.65659 
L 56.549323 237.379186 
L 56.565617 238.101782 
L 56.575183 238.824378 
L 56.577152 239.546974 
L 56.571379 240.26957 
L 56.55849 240.992166 
L 56.539824 241.714762 
L 56.517298 242.437358 
L 56.493248 243.159954 
L 56.470284 243.88255 
L 56.451214 244.605145 
L 56.439062 245.327741 
L 56.437187 246.050337 
L 56.449442 246.772933 
L 56.480328 247.495529 
L 56.535024 248.218125 
L 56.619193 248.940721 
L 56.738493 249.663317 
L 56.897743 250.385913 
L 57.099791 251.108509 
L 57.344243 251.831105 
L 57.626281 252.553701 
L 57.935872 253.276297 
L 58.257677 253.998893 
L 58.571864 254.721489 
L 58.855876 255.444085 
L 59.086991 256.166681 
L 59.245282 256.889277 
L 59.316461 257.611873 
L 59.294063 258.334469 
L 59.180522 259.057065 
L 58.986964 259.779661 
L 58.731792 260.502257 
L 58.438459 261.224853 
L 58.132965 261.947449 
L 57.841671 262.670045 
L 57.5899 263.392641 
L 57.401565 264.115237 
L 57.29974 264.837833 
L 57.307807 265.560429 
L 57.450587 266.283025 
L 57.754704 267.005621 
L 58.247532 267.728217 
L 58.954272 268.450813 
L 59.8931 269.173409 
L 61.068889 269.896004 
L 62.466563 270.6186 
L 64.045587 271.341196 
L 65.737314 272.063792 
L 67.446628 272.786388 
L 69.058693 273.508984 
L 70.450509 274.23158 
L 71.505803 274.954176 
L 72.130783 275.676772 
L 72.267752 276.399368 
L 71.903822 277.121964 
L 71.072869 277.84456 
L 69.850315 278.567156 
L 68.341823 279.289752 
L 66.668257 280.012348 
L 64.949868 280.734944 
L 63.292523 281.45754 
L 61.778062 282.180136 
L 60.459726 282.902732 
L 59.362462 283.625328 
L 58.486998 284.347924 
L 58.486998 284.347924 
z
" clip-path="url(#p6181707566)" style="fill: none; stroke: #000000"/>
   </g>
   <g id="PolyCollection_2">
    <path d="M 98.325783 288.106128 
L 94.028905 288.106128 
L 93.051055 286.935147 
L 91.801759 285.764165 
L 90.286921 284.593184 
L 88.550147 283.422202 
L 86.677853 282.25122 
L 84.796654 281.080239 
L 83.061406 279.909257 
L 81.63457 278.738276 
L 80.660164 277.567294 
L 80.237616 276.396312 
L 80.401579 275.225331 
L 81.112699 274.054349 
L 82.261819 272.883367 
L 83.686804 271.712386 
L 85.198303 270.541404 
L 86.60899 269.370423 
L 87.760754 268.199441 
L 88.545428 267.028459 
L 88.916539 265.857478 
L 88.891398 264.686496 
L 88.54423 263.515515 
L 87.991946 262.344533 
L 87.374734 261.173551 
L 86.834103 260.00257 
L 86.491466 258.831588 
L 86.430513 257.660607 
L 86.68624 256.489625 
L 87.242476 255.318643 
L 88.038078 254.147662 
L 88.980234 252.97668 
L 89.961883 251.805698 
L 90.879711 250.634717 
L 91.649471 249.463735 
L 92.216431 248.292754 
L 92.560021 247.121772 
L 92.692915 245.95079 
L 92.655555 244.779809 
L 92.507468 243.608827 
L 92.316858 242.437846 
L 92.149925 241.266864 
L 92.061339 240.095882 
L 92.087137 238.924901 
L 92.241038 237.753919 
L 92.51461 236.582938 
L 92.881024 235.411956 
L 93.301454 234.240974 
L 93.732702 233.069993 
L 94.13453 231.899011 
L 94.475441 230.728029 
L 94.736168 229.557048 
L 94.910707 228.386066 
L 95.00521 227.215085 
L 95.035308 226.044103 
L 95.022532 224.873121 
L 94.990436 223.70214 
L 94.960975 222.531158 
L 94.951522 221.360177 
L 94.972902 220.189195 
L 95.028588 219.018213 
L 95.11512 217.847232 
L 95.223564 216.67625 
L 95.34167 215.505269 
L 95.45629 214.334287 
L 95.55564 213.163305 
L 95.631035 211.992324 
L 95.677934 210.821342 
L 95.696237 209.65036 
L 95.689908 208.479379 
L 95.666068 207.308397 
L 95.633722 206.137416 
L 95.602317 204.966434 
L 95.580324 203.795452 
L 95.574049 202.624471 
L 95.586847 201.453489 
L 95.618865 200.282508 
L 95.667327 199.111526 
L 95.727284 197.940544 
L 95.792651 196.769563 
L 95.857293 195.598581 
L 95.915965 194.4276 
L 95.964957 193.256618 
L 96.002377 192.085636 
L 96.028095 190.914655 
L 96.043445 189.743673 
L 96.050763 188.572691 
L 96.052889 187.40171 
L 96.05268 186.230728 
L 96.05262 185.059747 
L 96.054547 183.888765 
L 96.059512 182.717783 
L 96.067783 181.546802 
L 96.078959 180.37582 
L 96.092176 179.204839 
L 96.106345 178.033857 
L 96.120378 176.862875 
L 96.133366 175.691894 
L 96.144682 174.520912 
L 96.15401 173.349931 
L 96.161309 172.178949 
L 96.193378 172.178949 
L 96.193378 172.178949 
L 96.200677 173.349931 
L 96.210005 174.520912 
L 96.221322 175.691894 
L 96.23431 176.862875 
L 96.248343 178.033857 
L 96.262512 179.204839 
L 96.275729 180.37582 
L 96.286905 181.546802 
L 96.295175 182.717783 
L 96.30014 183.888765 
L 96.302067 185.059747 
L 96.302008 186.230728 
L 96.301798 187.40171 
L 96.303924 188.572691 
L 96.311243 189.743673 
L 96.326592 190.914655 
L 96.352311 192.085636 
L 96.38973 193.256618 
L 96.438723 194.4276 
L 96.497395 195.598581 
L 96.562036 196.769563 
L 96.627403 197.940544 
L 96.687361 199.111526 
L 96.735823 200.282508 
L 96.76784 201.453489 
L 96.780639 202.624471 
L 96.774364 203.795452 
L 96.752371 204.966434 
L 96.720966 206.137416 
L 96.688619 207.308397 
L 96.664779 208.479379 
L 96.65845 209.65036 
L 96.676754 210.821342 
L 96.723653 211.992324 
L 96.799047 213.163305 
L 96.898397 214.334287 
L 97.013018 215.505269 
L 97.131123 216.67625 
L 97.239568 217.847232 
L 97.3261 219.018213 
L 97.381785 220.189195 
L 97.403165 221.360177 
L 97.393713 222.531158 
L 97.364251 223.70214 
L 97.332156 224.873121 
L 97.319379 226.044103 
L 97.349478 227.215085 
L 97.443981 228.386066 
L 97.61852 229.557048 
L 97.879246 230.728029 
L 98.220157 231.899011 
L 98.621986 233.069993 
L 99.053233 234.240974 
L 99.473664 235.411956 
L 99.840078 236.582938 
L 100.11365 237.753919 
L 100.267551 238.924901 
L 100.293348 240.095882 
L 100.204762 241.266864 
L 100.03783 242.437846 
L 99.847219 243.608827 
L 99.699132 244.779809 
L 99.661772 245.95079 
L 99.794667 247.121772 
L 100.138256 248.292754 
L 100.705216 249.463735 
L 101.474977 250.634717 
L 102.392805 251.805698 
L 103.374454 252.97668 
L 104.316609 254.147662 
L 105.112211 255.318643 
L 105.668447 256.489625 
L 105.924175 257.660607 
L 105.863221 258.831588 
L 105.520585 260.00257 
L 104.979953 261.173551 
L 104.362742 262.344533 
L 103.810458 263.515515 
L 103.463289 264.686496 
L 103.438148 265.857478 
L 103.80926 267.028459 
L 104.593934 268.199441 
L 105.745698 269.370423 
L 107.156385 270.541404 
L 108.667883 271.712386 
L 110.092869 272.883367 
L 111.241988 274.054349 
L 111.953109 275.225331 
L 112.117071 276.396312 
L 111.694524 277.567294 
L 110.720117 278.738276 
L 109.293282 279.909257 
L 107.558034 281.080239 
L 105.676835 282.25122 
L 103.804541 283.422202 
L 102.067766 284.593184 
L 100.552928 285.764165 
L 99.303633 286.935147 
L 98.325783 288.106128 
L 98.325783 288.106128 
z
" clip-path="url(#p6181707566)" style="fill: none; stroke: #000000"/>
   </g>
   <g id="PolyCollection_3">
    <path d="M 138.104195 291.062089 
L 133.949131 291.062089 
L 132.898457 289.458929 
L 131.531058 287.855768 
L 129.859807 286.252608 
L 127.950835 284.649448 
L 125.927894 283.046287 
L 123.962528 281.443127 
L 122.248546 279.839967 
L 120.964453 278.236807 
L 120.232627 276.633646 
L 120.086935 275.030486 
L 120.459597 273.427326 
L 121.193171 271.824165 
L 122.076126 270.221005 
L 122.893047 268.617845 
L 123.47582 267.014684 
L 123.74159 265.411524 
L 123.707182 263.808364 
L 123.476472 262.205204 
L 123.204947 260.602043 
L 123.052004 258.998883 
L 123.13472 257.395723 
L 123.495995 255.792562 
L 124.095427 254.189402 
L 124.824509 252.586242 
L 125.540672 250.983081 
L 126.109571 249.379921 
L 126.443156 247.776761 
L 126.522888 246.173601 
L 126.402183 244.57044 
L 126.188326 242.96728 
L 126.00987 241.36412 
L 125.979398 239.760959 
L 126.162434 238.157799 
L 126.56109 236.554639 
L 127.116482 234.951478 
L 127.728328 233.348318 
L 128.285343 231.745158 
L 128.697243 230.141997 
L 128.919273 228.538837 
L 128.962806 226.935677 
L 128.889865 225.332517 
L 128.794061 223.729356 
L 128.774056 222.126196 
L 128.907359 220.523036 
L 129.231643 218.919875 
L 129.738089 217.316715 
L 130.377512 215.713555 
L 131.076273 214.110394 
L 131.756591 212.507234 
L 132.355225 210.904074 
L 132.835784 209.300914 
L 133.192394 207.697753 
L 133.445165 206.094593 
L 133.630039 204.491433 
L 133.786675 202.888272 
L 133.947856 201.285112 
L 134.13285 199.681952 
L 134.345661 198.078791 
L 134.57759 196.475631 
L 134.812513 194.872471 
L 135.032866 193.269311 
L 135.224594 191.66615 
L 135.379988 190.06299 
L 135.498177 188.45983 
L 135.583723 186.856669 
L 135.644188 185.253509 
L 135.687569 183.650349 
L 135.720332 182.047188 
L 135.746413 180.444028 
L 135.767215 178.840868 
L 135.782375 177.237707 
L 135.790903 175.634547 
L 135.792288 174.031387 
L 135.787245 172.428227 
L 135.777918 170.825066 
L 135.767541 169.221906 
L 135.759689 167.618746 
L 135.757392 166.015585 
L 135.762377 164.412425 
L 135.774665 162.809265 
L 135.792646 161.206104 
L 135.81357 159.602944 
L 135.834317 157.999784 
L 135.852206 156.396624 
L 135.865619 154.793463 
L 135.874295 153.190303 
L 135.879235 151.587143 
L 135.882299 149.983982 
L 135.885629 148.380822 
L 135.89107 146.777662 
L 135.899743 145.174501 
L 135.911866 143.571341 
L 135.92682 141.968181 
L 135.943417 140.365021 
L 135.960248 138.76186 
L 135.976017 137.1587 
L 135.989772 135.55554 
L 136.001005 133.952379 
L 136.009627 132.349219 
L 136.043698 132.349219 
L 136.043698 132.349219 
L 136.052321 133.952379 
L 136.063554 135.55554 
L 136.077309 137.1587 
L 136.093077 138.76186 
L 136.109908 140.365021 
L 136.126505 141.968181 
L 136.14146 143.571341 
L 136.153583 145.174501 
L 136.162256 146.777662 
L 136.167697 148.380822 
L 136.171027 149.983982 
L 136.174091 151.587143 
L 136.179031 153.190303 
L 136.187707 154.793463 
L 136.20112 156.396624 
L 136.219009 157.999784 
L 136.239756 159.602944 
L 136.260679 161.206104 
L 136.27866 162.809265 
L 136.290949 164.412425 
L 136.295934 166.015585 
L 136.293637 167.618746 
L 136.285785 169.221906 
L 136.275407 170.825066 
L 136.266081 172.428227 
L 136.261038 174.031387 
L 136.262423 175.634547 
L 136.270951 177.237707 
L 136.286111 178.840868 
L 136.306913 180.444028 
L 136.332994 182.047188 
L 136.365757 183.650349 
L 136.409138 185.253509 
L 136.469603 186.856669 
L 136.555149 188.45983 
L 136.673337 190.06299 
L 136.828732 191.66615 
L 137.02046 193.269311 
L 137.240813 194.872471 
L 137.475736 196.475631 
L 137.707665 198.078791 
L 137.920476 199.681952 
L 138.10547 201.285112 
L 138.26665 202.888272 
L 138.423287 204.491433 
L 138.608161 206.094593 
L 138.860932 207.697753 
L 139.217542 209.300914 
L 139.698101 210.904074 
L 140.296735 212.507234 
L 140.977053 214.110394 
L 141.675814 215.713555 
L 142.315236 217.316715 
L 142.821683 218.919875 
L 143.145966 220.523036 
L 143.279269 222.126196 
L 143.259265 223.729356 
L 143.163461 225.332517 
L 143.09052 226.935677 
L 143.134052 228.538837 
L 143.356083 230.141997 
L 143.767983 231.745158 
L 144.324998 233.348318 
L 144.936844 234.951478 
L 145.492235 236.554639 
L 145.890892 238.157799 
L 146.073928 239.760959 
L 146.043456 241.36412 
L 145.865 242.96728 
L 145.651143 244.57044 
L 145.530438 246.173601 
L 145.61017 247.776761 
L 145.943755 249.379921 
L 146.512653 250.983081 
L 147.228817 252.586242 
L 147.957899 254.189402 
L 148.557331 255.792562 
L 148.918606 257.395723 
L 149.001322 258.998883 
L 148.848379 260.602043 
L 148.576854 262.205204 
L 148.346144 263.808364 
L 148.311736 265.411524 
L 148.577506 267.014684 
L 149.160279 268.617845 
L 149.9772 270.221005 
L 150.860154 271.824165 
L 151.593729 273.427326 
L 151.966391 275.030486 
L 151.820699 276.633646 
L 151.088873 278.236807 
L 149.80478 279.839967 
L 148.090798 281.443127 
L 146.125432 283.046287 
L 144.102491 284.649448 
L 142.193518 286.252608 
L 140.522268 287.855768 
L 139.154869 289.458929 
L 138.104195 291.062089 
L 138.104195 291.062089 
z
" clip-path="url(#p6181707566)" style="fill: none; stroke: #000000"/>
   </g>
   <g id="matplotlib.axis_1">
    <g id="xtick_1">
     <g id="line2d_1">
      <defs>
       <path id="m4be7a2da52" d="M 0 0 
L 0 3.5 
" style="stroke: #000000; stroke-width: 0.8"/>
      </defs>
      <g>
       <use xlink:href="#m4be7a2da52" x="56.328025" y="294.671635" style="stroke: #000000; stroke-width: 0.8"/>
      </g>
     </g>
     <g id="text_1">
      <!-- CT -->
      <g transform="translate(59.0874 314.76226) rotate(-90) scale(0.1 -0.1)">
       <defs>
        <path id="DejaVuSans-43" d="M 4122 4306 
L 4122 3641 
Q 3803 3938 3442 4084 
Q 3081 4231 2675 4231 
Q 1875 4231 1450 3742 
Q 1025 3253 1025 2328 
Q 1025 1406 1450 917 
Q 1875 428 2675 428 
Q 3081 428 3442 575 
Q 3803 722 4122 1019 
L 4122 359 
Q 3791 134 3420 21 
Q 3050 -91 2638 -91 
Q 1578 -91 968 557 
Q 359 1206 359 2328 
Q 359 3453 968 4101 
Q 1578 4750 2638 4750 
Q 3056 4750 3426 4639 
Q 3797 4528 4122 4306 
z
" transform="scale(0.015625)"/>
        <path id="DejaVuSans-54" d="M -19 4666 
L 3928 4666 
L 3928 4134 
L 2272 4134 
L 2272 0 
L 1638 0 
L 1638 4134 
L -19 4134 
L -19 4666 
z
" transform="scale(0.015625)"/>
       </defs>
       <use xlink:href="#DejaVuSans-43"/>
       <use xlink:href="#DejaVuSans-54" x="69.824219"/>
      </g>
     </g>
    </g>
    <g id="xtick_2">
     <g id="line2d_2">
      <g>
       <use xlink:href="#m4be7a2da52" x="96.177344" y="294.671635" style="stroke: #000000; stroke-width: 0.8"/>
      </g>
     </g>
     <g id="text_2">
      <!-- ARS -->
      <g transform="translate(98.936719 321.809135) rotate(-90) scale(0.1 -0.1)">
       <defs>
        <path id="DejaVuSans-41" d="M 2188 4044 
L 1331 1722 
L 3047 1722 
L 2188 4044 
z
M 1831 4666 
L 2547 4666 
L 4325 0 
L 3669 0 
L 3244 1197 
L 1141 1197 
L 716 0 
L 50 0 
L 1831 4666 
z
" transform="scale(0.015625)"/>
        <path id="DejaVuSans-52" d="M 2841 2188 
Q 3044 2119 3236 1894 
Q 3428 1669 3622 1275 
L 4263 0 
L 3584 0 
L 2988 1197 
Q 2756 1666 2539 1819 
Q 2322 1972 1947 1972 
L 1259 1972 
L 1259 0 
L 628 0 
L 628 4666 
L 2053 4666 
Q 2853 4666 3247 4331 
Q 3641 3997 3641 3322 
Q 3641 2881 3436 2590 
Q 3231 2300 2841 2188 
z
M 1259 4147 
L 1259 2491 
L 2053 2491 
Q 2509 2491 2742 2702 
Q 2975 2913 2975 3322 
Q 2975 3731 2742 3939 
Q 2509 4147 2053 4147 
L 1259 4147 
z
" transform="scale(0.015625)"/>
        <path id="DejaVuSans-53" d="M 3425 4513 
L 3425 3897 
Q 3066 4069 2747 4153 
Q 2428 4238 2131 4238 
Q 1616 4238 1336 4038 
Q 1056 3838 1056 3469 
Q 1056 3159 1242 3001 
Q 1428 2844 1947 2747 
L 2328 2669 
Q 3034 2534 3370 2195 
Q 3706 1856 3706 1288 
Q 3706 609 3251 259 
Q 2797 -91 1919 -91 
Q 1588 -91 1214 -16 
Q 841 59 441 206 
L 441 856 
Q 825 641 1194 531 
Q 1563 422 1919 422 
Q 2459 422 2753 634 
Q 3047 847 3047 1241 
Q 3047 1584 2836 1778 
Q 2625 1972 2144 2069 
L 1759 2144 
Q 1053 2284 737 2584 
Q 422 2884 422 3419 
Q 422 4038 858 4394 
Q 1294 4750 2059 4750 
Q 2388 4750 2728 4690 
Q 3069 4631 3425 4513 
z
" transform="scale(0.015625)"/>
       </defs>
       <use xlink:href="#DejaVuSans-41"/>
       <use xlink:href="#DejaVuSans-52" x="68.408203"/>
       <use xlink:href="#DejaVuSans-53" x="137.890625"/>
      </g>
     </g>
    </g>
    <g id="xtick_3">
     <g id="line2d_3">
      <g>
       <use xlink:href="#m4be7a2da52" x="136.026663" y="294.671635" style="stroke: #000000; stroke-width: 0.8"/>
      </g>
     </g>
     <g id="text_3">
      <!-- GLU-40min -->
      <g transform="translate(138.786038 356.99976) rotate(-90) scale(0.1 -0.1)">
       <defs>
        <path id="DejaVuSans-47" d="M 3809 666 
L 3809 1919 
L 2778 1919 
L 2778 2438 
L 4434 2438 
L 4434 434 
Q 4069 175 3628 42 
Q 3188 -91 2688 -91 
Q 1594 -91 976 548 
Q 359 1188 359 2328 
Q 359 3472 976 4111 
Q 1594 4750 2688 4750 
Q 3144 4750 3555 4637 
Q 3966 4525 4313 4306 
L 4313 3634 
Q 3963 3931 3569 4081 
Q 3175 4231 2741 4231 
Q 1884 4231 1454 3753 
Q 1025 3275 1025 2328 
Q 1025 1384 1454 906 
Q 1884 428 2741 428 
Q 3075 428 3337 486 
Q 3600 544 3809 666 
z
" transform="scale(0.015625)"/>
        <path id="DejaVuSans-4c" d="M 628 4666 
L 1259 4666 
L 1259 531 
L 3531 531 
L 3531 0 
L 628 0 
L 628 4666 
z
" transform="scale(0.015625)"/>
        <path id="DejaVuSans-55" d="M 556 4666 
L 1191 4666 
L 1191 1831 
Q 1191 1081 1462 751 
Q 1734 422 2344 422 
Q 2950 422 3222 751 
Q 3494 1081 3494 1831 
L 3494 4666 
L 4128 4666 
L 4128 1753 
Q 4128 841 3676 375 
Q 3225 -91 2344 -91 
Q 1459 -91 1007 375 
Q 556 841 556 1753 
L 556 4666 
z
" transform="scale(0.015625)"/>
        <path id="DejaVuSans-2d" d="M 313 2009 
L 1997 2009 
L 1997 1497 
L 313 1497 
L 313 2009 
z
" transform="scale(0.015625)"/>
        <path id="DejaVuSans-34" d="M 2419 4116 
L 825 1625 
L 2419 1625 
L 2419 4116 
z
M 2253 4666 
L 3047 4666 
L 3047 1625 
L 3713 1625 
L 3713 1100 
L 3047 1100 
L 3047 0 
L 2419 0 
L 2419 1100 
L 313 1100 
L 313 1709 
L 2253 4666 
z
" transform="scale(0.015625)"/>
        <path id="DejaVuSans-30" d="M 2034 4250 
Q 1547 4250 1301 3770 
Q 1056 3291 1056 2328 
Q 1056 1369 1301 889 
Q 1547 409 2034 409 
Q 2525 409 2770 889 
Q 3016 1369 3016 2328 
Q 3016 3291 2770 3770 
Q 2525 4250 2034 4250 
z
M 2034 4750 
Q 2819 4750 3233 4129 
Q 3647 3509 3647 2328 
Q 3647 1150 3233 529 
Q 2819 -91 2034 -91 
Q 1250 -91 836 529 
Q 422 1150 422 2328 
Q 422 3509 836 4129 
Q 1250 4750 2034 4750 
z
" transform="scale(0.015625)"/>
        <path id="DejaVuSans-6d" d="M 3328 2828 
Q 3544 3216 3844 3400 
Q 4144 3584 4550 3584 
Q 5097 3584 5394 3201 
Q 5691 2819 5691 2113 
L 5691 0 
L 5113 0 
L 5113 2094 
Q 5113 2597 4934 2840 
Q 4756 3084 4391 3084 
Q 3944 3084 3684 2787 
Q 3425 2491 3425 1978 
L 3425 0 
L 2847 0 
L 2847 2094 
Q 2847 2600 2669 2842 
Q 2491 3084 2119 3084 
Q 1678 3084 1418 2786 
Q 1159 2488 1159 1978 
L 1159 0 
L 581 0 
L 581 3500 
L 1159 3500 
L 1159 2956 
Q 1356 3278 1631 3431 
Q 1906 3584 2284 3584 
Q 2666 3584 2933 3390 
Q 3200 3197 3328 2828 
z
" transform="scale(0.015625)"/>
        <path id="DejaVuSans-69" d="M 603 3500 
L 1178 3500 
L 1178 0 
L 603 0 
L 603 3500 
z
M 603 4863 
L 1178 4863 
L 1178 4134 
L 603 4134 
L 603 4863 
z
" transform="scale(0.015625)"/>
        <path id="DejaVuSans-6e" d="M 3513 2113 
L 3513 0 
L 2938 0 
L 2938 2094 
Q 2938 2591 2744 2837 
Q 2550 3084 2163 3084 
Q 1697 3084 1428 2787 
Q 1159 2491 1159 1978 
L 1159 0 
L 581 0 
L 581 3500 
L 1159 3500 
L 1159 2956 
Q 1366 3272 1645 3428 
Q 1925 3584 2291 3584 
Q 2894 3584 3203 3211 
Q 3513 2838 3513 2113 
z
" transform="scale(0.015625)"/>
       </defs>
       <use xlink:href="#DejaVuSans-47"/>
       <use xlink:href="#DejaVuSans-4c" x="77.490234"/>
       <use xlink:href="#DejaVuSans-55" x="128.203125"/>
       <use xlink:href="#DejaVuSans-2d" x="201.396484"/>
       <use xlink:href="#DejaVuSans-34" x="237.480469"/>
       <use xlink:href="#DejaVuSans-30" x="301.103516"/>
       <use xlink:href="#DejaVuSans-6d" x="364.726562"/>
       <use xlink:href="#DejaVuSans-69" x="462.138672"/>
       <use xlink:href="#DejaVuSans-6e" x="489.921875"/>
      </g>
     </g>
    </g>
   </g>
   <g id="matplotlib.axis_2">
    <g id="ytick_1">
     <g id="line2d_4">
      <path d="M 36.403365 294.671635 
L 155.951323 294.671635 
" clip-path="url(#p6181707566)" style="fill: none; stroke: #b0b0b0; stroke-width: 0.2; stroke-linecap: square"/>
     </g>
     <g id="line2d_5">
      <defs>
       <path id="medc4ab3560" d="M 0 0 
L -3.5 0 
" style="stroke: #000000; stroke-width: 0.8"/>
      </defs>
      <g>
       <use xlink:href="#medc4ab3560" x="36.403365" y="294.671635" style="stroke: #000000; stroke-width: 0.8"/>
      </g>
     </g>
     <g id="text_4">
      <!-- 0 -->
      <g transform="translate(23.040865 298.470854) scale(0.1 -0.1)">
       <use xlink:href="#DejaVuSans-30"/>
      </g>
     </g>
    </g>
    <g id="ytick_2">
     <g id="line2d_6">
      <path d="M 36.403365 276.23475 
L 155.951323 276.23475 
" clip-path="url(#p6181707566)" style="fill: none; stroke: #b0b0b0; stroke-width: 0.2; stroke-linecap: square"/>
     </g>
     <g id="line2d_7">
      <g>
       <use xlink:href="#medc4ab3560" x="36.403365" y="276.23475" style="stroke: #000000; stroke-width: 0.8"/>
      </g>
     </g>
     <g id="text_5">
      <!-- 1 -->
      <g transform="translate(23.040865 280.033969) scale(0.1 -0.1)">
       <defs>
        <path id="DejaVuSans-31" d="M 794 531 
L 1825 531 
L 1825 4091 
L 703 3866 
L 703 4441 
L 1819 4666 
L 2450 4666 
L 2450 531 
L 3481 531 
L 3481 0 
L 794 0 
L 794 531 
z
" transform="scale(0.015625)"/>
       </defs>
       <use xlink:href="#DejaVuSans-31"/>
      </g>
     </g>
    </g>
    <g id="ytick_3">
     <g id="line2d_8">
      <path d="M 36.403365 257.797866 
L 155.951323 257.797866 
" clip-path="url(#p6181707566)" style="fill: none; stroke: #b0b0b0; stroke-width: 0.2; stroke-linecap: square"/>
     </g>
     <g id="line2d_9">
      <g>
       <use xlink:href="#medc4ab3560" x="36.403365" y="257.797866" style="stroke: #000000; stroke-width: 0.8"/>
      </g>
     </g>
     <g id="text_6">
      <!-- 2 -->
      <g transform="translate(23.040865 261.597084) scale(0.1 -0.1)">
       <defs>
        <path id="DejaVuSans-32" d="M 1228 531 
L 3431 531 
L 3431 0 
L 469 0 
L 469 531 
Q 828 903 1448 1529 
Q 2069 2156 2228 2338 
Q 2531 2678 2651 2914 
Q 2772 3150 2772 3378 
Q 2772 3750 2511 3984 
Q 2250 4219 1831 4219 
Q 1534 4219 1204 4116 
Q 875 4013 500 3803 
L 500 4441 
Q 881 4594 1212 4672 
Q 1544 4750 1819 4750 
Q 2544 4750 2975 4387 
Q 3406 4025 3406 3419 
Q 3406 3131 3298 2873 
Q 3191 2616 2906 2266 
Q 2828 2175 2409 1742 
Q 1991 1309 1228 531 
z
" transform="scale(0.015625)"/>
       </defs>
       <use xlink:href="#DejaVuSans-32"/>
      </g>
     </g>
    </g>
    <g id="ytick_4">
     <g id="line2d_10">
      <path d="M 36.403365 239.360981 
L 155.951323 239.360981 
" clip-path="url(#p6181707566)" style="fill: none; stroke: #b0b0b0; stroke-width: 0.2; stroke-linecap: square"/>
     </g>
     <g id="line2d_11">
      <g>
       <use xlink:href="#medc4ab3560" x="36.403365" y="239.360981" style="stroke: #000000; stroke-width: 0.8"/>
      </g>
     </g>
     <g id="text_7">
      <!-- 3 -->
      <g transform="translate(23.040865 243.1602) scale(0.1 -0.1)">
       <defs>
        <path id="DejaVuSans-33" d="M 2597 2516 
Q 3050 2419 3304 2112 
Q 3559 1806 3559 1356 
Q 3559 666 3084 287 
Q 2609 -91 1734 -91 
Q 1441 -91 1130 -33 
Q 819 25 488 141 
L 488 750 
Q 750 597 1062 519 
Q 1375 441 1716 441 
Q 2309 441 2620 675 
Q 2931 909 2931 1356 
Q 2931 1769 2642 2001 
Q 2353 2234 1838 2234 
L 1294 2234 
L 1294 2753 
L 1863 2753 
Q 2328 2753 2575 2939 
Q 2822 3125 2822 3475 
Q 2822 3834 2567 4026 
Q 2313 4219 1838 4219 
Q 1578 4219 1281 4162 
Q 984 4106 628 3988 
L 628 4550 
Q 988 4650 1302 4700 
Q 1616 4750 1894 4750 
Q 2613 4750 3031 4423 
Q 3450 4097 3450 3541 
Q 3450 3153 3228 2886 
Q 3006 2619 2597 2516 
z
" transform="scale(0.015625)"/>
       </defs>
       <use xlink:href="#DejaVuSans-33"/>
      </g>
     </g>
    </g>
    <g id="ytick_5">
     <g id="line2d_12">
      <path d="M 36.403365 220.924096 
L 155.951323 220.924096 
" clip-path="url(#p6181707566)" style="fill: none; stroke: #b0b0b0; stroke-width: 0.2; stroke-linecap: square"/>
     </g>
     <g id="line2d_13">
      <g>
       <use xlink:href="#medc4ab3560" x="36.403365" y="220.924096" style="stroke: #000000; stroke-width: 0.8"/>
      </g>
     </g>
     <g id="text_8">
      <!-- 4 -->
      <g transform="translate(23.040865 224.723315) scale(0.1 -0.1)">
       <use xlink:href="#DejaVuSans-34"/>
      </g>
     </g>
    </g>
    <g id="ytick_6">
     <g id="line2d_14">
      <path d="M 36.403365 202.487212 
L 155.951323 202.487212 
" clip-path="url(#p6181707566)" style="fill: none; stroke: #b0b0b0; stroke-width: 0.2; stroke-linecap: square"/>
     </g>
     <g id="line2d_15">
      <g>
       <use xlink:href="#medc4ab3560" x="36.403365" y="202.487212" style="stroke: #000000; stroke-width: 0.8"/>
      </g>
     </g>
     <g id="text_9">
      <!-- 5 -->
      <g transform="translate(23.040865 206.28643) scale(0.1 -0.1)">
       <defs>
        <path id="DejaVuSans-35" d="M 691 4666 
L 3169 4666 
L 3169 4134 
L 1269 4134 
L 1269 2991 
Q 1406 3038 1543 3061 
Q 1681 3084 1819 3084 
Q 2600 3084 3056 2656 
Q 3513 2228 3513 1497 
Q 3513 744 3044 326 
Q 2575 -91 1722 -91 
Q 1428 -91 1123 -41 
Q 819 9 494 109 
L 494 744 
Q 775 591 1075 516 
Q 1375 441 1709 441 
Q 2250 441 2565 725 
Q 2881 1009 2881 1497 
Q 2881 1984 2565 2268 
Q 2250 2553 1709 2553 
Q 1456 2553 1204 2497 
Q 953 2441 691 2322 
L 691 4666 
z
" transform="scale(0.015625)"/>
       </defs>
       <use xlink:href="#DejaVuSans-35"/>
      </g>
     </g>
    </g>
    <g id="ytick_7">
     <g id="line2d_16">
      <path d="M 36.403365 184.050327 
L 155.951323 184.050327 
" clip-path="url(#p6181707566)" style="fill: none; stroke: #b0b0b0; stroke-width: 0.2; stroke-linecap: square"/>
     </g>
     <g id="line2d_17">
      <g>
       <use xlink:href="#medc4ab3560" x="36.403365" y="184.050327" style="stroke: #000000; stroke-width: 0.8"/>
      </g>
     </g>
     <g id="text_10">
      <!-- 6 -->
      <g transform="translate(23.040865 187.849546) scale(0.1 -0.1)">
       <defs>
        <path id="DejaVuSans-36" d="M 2113 2584 
Q 1688 2584 1439 2293 
Q 1191 2003 1191 1497 
Q 1191 994 1439 701 
Q 1688 409 2113 409 
Q 2538 409 2786 701 
Q 3034 994 3034 1497 
Q 3034 2003 2786 2293 
Q 2538 2584 2113 2584 
z
M 3366 4563 
L 3366 3988 
Q 3128 4100 2886 4159 
Q 2644 4219 2406 4219 
Q 1781 4219 1451 3797 
Q 1122 3375 1075 2522 
Q 1259 2794 1537 2939 
Q 1816 3084 2150 3084 
Q 2853 3084 3261 2657 
Q 3669 2231 3669 1497 
Q 3669 778 3244 343 
Q 2819 -91 2113 -91 
Q 1303 -91 875 529 
Q 447 1150 447 2328 
Q 447 3434 972 4092 
Q 1497 4750 2381 4750 
Q 2619 4750 2861 4703 
Q 3103 4656 3366 4563 
z
" transform="scale(0.015625)"/>
       </defs>
       <use xlink:href="#DejaVuSans-36"/>
      </g>
     </g>
    </g>
    <g id="ytick_8">
     <g id="line2d_18">
      <path d="M 36.403365 165.613442 
L 155.951323 165.613442 
" clip-path="url(#p6181707566)" style="fill: none; stroke: #b0b0b0; stroke-width: 0.2; stroke-linecap: square"/>
     </g>
     <g id="line2d_19">
      <g>
       <use xlink:href="#medc4ab3560" x="36.403365" y="165.613442" style="stroke: #000000; stroke-width: 0.8"/>
      </g>
     </g>
     <g id="text_11">
      <!-- 7 -->
      <g transform="translate(23.040865 169.412661) scale(0.1 -0.1)">
       <defs>
        <path id="DejaVuSans-37" d="M 525 4666 
L 3525 4666 
L 3525 4397 
L 1831 0 
L 1172 0 
L 2766 4134 
L 525 4134 
L 525 4666 
z
" transform="scale(0.015625)"/>
       </defs>
       <use xlink:href="#DejaVuSans-37"/>
      </g>
     </g>
    </g>
    <g id="ytick_9">
     <g id="line2d_20">
      <path d="M 36.403365 147.176558 
L 155.951323 147.176558 
" clip-path="url(#p6181707566)" style="fill: none; stroke: #b0b0b0; stroke-width: 0.2; stroke-linecap: square"/>
     </g>
     <g id="line2d_21">
      <g>
       <use xlink:href="#medc4ab3560" x="36.403365" y="147.176558" style="stroke: #000000; stroke-width: 0.8"/>
      </g>
     </g>
     <g id="text_12">
      <!-- 8 -->
      <g transform="translate(23.040865 150.975776) scale(0.1 -0.1)">
       <defs>
        <path id="DejaVuSans-38" d="M 2034 2216 
Q 1584 2216 1326 1975 
Q 1069 1734 1069 1313 
Q 1069 891 1326 650 
Q 1584 409 2034 409 
Q 2484 409 2743 651 
Q 3003 894 3003 1313 
Q 3003 1734 2745 1975 
Q 2488 2216 2034 2216 
z
M 1403 2484 
Q 997 2584 770 2862 
Q 544 3141 544 3541 
Q 544 4100 942 4425 
Q 1341 4750 2034 4750 
Q 2731 4750 3128 4425 
Q 3525 4100 3525 3541 
Q 3525 3141 3298 2862 
Q 3072 2584 2669 2484 
Q 3125 2378 3379 2068 
Q 3634 1759 3634 1313 
Q 3634 634 3220 271 
Q 2806 -91 2034 -91 
Q 1263 -91 848 271 
Q 434 634 434 1313 
Q 434 1759 690 2068 
Q 947 2378 1403 2484 
z
M 1172 3481 
Q 1172 3119 1398 2916 
Q 1625 2713 2034 2713 
Q 2441 2713 2670 2916 
Q 2900 3119 2900 3481 
Q 2900 3844 2670 4047 
Q 2441 4250 2034 4250 
Q 1625 4250 1398 4047 
Q 1172 3844 1172 3481 
z
" transform="scale(0.015625)"/>
       </defs>
       <use xlink:href="#DejaVuSans-38"/>
      </g>
     </g>
    </g>
    <g id="ytick_10">
     <g id="line2d_22">
      <path d="M 36.403365 128.739673 
L 155.951323 128.739673 
" clip-path="url(#p6181707566)" style="fill: none; stroke: #b0b0b0; stroke-width: 0.2; stroke-linecap: square"/>
     </g>
     <g id="line2d_23">
      <g>
       <use xlink:href="#medc4ab3560" x="36.403365" y="128.739673" style="stroke: #000000; stroke-width: 0.8"/>
      </g>
     </g>
     <g id="text_13">
      <!-- 9 -->
      <g transform="translate(23.040865 132.538892) scale(0.1 -0.1)">
       <defs>
        <path id="DejaVuSans-39" d="M 703 97 
L 703 672 
Q 941 559 1184 500 
Q 1428 441 1663 441 
Q 2288 441 2617 861 
Q 2947 1281 2994 2138 
Q 2813 1869 2534 1725 
Q 2256 1581 1919 1581 
Q 1219 1581 811 2004 
Q 403 2428 403 3163 
Q 403 3881 828 4315 
Q 1253 4750 1959 4750 
Q 2769 4750 3195 4129 
Q 3622 3509 3622 2328 
Q 3622 1225 3098 567 
Q 2575 -91 1691 -91 
Q 1453 -91 1209 -44 
Q 966 3 703 97 
z
M 1959 2075 
Q 2384 2075 2632 2365 
Q 2881 2656 2881 3163 
Q 2881 3666 2632 3958 
Q 2384 4250 1959 4250 
Q 1534 4250 1286 3958 
Q 1038 3666 1038 3163 
Q 1038 2656 1286 2365 
Q 1534 2075 1959 2075 
z
" transform="scale(0.015625)"/>
       </defs>
       <use xlink:href="#DejaVuSans-39"/>
      </g>
     </g>
    </g>
    <g id="ytick_11">
     <g id="line2d_24">
      <path d="M 36.403365 110.302788 
L 155.951323 110.302788 
" clip-path="url(#p6181707566)" style="fill: none; stroke: #b0b0b0; stroke-width: 0.2; stroke-linecap: square"/>
     </g>
     <g id="line2d_25">
      <g>
       <use xlink:href="#medc4ab3560" x="36.403365" y="110.302788" style="stroke: #000000; stroke-width: 0.8"/>
      </g>
     </g>
     <g id="text_14">
      <!-- 10 -->
      <g transform="translate(16.678365 114.102007) scale(0.1 -0.1)">
       <use xlink:href="#DejaVuSans-31"/>
       <use xlink:href="#DejaVuSans-30" x="63.623047"/>
      </g>
     </g>
    </g>
    <g id="ytick_12">
     <g id="line2d_26">
      <path d="M 36.403365 91.865904 
L 155.951323 91.865904 
" clip-path="url(#p6181707566)" style="fill: none; stroke: #b0b0b0; stroke-width: 0.2; stroke-linecap: square"/>
     </g>
     <g id="line2d_27">
      <g>
       <use xlink:href="#medc4ab3560" x="36.403365" y="91.865904" style="stroke: #000000; stroke-width: 0.8"/>
      </g>
     </g>
     <g id="text_15">
      <!-- 11 -->
      <g transform="translate(16.678365 95.665122) scale(0.1 -0.1)">
       <use xlink:href="#DejaVuSans-31"/>
       <use xlink:href="#DejaVuSans-31" x="63.623047"/>
      </g>
     </g>
    </g>
    <g id="ytick_13">
     <g id="line2d_28">
      <path d="M 36.403365 73.429019 
L 155.951323 73.429019 
" clip-path="url(#p6181707566)" style="fill: none; stroke: #b0b0b0; stroke-width: 0.2; stroke-linecap: square"/>
     </g>
     <g id="line2d_29">
      <g>
       <use xlink:href="#medc4ab3560" x="36.403365" y="73.429019" style="stroke: #000000; stroke-width: 0.8"/>
      </g>
     </g>
     <g id="text_16">
      <!-- 12 -->
      <g transform="translate(16.678365 77.228238) scale(0.1 -0.1)">
       <use xlink:href="#DejaVuSans-31"/>
       <use xlink:href="#DejaVuSans-32" x="63.623047"/>
      </g>
     </g>
    </g>
    <g id="ytick_14">
     <g id="line2d_30">
      <path d="M 36.403365 54.992134 
L 155.951323 54.992134 
" clip-path="url(#p6181707566)" style="fill: none; stroke: #b0b0b0; stroke-width: 0.2; stroke-linecap: square"/>
     </g>
     <g id="line2d_31">
      <g>
       <use xlink:href="#medc4ab3560" x="36.403365" y="54.992134" style="stroke: #000000; stroke-width: 0.8"/>
      </g>
     </g>
     <g id="text_17">
      <!-- 13 -->
      <g transform="translate(16.678365 58.791353) scale(0.1 -0.1)">
       <use xlink:href="#DejaVuSans-31"/>
       <use xlink:href="#DejaVuSans-33" x="63.623047"/>
      </g>
     </g>
    </g>
    <g id="ytick_15">
     <g id="line2d_32">
      <path d="M 36.403365 36.55525 
L 155.951323 36.55525 
" clip-path="url(#p6181707566)" style="fill: none; stroke: #b0b0b0; stroke-width: 0.2; stroke-linecap: square"/>
     </g>
     <g id="line2d_33">
      <g>
       <use xlink:href="#medc4ab3560" x="36.403365" y="36.55525" style="stroke: #000000; stroke-width: 0.8"/>
      </g>
     </g>
     <g id="text_18">
      <!-- 14 -->
      <g transform="translate(16.678365 40.354468) scale(0.1 -0.1)">
       <use xlink:href="#DejaVuSans-31"/>
       <use xlink:href="#DejaVuSans-34" x="63.623047"/>
      </g>
     </g>
    </g>
    <g id="text_19">
     <!-- Granules -->
     <g transform="translate(10.598678 178.796562) rotate(-90) scale(0.1 -0.1)">
      <defs>
       <path id="DejaVuSans-72" d="M 2631 2963 
Q 2534 3019 2420 3045 
Q 2306 3072 2169 3072 
Q 1681 3072 1420 2755 
Q 1159 2438 1159 1844 
L 1159 0 
L 581 0 
L 581 3500 
L 1159 3500 
L 1159 2956 
Q 1341 3275 1631 3429 
Q 1922 3584 2338 3584 
Q 2397 3584 2469 3576 
Q 2541 3569 2628 3553 
L 2631 2963 
z
" transform="scale(0.015625)"/>
       <path id="DejaVuSans-61" d="M 2194 1759 
Q 1497 1759 1228 1600 
Q 959 1441 959 1056 
Q 959 750 1161 570 
Q 1363 391 1709 391 
Q 2188 391 2477 730 
Q 2766 1069 2766 1631 
L 2766 1759 
L 2194 1759 
z
M 3341 1997 
L 3341 0 
L 2766 0 
L 2766 531 
Q 2569 213 2275 61 
Q 1981 -91 1556 -91 
Q 1019 -91 701 211 
Q 384 513 384 1019 
Q 384 1609 779 1909 
Q 1175 2209 1959 2209 
L 2766 2209 
L 2766 2266 
Q 2766 2663 2505 2880 
Q 2244 3097 1772 3097 
Q 1472 3097 1187 3025 
Q 903 2953 641 2809 
L 641 3341 
Q 956 3463 1253 3523 
Q 1550 3584 1831 3584 
Q 2591 3584 2966 3190 
Q 3341 2797 3341 1997 
z
" transform="scale(0.015625)"/>
       <path id="DejaVuSans-75" d="M 544 1381 
L 544 3500 
L 1119 3500 
L 1119 1403 
Q 1119 906 1312 657 
Q 1506 409 1894 409 
Q 2359 409 2629 706 
Q 2900 1003 2900 1516 
L 2900 3500 
L 3475 3500 
L 3475 0 
L 2900 0 
L 2900 538 
Q 2691 219 2414 64 
Q 2138 -91 1772 -91 
Q 1169 -91 856 284 
Q 544 659 544 1381 
z
M 1991 3584 
L 1991 3584 
z
" transform="scale(0.015625)"/>
       <path id="DejaVuSans-6c" d="M 603 4863 
L 1178 4863 
L 1178 0 
L 603 0 
L 603 4863 
z
" transform="scale(0.015625)"/>
       <path id="DejaVuSans-65" d="M 3597 1894 
L 3597 1613 
L 953 1613 
Q 991 1019 1311 708 
Q 1631 397 2203 397 
Q 2534 397 2845 478 
Q 3156 559 3463 722 
L 3463 178 
Q 3153 47 2828 -22 
Q 2503 -91 2169 -91 
Q 1331 -91 842 396 
Q 353 884 353 1716 
Q 353 2575 817 3079 
Q 1281 3584 2069 3584 
Q 2775 3584 3186 3129 
Q 3597 2675 3597 1894 
z
M 3022 2063 
Q 3016 2534 2758 2815 
Q 2500 3097 2075 3097 
Q 1594 3097 1305 2825 
Q 1016 2553 972 2059 
L 3022 2063 
z
" transform="scale(0.015625)"/>
       <path id="DejaVuSans-73" d="M 2834 3397 
L 2834 2853 
Q 2591 2978 2328 3040 
Q 2066 3103 1784 3103 
Q 1356 3103 1142 2972 
Q 928 2841 928 2578 
Q 928 2378 1081 2264 
Q 1234 2150 1697 2047 
L 1894 2003 
Q 2506 1872 2764 1633 
Q 3022 1394 3022 966 
Q 3022 478 2636 193 
Q 2250 -91 1575 -91 
Q 1294 -91 989 -36 
Q 684 19 347 128 
L 347 722 
Q 666 556 975 473 
Q 1284 391 1588 391 
Q 1994 391 2212 530 
Q 2431 669 2431 922 
Q 2431 1156 2273 1281 
Q 2116 1406 1581 1522 
L 1381 1569 
Q 847 1681 609 1914 
Q 372 2147 372 2553 
Q 372 3047 722 3315 
Q 1072 3584 1716 3584 
Q 2034 3584 2315 3537 
Q 2597 3491 2834 3397 
z
" transform="scale(0.015625)"/>
      </defs>
      <use xlink:href="#DejaVuSans-47"/>
      <use xlink:href="#DejaVuSans-72" x="77.490234"/>
      <use xlink:href="#DejaVuSans-61" x="118.603516"/>
      <use xlink:href="#DejaVuSans-6e" x="179.882812"/>
      <use xlink:href="#DejaVuSans-75" x="243.261719"/>
      <use xlink:href="#DejaVuSans-6c" x="306.640625"/>
      <use xlink:href="#DejaVuSans-65" x="334.423828"/>
      <use xlink:href="#DejaVuSans-73" x="395.947266"/>
     </g>
    </g>
   </g>
   <g id="line2d_34">
    <path d="M 56.328025 276.23475 
L 56.328025 276.23475 
" clip-path="url(#p6181707566)" style="fill: none; stroke: #000000; stroke-width: 1.5; stroke-linecap: square"/>
   </g>
   <g id="line2d_35">
    <path d="M 56.328025 276.23475 
L 56.328025 276.23475 
" clip-path="url(#p6181707566)" style="fill: none; stroke: #000000; stroke-width: 4.5; stroke-linecap: square"/>
   </g>
   <g id="line2d_36">
    <path d="M 56.328025 276.23475 
" clip-path="url(#p6181707566)" style="fill: none; stroke: #000000; stroke-width: 1.5; stroke-linecap: square"/>
    <defs>
     <path id="m26c69d4e0d" d="M 1.875 0 
L -1.875 -0 
" style="stroke: #ffffff; stroke-width: 0.9"/>
    </defs>
    <g clip-path="url(#p6181707566)">
     <use xlink:href="#m26c69d4e0d" x="56.328025" y="276.23475" style="fill: #ffffff; stroke: #ffffff; stroke-width: 0.9"/>
    </g>
   </g>
   <g id="line2d_37">
    <path d="M 96.177344 276.23475 
L 96.177344 239.360981 
" clip-path="url(#p6181707566)" style="fill: none; stroke: #000000; stroke-width: 1.5; stroke-linecap: square"/>
   </g>
   <g id="line2d_38">
    <path d="M 96.177344 276.23475 
L 96.177344 257.797866 
" clip-path="url(#p6181707566)" style="fill: none; stroke: #000000; stroke-width: 4.5; stroke-linecap: square"/>
   </g>
   <g id="line2d_39">
    <path d="M 96.177344 276.23475 
" clip-path="url(#p6181707566)" style="fill: none; stroke: #000000; stroke-width: 1.5; stroke-linecap: square"/>
    <g clip-path="url(#p6181707566)">
     <use xlink:href="#m26c69d4e0d" x="96.177344" y="276.23475" style="fill: #ffffff; stroke: #ffffff; stroke-width: 0.9"/>
    </g>
   </g>
   <g id="line2d_40">
    <path d="M 136.026663 276.23475 
L 136.026663 184.050327 
" clip-path="url(#p6181707566)" style="fill: none; stroke: #000000; stroke-width: 1.5; stroke-linecap: square"/>
   </g>
   <g id="line2d_41">
    <path d="M 136.026663 276.23475 
L 136.026663 239.360981 
" clip-path="url(#p6181707566)" style="fill: none; stroke: #000000; stroke-width: 4.5; stroke-linecap: square"/>
   </g>
   <g id="line2d_42">
    <path d="M 136.026663 257.797866 
" clip-path="url(#p6181707566)" style="fill: none; stroke: #000000; stroke-width: 1.5; stroke-linecap: square"/>
    <g clip-path="url(#p6181707566)">
     <use xlink:href="#m26c69d4e0d" x="136.026663" y="257.797866" style="fill: #ffffff; stroke: #ffffff; stroke-width: 0.9"/>
    </g>
   </g>
   <g id="patch_3">
    <path d="M 36.403365 294.671635 
L 36.403365 18.118365 
" style="fill: none; stroke: #000000; stroke-width: 0.8; stroke-linejoin: miter; stroke-linecap: square"/>
   </g>
   <g id="patch_4">
    <path d="M 155.951323 294.671635 
L 155.951323 18.118365 
" style="fill: none; stroke: #000000; stroke-width: 0.8; stroke-linejoin: miter; stroke-linecap: square"/>
   </g>
   <g id="patch_5">
    <path d="M 36.403365 294.671635 
L 155.951322 294.671635 
" style="fill: none; stroke: #000000; stroke-width: 0.8; stroke-linejoin: miter; stroke-linecap: square"/>
   </g>
   <g id="patch_6">
    <path d="M 36.403365 18.118365 
L 155.951322 18.118365 
" style="fill: none; stroke: #000000; stroke-width: 0.8; stroke-linejoin: miter; stroke-linecap: square"/>
   </g>
   <g id="text_20">
    <!-- DDX3X WT -->
    <g transform="translate(63.395781 12.118365) scale(0.12 -0.12)">
     <defs>
      <path id="DejaVuSans-44" d="M 1259 4147 
L 1259 519 
L 2022 519 
Q 2988 519 3436 956 
Q 3884 1394 3884 2338 
Q 3884 3275 3436 3711 
Q 2988 4147 2022 4147 
L 1259 4147 
z
M 628 4666 
L 1925 4666 
Q 3281 4666 3915 4102 
Q 4550 3538 4550 2338 
Q 4550 1131 3912 565 
Q 3275 0 1925 0 
L 628 0 
L 628 4666 
z
" transform="scale(0.015625)"/>
      <path id="DejaVuSans-58" d="M 403 4666 
L 1081 4666 
L 2241 2931 
L 3406 4666 
L 4084 4666 
L 2584 2425 
L 4184 0 
L 3506 0 
L 2194 1984 
L 872 0 
L 191 0 
L 1856 2491 
L 403 4666 
z
" transform="scale(0.015625)"/>
      <path id="DejaVuSans-20" transform="scale(0.015625)"/>
      <path id="DejaVuSans-57" d="M 213 4666 
L 850 4666 
L 1831 722 
L 2809 4666 
L 3519 4666 
L 4500 722 
L 5478 4666 
L 6119 4666 
L 4947 0 
L 4153 0 
L 3169 4050 
L 2175 0 
L 1381 0 
L 213 4666 
z
" transform="scale(0.015625)"/>
     </defs>
     <use xlink:href="#DejaVuSans-44"/>
     <use xlink:href="#DejaVuSans-44" x="77.001953"/>
     <use xlink:href="#DejaVuSans-58" x="154.003906"/>
     <use xlink:href="#DejaVuSans-33" x="222.509766"/>
     <use xlink:href="#DejaVuSans-58" x="286.132812"/>
     <use xlink:href="#DejaVuSans-20" x="354.638672"/>
     <use xlink:href="#DejaVuSans-57" x="386.425781"/>
     <use xlink:href="#DejaVuSans-54" x="485.302734"/>
    </g>
   </g>
  </g>
  <g id="axes_2">
   <g id="patch_7">
    <path d="M 165.451802 294.671635 
L 284.99976 294.671635 
L 284.99976 18.118365 
L 165.451802 18.118365 
z
" style="fill: #ffffff"/>
   </g>
   <g id="PolyCollection_4">
    <path d="M 187.533676 283.592035 
L 183.219248 283.592035 
L 182.799187 283.257171 
L 182.32274 282.922308 
L 181.788073 282.587445 
L 181.194588 282.252582 
L 180.543163 281.917719 
L 179.836361 281.582856 
L 179.078602 281.247992 
L 178.276277 280.913129 
L 177.437794 280.578266 
L 176.573539 280.243403 
L 175.695745 279.90854 
L 174.818273 279.573677 
L 173.95629 279.238813 
L 173.125867 278.90395 
L 172.343503 278.569087 
L 171.625592 278.234224 
L 170.987858 277.899361 
L 170.444789 277.564498 
L 170.009091 277.229634 
L 169.691191 276.894771 
L 169.498828 276.559908 
L 169.436734 276.225045 
L 169.506447 275.890182 
L 169.706239 275.555319 
L 170.031196 275.220455 
L 170.473414 274.885592 
L 171.022317 274.550729 
L 171.66508 274.215866 
L 172.387125 273.881003 
L 173.172665 273.54614 
L 174.005279 273.211277 
L 174.868467 272.876413 
L 175.746183 272.54155 
L 176.623306 272.206687 
L 177.486036 271.871824 
L 178.322205 271.536961 
L 179.121496 271.202098 
L 179.875558 270.867234 
L 180.578042 270.532371 
L 181.224547 270.197508 
L 181.812496 269.862645 
L 182.34096 269.527782 
L 182.810443 269.192919 
L 183.222634 268.858055 
L 183.580162 268.523192 
L 183.886342 268.188329 
L 184.144945 267.853466 
L 184.359988 267.518603 
L 184.535549 267.18374 
L 184.67562 266.848876 
L 184.783993 266.514013 
L 184.864181 266.17915 
L 184.919363 265.844287 
L 184.952371 265.509424 
L 184.965689 265.174561 
L 184.961482 264.839697 
L 184.941631 264.504834 
L 184.907791 264.169971 
L 184.861444 263.835108 
L 184.803961 263.500245 
L 184.73666 263.165382 
L 184.660861 262.830518 
L 184.577929 262.495655 
L 184.489309 262.160792 
L 184.396551 261.825929 
L 184.301315 261.491066 
L 184.205369 261.156203 
L 184.110571 260.821339 
L 184.018835 260.486476 
L 183.93209 260.151613 
L 183.852231 259.81675 
L 183.781063 259.481887 
L 183.720243 259.147024 
L 183.671221 258.812161 
L 183.635189 258.477297 
L 183.613039 258.142434 
L 183.605325 257.807571 
L 183.612245 257.472708 
L 183.633632 257.137845 
L 183.668963 256.802982 
L 183.717379 256.468118 
L 183.777723 256.133255 
L 183.848584 255.798392 
L 183.928354 255.463529 
L 184.015284 255.128666 
L 184.107553 254.793803 
L 184.20333 254.458939 
L 184.300827 254.124076 
L 184.398359 253.789213 
L 184.494388 253.45435 
L 184.587553 253.119487 
L 184.6767 252.784624 
L 184.760895 252.44976 
L 184.839429 252.114897 
L 184.911809 251.780034 
L 184.977752 251.445171 
L 185.03716 251.110308 
L 185.090098 250.775445 
L 185.136772 250.440581 
L 185.616153 250.440581 
L 185.616153 250.440581 
L 185.662826 250.775445 
L 185.715765 251.110308 
L 185.775172 251.445171 
L 185.841115 251.780034 
L 185.913495 252.114897 
L 185.992029 252.44976 
L 186.076224 252.784624 
L 186.165372 253.119487 
L 186.258536 253.45435 
L 186.354565 253.789213 
L 186.452098 254.124076 
L 186.549595 254.458939 
L 186.645371 254.793803 
L 186.73764 255.128666 
L 186.824571 255.463529 
L 186.90434 255.798392 
L 186.975201 256.133255 
L 187.035545 256.468118 
L 187.083962 256.802982 
L 187.119292 257.137845 
L 187.140679 257.472708 
L 187.147599 257.807571 
L 187.139885 258.142434 
L 187.117735 258.477297 
L 187.081704 258.812161 
L 187.032681 259.147024 
L 186.971861 259.481887 
L 186.900693 259.81675 
L 186.820835 260.151613 
L 186.734089 260.486476 
L 186.642353 260.821339 
L 186.547555 261.156203 
L 186.451609 261.491066 
L 186.356374 261.825929 
L 186.263615 262.160792 
L 186.174995 262.495655 
L 186.092063 262.830518 
L 186.016264 263.165382 
L 185.948963 263.500245 
L 185.89148 263.835108 
L 185.845133 264.169971 
L 185.811293 264.504834 
L 185.791442 264.839697 
L 185.787235 265.174561 
L 185.800553 265.509424 
L 185.833561 265.844287 
L 185.888744 266.17915 
L 185.968931 266.514013 
L 186.077305 266.848876 
L 186.217375 267.18374 
L 186.392936 267.518603 
L 186.607979 267.853466 
L 186.866582 268.188329 
L 187.172762 268.523192 
L 187.53029 268.858055 
L 187.942481 269.192919 
L 188.411964 269.527782 
L 188.940428 269.862645 
L 189.528377 270.197508 
L 190.174882 270.532371 
L 190.877366 270.867234 
L 191.631429 271.202098 
L 192.430719 271.536961 
L 193.266888 271.871824 
L 194.129618 272.206687 
L 195.006741 272.54155 
L 195.884457 272.876413 
L 196.747645 273.211277 
L 197.580259 273.54614 
L 198.365799 273.881003 
L 199.087844 274.215866 
L 199.730607 274.550729 
L 200.27951 274.885592 
L 200.721728 275.220455 
L 201.046685 275.555319 
L 201.246478 275.890182 
L 201.31619 276.225045 
L 201.254096 276.559908 
L 201.061733 276.894771 
L 200.743833 277.229634 
L 200.308135 277.564498 
L 199.765066 277.899361 
L 199.127332 278.234224 
L 198.409421 278.569087 
L 197.627057 278.90395 
L 196.796634 279.238813 
L 195.934651 279.573677 
L 195.057179 279.90854 
L 194.179386 280.243403 
L 193.31513 280.578266 
L 192.476647 280.913129 
L 191.674323 281.247992 
L 190.916563 281.582856 
L 190.209761 281.917719 
L 189.558336 282.252582 
L 188.964852 282.587445 
L 188.430184 282.922308 
L 187.953737 283.257171 
L 187.533676 283.592035 
L 187.533676 283.592035 
z
" clip-path="url(#p029c99bfc3)" style="fill: none; stroke: #00ffff"/>
   </g>
   <g id="PolyCollection_5">
    <path d="M 226.713931 295.541692 
L 223.737632 295.541692 
L 223.14102 293.848034 
L 222.391934 292.154377 
L 221.487122 290.46072 
L 220.436996 288.767062 
L 219.267613 287.073405 
L 218.020312 285.379748 
L 216.748434 283.68609 
L 215.511198 281.992433 
L 214.365534 280.298776 
L 213.357382 278.605118 
L 212.514378 276.911461 
L 211.841816 275.217804 
L 211.323134 273.524146 
L 210.925136 271.830489 
L 210.60693 270.136832 
L 210.330461 268.443174 
L 210.06997 266.749517 
L 209.817911 265.05586 
L 209.58571 263.362202 
L 209.399219 261.668545 
L 209.290162 259.974888 
L 209.286054 258.28123 
L 209.401474 256.587573 
L 209.633166 254.893916 
L 209.960271 253.200258 
L 210.349483 251.506601 
L 210.763464 249.812944 
L 211.169985 248.119286 
L 211.549104 246.425629 
L 211.896437 244.731972 
L 212.221799 243.038315 
L 212.543915 241.344657 
L 212.883054 239.651 
L 213.253908 237.957343 
L 213.660856 236.263685 
L 214.096862 234.570028 
L 214.546076 232.876371 
L 214.989085 231.182713 
L 215.408989 229.489056 
L 215.7964 227.795399 
L 216.151869 226.101741 
L 216.485176 224.408084 
L 216.811881 222.714427 
L 217.148357 221.020769 
L 217.506873 219.327112 
L 217.892178 217.633455 
L 218.300459 215.939797 
L 218.720778 214.24614 
L 219.138363 212.552483 
L 219.538614 210.858825 
L 219.910639 209.165168 
L 220.249345 207.471511 
L 220.555685 205.777853 
L 220.835217 204.084196 
L 221.095622 202.390539 
L 221.344049 200.696881 
L 221.585094 199.003224 
L 221.819922 197.309567 
L 222.046642 195.615909 
L 222.26162 193.922252 
L 222.461219 192.228595 
L 222.64333 190.534937 
L 222.808258 188.84128 
L 222.958736 187.147623 
L 223.099161 185.453965 
L 223.234363 183.760308 
L 223.368324 182.066651 
L 223.503233 180.372993 
L 223.639115 178.679336 
L 223.774074 176.985679 
L 223.905014 175.292022 
L 224.028576 173.598364 
L 224.141994 171.904707 
L 224.243671 170.21105 
L 224.33335 168.517392 
L 224.411915 166.823735 
L 224.480943 165.130078 
L 224.542194 163.43642 
L 224.597181 161.742763 
L 224.646953 160.049106 
L 224.692081 158.355448 
L 224.732842 156.661791 
L 224.769458 154.968134 
L 224.802329 153.274476 
L 224.832156 151.580819 
L 224.859922 149.887162 
L 224.886754 148.193504 
L 224.913713 146.499847 
L 224.941579 144.80619 
L 224.970701 143.112532 
L 225.000941 141.418875 
L 225.031724 139.725218 
L 225.062177 138.03156 
L 225.091302 136.337903 
L 225.118165 134.644246 
L 225.142028 132.950588 
L 225.162441 131.256931 
L 225.179261 129.563274 
L 225.192613 127.869616 
L 225.25895 127.869616 
L 225.25895 127.869616 
L 225.272302 129.563274 
L 225.289121 131.256931 
L 225.309535 132.950588 
L 225.333398 134.644246 
L 225.36026 136.337903 
L 225.389386 138.03156 
L 225.419838 139.725218 
L 225.450622 141.418875 
L 225.480862 143.112532 
L 225.509984 144.80619 
L 225.53785 146.499847 
L 225.564808 148.193504 
L 225.59164 149.887162 
L 225.619406 151.580819 
L 225.649233 153.274476 
L 225.682105 154.968134 
L 225.718721 156.661791 
L 225.759481 158.355448 
L 225.80461 160.049106 
L 225.854381 161.742763 
L 225.909369 163.43642 
L 225.970619 165.130078 
L 226.039648 166.823735 
L 226.118212 168.517392 
L 226.207892 170.21105 
L 226.309569 171.904707 
L 226.422987 173.598364 
L 226.546548 175.292022 
L 226.677489 176.985679 
L 226.812447 178.679336 
L 226.948329 180.372993 
L 227.083239 182.066651 
L 227.2172 183.760308 
L 227.352402 185.453965 
L 227.492826 187.147623 
L 227.643304 188.84128 
L 227.808232 190.534937 
L 227.990344 192.228595 
L 228.189942 193.922252 
L 228.404921 195.615909 
L 228.63164 197.309567 
L 228.866469 199.003224 
L 229.107514 200.696881 
L 229.355941 202.390539 
L 229.616346 204.084196 
L 229.895878 205.777853 
L 230.202218 207.471511 
L 230.540924 209.165168 
L 230.912949 210.858825 
L 231.3132 212.552483 
L 231.730784 214.24614 
L 232.151104 215.939797 
L 232.559384 217.633455 
L 232.944689 219.327112 
L 233.303206 221.020769 
L 233.639681 222.714427 
L 233.966387 224.408084 
L 234.299693 226.101741 
L 234.655162 227.795399 
L 235.042573 229.489056 
L 235.462477 231.182713 
L 235.905486 232.876371 
L 236.354701 234.570028 
L 236.790706 236.263685 
L 237.197655 237.957343 
L 237.568509 239.651 
L 237.907648 241.344657 
L 238.229764 243.038315 
L 238.555125 244.731972 
L 238.902459 246.425629 
L 239.281578 248.119286 
L 239.688099 249.812944 
L 240.10208 251.506601 
L 240.491291 253.200258 
L 240.818396 254.893916 
L 241.050089 256.587573 
L 241.165509 258.28123 
L 241.161401 259.974888 
L 241.052344 261.668545 
L 240.865853 263.362202 
L 240.633652 265.05586 
L 240.381592 266.749517 
L 240.121102 268.443174 
L 239.844632 270.136832 
L 239.526427 271.830489 
L 239.128429 273.524146 
L 238.609746 275.217804 
L 237.937185 276.911461 
L 237.094181 278.605118 
L 236.086028 280.298776 
L 234.940365 281.992433 
L 233.703129 283.68609 
L 232.43125 285.379748 
L 231.183949 287.073405 
L 230.014567 288.767062 
L 228.96444 290.46072 
L 228.059629 292.154377 
L 227.310543 293.848034 
L 226.713931 295.541692 
L 226.713931 295.541692 
z
" clip-path="url(#p029c99bfc3)" style="fill: none; stroke: #00ffff"/>
   </g>
   <g id="PolyCollection_6">
    <path d="M 266.826194 295.478127 
L 263.324007 295.478127 
L 262.254918 293.040829 
L 260.810075 290.603531 
L 259.013645 288.166233 
L 256.969662 285.728935 
L 254.857173 283.291638 
L 252.895211 280.85434 
L 251.284223 278.417042 
L 250.1451 275.979744 
L 249.483387 273.542446 
L 249.198299 271.105149 
L 249.135373 268.667851 
L 249.158613 266.230553 
L 249.206475 263.793255 
L 249.304126 261.355957 
L 249.528379 258.918659 
L 249.947804 256.481362 
L 250.573115 254.044064 
L 251.344828 251.606766 
L 252.161851 249.169468 
L 252.930862 246.73217 
L 253.606223 244.294873 
L 254.198842 241.857575 
L 254.752976 239.420277 
L 255.308953 236.982979 
L 255.8759 234.545681 
L 256.429431 232.108383 
L 256.932135 229.671086 
L 257.360852 227.233788 
L 257.722437 224.79649 
L 258.048991 222.359192 
L 258.377423 219.921894 
L 258.727646 217.484597 
L 259.093198 215.047299 
L 259.449029 212.610001 
L 259.770081 210.172703 
L 260.048158 207.735405 
L 260.296852 205.298107 
L 260.542554 202.86081 
L 260.808285 200.423512 
L 261.100773 197.986214 
L 261.408173 195.548916 
L 261.708674 193.111618 
L 261.98377 190.67432 
L 262.227963 188.237023 
L 262.449777 185.799725 
L 262.664699 183.362427 
L 262.885208 180.925129 
L 263.113939 178.487831 
L 263.343329 176.050534 
L 263.56086 173.613236 
L 263.756082 171.175938 
L 263.925263 168.73864 
L 264.071681 166.301342 
L 264.202294 163.864044 
L 264.323347 161.426747 
L 264.437446 158.989449 
L 264.543255 156.552151 
L 264.637265 154.114853 
L 264.716189 151.677555 
L 264.77859 149.240258 
L 264.82519 146.80296 
L 264.858188 144.365662 
L 264.880315 141.928364 
L 264.89425 139.491066 
L 264.902545 137.053768 
L 264.907791 134.616471 
L 264.912672 132.179173 
L 264.91968 129.741875 
L 264.930595 127.304577 
L 264.946018 124.867279 
L 264.965235 122.429982 
L 264.986506 119.992684 
L 265.007664 117.555386 
L 265.02676 115.118088 
L 265.042502 112.68079 
L 265.054401 110.243492 
L 265.062632 107.806195 
L 265.067744 105.368897 
L 265.070344 102.931599 
L 265.070855 100.494301 
L 265.069371 98.057003 
L 265.065636 95.619706 
L 265.059124 93.182408 
L 265.049252 90.74511 
L 265.035673 88.307812 
L 265.018629 85.870514 
L 264.999223 83.433216 
L 264.979479 80.995919 
L 264.962085 78.558621 
L 264.949828 76.121323 
L 264.944873 73.684025 
L 264.948135 71.246727 
L 264.959009 68.80943 
L 264.975549 66.372132 
L 264.995039 63.934834 
L 265.014714 61.497536 
L 265.032385 59.060238 
L 265.046763 56.62294 
L 265.05747 54.185643 
L 265.092731 54.185643 
L 265.092731 54.185643 
L 265.103438 56.62294 
L 265.117816 59.060238 
L 265.135487 61.497536 
L 265.155162 63.934834 
L 265.174652 66.372132 
L 265.191192 68.80943 
L 265.202066 71.246727 
L 265.205328 73.684025 
L 265.200372 76.121323 
L 265.188116 78.558621 
L 265.170722 80.995919 
L 265.150978 83.433216 
L 265.131572 85.870514 
L 265.114528 88.307812 
L 265.100949 90.74511 
L 265.091076 93.182408 
L 265.084565 95.619706 
L 265.08083 98.057003 
L 265.079346 100.494301 
L 265.079857 102.931599 
L 265.082457 105.368897 
L 265.087569 107.806195 
L 265.0958 110.243492 
L 265.107699 112.68079 
L 265.123441 115.118088 
L 265.142537 117.555386 
L 265.163695 119.992684 
L 265.184966 122.429982 
L 265.204183 124.867279 
L 265.219606 127.304577 
L 265.230521 129.741875 
L 265.237529 132.179173 
L 265.242409 134.616471 
L 265.247656 137.053768 
L 265.25595 139.491066 
L 265.269886 141.928364 
L 265.292013 144.365662 
L 265.32501 146.80296 
L 265.371611 149.240258 
L 265.434012 151.677555 
L 265.512936 154.114853 
L 265.606946 156.552151 
L 265.712755 158.989449 
L 265.826854 161.426747 
L 265.947907 163.864044 
L 266.07852 166.301342 
L 266.224938 168.73864 
L 266.394119 171.175938 
L 266.58934 173.613236 
L 266.806872 176.050534 
L 267.036261 178.487831 
L 267.264993 180.925129 
L 267.485502 183.362427 
L 267.700424 185.799725 
L 267.922237 188.237023 
L 268.16643 190.67432 
L 268.441527 193.111618 
L 268.742028 195.548916 
L 269.049428 197.986214 
L 269.341916 200.423512 
L 269.607647 202.86081 
L 269.853349 205.298107 
L 270.102043 207.735405 
L 270.38012 210.172703 
L 270.701172 212.610001 
L 271.057003 215.047299 
L 271.422555 217.484597 
L 271.772778 219.921894 
L 272.10121 222.359192 
L 272.427764 224.79649 
L 272.789349 227.233788 
L 273.218065 229.671086 
L 273.72077 232.108383 
L 274.274301 234.545681 
L 274.841247 236.982979 
L 275.397225 239.420277 
L 275.951359 241.857575 
L 276.543978 244.294873 
L 277.219339 246.73217 
L 277.98835 249.169468 
L 278.805373 251.606766 
L 279.577085 254.044064 
L 280.202397 256.481362 
L 280.621822 258.918659 
L 280.846075 261.355957 
L 280.943725 263.793255 
L 280.991588 266.230553 
L 281.014828 268.667851 
L 280.951902 271.105149 
L 280.666814 273.542446 
L 280.0051 275.979744 
L 278.865977 278.417042 
L 277.25499 280.85434 
L 275.293028 283.291638 
L 273.180539 285.728935 
L 271.136556 288.166233 
L 269.340126 290.603531 
L 267.895282 293.040829 
L 266.826194 295.478127 
L 266.826194 295.478127 
z
" clip-path="url(#p029c99bfc3)" style="fill: none; stroke: #00ffff"/>
   </g>
   <g id="matplotlib.axis_3">
    <g id="xtick_4">
     <g id="line2d_43">
      <g>
       <use xlink:href="#m4be7a2da52" x="185.376462" y="294.671635" style="stroke: #000000; stroke-width: 0.8"/>
      </g>
     </g>
     <g id="text_21">
      <!-- CT -->
      <g transform="translate(188.135837 314.76226) rotate(-90) scale(0.1 -0.1)">
       <use xlink:href="#DejaVuSans-43"/>
       <use xlink:href="#DejaVuSans-54" x="69.824219"/>
      </g>
     </g>
    </g>
    <g id="xtick_5">
     <g id="line2d_44">
      <g>
       <use xlink:href="#m4be7a2da52" x="225.225781" y="294.671635" style="stroke: #000000; stroke-width: 0.8"/>
      </g>
     </g>
     <g id="text_22">
      <!-- ARS -->
      <g transform="translate(227.985156 321.809135) rotate(-90) scale(0.1 -0.1)">
       <use xlink:href="#DejaVuSans-41"/>
       <use xlink:href="#DejaVuSans-52" x="68.408203"/>
       <use xlink:href="#DejaVuSans-53" x="137.890625"/>
      </g>
     </g>
    </g>
    <g id="xtick_6">
     <g id="line2d_45">
      <g>
       <use xlink:href="#m4be7a2da52" x="265.0751" y="294.671635" style="stroke: #000000; stroke-width: 0.8"/>
      </g>
     </g>
     <g id="text_23">
      <!-- GLU-40min -->
      <g transform="translate(267.834475 356.99976) rotate(-90) scale(0.1 -0.1)">
       <use xlink:href="#DejaVuSans-47"/>
       <use xlink:href="#DejaVuSans-4c" x="77.490234"/>
       <use xlink:href="#DejaVuSans-55" x="128.203125"/>
       <use xlink:href="#DejaVuSans-2d" x="201.396484"/>
       <use xlink:href="#DejaVuSans-34" x="237.480469"/>
       <use xlink:href="#DejaVuSans-30" x="301.103516"/>
       <use xlink:href="#DejaVuSans-6d" x="364.726562"/>
       <use xlink:href="#DejaVuSans-69" x="462.138672"/>
       <use xlink:href="#DejaVuSans-6e" x="489.921875"/>
      </g>
     </g>
    </g>
   </g>
   <g id="matplotlib.axis_4">
    <g id="ytick_16">
     <g id="line2d_46">
      <path d="M 165.451802 294.671635 
L 284.99976 294.671635 
" clip-path="url(#p029c99bfc3)" style="fill: none; stroke: #b0b0b0; stroke-width: 0.2; stroke-linecap: square"/>
     </g>
     <g id="line2d_47">
      <g>
       <use xlink:href="#medc4ab3560" x="165.451802" y="294.671635" style="stroke: #000000; stroke-width: 0.8"/>
      </g>
     </g>
    </g>
    <g id="ytick_17">
     <g id="line2d_48">
      <path d="M 165.451802 276.23475 
L 284.99976 276.23475 
" clip-path="url(#p029c99bfc3)" style="fill: none; stroke: #b0b0b0; stroke-width: 0.2; stroke-linecap: square"/>
     </g>
     <g id="line2d_49">
      <g>
       <use xlink:href="#medc4ab3560" x="165.451802" y="276.23475" style="stroke: #000000; stroke-width: 0.8"/>
      </g>
     </g>
    </g>
    <g id="ytick_18">
     <g id="line2d_50">
      <path d="M 165.451802 257.797866 
L 284.99976 257.797866 
" clip-path="url(#p029c99bfc3)" style="fill: none; stroke: #b0b0b0; stroke-width: 0.2; stroke-linecap: square"/>
     </g>
     <g id="line2d_51">
      <g>
       <use xlink:href="#medc4ab3560" x="165.451802" y="257.797866" style="stroke: #000000; stroke-width: 0.8"/>
      </g>
     </g>
    </g>
    <g id="ytick_19">
     <g id="line2d_52">
      <path d="M 165.451802 239.360981 
L 284.99976 239.360981 
" clip-path="url(#p029c99bfc3)" style="fill: none; stroke: #b0b0b0; stroke-width: 0.2; stroke-linecap: square"/>
     </g>
     <g id="line2d_53">
      <g>
       <use xlink:href="#medc4ab3560" x="165.451802" y="239.360981" style="stroke: #000000; stroke-width: 0.8"/>
      </g>
     </g>
    </g>
    <g id="ytick_20">
     <g id="line2d_54">
      <path d="M 165.451802 220.924096 
L 284.99976 220.924096 
" clip-path="url(#p029c99bfc3)" style="fill: none; stroke: #b0b0b0; stroke-width: 0.2; stroke-linecap: square"/>
     </g>
     <g id="line2d_55">
      <g>
       <use xlink:href="#medc4ab3560" x="165.451802" y="220.924096" style="stroke: #000000; stroke-width: 0.8"/>
      </g>
     </g>
    </g>
    <g id="ytick_21">
     <g id="line2d_56">
      <path d="M 165.451802 202.487212 
L 284.99976 202.487212 
" clip-path="url(#p029c99bfc3)" style="fill: none; stroke: #b0b0b0; stroke-width: 0.2; stroke-linecap: square"/>
     </g>
     <g id="line2d_57">
      <g>
       <use xlink:href="#medc4ab3560" x="165.451802" y="202.487212" style="stroke: #000000; stroke-width: 0.8"/>
      </g>
     </g>
    </g>
    <g id="ytick_22">
     <g id="line2d_58">
      <path d="M 165.451802 184.050327 
L 284.99976 184.050327 
" clip-path="url(#p029c99bfc3)" style="fill: none; stroke: #b0b0b0; stroke-width: 0.2; stroke-linecap: square"/>
     </g>
     <g id="line2d_59">
      <g>
       <use xlink:href="#medc4ab3560" x="165.451802" y="184.050327" style="stroke: #000000; stroke-width: 0.8"/>
      </g>
     </g>
    </g>
    <g id="ytick_23">
     <g id="line2d_60">
      <path d="M 165.451802 165.613442 
L 284.99976 165.613442 
" clip-path="url(#p029c99bfc3)" style="fill: none; stroke: #b0b0b0; stroke-width: 0.2; stroke-linecap: square"/>
     </g>
     <g id="line2d_61">
      <g>
       <use xlink:href="#medc4ab3560" x="165.451802" y="165.613442" style="stroke: #000000; stroke-width: 0.8"/>
      </g>
     </g>
    </g>
    <g id="ytick_24">
     <g id="line2d_62">
      <path d="M 165.451802 147.176558 
L 284.99976 147.176558 
" clip-path="url(#p029c99bfc3)" style="fill: none; stroke: #b0b0b0; stroke-width: 0.2; stroke-linecap: square"/>
     </g>
     <g id="line2d_63">
      <g>
       <use xlink:href="#medc4ab3560" x="165.451802" y="147.176558" style="stroke: #000000; stroke-width: 0.8"/>
      </g>
     </g>
    </g>
    <g id="ytick_25">
     <g id="line2d_64">
      <path d="M 165.451802 128.739673 
L 284.99976 128.739673 
" clip-path="url(#p029c99bfc3)" style="fill: none; stroke: #b0b0b0; stroke-width: 0.2; stroke-linecap: square"/>
     </g>
     <g id="line2d_65">
      <g>
       <use xlink:href="#medc4ab3560" x="165.451802" y="128.739673" style="stroke: #000000; stroke-width: 0.8"/>
      </g>
     </g>
    </g>
    <g id="ytick_26">
     <g id="line2d_66">
      <path d="M 165.451802 110.302788 
L 284.99976 110.302788 
" clip-path="url(#p029c99bfc3)" style="fill: none; stroke: #b0b0b0; stroke-width: 0.2; stroke-linecap: square"/>
     </g>
     <g id="line2d_67">
      <g>
       <use xlink:href="#medc4ab3560" x="165.451802" y="110.302788" style="stroke: #000000; stroke-width: 0.8"/>
      </g>
     </g>
    </g>
    <g id="ytick_27">
     <g id="line2d_68">
      <path d="M 165.451802 91.865904 
L 284.99976 91.865904 
" clip-path="url(#p029c99bfc3)" style="fill: none; stroke: #b0b0b0; stroke-width: 0.2; stroke-linecap: square"/>
     </g>
     <g id="line2d_69">
      <g>
       <use xlink:href="#medc4ab3560" x="165.451802" y="91.865904" style="stroke: #000000; stroke-width: 0.8"/>
      </g>
     </g>
    </g>
    <g id="ytick_28">
     <g id="line2d_70">
      <path d="M 165.451802 73.429019 
L 284.99976 73.429019 
" clip-path="url(#p029c99bfc3)" style="fill: none; stroke: #b0b0b0; stroke-width: 0.2; stroke-linecap: square"/>
     </g>
     <g id="line2d_71">
      <g>
       <use xlink:href="#medc4ab3560" x="165.451802" y="73.429019" style="stroke: #000000; stroke-width: 0.8"/>
      </g>
     </g>
    </g>
    <g id="ytick_29">
     <g id="line2d_72">
      <path d="M 165.451802 54.992134 
L 284.99976 54.992134 
" clip-path="url(#p029c99bfc3)" style="fill: none; stroke: #b0b0b0; stroke-width: 0.2; stroke-linecap: square"/>
     </g>
     <g id="line2d_73">
      <g>
       <use xlink:href="#medc4ab3560" x="165.451802" y="54.992134" style="stroke: #000000; stroke-width: 0.8"/>
      </g>
     </g>
    </g>
    <g id="ytick_30">
     <g id="line2d_74">
      <path d="M 165.451802 36.55525 
L 284.99976 36.55525 
" clip-path="url(#p029c99bfc3)" style="fill: none; stroke: #b0b0b0; stroke-width: 0.2; stroke-linecap: square"/>
     </g>
     <g id="line2d_75">
      <g>
       <use xlink:href="#medc4ab3560" x="165.451802" y="36.55525" style="stroke: #000000; stroke-width: 0.8"/>
      </g>
     </g>
    </g>
   </g>
   <g id="line2d_76">
    <path d="M 185.376462 276.23475 
L 185.376462 276.23475 
" clip-path="url(#p029c99bfc3)" style="fill: none; stroke: #00ffff; stroke-width: 1.5; stroke-linecap: square"/>
   </g>
   <g id="line2d_77">
    <path d="M 185.376462 276.23475 
L 185.376462 276.23475 
" clip-path="url(#p029c99bfc3)" style="fill: none; stroke: #00ffff; stroke-width: 4.5; stroke-linecap: square"/>
   </g>
   <g id="line2d_78">
    <path d="M 185.376462 276.23475 
" clip-path="url(#p029c99bfc3)" style="fill: none; stroke: #00ffff; stroke-width: 1.5; stroke-linecap: square"/>
    <g clip-path="url(#p029c99bfc3)">
     <use xlink:href="#m26c69d4e0d" x="185.376462" y="276.23475" style="fill: #ffffff; stroke: #ffffff; stroke-width: 0.9"/>
    </g>
   </g>
   <g id="line2d_79">
    <path d="M 225.225781 276.23475 
L 225.225781 165.613442 
" clip-path="url(#p029c99bfc3)" style="fill: none; stroke: #00ffff; stroke-width: 1.5; stroke-linecap: square"/>
   </g>
   <g id="line2d_80">
    <path d="M 225.225781 257.797866 
L 225.225781 220.924096 
" clip-path="url(#p029c99bfc3)" style="fill: none; stroke: #00ffff; stroke-width: 4.5; stroke-linecap: square"/>
   </g>
   <g id="line2d_81">
    <path d="M 225.225781 257.797866 
" clip-path="url(#p029c99bfc3)" style="fill: none; stroke: #00ffff; stroke-width: 1.5; stroke-linecap: square"/>
    <g clip-path="url(#p029c99bfc3)">
     <use xlink:href="#m26c69d4e0d" x="225.225781" y="257.797866" style="fill: #ffffff; stroke: #ffffff; stroke-width: 0.9"/>
    </g>
   </g>
   <g id="line2d_82">
    <path d="M 265.0751 276.23475 
L 265.0751 147.176558 
" clip-path="url(#p029c99bfc3)" style="fill: none; stroke: #00ffff; stroke-width: 1.5; stroke-linecap: square"/>
   </g>
   <g id="line2d_83">
    <path d="M 265.0751 276.23475 
L 265.0751 220.924096 
" clip-path="url(#p029c99bfc3)" style="fill: none; stroke: #00ffff; stroke-width: 4.5; stroke-linecap: square"/>
   </g>
   <g id="line2d_84">
    <path d="M 265.0751 257.797866 
" clip-path="url(#p029c99bfc3)" style="fill: none; stroke: #00ffff; stroke-width: 1.5; stroke-linecap: square"/>
    <g clip-path="url(#p029c99bfc3)">
     <use xlink:href="#m26c69d4e0d" x="265.0751" y="257.797866" style="fill: #ffffff; stroke: #ffffff; stroke-width: 0.9"/>
    </g>
   </g>
   <g id="patch_8">
    <path d="M 165.451802 294.671635 
L 165.451802 18.118365 
" style="fill: none; stroke: #000000; stroke-width: 0.8; stroke-linejoin: miter; stroke-linecap: square"/>
   </g>
   <g id="patch_9">
    <path d="M 284.99976 294.671635 
L 284.99976 18.118365 
" style="fill: none; stroke: #000000; stroke-width: 0.8; stroke-linejoin: miter; stroke-linecap: square"/>
   </g>
   <g id="patch_10">
    <path d="M 165.451802 294.671635 
L 284.99976 294.671635 
" style="fill: none; stroke: #000000; stroke-width: 0.8; stroke-linejoin: miter; stroke-linecap: square"/>
   </g>
   <g id="patch_11">
    <path d="M 165.451802 18.118365 
L 284.99976 18.118365 
" style="fill: none; stroke: #000000; stroke-width: 0.8; stroke-linejoin: miter; stroke-linecap: square"/>
   </g>
   <g id="text_24">
    <!-- DDX3X R326H -->
    <g transform="translate(181.907656 12.118365) scale(0.12 -0.12)">
     <defs>
      <path id="DejaVuSans-48" d="M 628 4666 
L 1259 4666 
L 1259 2753 
L 3553 2753 
L 3553 4666 
L 4184 4666 
L 4184 0 
L 3553 0 
L 3553 2222 
L 1259 2222 
L 1259 0 
L 628 0 
L 628 4666 
z
" transform="scale(0.015625)"/>
     </defs>
     <use xlink:href="#DejaVuSans-44"/>
     <use xlink:href="#DejaVuSans-44" x="77.001953"/>
     <use xlink:href="#DejaVuSans-58" x="154.003906"/>
     <use xlink:href="#DejaVuSans-33" x="222.509766"/>
     <use xlink:href="#DejaVuSans-58" x="286.132812"/>
     <use xlink:href="#DejaVuSans-20" x="354.638672"/>
     <use xlink:href="#DejaVuSans-52" x="386.425781"/>
     <use xlink:href="#DejaVuSans-33" x="455.908203"/>
     <use xlink:href="#DejaVuSans-32" x="519.53125"/>
     <use xlink:href="#DejaVuSans-36" x="583.154297"/>
     <use xlink:href="#DejaVuSans-48" x="646.777344"/>
    </g>
   </g>
  </g>
 </g>
 <defs>
  <clipPath id="p6181707566">
   <rect x="36.403365" y="18.118365" width="119.547957" height="276.55327"/>
  </clipPath>
  <clipPath id="p029c99bfc3">
   <rect x="165.451802" y="18.118365" width="119.547958" height="276.55327"/>
  </clipPath>
 </defs>
</svg>
