<?xml version="1.0" encoding="utf-8" standalone="no"?>
<!DOCTYPE svg PUBLIC "-//W3C//DTD SVG 1.1//EN"
  "http://www.w3.org/Graphics/SVG/1.1/DTD/svg11.dtd">
<svg xmlns:xlink="http://www.w3.org/1999/xlink" width="288pt" height="360pt" viewBox="0 0 288 360" xmlns="http://www.w3.org/2000/svg" version="1.1">
 <metadata>
  <rdf:RDF xmlns:dc="http://purl.org/dc/elements/1.1/" xmlns:cc="http://creativecommons.org/ns#" xmlns:rdf="http://www.w3.org/1999/02/22-rdf-syntax-ns#">
   <cc:Work>
    <dc:type rdf:resource="http://purl.org/dc/dcmitype/StillImage"/>
    <dc:date>2024-11-26T11:15:32.397487</dc:date>
    <dc:format>image/svg+xml</dc:format>
    <dc:creator>
     <cc:Agent>
      <dc:title>Matplotlib v3.9.2, https://matplotlib.org/</dc:title>
     </cc:Agent>
    </dc:creator>
   </cc:Work>
  </rdf:RDF>
 </metadata>
 <defs>
  <style type="text/css">*{stroke-linejoin: round; stroke-linecap: butt}</style>
 </defs>
 <g id="figure_1">
  <g id="patch_1">
   <path d="M 0 360 
L 288 360 
L 288 0 
L 0 0 
z
" style="fill: #ffffff"/>
  </g>
  <g id="axes_1">
   <g id="patch_2">
    <path d="M 36.403365 294.671635 
L 112.935177 294.671635 
L 112.935177 18.118365 
L 36.403365 18.118365 
z
" style="fill: #ffffff"/>
   </g>
   <g id="PolyCollection_1">
    <path d="M 49.604438 297.907029 
L 48.712896 297.907029 
L 48.414825 296.31695 
L 47.977287 294.726871 
L 47.371616 293.136792 
L 46.581906 291.546713 
L 45.613649 289.956634 
L 44.499933 288.366555 
L 43.302427 286.776476 
L 42.105472 285.186397 
L 41.003715 283.596318 
L 40.086054 282.006239 
L 39.420229 280.41616 
L 39.042416 278.826081 
L 38.954425 277.236002 
L 39.128492 275.645923 
L 39.517139 274.055844 
L 40.064411 272.465765 
L 40.715158 270.875687 
L 41.420657 269.285608 
L 42.140676 267.695529 
L 42.843333 266.10545 
L 43.504295 264.515371 
L 44.106316 262.925292 
L 44.639256 261.335213 
L 45.100158 259.745134 
L 45.492787 258.155055 
L 45.826327 256.564976 
L 46.11327 254.974897 
L 46.366909 253.384818 
L 46.598957 251.794739 
L 46.81787 250.20466 
L 47.028225 248.614581 
L 47.231232 247.024502 
L 47.426057 245.434423 
L 47.611378 243.844344 
L 47.786516 242.254265 
L 47.951732 240.664186 
L 48.107705 239.074107 
L 48.254629 237.484028 
L 48.391527 235.893949 
L 48.516237 234.30387 
L 48.626111 232.713791 
L 48.719123 231.123712 
L 48.794824 229.533634 
L 48.854721 227.943555 
L 48.901933 226.353476 
L 48.940297 224.763397 
L 48.973329 223.173318 
L 49.003432 221.583239 
L 49.031587 219.99316 
L 49.057513 218.403081 
L 49.080132 216.813002 
L 49.098102 215.222923 
L 49.110235 213.632844 
L 49.115737 212.042765 
L 49.114313 210.452686 
L 49.106228 208.862607 
L 49.092369 207.272528 
L 49.074301 205.682449 
L 49.054265 204.09237 
L 49.034999 202.502291 
L 49.019379 200.912212 
L 49.0099 199.322133 
L 49.008154 197.732054 
L 49.014481 196.141975 
L 49.027905 194.551896 
L 49.046407 192.961817 
L 49.067437 191.371738 
L 49.088486 189.78166 
L 49.107562 188.191581 
L 49.123439 186.601502 
L 49.135678 185.011423 
L 49.144458 183.421344 
L 49.150332 181.831265 
L 49.153985 180.241186 
L 49.156048 178.651107 
L 49.156989 177.061028 
L 49.157064 175.470949 
L 49.156295 173.88087 
L 49.154468 172.290791 
L 49.151151 170.700712 
L 49.145738 169.110633 
L 49.137541 167.520554 
L 49.125967 165.930475 
L 49.110748 164.340396 
L 49.092193 162.750317 
L 49.071379 161.160238 
L 49.050168 159.570159 
L 49.031006 157.98008 
L 49.016482 156.390001 
L 49.008763 154.799922 
L 49.009066 153.209843 
L 49.017342 151.619764 
L 49.03229 150.029685 
L 49.051693 148.439607 
L 49.072953 146.849528 
L 49.093655 145.259449 
L 49.111991 143.66937 
L 49.126945 142.079291 
L 49.13826 140.489212 
L 49.179074 140.489212 
L 49.179074 140.489212 
L 49.190388 142.079291 
L 49.205343 143.66937 
L 49.223679 145.259449 
L 49.244381 146.849528 
L 49.265641 148.439607 
L 49.285044 150.029685 
L 49.299992 151.619764 
L 49.308268 153.209843 
L 49.308571 154.799922 
L 49.300852 156.390001 
L 49.286328 157.98008 
L 49.267166 159.570159 
L 49.245955 161.160238 
L 49.22514 162.750317 
L 49.206586 164.340396 
L 49.191367 165.930475 
L 49.179793 167.520554 
L 49.171596 169.110633 
L 49.166183 170.700712 
L 49.162866 172.290791 
L 49.161039 173.88087 
L 49.16027 175.470949 
L 49.160345 177.061028 
L 49.161286 178.651107 
L 49.163349 180.241186 
L 49.167002 181.831265 
L 49.172876 183.421344 
L 49.181656 185.011423 
L 49.193895 186.601502 
L 49.209772 188.191581 
L 49.228848 189.78166 
L 49.249897 191.371738 
L 49.270927 192.961817 
L 49.289429 194.551896 
L 49.302853 196.141975 
L 49.309179 197.732054 
L 49.307434 199.322133 
L 49.297955 200.912212 
L 49.282335 202.502291 
L 49.263069 204.09237 
L 49.243033 205.682449 
L 49.224965 207.272528 
L 49.211106 208.862607 
L 49.203021 210.452686 
L 49.201597 212.042765 
L 49.207099 213.632844 
L 49.219232 215.222923 
L 49.237202 216.813002 
L 49.259821 218.403081 
L 49.285746 219.99316 
L 49.313902 221.583239 
L 49.344005 223.173318 
L 49.377037 224.763397 
L 49.415401 226.353476 
L 49.462613 227.943555 
L 49.52251 229.533634 
L 49.598211 231.123712 
L 49.691223 232.713791 
L 49.801097 234.30387 
L 49.925807 235.893949 
L 50.062705 237.484028 
L 50.209629 239.074107 
L 50.365602 240.664186 
L 50.530818 242.254265 
L 50.705956 243.844344 
L 50.891277 245.434423 
L 51.086101 247.024502 
L 51.289109 248.614581 
L 51.499464 250.20466 
L 51.718377 251.794739 
L 51.950425 253.384818 
L 52.204063 254.974897 
L 52.491007 256.564976 
L 52.824547 258.155055 
L 53.217176 259.745134 
L 53.678078 261.335213 
L 54.211018 262.925292 
L 54.813039 264.515371 
L 55.474001 266.10545 
L 56.176658 267.695529 
L 56.896677 269.285608 
L 57.602175 270.875687 
L 58.252923 272.465765 
L 58.800195 274.055844 
L 59.188842 275.645923 
L 59.362909 277.236002 
L 59.274918 278.826081 
L 58.897105 280.41616 
L 58.23128 282.006239 
L 57.313618 283.596318 
L 56.211862 285.186397 
L 55.014907 286.776476 
L 53.817401 288.366555 
L 52.703685 289.956634 
L 51.735428 291.546713 
L 50.945718 293.136792 
L 50.340047 294.726871 
L 49.902509 296.31695 
L 49.604438 297.907029 
L 49.604438 297.907029 
z
" clip-path="url(#pd37e1d2f9a)" style="fill: none; stroke: #000000"/>
   </g>
   <g id="PolyCollection_2">
    <path d="M 75.002758 295.419012 
L 74.335783 295.419012 
L 74.082122 293.969704 
L 73.694901 292.520397 
L 73.142884 291.071089 
L 72.407984 289.621781 
L 71.494393 288.172474 
L 70.434111 286.723166 
L 69.28599 285.273858 
L 68.127541 283.824551 
L 67.041515 282.375243 
L 66.10136 280.925935 
L 65.359824 279.476628 
L 64.84331 278.02732 
L 64.552143 276.578012 
L 64.465029 275.128705 
L 64.545521 273.679397 
L 64.748883 272.230089 
L 65.028601 270.780782 
L 65.342167 269.331474 
L 65.655771 267.882167 
L 65.947326 266.432859 
L 66.207386 264.983551 
L 66.437865 263.534244 
L 66.648939 262.084936 
L 66.854914 260.635628 
L 67.07008 259.186321 
L 67.305595 257.737013 
L 67.56803 256.287705 
L 67.859562 254.838398 
L 68.179068 253.38909 
L 68.523148 251.939782 
L 68.886467 250.490475 
L 69.261591 249.041167 
L 69.638983 247.591859 
L 70.007803 246.142552 
L 70.357506 244.693244 
L 70.679655 243.243937 
L 70.969099 241.794629 
L 71.224038 240.345321 
L 71.445032 238.896014 
L 71.633585 237.446706 
L 71.791044 235.997398 
L 71.918402 234.548091 
L 72.017129 233.098783 
L 72.090684 231.649475 
L 72.145918 230.200168 
L 72.193539 228.75086 
L 72.247057 227.301552 
L 72.320242 225.852245 
L 72.423818 224.402937 
L 72.562529 222.953629 
L 72.733693 221.504322 
L 72.927819 220.055014 
L 73.131091 218.605706 
L 73.328839 217.156399 
L 73.508833 215.707091 
L 73.663429 214.257784 
L 73.790149 212.808476 
L 73.890883 211.359168 
L 73.970309 209.909861 
L 74.034199 208.460553 
L 74.088058 207.011245 
L 74.136307 205.561938 
L 74.181936 204.11263 
L 74.226553 202.663322 
L 74.270675 201.214015 
L 74.314167 199.764707 
L 74.356674 198.315399 
L 74.397924 196.866092 
L 74.437784 195.416784 
L 74.476124 193.967476 
L 74.512593 192.518169 
L 74.546513 191.068861 
L 74.576963 189.619554 
L 74.603034 188.170246 
L 74.624131 186.720938 
L 74.64016 185.271631 
L 74.651535 183.822323 
L 74.659027 182.373015 
L 74.66353 180.923708 
L 74.665846 179.4744 
L 74.66654 178.025092 
L 74.665882 176.575785 
L 74.663876 175.126477 
L 74.660357 173.677169 
L 74.655147 172.227862 
L 74.648239 170.778554 
L 74.639982 169.329246 
L 74.631166 167.879939 
L 74.622968 166.430631 
L 74.616723 164.981324 
L 74.613577 163.532016 
L 74.614142 162.082708 
L 74.618308 160.633401 
L 74.625272 159.184093 
L 74.633794 157.734785 
L 74.642556 156.285478 
L 74.650483 154.83617 
L 74.656931 153.386862 
L 74.661702 151.937555 
L 74.67684 151.937555 
L 74.67684 151.937555 
L 74.68161 153.386862 
L 74.688058 154.83617 
L 74.695986 156.285478 
L 74.704747 157.734785 
L 74.71327 159.184093 
L 74.720234 160.633401 
L 74.724399 162.082708 
L 74.724965 163.532016 
L 74.721818 164.981324 
L 74.715574 166.430631 
L 74.707376 167.879939 
L 74.69856 169.329246 
L 74.690302 170.778554 
L 74.683395 172.227862 
L 74.678184 173.677169 
L 74.674666 175.126477 
L 74.67266 176.575785 
L 74.672002 178.025092 
L 74.672695 179.4744 
L 74.675012 180.923708 
L 74.679515 182.373015 
L 74.687007 183.822323 
L 74.698382 185.271631 
L 74.714411 186.720938 
L 74.735508 188.170246 
L 74.761579 189.619554 
L 74.792028 191.068861 
L 74.825949 192.518169 
L 74.862418 193.967476 
L 74.900758 195.416784 
L 74.940618 196.866092 
L 74.981868 198.315399 
L 75.024375 199.764707 
L 75.067866 201.214015 
L 75.111989 202.663322 
L 75.156606 204.11263 
L 75.202235 205.561938 
L 75.250483 207.011245 
L 75.304343 208.460553 
L 75.368232 209.909861 
L 75.447659 211.359168 
L 75.548393 212.808476 
L 75.675113 214.257784 
L 75.829709 215.707091 
L 76.009703 217.156399 
L 76.207451 218.605706 
L 76.410723 220.055014 
L 76.604849 221.504322 
L 76.776013 222.953629 
L 76.914724 224.402937 
L 77.0183 225.852245 
L 77.091485 227.301552 
L 77.145003 228.75086 
L 77.192624 230.200168 
L 77.247857 231.649475 
L 77.321412 233.098783 
L 77.42014 234.548091 
L 77.547497 235.997398 
L 77.704957 237.446706 
L 77.89351 238.896014 
L 78.114504 240.345321 
L 78.369442 241.794629 
L 78.658887 243.243937 
L 78.981036 244.693244 
L 79.330739 246.142552 
L 79.699558 247.591859 
L 80.076951 249.041167 
L 80.452075 250.490475 
L 80.815394 251.939782 
L 81.159473 253.38909 
L 81.478979 254.838398 
L 81.770511 256.287705 
L 82.032947 257.737013 
L 82.268462 259.186321 
L 82.483628 260.635628 
L 82.689602 262.084936 
L 82.900677 263.534244 
L 83.131155 264.983551 
L 83.391215 266.432859 
L 83.682771 267.882167 
L 83.996375 269.331474 
L 84.309941 270.780782 
L 84.589658 272.230089 
L 84.793021 273.679397 
L 84.873512 275.128705 
L 84.786398 276.578012 
L 84.495232 278.02732 
L 83.978718 279.476628 
L 83.237182 280.925935 
L 82.297027 282.375243 
L 81.211001 283.824551 
L 80.052552 285.273858 
L 78.904431 286.723166 
L 77.844148 288.172474 
L 76.930558 289.621781 
L 76.195658 291.071089 
L 75.643641 292.520397 
L 75.25642 293.969704 
L 75.002758 295.419012 
L 75.002758 295.419012 
z
" clip-path="url(#pd37e1d2f9a)" style="fill: none; stroke: #000000"/>
   </g>
   <g id="PolyCollection_3">
    <path d="M 100.472373 297.438026 
L 99.887377 297.438026 
L 99.495589 294.806132 
L 98.786371 292.174239 
L 97.693327 289.542346 
L 96.257977 286.910452 
L 94.649831 284.278559 
L 93.109254 281.646666 
L 91.843273 279.014772 
L 90.946997 276.382879 
L 90.397872 273.750986 
L 90.108022 271.119092 
L 89.986517 268.487199 
L 89.975633 265.855305 
L 90.053301 263.223412 
L 90.214381 260.591519 
L 90.452498 257.959625 
L 90.758602 255.327732 
L 91.131998 252.695839 
L 91.583159 250.063945 
L 92.116993 247.432052 
L 92.712285 244.800159 
L 93.32281 242.168265 
L 93.902504 239.536372 
L 94.429118 236.904478 
L 94.903808 234.272585 
L 95.333672 231.640692 
L 95.721787 229.008798 
L 96.073939 226.376905 
L 96.406157 223.745012 
L 96.73734 221.113118 
L 97.074642 218.481225 
L 97.410795 215.849331 
L 97.736282 213.217438 
L 98.05009 210.585545 
L 98.356391 207.953651 
L 98.652703 205.321758 
L 98.924146 202.689865 
L 99.150716 200.057971 
L 99.321166 197.426078 
L 99.441147 194.794185 
L 99.529076 192.162291 
L 99.604266 189.530398 
L 99.677417 186.898504 
L 99.74939 184.266611 
L 99.816029 181.634718 
L 99.87298 179.002824 
L 99.917432 176.370931 
L 99.948424 173.739038 
L 99.967846 171.107144 
L 99.980848 168.475251 
L 99.993246 165.843358 
L 100.007124 163.211464 
L 100.019281 160.579571 
L 100.025026 157.947677 
L 100.023923 155.315784 
L 100.021512 152.683891 
L 100.02508 150.051997 
L 100.037855 147.420104 
L 100.057153 144.788211 
L 100.077378 142.156317 
L 100.094324 139.524424 
L 100.107305 136.89253 
L 100.118357 134.260637 
L 100.129855 131.628744 
L 100.142492 128.99685 
L 100.154994 126.364957 
L 100.165415 123.733064 
L 100.172621 121.10117 
L 100.176754 118.469277 
L 100.178727 115.837384 
L 100.179515 113.20549 
L 100.179778 110.573597 
L 100.179853 107.941703 
L 100.17987 105.30981 
L 100.179874 102.677917 
L 100.179875 100.046023 
L 100.179875 97.41413 
L 100.179875 94.782237 
L 100.179875 92.150343 
L 100.179875 89.51845 
L 100.179875 86.886557 
L 100.179875 84.254663 
L 100.179874 81.62277 
L 100.179872 78.990876 
L 100.179862 76.358983 
L 100.179817 73.72709 
L 100.179645 71.095196 
L 100.179103 68.463303 
L 100.177664 65.83141 
L 100.174487 63.199516 
L 100.168703 60.567623 
L 100.160161 57.935729 
L 100.150269 55.303836 
L 100.142038 52.671943 
L 100.138723 50.040049 
L 100.141785 47.408156 
L 100.149873 44.776263 
L 100.159764 42.144369 
L 100.168402 39.512476 
L 100.174305 36.880583 
L 100.185444 36.880583 
L 100.185444 36.880583 
L 100.191347 39.512476 
L 100.199986 42.144369 
L 100.209877 44.776263 
L 100.217964 47.408156 
L 100.221027 50.040049 
L 100.217712 52.671943 
L 100.20948 55.303836 
L 100.199589 57.935729 
L 100.191046 60.567623 
L 100.185262 63.199516 
L 100.182086 65.83141 
L 100.180647 68.463303 
L 100.180104 71.095196 
L 100.179933 73.72709 
L 100.179887 76.358983 
L 100.179877 78.990876 
L 100.179875 81.62277 
L 100.179875 84.254663 
L 100.179875 86.886557 
L 100.179875 89.51845 
L 100.179875 92.150343 
L 100.179875 94.782237 
L 100.179875 97.41413 
L 100.179875 100.046023 
L 100.179875 102.677917 
L 100.179879 105.30981 
L 100.179897 107.941703 
L 100.179971 110.573597 
L 100.180235 113.20549 
L 100.181023 115.837384 
L 100.182996 118.469277 
L 100.187128 121.10117 
L 100.194334 123.733064 
L 100.204756 126.364957 
L 100.217258 128.99685 
L 100.229895 131.628744 
L 100.241392 134.260637 
L 100.252444 136.89253 
L 100.265426 139.524424 
L 100.282372 142.156317 
L 100.302597 144.788211 
L 100.321895 147.420104 
L 100.33467 150.051997 
L 100.338238 152.683891 
L 100.335826 155.315784 
L 100.334724 157.947677 
L 100.340468 160.579571 
L 100.352626 163.211464 
L 100.366503 165.843358 
L 100.378901 168.475251 
L 100.391904 171.107144 
L 100.411325 173.739038 
L 100.442318 176.370931 
L 100.48677 179.002824 
L 100.543721 181.634718 
L 100.610359 184.266611 
L 100.682333 186.898504 
L 100.755483 189.530398 
L 100.830673 192.162291 
L 100.918602 194.794185 
L 101.038583 197.426078 
L 101.209033 200.057971 
L 101.435604 202.689865 
L 101.707047 205.321758 
L 102.003359 207.953651 
L 102.309659 210.585545 
L 102.623467 213.217438 
L 102.948954 215.849331 
L 103.285108 218.481225 
L 103.62241 221.113118 
L 103.953592 223.745012 
L 104.285811 226.376905 
L 104.637963 229.008798 
L 105.026077 231.640692 
L 105.455941 234.272585 
L 105.930632 236.904478 
L 106.457245 239.536372 
L 107.036939 242.168265 
L 107.647464 244.800159 
L 108.242757 247.432052 
L 108.77659 250.063945 
L 109.227751 252.695839 
L 109.601147 255.327732 
L 109.907251 257.959625 
L 110.145368 260.591519 
L 110.306448 263.223412 
L 110.384116 265.855305 
L 110.373232 268.487199 
L 110.251728 271.119092 
L 109.961877 273.750986 
L 109.412752 276.382879 
L 108.516477 279.014772 
L 107.250496 281.646666 
L 105.709919 284.278559 
L 104.101772 286.910452 
L 102.666423 289.542346 
L 101.573379 292.174239 
L 100.864161 294.806132 
L 100.472373 297.438026 
L 100.472373 297.438026 
z
" clip-path="url(#pd37e1d2f9a)" style="fill: none; stroke: #000000"/>
   </g>
   <g id="matplotlib.axis_1">
    <g id="xtick_1">
     <g id="line2d_1">
      <defs>
       <path id="m6aacf6105f" d="M 0 0 
L 0 3.5 
" style="stroke: #000000; stroke-width: 0.8"/>
      </defs>
      <g>
       <use xlink:href="#m6aacf6105f" x="49.158667" y="294.671635" style="stroke: #000000; stroke-width: 0.8"/>
      </g>
     </g>
     <g id="text_1">
      <!-- CT -->
      <g transform="translate(51.918042 314.76226) rotate(-90) scale(0.1 -0.1)">
       <defs>
        <path id="DejaVuSans-43" d="M 4122 4306 
L 4122 3641 
Q 3803 3938 3442 4084 
Q 3081 4231 2675 4231 
Q 1875 4231 1450 3742 
Q 1025 3253 1025 2328 
Q 1025 1406 1450 917 
Q 1875 428 2675 428 
Q 3081 428 3442 575 
Q 3803 722 4122 1019 
L 4122 359 
Q 3791 134 3420 21 
Q 3050 -91 2638 -91 
Q 1578 -91 968 557 
Q 359 1206 359 2328 
Q 359 3453 968 4101 
Q 1578 4750 2638 4750 
Q 3056 4750 3426 4639 
Q 3797 4528 4122 4306 
z
" transform="scale(0.015625)"/>
        <path id="DejaVuSans-54" d="M -19 4666 
L 3928 4666 
L 3928 4134 
L 2272 4134 
L 2272 0 
L 1638 0 
L 1638 4134 
L -19 4134 
L -19 4666 
z
" transform="scale(0.015625)"/>
       </defs>
       <use xlink:href="#DejaVuSans-43"/>
       <use xlink:href="#DejaVuSans-54" x="69.824219"/>
      </g>
     </g>
    </g>
    <g id="xtick_2">
     <g id="line2d_2">
      <g>
       <use xlink:href="#m6aacf6105f" x="74.669271" y="294.671635" style="stroke: #000000; stroke-width: 0.8"/>
      </g>
     </g>
     <g id="text_2">
      <!-- ARS -->
      <g transform="translate(77.428646 321.809135) rotate(-90) scale(0.1 -0.1)">
       <defs>
        <path id="DejaVuSans-41" d="M 2188 4044 
L 1331 1722 
L 3047 1722 
L 2188 4044 
z
M 1831 4666 
L 2547 4666 
L 4325 0 
L 3669 0 
L 3244 1197 
L 1141 1197 
L 716 0 
L 50 0 
L 1831 4666 
z
" transform="scale(0.015625)"/>
        <path id="DejaVuSans-52" d="M 2841 2188 
Q 3044 2119 3236 1894 
Q 3428 1669 3622 1275 
L 4263 0 
L 3584 0 
L 2988 1197 
Q 2756 1666 2539 1819 
Q 2322 1972 1947 1972 
L 1259 1972 
L 1259 0 
L 628 0 
L 628 4666 
L 2053 4666 
Q 2853 4666 3247 4331 
Q 3641 3997 3641 3322 
Q 3641 2881 3436 2590 
Q 3231 2300 2841 2188 
z
M 1259 4147 
L 1259 2491 
L 2053 2491 
Q 2509 2491 2742 2702 
Q 2975 2913 2975 3322 
Q 2975 3731 2742 3939 
Q 2509 4147 2053 4147 
L 1259 4147 
z
" transform="scale(0.015625)"/>
        <path id="DejaVuSans-53" d="M 3425 4513 
L 3425 3897 
Q 3066 4069 2747 4153 
Q 2428 4238 2131 4238 
Q 1616 4238 1336 4038 
Q 1056 3838 1056 3469 
Q 1056 3159 1242 3001 
Q 1428 2844 1947 2747 
L 2328 2669 
Q 3034 2534 3370 2195 
Q 3706 1856 3706 1288 
Q 3706 609 3251 259 
Q 2797 -91 1919 -91 
Q 1588 -91 1214 -16 
Q 841 59 441 206 
L 441 856 
Q 825 641 1194 531 
Q 1563 422 1919 422 
Q 2459 422 2753 634 
Q 3047 847 3047 1241 
Q 3047 1584 2836 1778 
Q 2625 1972 2144 2069 
L 1759 2144 
Q 1053 2284 737 2584 
Q 422 2884 422 3419 
Q 422 4038 858 4394 
Q 1294 4750 2059 4750 
Q 2388 4750 2728 4690 
Q 3069 4631 3425 4513 
z
" transform="scale(0.015625)"/>
       </defs>
       <use xlink:href="#DejaVuSans-41"/>
       <use xlink:href="#DejaVuSans-52" x="68.408203"/>
       <use xlink:href="#DejaVuSans-53" x="137.890625"/>
      </g>
     </g>
    </g>
    <g id="xtick_3">
     <g id="line2d_3">
      <g>
       <use xlink:href="#m6aacf6105f" x="100.179875" y="294.671635" style="stroke: #000000; stroke-width: 0.8"/>
      </g>
     </g>
     <g id="text_3">
      <!-- GLU-40min -->
      <g transform="translate(102.93925 356.99976) rotate(-90) scale(0.1 -0.1)">
       <defs>
        <path id="DejaVuSans-47" d="M 3809 666 
L 3809 1919 
L 2778 1919 
L 2778 2438 
L 4434 2438 
L 4434 434 
Q 4069 175 3628 42 
Q 3188 -91 2688 -91 
Q 1594 -91 976 548 
Q 359 1188 359 2328 
Q 359 3472 976 4111 
Q 1594 4750 2688 4750 
Q 3144 4750 3555 4637 
Q 3966 4525 4313 4306 
L 4313 3634 
Q 3963 3931 3569 4081 
Q 3175 4231 2741 4231 
Q 1884 4231 1454 3753 
Q 1025 3275 1025 2328 
Q 1025 1384 1454 906 
Q 1884 428 2741 428 
Q 3075 428 3337 486 
Q 3600 544 3809 666 
z
" transform="scale(0.015625)"/>
        <path id="DejaVuSans-4c" d="M 628 4666 
L 1259 4666 
L 1259 531 
L 3531 531 
L 3531 0 
L 628 0 
L 628 4666 
z
" transform="scale(0.015625)"/>
        <path id="DejaVuSans-55" d="M 556 4666 
L 1191 4666 
L 1191 1831 
Q 1191 1081 1462 751 
Q 1734 422 2344 422 
Q 2950 422 3222 751 
Q 3494 1081 3494 1831 
L 3494 4666 
L 4128 4666 
L 4128 1753 
Q 4128 841 3676 375 
Q 3225 -91 2344 -91 
Q 1459 -91 1007 375 
Q 556 841 556 1753 
L 556 4666 
z
" transform="scale(0.015625)"/>
        <path id="DejaVuSans-2d" d="M 313 2009 
L 1997 2009 
L 1997 1497 
L 313 1497 
L 313 2009 
z
" transform="scale(0.015625)"/>
        <path id="DejaVuSans-34" d="M 2419 4116 
L 825 1625 
L 2419 1625 
L 2419 4116 
z
M 2253 4666 
L 3047 4666 
L 3047 1625 
L 3713 1625 
L 3713 1100 
L 3047 1100 
L 3047 0 
L 2419 0 
L 2419 1100 
L 313 1100 
L 313 1709 
L 2253 4666 
z
" transform="scale(0.015625)"/>
        <path id="DejaVuSans-30" d="M 2034 4250 
Q 1547 4250 1301 3770 
Q 1056 3291 1056 2328 
Q 1056 1369 1301 889 
Q 1547 409 2034 409 
Q 2525 409 2770 889 
Q 3016 1369 3016 2328 
Q 3016 3291 2770 3770 
Q 2525 4250 2034 4250 
z
M 2034 4750 
Q 2819 4750 3233 4129 
Q 3647 3509 3647 2328 
Q 3647 1150 3233 529 
Q 2819 -91 2034 -91 
Q 1250 -91 836 529 
Q 422 1150 422 2328 
Q 422 3509 836 4129 
Q 1250 4750 2034 4750 
z
" transform="scale(0.015625)"/>
        <path id="DejaVuSans-6d" d="M 3328 2828 
Q 3544 3216 3844 3400 
Q 4144 3584 4550 3584 
Q 5097 3584 5394 3201 
Q 5691 2819 5691 2113 
L 5691 0 
L 5113 0 
L 5113 2094 
Q 5113 2597 4934 2840 
Q 4756 3084 4391 3084 
Q 3944 3084 3684 2787 
Q 3425 2491 3425 1978 
L 3425 0 
L 2847 0 
L 2847 2094 
Q 2847 2600 2669 2842 
Q 2491 3084 2119 3084 
Q 1678 3084 1418 2786 
Q 1159 2488 1159 1978 
L 1159 0 
L 581 0 
L 581 3500 
L 1159 3500 
L 1159 2956 
Q 1356 3278 1631 3431 
Q 1906 3584 2284 3584 
Q 2666 3584 2933 3390 
Q 3200 3197 3328 2828 
z
" transform="scale(0.015625)"/>
        <path id="DejaVuSans-69" d="M 603 3500 
L 1178 3500 
L 1178 0 
L 603 0 
L 603 3500 
z
M 603 4863 
L 1178 4863 
L 1178 4134 
L 603 4134 
L 603 4863 
z
" transform="scale(0.015625)"/>
        <path id="DejaVuSans-6e" d="M 3513 2113 
L 3513 0 
L 2938 0 
L 2938 2094 
Q 2938 2591 2744 2837 
Q 2550 3084 2163 3084 
Q 1697 3084 1428 2787 
Q 1159 2491 1159 1978 
L 1159 0 
L 581 0 
L 581 3500 
L 1159 3500 
L 1159 2956 
Q 1366 3272 1645 3428 
Q 1925 3584 2291 3584 
Q 2894 3584 3203 3211 
Q 3513 2838 3513 2113 
z
" transform="scale(0.015625)"/>
       </defs>
       <use xlink:href="#DejaVuSans-47"/>
       <use xlink:href="#DejaVuSans-4c" x="77.490234"/>
       <use xlink:href="#DejaVuSans-55" x="128.203125"/>
       <use xlink:href="#DejaVuSans-2d" x="201.396484"/>
       <use xlink:href="#DejaVuSans-34" x="237.480469"/>
       <use xlink:href="#DejaVuSans-30" x="301.103516"/>
       <use xlink:href="#DejaVuSans-6d" x="364.726562"/>
       <use xlink:href="#DejaVuSans-69" x="462.138672"/>
       <use xlink:href="#DejaVuSans-6e" x="489.921875"/>
      </g>
     </g>
    </g>
   </g>
   <g id="matplotlib.axis_2">
    <g id="ytick_1">
     <g id="line2d_4">
      <path d="M 36.403365 294.671635 
L 112.935177 294.671635 
" clip-path="url(#pd37e1d2f9a)" style="fill: none; stroke: #b0b0b0; stroke-width: 0.2; stroke-linecap: square"/>
     </g>
     <g id="line2d_5">
      <defs>
       <path id="m7526721b9e" d="M 0 0 
L -3.5 0 
" style="stroke: #000000; stroke-width: 0.8"/>
      </defs>
      <g>
       <use xlink:href="#m7526721b9e" x="36.403365" y="294.671635" style="stroke: #000000; stroke-width: 0.8"/>
      </g>
     </g>
     <g id="text_4">
      <!-- 0 -->
      <g transform="translate(23.040865 298.470854) scale(0.1 -0.1)">
       <use xlink:href="#DejaVuSans-30"/>
      </g>
     </g>
    </g>
    <g id="ytick_2">
     <g id="line2d_6">
      <path d="M 36.403365 273.398307 
L 112.935177 273.398307 
" clip-path="url(#pd37e1d2f9a)" style="fill: none; stroke: #b0b0b0; stroke-width: 0.2; stroke-linecap: square"/>
     </g>
     <g id="line2d_7">
      <g>
       <use xlink:href="#m7526721b9e" x="36.403365" y="273.398307" style="stroke: #000000; stroke-width: 0.8"/>
      </g>
     </g>
     <g id="text_5">
      <!-- 1 -->
      <g transform="translate(23.040865 277.197525) scale(0.1 -0.1)">
       <defs>
        <path id="DejaVuSans-31" d="M 794 531 
L 1825 531 
L 1825 4091 
L 703 3866 
L 703 4441 
L 1819 4666 
L 2450 4666 
L 2450 531 
L 3481 531 
L 3481 0 
L 794 0 
L 794 531 
z
" transform="scale(0.015625)"/>
       </defs>
       <use xlink:href="#DejaVuSans-31"/>
      </g>
     </g>
    </g>
    <g id="ytick_3">
     <g id="line2d_8">
      <path d="M 36.403365 252.124978 
L 112.935177 252.124978 
" clip-path="url(#pd37e1d2f9a)" style="fill: none; stroke: #b0b0b0; stroke-width: 0.2; stroke-linecap: square"/>
     </g>
     <g id="line2d_9">
      <g>
       <use xlink:href="#m7526721b9e" x="36.403365" y="252.124978" style="stroke: #000000; stroke-width: 0.8"/>
      </g>
     </g>
     <g id="text_6">
      <!-- 2 -->
      <g transform="translate(23.040865 255.924197) scale(0.1 -0.1)">
       <defs>
        <path id="DejaVuSans-32" d="M 1228 531 
L 3431 531 
L 3431 0 
L 469 0 
L 469 531 
Q 828 903 1448 1529 
Q 2069 2156 2228 2338 
Q 2531 2678 2651 2914 
Q 2772 3150 2772 3378 
Q 2772 3750 2511 3984 
Q 2250 4219 1831 4219 
Q 1534 4219 1204 4116 
Q 875 4013 500 3803 
L 500 4441 
Q 881 4594 1212 4672 
Q 1544 4750 1819 4750 
Q 2544 4750 2975 4387 
Q 3406 4025 3406 3419 
Q 3406 3131 3298 2873 
Q 3191 2616 2906 2266 
Q 2828 2175 2409 1742 
Q 1991 1309 1228 531 
z
" transform="scale(0.015625)"/>
       </defs>
       <use xlink:href="#DejaVuSans-32"/>
      </g>
     </g>
    </g>
    <g id="ytick_4">
     <g id="line2d_10">
      <path d="M 36.403365 230.85165 
L 112.935177 230.85165 
" clip-path="url(#pd37e1d2f9a)" style="fill: none; stroke: #b0b0b0; stroke-width: 0.2; stroke-linecap: square"/>
     </g>
     <g id="line2d_11">
      <g>
       <use xlink:href="#m7526721b9e" x="36.403365" y="230.85165" style="stroke: #000000; stroke-width: 0.8"/>
      </g>
     </g>
     <g id="text_7">
      <!-- 3 -->
      <g transform="translate(23.040865 234.650868) scale(0.1 -0.1)">
       <defs>
        <path id="DejaVuSans-33" d="M 2597 2516 
Q 3050 2419 3304 2112 
Q 3559 1806 3559 1356 
Q 3559 666 3084 287 
Q 2609 -91 1734 -91 
Q 1441 -91 1130 -33 
Q 819 25 488 141 
L 488 750 
Q 750 597 1062 519 
Q 1375 441 1716 441 
Q 2309 441 2620 675 
Q 2931 909 2931 1356 
Q 2931 1769 2642 2001 
Q 2353 2234 1838 2234 
L 1294 2234 
L 1294 2753 
L 1863 2753 
Q 2328 2753 2575 2939 
Q 2822 3125 2822 3475 
Q 2822 3834 2567 4026 
Q 2313 4219 1838 4219 
Q 1578 4219 1281 4162 
Q 984 4106 628 3988 
L 628 4550 
Q 988 4650 1302 4700 
Q 1616 4750 1894 4750 
Q 2613 4750 3031 4423 
Q 3450 4097 3450 3541 
Q 3450 3153 3228 2886 
Q 3006 2619 2597 2516 
z
" transform="scale(0.015625)"/>
       </defs>
       <use xlink:href="#DejaVuSans-33"/>
      </g>
     </g>
    </g>
    <g id="ytick_5">
     <g id="line2d_12">
      <path d="M 36.403365 209.578321 
L 112.935177 209.578321 
" clip-path="url(#pd37e1d2f9a)" style="fill: none; stroke: #b0b0b0; stroke-width: 0.2; stroke-linecap: square"/>
     </g>
     <g id="line2d_13">
      <g>
       <use xlink:href="#m7526721b9e" x="36.403365" y="209.578321" style="stroke: #000000; stroke-width: 0.8"/>
      </g>
     </g>
     <g id="text_8">
      <!-- 4 -->
      <g transform="translate(23.040865 213.37754) scale(0.1 -0.1)">
       <use xlink:href="#DejaVuSans-34"/>
      </g>
     </g>
    </g>
    <g id="ytick_6">
     <g id="line2d_14">
      <path d="M 36.403365 188.304993 
L 112.935177 188.304993 
" clip-path="url(#pd37e1d2f9a)" style="fill: none; stroke: #b0b0b0; stroke-width: 0.2; stroke-linecap: square"/>
     </g>
     <g id="line2d_15">
      <g>
       <use xlink:href="#m7526721b9e" x="36.403365" y="188.304993" style="stroke: #000000; stroke-width: 0.8"/>
      </g>
     </g>
     <g id="text_9">
      <!-- 5 -->
      <g transform="translate(23.040865 192.104211) scale(0.1 -0.1)">
       <defs>
        <path id="DejaVuSans-35" d="M 691 4666 
L 3169 4666 
L 3169 4134 
L 1269 4134 
L 1269 2991 
Q 1406 3038 1543 3061 
Q 1681 3084 1819 3084 
Q 2600 3084 3056 2656 
Q 3513 2228 3513 1497 
Q 3513 744 3044 326 
Q 2575 -91 1722 -91 
Q 1428 -91 1123 -41 
Q 819 9 494 109 
L 494 744 
Q 775 591 1075 516 
Q 1375 441 1709 441 
Q 2250 441 2565 725 
Q 2881 1009 2881 1497 
Q 2881 1984 2565 2268 
Q 2250 2553 1709 2553 
Q 1456 2553 1204 2497 
Q 953 2441 691 2322 
L 691 4666 
z
" transform="scale(0.015625)"/>
       </defs>
       <use xlink:href="#DejaVuSans-35"/>
      </g>
     </g>
    </g>
    <g id="ytick_7">
     <g id="line2d_16">
      <path d="M 36.403365 167.031664 
L 112.935177 167.031664 
" clip-path="url(#pd37e1d2f9a)" style="fill: none; stroke: #b0b0b0; stroke-width: 0.2; stroke-linecap: square"/>
     </g>
     <g id="line2d_17">
      <g>
       <use xlink:href="#m7526721b9e" x="36.403365" y="167.031664" style="stroke: #000000; stroke-width: 0.8"/>
      </g>
     </g>
     <g id="text_10">
      <!-- 6 -->
      <g transform="translate(23.040865 170.830883) scale(0.1 -0.1)">
       <defs>
        <path id="DejaVuSans-36" d="M 2113 2584 
Q 1688 2584 1439 2293 
Q 1191 2003 1191 1497 
Q 1191 994 1439 701 
Q 1688 409 2113 409 
Q 2538 409 2786 701 
Q 3034 994 3034 1497 
Q 3034 2003 2786 2293 
Q 2538 2584 2113 2584 
z
M 3366 4563 
L 3366 3988 
Q 3128 4100 2886 4159 
Q 2644 4219 2406 4219 
Q 1781 4219 1451 3797 
Q 1122 3375 1075 2522 
Q 1259 2794 1537 2939 
Q 1816 3084 2150 3084 
Q 2853 3084 3261 2657 
Q 3669 2231 3669 1497 
Q 3669 778 3244 343 
Q 2819 -91 2113 -91 
Q 1303 -91 875 529 
Q 447 1150 447 2328 
Q 447 3434 972 4092 
Q 1497 4750 2381 4750 
Q 2619 4750 2861 4703 
Q 3103 4656 3366 4563 
z
" transform="scale(0.015625)"/>
       </defs>
       <use xlink:href="#DejaVuSans-36"/>
      </g>
     </g>
    </g>
    <g id="ytick_8">
     <g id="line2d_18">
      <path d="M 36.403365 145.758336 
L 112.935177 145.758336 
" clip-path="url(#pd37e1d2f9a)" style="fill: none; stroke: #b0b0b0; stroke-width: 0.2; stroke-linecap: square"/>
     </g>
     <g id="line2d_19">
      <g>
       <use xlink:href="#m7526721b9e" x="36.403365" y="145.758336" style="stroke: #000000; stroke-width: 0.8"/>
      </g>
     </g>
     <g id="text_11">
      <!-- 7 -->
      <g transform="translate(23.040865 149.557555) scale(0.1 -0.1)">
       <defs>
        <path id="DejaVuSans-37" d="M 525 4666 
L 3525 4666 
L 3525 4397 
L 1831 0 
L 1172 0 
L 2766 4134 
L 525 4134 
L 525 4666 
z
" transform="scale(0.015625)"/>
       </defs>
       <use xlink:href="#DejaVuSans-37"/>
      </g>
     </g>
    </g>
    <g id="ytick_9">
     <g id="line2d_20">
      <path d="M 36.403365 124.485007 
L 112.935177 124.485007 
" clip-path="url(#pd37e1d2f9a)" style="fill: none; stroke: #b0b0b0; stroke-width: 0.2; stroke-linecap: square"/>
     </g>
     <g id="line2d_21">
      <g>
       <use xlink:href="#m7526721b9e" x="36.403365" y="124.485007" style="stroke: #000000; stroke-width: 0.8"/>
      </g>
     </g>
     <g id="text_12">
      <!-- 8 -->
      <g transform="translate(23.040865 128.284226) scale(0.1 -0.1)">
       <defs>
        <path id="DejaVuSans-38" d="M 2034 2216 
Q 1584 2216 1326 1975 
Q 1069 1734 1069 1313 
Q 1069 891 1326 650 
Q 1584 409 2034 409 
Q 2484 409 2743 651 
Q 3003 894 3003 1313 
Q 3003 1734 2745 1975 
Q 2488 2216 2034 2216 
z
M 1403 2484 
Q 997 2584 770 2862 
Q 544 3141 544 3541 
Q 544 4100 942 4425 
Q 1341 4750 2034 4750 
Q 2731 4750 3128 4425 
Q 3525 4100 3525 3541 
Q 3525 3141 3298 2862 
Q 3072 2584 2669 2484 
Q 3125 2378 3379 2068 
Q 3634 1759 3634 1313 
Q 3634 634 3220 271 
Q 2806 -91 2034 -91 
Q 1263 -91 848 271 
Q 434 634 434 1313 
Q 434 1759 690 2068 
Q 947 2378 1403 2484 
z
M 1172 3481 
Q 1172 3119 1398 2916 
Q 1625 2713 2034 2713 
Q 2441 2713 2670 2916 
Q 2900 3119 2900 3481 
Q 2900 3844 2670 4047 
Q 2441 4250 2034 4250 
Q 1625 4250 1398 4047 
Q 1172 3844 1172 3481 
z
" transform="scale(0.015625)"/>
       </defs>
       <use xlink:href="#DejaVuSans-38"/>
      </g>
     </g>
    </g>
    <g id="ytick_10">
     <g id="line2d_22">
      <path d="M 36.403365 103.211679 
L 112.935177 103.211679 
" clip-path="url(#pd37e1d2f9a)" style="fill: none; stroke: #b0b0b0; stroke-width: 0.2; stroke-linecap: square"/>
     </g>
     <g id="line2d_23">
      <g>
       <use xlink:href="#m7526721b9e" x="36.403365" y="103.211679" style="stroke: #000000; stroke-width: 0.8"/>
      </g>
     </g>
     <g id="text_13">
      <!-- 9 -->
      <g transform="translate(23.040865 107.010898) scale(0.1 -0.1)">
       <defs>
        <path id="DejaVuSans-39" d="M 703 97 
L 703 672 
Q 941 559 1184 500 
Q 1428 441 1663 441 
Q 2288 441 2617 861 
Q 2947 1281 2994 2138 
Q 2813 1869 2534 1725 
Q 2256 1581 1919 1581 
Q 1219 1581 811 2004 
Q 403 2428 403 3163 
Q 403 3881 828 4315 
Q 1253 4750 1959 4750 
Q 2769 4750 3195 4129 
Q 3622 3509 3622 2328 
Q 3622 1225 3098 567 
Q 2575 -91 1691 -91 
Q 1453 -91 1209 -44 
Q 966 3 703 97 
z
M 1959 2075 
Q 2384 2075 2632 2365 
Q 2881 2656 2881 3163 
Q 2881 3666 2632 3958 
Q 2384 4250 1959 4250 
Q 1534 4250 1286 3958 
Q 1038 3666 1038 3163 
Q 1038 2656 1286 2365 
Q 1534 2075 1959 2075 
z
" transform="scale(0.015625)"/>
       </defs>
       <use xlink:href="#DejaVuSans-39"/>
      </g>
     </g>
    </g>
    <g id="ytick_11">
     <g id="line2d_24">
      <path d="M 36.403365 81.93835 
L 112.935177 81.93835 
" clip-path="url(#pd37e1d2f9a)" style="fill: none; stroke: #b0b0b0; stroke-width: 0.2; stroke-linecap: square"/>
     </g>
     <g id="line2d_25">
      <g>
       <use xlink:href="#m7526721b9e" x="36.403365" y="81.93835" style="stroke: #000000; stroke-width: 0.8"/>
      </g>
     </g>
     <g id="text_14">
      <!-- 10 -->
      <g transform="translate(16.678365 85.737569) scale(0.1 -0.1)">
       <use xlink:href="#DejaVuSans-31"/>
       <use xlink:href="#DejaVuSans-30" x="63.623047"/>
      </g>
     </g>
    </g>
    <g id="ytick_12">
     <g id="line2d_26">
      <path d="M 36.403365 60.665022 
L 112.935177 60.665022 
" clip-path="url(#pd37e1d2f9a)" style="fill: none; stroke: #b0b0b0; stroke-width: 0.2; stroke-linecap: square"/>
     </g>
     <g id="line2d_27">
      <g>
       <use xlink:href="#m7526721b9e" x="36.403365" y="60.665022" style="stroke: #000000; stroke-width: 0.8"/>
      </g>
     </g>
     <g id="text_15">
      <!-- 11 -->
      <g transform="translate(16.678365 64.464241) scale(0.1 -0.1)">
       <use xlink:href="#DejaVuSans-31"/>
       <use xlink:href="#DejaVuSans-31" x="63.623047"/>
      </g>
     </g>
    </g>
    <g id="ytick_13">
     <g id="line2d_28">
      <path d="M 36.403365 39.391693 
L 112.935177 39.391693 
" clip-path="url(#pd37e1d2f9a)" style="fill: none; stroke: #b0b0b0; stroke-width: 0.2; stroke-linecap: square"/>
     </g>
     <g id="line2d_29">
      <g>
       <use xlink:href="#m7526721b9e" x="36.403365" y="39.391693" style="stroke: #000000; stroke-width: 0.8"/>
      </g>
     </g>
     <g id="text_16">
      <!-- 12 -->
      <g transform="translate(16.678365 43.190912) scale(0.1 -0.1)">
       <use xlink:href="#DejaVuSans-31"/>
       <use xlink:href="#DejaVuSans-32" x="63.623047"/>
      </g>
     </g>
    </g>
    <g id="ytick_14">
     <g id="line2d_30">
      <path d="M 36.403365 18.118365 
L 112.935177 18.118365 
" clip-path="url(#pd37e1d2f9a)" style="fill: none; stroke: #b0b0b0; stroke-width: 0.2; stroke-linecap: square"/>
     </g>
     <g id="line2d_31">
      <g>
       <use xlink:href="#m7526721b9e" x="36.403365" y="18.118365" style="stroke: #000000; stroke-width: 0.8"/>
      </g>
     </g>
     <g id="text_17">
      <!-- 13 -->
      <g transform="translate(16.678365 21.917584) scale(0.1 -0.1)">
       <use xlink:href="#DejaVuSans-31"/>
       <use xlink:href="#DejaVuSans-33" x="63.623047"/>
      </g>
     </g>
    </g>
    <g id="text_18">
     <!-- Area -->
     <g transform="translate(10.598677 167.898906) rotate(-90) scale(0.1 -0.1)">
      <defs>
       <path id="DejaVuSans-72" d="M 2631 2963 
Q 2534 3019 2420 3045 
Q 2306 3072 2169 3072 
Q 1681 3072 1420 2755 
Q 1159 2438 1159 1844 
L 1159 0 
L 581 0 
L 581 3500 
L 1159 3500 
L 1159 2956 
Q 1341 3275 1631 3429 
Q 1922 3584 2338 3584 
Q 2397 3584 2469 3576 
Q 2541 3569 2628 3553 
L 2631 2963 
z
" transform="scale(0.015625)"/>
       <path id="DejaVuSans-65" d="M 3597 1894 
L 3597 1613 
L 953 1613 
Q 991 1019 1311 708 
Q 1631 397 2203 397 
Q 2534 397 2845 478 
Q 3156 559 3463 722 
L 3463 178 
Q 3153 47 2828 -22 
Q 2503 -91 2169 -91 
Q 1331 -91 842 396 
Q 353 884 353 1716 
Q 353 2575 817 3079 
Q 1281 3584 2069 3584 
Q 2775 3584 3186 3129 
Q 3597 2675 3597 1894 
z
M 3022 2063 
Q 3016 2534 2758 2815 
Q 2500 3097 2075 3097 
Q 1594 3097 1305 2825 
Q 1016 2553 972 2059 
L 3022 2063 
z
" transform="scale(0.015625)"/>
       <path id="DejaVuSans-61" d="M 2194 1759 
Q 1497 1759 1228 1600 
Q 959 1441 959 1056 
Q 959 750 1161 570 
Q 1363 391 1709 391 
Q 2188 391 2477 730 
Q 2766 1069 2766 1631 
L 2766 1759 
L 2194 1759 
z
M 3341 1997 
L 3341 0 
L 2766 0 
L 2766 531 
Q 2569 213 2275 61 
Q 1981 -91 1556 -91 
Q 1019 -91 701 211 
Q 384 513 384 1019 
Q 384 1609 779 1909 
Q 1175 2209 1959 2209 
L 2766 2209 
L 2766 2266 
Q 2766 2663 2505 2880 
Q 2244 3097 1772 3097 
Q 1472 3097 1187 3025 
Q 903 2953 641 2809 
L 641 3341 
Q 956 3463 1253 3523 
Q 1550 3584 1831 3584 
Q 2591 3584 2966 3190 
Q 3341 2797 3341 1997 
z
" transform="scale(0.015625)"/>
      </defs>
      <use xlink:href="#DejaVuSans-41"/>
      <use xlink:href="#DejaVuSans-72" x="68.408203"/>
      <use xlink:href="#DejaVuSans-65" x="107.271484"/>
      <use xlink:href="#DejaVuSans-61" x="168.794922"/>
     </g>
    </g>
   </g>
   <g id="line2d_32">
    <path d="M 49.158667 284.332797 
L 49.158667 241.598935 
" clip-path="url(#pd37e1d2f9a)" style="fill: none; stroke: #000000; stroke-width: 1.5; stroke-linecap: square"/>
   </g>
   <g id="line2d_33">
    <path d="M 49.158667 280.197262 
L 49.158667 264.689006 
" clip-path="url(#pd37e1d2f9a)" style="fill: none; stroke: #000000; stroke-width: 4.5; stroke-linecap: square"/>
   </g>
   <g id="line2d_34">
    <path d="M 49.158667 274.338588 
" clip-path="url(#pd37e1d2f9a)" style="fill: none; stroke: #000000; stroke-width: 1.5; stroke-linecap: square"/>
    <defs>
     <path id="m30f7d689f4" d="M 1.875 0 
L -1.875 -0 
" style="stroke: #ffffff; stroke-width: 0.9"/>
    </defs>
    <g clip-path="url(#pd37e1d2f9a)">
     <use xlink:href="#m30f7d689f4" x="49.158667" y="274.338588" style="fill: #ffffff; stroke: #ffffff; stroke-width: 0.9"/>
    </g>
   </g>
   <g id="line2d_35">
    <path d="M 74.669271 284.332797 
L 74.669271 213.339446 
" clip-path="url(#pd37e1d2f9a)" style="fill: none; stroke: #000000; stroke-width: 1.5; stroke-linecap: square"/>
   </g>
   <g id="line2d_36">
    <path d="M 74.669271 275.372471 
L 74.669271 249.870005 
" clip-path="url(#pd37e1d2f9a)" style="fill: none; stroke: #000000; stroke-width: 4.5; stroke-linecap: square"/>
   </g>
   <g id="line2d_37">
    <path d="M 74.669271 264.344378 
" clip-path="url(#pd37e1d2f9a)" style="fill: none; stroke: #000000; stroke-width: 1.5; stroke-linecap: square"/>
    <g clip-path="url(#pd37e1d2f9a)">
     <use xlink:href="#m30f7d689f4" x="74.669271" y="264.344378" style="fill: #ffffff; stroke: #ffffff; stroke-width: 0.9"/>
    </g>
   </g>
   <g id="line2d_38">
    <path d="M 100.179875 284.332797 
L 100.179875 193.351026 
" clip-path="url(#pd37e1d2f9a)" style="fill: none; stroke: #000000; stroke-width: 1.5; stroke-linecap: square"/>
   </g>
   <g id="line2d_39">
    <path d="M 100.179875 271.236936 
L 100.179875 238.841912 
" clip-path="url(#pd37e1d2f9a)" style="fill: none; stroke: #000000; stroke-width: 4.5; stroke-linecap: square"/>
   </g>
   <g id="line2d_40">
    <path d="M 100.179875 256.762564 
" clip-path="url(#pd37e1d2f9a)" style="fill: none; stroke: #000000; stroke-width: 1.5; stroke-linecap: square"/>
    <g clip-path="url(#pd37e1d2f9a)">
     <use xlink:href="#m30f7d689f4" x="100.179875" y="256.762564" style="fill: #ffffff; stroke: #ffffff; stroke-width: 0.9"/>
    </g>
   </g>
   <g id="patch_3">
    <path d="M 36.403365 294.671635 
L 36.403365 18.118365 
" style="fill: none; stroke: #000000; stroke-width: 0.8; stroke-linejoin: miter; stroke-linecap: square"/>
   </g>
   <g id="patch_4">
    <path d="M 112.935177 294.671635 
L 112.935177 18.118365 
" style="fill: none; stroke: #000000; stroke-width: 0.8; stroke-linejoin: miter; stroke-linecap: square"/>
   </g>
   <g id="patch_5">
    <path d="M 36.403365 294.671635 
L 112.935177 294.671635 
" style="fill: none; stroke: #000000; stroke-width: 0.8; stroke-linejoin: miter; stroke-linecap: square"/>
   </g>
   <g id="patch_6">
    <path d="M 36.403365 18.118365 
L 112.935177 18.118365 
" style="fill: none; stroke: #000000; stroke-width: 0.8; stroke-linejoin: miter; stroke-linecap: square"/>
   </g>
   <g id="text_19">
    <!-- DDX3X WT -->
    <g transform="translate(41.887708 12.118365) scale(0.12 -0.12)">
     <defs>
      <path id="DejaVuSans-44" d="M 1259 4147 
L 1259 519 
L 2022 519 
Q 2988 519 3436 956 
Q 3884 1394 3884 2338 
Q 3884 3275 3436 3711 
Q 2988 4147 2022 4147 
L 1259 4147 
z
M 628 4666 
L 1925 4666 
Q 3281 4666 3915 4102 
Q 4550 3538 4550 2338 
Q 4550 1131 3912 565 
Q 3275 0 1925 0 
L 628 0 
L 628 4666 
z
" transform="scale(0.015625)"/>
      <path id="DejaVuSans-58" d="M 403 4666 
L 1081 4666 
L 2241 2931 
L 3406 4666 
L 4084 4666 
L 2584 2425 
L 4184 0 
L 3506 0 
L 2194 1984 
L 872 0 
L 191 0 
L 1856 2491 
L 403 4666 
z
" transform="scale(0.015625)"/>
      <path id="DejaVuSans-20" transform="scale(0.015625)"/>
      <path id="DejaVuSans-57" d="M 213 4666 
L 850 4666 
L 1831 722 
L 2809 4666 
L 3519 4666 
L 4500 722 
L 5478 4666 
L 6119 4666 
L 4947 0 
L 4153 0 
L 3169 4050 
L 2175 0 
L 1381 0 
L 213 4666 
z
" transform="scale(0.015625)"/>
     </defs>
     <use xlink:href="#DejaVuSans-44"/>
     <use xlink:href="#DejaVuSans-44" x="77.001953"/>
     <use xlink:href="#DejaVuSans-58" x="154.003906"/>
     <use xlink:href="#DejaVuSans-33" x="222.509766"/>
     <use xlink:href="#DejaVuSans-58" x="286.132812"/>
     <use xlink:href="#DejaVuSans-20" x="354.638672"/>
     <use xlink:href="#DejaVuSans-57" x="386.425781"/>
     <use xlink:href="#DejaVuSans-54" x="485.302734"/>
    </g>
   </g>
  </g>
  <g id="axes_2">
   <g id="patch_7">
    <path d="M 122.435657 294.671635 
L 198.967468 294.671635 
L 198.967468 18.118365 
L 122.435657 18.118365 
z
" style="fill: #ffffff"/>
   </g>
   <g id="PolyCollection_4">
    <path d="M 135.702616 292.098199 
L 134.679301 292.098199 
L 134.566858 291.718533 
L 134.436521 291.338866 
L 134.287062 290.9592 
L 134.117511 290.579533 
L 133.927232 290.199867 
L 133.715976 289.8202 
L 133.483933 289.440533 
L 133.231758 289.060867 
L 132.96058 288.6812 
L 132.671984 288.301534 
L 132.367964 287.921867 
L 132.050854 287.542201 
L 131.723232 287.162534 
L 131.387814 286.782867 
L 131.047325 286.403201 
L 130.704383 286.023534 
L 130.361382 285.643868 
L 130.020397 285.264201 
L 129.683116 284.884534 
L 129.350809 284.504868 
L 129.024329 284.125201 
L 128.704163 283.745535 
L 128.390513 283.365868 
L 128.083411 282.986202 
L 127.782852 282.606535 
L 127.488941 282.226868 
L 127.202031 281.847202 
L 126.922845 281.467535 
L 126.652564 281.087869 
L 126.392881 280.708202 
L 126.145996 280.328536 
L 125.914569 279.948869 
L 125.701627 279.569202 
L 125.510425 279.189536 
L 125.344276 278.809869 
L 125.206371 278.430203 
L 125.099591 278.050536 
L 125.026332 277.67087 
L 124.988364 277.291203 
L 124.986717 276.911536 
L 125.021619 276.53187 
L 125.092481 276.152203 
L 125.197928 275.772537 
L 125.335878 275.39287 
L 125.503644 275.013203 
L 125.698077 274.633537 
L 125.915705 274.25387 
L 126.152888 273.874204 
L 126.405952 273.494537 
L 126.671318 273.114871 
L 126.945594 272.735204 
L 127.225656 272.355537 
L 127.508689 271.975871 
L 127.792213 271.596204 
L 128.07408 271.216538 
L 128.352468 270.836871 
L 128.625849 270.457205 
L 128.892966 270.077538 
L 129.152804 269.697871 
L 129.40456 269.318205 
L 129.647629 268.938538 
L 129.881591 268.558872 
L 130.106199 268.179205 
L 130.32138 267.799539 
L 130.527232 267.419872 
L 130.724024 267.040205 
L 130.912194 266.660539 
L 131.092334 266.280872 
L 131.26518 265.901206 
L 131.431588 265.521539 
L 131.592502 265.141872 
L 131.748917 264.762206 
L 131.90184 264.382539 
L 132.052243 264.002873 
L 132.201014 263.623206 
L 132.348922 263.24354 
L 132.496572 262.863873 
L 132.64438 262.484206 
L 132.792547 262.10454 
L 132.941054 261.724873 
L 133.08966 261.345207 
L 133.237921 260.96554 
L 133.385207 260.585874 
L 133.530743 260.206207 
L 133.673643 259.82654 
L 133.812963 259.446874 
L 133.947738 259.067207 
L 134.077037 258.687541 
L 134.200001 258.307874 
L 134.315878 257.928208 
L 134.424056 257.548541 
L 134.524078 257.168874 
L 134.615659 256.789208 
L 134.69868 256.409541 
L 134.773191 256.029875 
L 134.839389 255.650208 
L 134.897607 255.270541 
L 134.948286 254.890875 
L 134.991952 254.511208 
L 135.389965 254.511208 
L 135.389965 254.511208 
L 135.433631 254.890875 
L 135.48431 255.270541 
L 135.542528 255.650208 
L 135.608727 256.029875 
L 135.683237 256.409541 
L 135.766259 256.789208 
L 135.857839 257.168874 
L 135.957861 257.548541 
L 136.066039 257.928208 
L 136.181917 258.307874 
L 136.30488 258.687541 
L 136.43418 259.067207 
L 136.568955 259.446874 
L 136.708274 259.82654 
L 136.851174 260.206207 
L 136.99671 260.585874 
L 137.143996 260.96554 
L 137.292257 261.345207 
L 137.440864 261.724873 
L 137.58937 262.10454 
L 137.737537 262.484206 
L 137.885345 262.863873 
L 138.032995 263.24354 
L 138.180903 263.623206 
L 138.329675 264.002873 
L 138.480077 264.382539 
L 138.633 264.762206 
L 138.789416 265.141872 
L 138.950329 265.521539 
L 139.116737 265.901206 
L 139.289584 266.280872 
L 139.469723 266.660539 
L 139.657893 267.040205 
L 139.854685 267.419872 
L 140.060537 267.799539 
L 140.275718 268.179205 
L 140.500326 268.558872 
L 140.734288 268.938538 
L 140.977358 269.318205 
L 141.229114 269.697871 
L 141.488951 270.077538 
L 141.756068 270.457205 
L 142.029449 270.836871 
L 142.307837 271.216538 
L 142.589705 271.596204 
L 142.873228 271.975871 
L 143.156261 272.355537 
L 143.436323 272.735204 
L 143.7106 273.114871 
L 143.975965 273.494537 
L 144.22903 273.874204 
L 144.466212 274.25387 
L 144.68384 274.633537 
L 144.878273 275.013203 
L 145.04604 275.39287 
L 145.183989 275.772537 
L 145.289437 276.152203 
L 145.360298 276.53187 
L 145.3952 276.911536 
L 145.393553 277.291203 
L 145.355585 277.67087 
L 145.282326 278.050536 
L 145.175546 278.430203 
L 145.037641 278.809869 
L 144.871492 279.189536 
L 144.68029 279.569202 
L 144.467348 279.948869 
L 144.235922 280.328536 
L 143.989036 280.708202 
L 143.729353 281.087869 
L 143.459073 281.467535 
L 143.179886 281.847202 
L 142.892976 282.226868 
L 142.599065 282.606535 
L 142.298506 282.986202 
L 141.991404 283.365868 
L 141.677754 283.745535 
L 141.357589 284.125201 
L 141.031109 284.504868 
L 140.698801 284.884534 
L 140.36152 285.264201 
L 140.020535 285.643868 
L 139.677534 286.023534 
L 139.334592 286.403201 
L 138.994103 286.782867 
L 138.658685 287.162534 
L 138.331064 287.542201 
L 138.013953 287.921867 
L 137.709933 288.301534 
L 137.421337 288.6812 
L 137.15016 289.060867 
L 136.897985 289.440533 
L 136.665941 289.8202 
L 136.454685 290.199867 
L 136.264406 290.579533 
L 136.094856 290.9592 
L 135.945396 291.338866 
L 135.815059 291.718533 
L 135.702616 292.098199 
L 135.702616 292.098199 
z
" clip-path="url(#p6017d74eb7)" style="fill: none; stroke: #00ffff"/>
   </g>
   <g id="PolyCollection_5">
    <path d="M 161.05875 297.574358 
L 160.344375 297.574358 
L 160.063965 295.816945 
L 159.631811 294.059532 
L 159.012359 292.302119 
L 158.187141 290.544706 
L 157.166543 288.787294 
L 155.996583 287.029881 
L 154.756494 285.272468 
L 153.54597 283.515055 
L 152.465183 281.757642 
L 151.593998 280.000229 
L 150.977354 278.242816 
L 150.620981 276.485404 
L 150.497321 274.727991 
L 150.557736 272.970578 
L 150.74585 271.213165 
L 151.008033 269.455752 
L 151.299481 267.698339 
L 151.5865 265.940927 
L 151.846562 264.183514 
L 152.067508 262.426101 
L 152.246526 260.668688 
L 152.388817 258.911275 
L 152.505617 257.153862 
L 152.611484 255.39645 
L 152.721267 253.639037 
L 152.847639 251.881624 
L 153 250.124211 
L 153.184916 248.366798 
L 153.407372 246.609385 
L 153.671498 244.851973 
L 153.979789 243.09456 
L 154.330875 241.337147 
L 154.717157 239.579734 
L 155.124044 237.822321 
L 155.531918 236.064908 
L 155.920529 234.307496 
L 156.274169 232.550083 
L 156.58549 230.79267 
L 156.856419 229.035257 
L 157.095898 227.277844 
L 157.315575 225.520431 
L 157.525312 223.763019 
L 157.730328 222.005606 
L 157.930912 220.248193 
L 158.124403 218.49078 
L 158.308097 216.733367 
L 158.481486 214.975954 
L 158.646749 213.218542 
L 158.807501 211.461129 
L 158.966795 209.703716 
L 159.125618 207.946303 
L 159.282666 206.18889 
L 159.43529 204.431477 
L 159.580837 202.674064 
L 159.717547 200.916652 
L 159.844626 199.159239 
L 159.961731 197.401826 
L 160.06841 195.644413 
L 160.163934 193.887 
L 160.247604 192.129587 
L 160.319248 190.372175 
L 160.379528 188.614762 
L 160.429835 186.857349 
L 160.471821 185.099936 
L 160.506823 183.342523 
L 160.535515 181.58511 
L 160.557949 179.827698 
L 160.57395 178.070285 
L 160.583624 176.312872 
L 160.5877 174.555459 
L 160.587542 172.798046 
L 160.584833 171.040633 
L 160.581125 169.283221 
L 160.577439 167.525808 
L 160.574112 165.768395 
L 160.570902 164.010982 
L 160.567295 162.253569 
L 160.562911 160.496156 
L 160.557839 158.738744 
L 160.552801 156.981331 
L 160.549068 155.223918 
L 160.548108 153.466505 
L 160.551073 151.709092 
L 160.55832 149.951679 
L 160.569169 148.194267 
L 160.582071 146.436854 
L 160.595134 144.679441 
L 160.606804 142.922028 
L 160.616385 141.164615 
L 160.624166 139.407202 
L 160.63112 137.64979 
L 160.638345 135.892377 
L 160.646545 134.134964 
L 160.655762 132.377551 
L 160.665448 130.620138 
L 160.674762 128.862725 
L 160.682919 127.105313 
L 160.689434 125.3479 
L 160.694195 123.590487 
L 160.70893 123.590487 
L 160.70893 123.590487 
L 160.713691 125.3479 
L 160.720206 127.105313 
L 160.728363 128.862725 
L 160.737677 130.620138 
L 160.747363 132.377551 
L 160.75658 134.134964 
L 160.76478 135.892377 
L 160.772005 137.64979 
L 160.778959 139.407202 
L 160.78674 141.164615 
L 160.796321 142.922028 
L 160.807991 144.679441 
L 160.821054 146.436854 
L 160.833956 148.194267 
L 160.844805 149.951679 
L 160.852052 151.709092 
L 160.855017 153.466505 
L 160.854057 155.223918 
L 160.850324 156.981331 
L 160.845286 158.738744 
L 160.840214 160.496156 
L 160.83583 162.253569 
L 160.832223 164.010982 
L 160.829013 165.768395 
L 160.825686 167.525808 
L 160.822 169.283221 
L 160.818292 171.040633 
L 160.815583 172.798046 
L 160.815425 174.555459 
L 160.819501 176.312872 
L 160.829175 178.070285 
L 160.845176 179.827698 
L 160.86761 181.58511 
L 160.896302 183.342523 
L 160.931304 185.099936 
L 160.97329 186.857349 
L 161.023597 188.614762 
L 161.083877 190.372175 
L 161.155521 192.129587 
L 161.239191 193.887 
L 161.334715 195.644413 
L 161.441394 197.401826 
L 161.558499 199.159239 
L 161.685578 200.916652 
L 161.822288 202.674064 
L 161.967835 204.431477 
L 162.120459 206.18889 
L 162.277507 207.946303 
L 162.43633 209.703716 
L 162.595624 211.461129 
L 162.756376 213.218542 
L 162.921639 214.975954 
L 163.095028 216.733367 
L 163.278722 218.49078 
L 163.472213 220.248193 
L 163.672797 222.005606 
L 163.877813 223.763019 
L 164.08755 225.520431 
L 164.307227 227.277844 
L 164.546706 229.035257 
L 164.817635 230.79267 
L 165.128956 232.550083 
L 165.482596 234.307496 
L 165.871207 236.064908 
L 166.279081 237.822321 
L 166.685968 239.579734 
L 167.07225 241.337147 
L 167.423336 243.09456 
L 167.731627 244.851973 
L 167.995753 246.609385 
L 168.218209 248.366798 
L 168.403125 250.124211 
L 168.555486 251.881624 
L 168.681858 253.639037 
L 168.791641 255.39645 
L 168.897508 257.153862 
L 169.014308 258.911275 
L 169.156599 260.668688 
L 169.335617 262.426101 
L 169.556563 264.183514 
L 169.816625 265.940927 
L 170.103644 267.698339 
L 170.395092 269.455752 
L 170.657275 271.213165 
L 170.845389 272.970578 
L 170.905804 274.727991 
L 170.782144 276.485404 
L 170.425771 278.242816 
L 169.809127 280.000229 
L 168.937942 281.757642 
L 167.857155 283.515055 
L 166.646631 285.272468 
L 165.406542 287.029881 
L 164.236582 288.787294 
L 163.215984 290.544706 
L 162.390766 292.302119 
L 161.771314 294.059532 
L 161.33916 295.816945 
L 161.05875 297.574358 
L 161.05875 297.574358 
z
" clip-path="url(#p6017d74eb7)" style="fill: none; stroke: #00ffff"/>
   </g>
   <g id="PolyCollection_6">
    <path d="M 186.507622 297.922601 
L 185.916711 297.922601 
L 185.689605 296.192964 
L 185.338644 294.463327 
L 184.830478 292.73369 
L 184.141352 291.004053 
L 183.266624 289.274416 
L 182.228346 287.544778 
L 181.077684 285.815141 
L 179.890107 284.085504 
L 178.753654 282.355867 
L 177.753244 280.62623 
L 176.955535 278.896593 
L 176.398703 277.166955 
L 176.089579 275.437318 
L 176.007925 273.707681 
L 176.115415 271.978044 
L 176.365917 270.248407 
L 176.714102 268.51877 
L 177.120783 266.789132 
L 177.554877 265.059495 
L 177.992985 263.329858 
L 178.41795 261.600221 
L 178.817502 259.870584 
L 179.18348 258.140947 
L 179.511623 256.411309 
L 179.801539 254.681672 
L 180.056468 252.952035 
L 180.282625 251.222398 
L 180.488124 249.492761 
L 180.681649 247.763124 
L 180.871113 246.033487 
L 181.062498 244.303849 
L 181.258996 242.574212 
L 181.460551 240.844575 
L 181.663885 239.114938 
L 181.863143 237.385301 
L 182.051193 235.655664 
L 182.22145 233.926026 
L 182.369834 232.196389 
L 182.496278 230.466752 
L 182.605217 228.737115 
L 182.704776 227.007478 
L 182.804793 225.277841 
L 182.914262 223.548203 
L 183.039034 221.818566 
L 183.180515 220.088929 
L 183.335784 218.359292 
L 183.499002 216.629655 
L 183.663505 214.900018 
L 183.823754 213.17038 
L 183.97642 211.440743 
L 184.120356 209.711106 
L 184.255723 207.981469 
L 184.382887 206.251832 
L 184.501729 204.522195 
L 184.611657 202.792557 
L 184.712218 201.06292 
L 184.80382 199.333283 
L 184.88807 197.603646 
L 184.967445 195.874009 
L 185.044401 194.144372 
L 185.120361 192.414735 
L 185.195099 190.685097 
L 185.266861 188.95546 
L 185.333193 187.225823 
L 185.392087 185.496186 
L 185.442946 183.766549 
L 185.486956 182.036912 
L 185.526778 180.307274 
L 185.56574 178.577637 
L 185.60691 176.848 
L 185.652345 175.118363 
L 185.702721 173.388726 
L 185.757339 171.659089 
L 185.814404 169.929451 
L 185.871446 168.199814 
L 185.925797 166.470177 
L 185.975041 164.74054 
L 186.017421 163.010903 
L 186.052109 161.281266 
L 186.079288 159.551628 
L 186.099997 157.821991 
L 186.115765 156.092354 
L 186.128154 154.362717 
L 186.138372 152.63308 
L 186.147083 150.903443 
L 186.154478 149.173805 
L 186.160517 147.444168 
L 186.165216 145.714531 
L 186.168833 143.984894 
L 186.171874 142.255257 
L 186.174944 140.52562 
L 186.178528 138.795982 
L 186.182832 137.066345 
L 186.187734 135.336708 
L 186.192867 133.607071 
L 186.197775 131.877434 
L 186.202063 130.147797 
L 186.205501 128.41816 
L 186.208038 126.688522 
L 186.216294 126.688522 
L 186.216294 126.688522 
L 186.218832 128.41816 
L 186.22227 130.147797 
L 186.226558 131.877434 
L 186.231465 133.607071 
L 186.236598 135.336708 
L 186.2415 137.066345 
L 186.245805 138.795982 
L 186.249389 140.52562 
L 186.252458 142.255257 
L 186.2555 143.984894 
L 186.259117 145.714531 
L 186.263816 147.444168 
L 186.269855 149.173805 
L 186.27725 150.903443 
L 186.285961 152.63308 
L 186.296179 154.362717 
L 186.308568 156.092354 
L 186.324336 157.821991 
L 186.345044 159.551628 
L 186.372223 161.281266 
L 186.406911 163.010903 
L 186.449292 164.74054 
L 186.498536 166.470177 
L 186.552886 168.199814 
L 186.609929 169.929451 
L 186.666994 171.659089 
L 186.721612 173.388726 
L 186.771988 175.118363 
L 186.817423 176.848 
L 186.858592 178.577637 
L 186.897555 180.307274 
L 186.937377 182.036912 
L 186.981387 183.766549 
L 187.032246 185.496186 
L 187.09114 187.225823 
L 187.157472 188.95546 
L 187.229234 190.685097 
L 187.303972 192.414735 
L 187.379932 194.144372 
L 187.456888 195.874009 
L 187.536263 197.603646 
L 187.620513 199.333283 
L 187.712115 201.06292 
L 187.812676 202.792557 
L 187.922604 204.522195 
L 188.041445 206.251832 
L 188.16861 207.981469 
L 188.303977 209.711106 
L 188.447913 211.440743 
L 188.600579 213.17038 
L 188.760827 214.900018 
L 188.925331 216.629655 
L 189.088548 218.359292 
L 189.243818 220.088929 
L 189.385299 221.818566 
L 189.510071 223.548203 
L 189.61954 225.277841 
L 189.719557 227.007478 
L 189.819116 228.737115 
L 189.928055 230.466752 
L 190.054499 232.196389 
L 190.202883 233.926026 
L 190.37314 235.655664 
L 190.56119 237.385301 
L 190.760448 239.114938 
L 190.963782 240.844575 
L 191.165337 242.574212 
L 191.361835 244.303849 
L 191.55322 246.033487 
L 191.742684 247.763124 
L 191.936209 249.492761 
L 192.141708 251.222398 
L 192.367865 252.952035 
L 192.622794 254.681672 
L 192.912709 256.411309 
L 193.240853 258.140947 
L 193.606831 259.870584 
L 194.006382 261.600221 
L 194.431348 263.329858 
L 194.869455 265.059495 
L 195.30355 266.789132 
L 195.710231 268.51877 
L 196.058416 270.248407 
L 196.308918 271.978044 
L 196.416408 273.707681 
L 196.334754 275.437318 
L 196.025629 277.166955 
L 195.468798 278.896593 
L 194.671089 280.62623 
L 193.670679 282.355867 
L 192.534226 284.085504 
L 191.346648 285.815141 
L 190.195987 287.544778 
L 189.157709 289.274416 
L 188.282981 291.004053 
L 187.593855 292.73369 
L 187.085689 294.463327 
L 186.734727 296.192964 
L 186.507622 297.922601 
L 186.507622 297.922601 
z
" clip-path="url(#p6017d74eb7)" style="fill: none; stroke: #00ffff"/>
   </g>
   <g id="matplotlib.axis_3">
    <g id="xtick_4">
     <g id="line2d_41">
      <g>
       <use xlink:href="#m6aacf6105f" x="135.190959" y="294.671635" style="stroke: #000000; stroke-width: 0.8"/>
      </g>
     </g>
     <g id="text_20">
      <!-- CT -->
      <g transform="translate(137.950334 314.76226) rotate(-90) scale(0.1 -0.1)">
       <use xlink:href="#DejaVuSans-43"/>
       <use xlink:href="#DejaVuSans-54" x="69.824219"/>
      </g>
     </g>
    </g>
    <g id="xtick_5">
     <g id="line2d_42">
      <g>
       <use xlink:href="#m6aacf6105f" x="160.701563" y="294.671635" style="stroke: #000000; stroke-width: 0.8"/>
      </g>
     </g>
     <g id="text_21">
      <!-- ARS -->
      <g transform="translate(163.460938 321.809135) rotate(-90) scale(0.1 -0.1)">
       <use xlink:href="#DejaVuSans-41"/>
       <use xlink:href="#DejaVuSans-52" x="68.408203"/>
       <use xlink:href="#DejaVuSans-53" x="137.890625"/>
      </g>
     </g>
    </g>
    <g id="xtick_6">
     <g id="line2d_43">
      <g>
       <use xlink:href="#m6aacf6105f" x="186.212166" y="294.671635" style="stroke: #000000; stroke-width: 0.8"/>
      </g>
     </g>
     <g id="text_22">
      <!-- GLU-40min -->
      <g transform="translate(188.971541 356.99976) rotate(-90) scale(0.1 -0.1)">
       <use xlink:href="#DejaVuSans-47"/>
       <use xlink:href="#DejaVuSans-4c" x="77.490234"/>
       <use xlink:href="#DejaVuSans-55" x="128.203125"/>
       <use xlink:href="#DejaVuSans-2d" x="201.396484"/>
       <use xlink:href="#DejaVuSans-34" x="237.480469"/>
       <use xlink:href="#DejaVuSans-30" x="301.103516"/>
       <use xlink:href="#DejaVuSans-6d" x="364.726562"/>
       <use xlink:href="#DejaVuSans-69" x="462.138672"/>
       <use xlink:href="#DejaVuSans-6e" x="489.921875"/>
      </g>
     </g>
    </g>
   </g>
   <g id="matplotlib.axis_4">
    <g id="ytick_15">
     <g id="line2d_44">
      <path d="M 122.435657 294.671635 
L 198.967468 294.671635 
" clip-path="url(#p6017d74eb7)" style="fill: none; stroke: #b0b0b0; stroke-width: 0.2; stroke-linecap: square"/>
     </g>
     <g id="line2d_45">
      <g>
       <use xlink:href="#m7526721b9e" x="122.435657" y="294.671635" style="stroke: #000000; stroke-width: 0.8"/>
      </g>
     </g>
    </g>
    <g id="ytick_16">
     <g id="line2d_46">
      <path d="M 122.435657 273.398307 
L 198.967468 273.398307 
" clip-path="url(#p6017d74eb7)" style="fill: none; stroke: #b0b0b0; stroke-width: 0.2; stroke-linecap: square"/>
     </g>
     <g id="line2d_47">
      <g>
       <use xlink:href="#m7526721b9e" x="122.435657" y="273.398307" style="stroke: #000000; stroke-width: 0.8"/>
      </g>
     </g>
    </g>
    <g id="ytick_17">
     <g id="line2d_48">
      <path d="M 122.435657 252.124978 
L 198.967468 252.124978 
" clip-path="url(#p6017d74eb7)" style="fill: none; stroke: #b0b0b0; stroke-width: 0.2; stroke-linecap: square"/>
     </g>
     <g id="line2d_49">
      <g>
       <use xlink:href="#m7526721b9e" x="122.435657" y="252.124978" style="stroke: #000000; stroke-width: 0.8"/>
      </g>
     </g>
    </g>
    <g id="ytick_18">
     <g id="line2d_50">
      <path d="M 122.435657 230.85165 
L 198.967468 230.85165 
" clip-path="url(#p6017d74eb7)" style="fill: none; stroke: #b0b0b0; stroke-width: 0.2; stroke-linecap: square"/>
     </g>
     <g id="line2d_51">
      <g>
       <use xlink:href="#m7526721b9e" x="122.435657" y="230.85165" style="stroke: #000000; stroke-width: 0.8"/>
      </g>
     </g>
    </g>
    <g id="ytick_19">
     <g id="line2d_52">
      <path d="M 122.435657 209.578321 
L 198.967468 209.578321 
" clip-path="url(#p6017d74eb7)" style="fill: none; stroke: #b0b0b0; stroke-width: 0.2; stroke-linecap: square"/>
     </g>
     <g id="line2d_53">
      <g>
       <use xlink:href="#m7526721b9e" x="122.435657" y="209.578321" style="stroke: #000000; stroke-width: 0.8"/>
      </g>
     </g>
    </g>
    <g id="ytick_20">
     <g id="line2d_54">
      <path d="M 122.435657 188.304993 
L 198.967468 188.304993 
" clip-path="url(#p6017d74eb7)" style="fill: none; stroke: #b0b0b0; stroke-width: 0.2; stroke-linecap: square"/>
     </g>
     <g id="line2d_55">
      <g>
       <use xlink:href="#m7526721b9e" x="122.435657" y="188.304993" style="stroke: #000000; stroke-width: 0.8"/>
      </g>
     </g>
    </g>
    <g id="ytick_21">
     <g id="line2d_56">
      <path d="M 122.435657 167.031664 
L 198.967468 167.031664 
" clip-path="url(#p6017d74eb7)" style="fill: none; stroke: #b0b0b0; stroke-width: 0.2; stroke-linecap: square"/>
     </g>
     <g id="line2d_57">
      <g>
       <use xlink:href="#m7526721b9e" x="122.435657" y="167.031664" style="stroke: #000000; stroke-width: 0.8"/>
      </g>
     </g>
    </g>
    <g id="ytick_22">
     <g id="line2d_58">
      <path d="M 122.435657 145.758336 
L 198.967468 145.758336 
" clip-path="url(#p6017d74eb7)" style="fill: none; stroke: #b0b0b0; stroke-width: 0.2; stroke-linecap: square"/>
     </g>
     <g id="line2d_59">
      <g>
       <use xlink:href="#m7526721b9e" x="122.435657" y="145.758336" style="stroke: #000000; stroke-width: 0.8"/>
      </g>
     </g>
    </g>
    <g id="ytick_23">
     <g id="line2d_60">
      <path d="M 122.435657 124.485007 
L 198.967468 124.485007 
" clip-path="url(#p6017d74eb7)" style="fill: none; stroke: #b0b0b0; stroke-width: 0.2; stroke-linecap: square"/>
     </g>
     <g id="line2d_61">
      <g>
       <use xlink:href="#m7526721b9e" x="122.435657" y="124.485007" style="stroke: #000000; stroke-width: 0.8"/>
      </g>
     </g>
    </g>
    <g id="ytick_24">
     <g id="line2d_62">
      <path d="M 122.435657 103.211679 
L 198.967468 103.211679 
" clip-path="url(#p6017d74eb7)" style="fill: none; stroke: #b0b0b0; stroke-width: 0.2; stroke-linecap: square"/>
     </g>
     <g id="line2d_63">
      <g>
       <use xlink:href="#m7526721b9e" x="122.435657" y="103.211679" style="stroke: #000000; stroke-width: 0.8"/>
      </g>
     </g>
    </g>
    <g id="ytick_25">
     <g id="line2d_64">
      <path d="M 122.435657 81.93835 
L 198.967468 81.93835 
" clip-path="url(#p6017d74eb7)" style="fill: none; stroke: #b0b0b0; stroke-width: 0.2; stroke-linecap: square"/>
     </g>
     <g id="line2d_65">
      <g>
       <use xlink:href="#m7526721b9e" x="122.435657" y="81.93835" style="stroke: #000000; stroke-width: 0.8"/>
      </g>
     </g>
    </g>
    <g id="ytick_26">
     <g id="line2d_66">
      <path d="M 122.435657 60.665022 
L 198.967468 60.665022 
" clip-path="url(#p6017d74eb7)" style="fill: none; stroke: #b0b0b0; stroke-width: 0.2; stroke-linecap: square"/>
     </g>
     <g id="line2d_67">
      <g>
       <use xlink:href="#m7526721b9e" x="122.435657" y="60.665022" style="stroke: #000000; stroke-width: 0.8"/>
      </g>
     </g>
    </g>
    <g id="ytick_27">
     <g id="line2d_68">
      <path d="M 122.435657 39.391693 
L 198.967468 39.391693 
" clip-path="url(#p6017d74eb7)" style="fill: none; stroke: #b0b0b0; stroke-width: 0.2; stroke-linecap: square"/>
     </g>
     <g id="line2d_69">
      <g>
       <use xlink:href="#m7526721b9e" x="122.435657" y="39.391693" style="stroke: #000000; stroke-width: 0.8"/>
      </g>
     </g>
    </g>
    <g id="ytick_28">
     <g id="line2d_70">
      <path d="M 122.435657 18.118365 
L 198.967468 18.118365 
" clip-path="url(#p6017d74eb7)" style="fill: none; stroke: #b0b0b0; stroke-width: 0.2; stroke-linecap: square"/>
     </g>
     <g id="line2d_71">
      <g>
       <use xlink:href="#m7526721b9e" x="122.435657" y="18.118365" style="stroke: #000000; stroke-width: 0.8"/>
      </g>
     </g>
    </g>
   </g>
   <g id="line2d_72">
    <path d="M 135.190959 284.332797 
L 135.190959 262.27661 
" clip-path="url(#p6017d74eb7)" style="fill: none; stroke: #00ffff; stroke-width: 1.5; stroke-linecap: square"/>
   </g>
   <g id="line2d_73">
    <path d="M 135.190959 278.991065 
L 135.190959 272.098506 
" clip-path="url(#p6017d74eb7)" style="fill: none; stroke: #00ffff; stroke-width: 4.5; stroke-linecap: square"/>
   </g>
   <g id="line2d_74">
    <path d="M 135.190959 277.440239 
" clip-path="url(#p6017d74eb7)" style="fill: none; stroke: #00ffff; stroke-width: 1.5; stroke-linecap: square"/>
    <g clip-path="url(#p6017d74eb7)">
     <use xlink:href="#m30f7d689f4" x="135.190959" y="277.440239" style="fill: #ffffff; stroke: #ffffff; stroke-width: 0.9"/>
    </g>
   </g>
   <g id="line2d_75">
    <path d="M 160.701563 284.332797 
L 160.701563 193.351026 
" clip-path="url(#p6017d74eb7)" style="fill: none; stroke: #00ffff; stroke-width: 1.5; stroke-linecap: square"/>
   </g>
   <g id="line2d_76">
    <path d="M 160.701563 273.304704 
L 160.701563 240.909679 
" clip-path="url(#p6017d74eb7)" style="fill: none; stroke: #00ffff; stroke-width: 4.5; stroke-linecap: square"/>
   </g>
   <g id="line2d_77">
    <path d="M 160.701563 258.830331 
" clip-path="url(#p6017d74eb7)" style="fill: none; stroke: #00ffff; stroke-width: 1.5; stroke-linecap: square"/>
    <g clip-path="url(#p6017d74eb7)">
     <use xlink:href="#m30f7d689f4" x="160.701563" y="258.830331" style="fill: #ffffff; stroke: #ffffff; stroke-width: 0.9"/>
    </g>
   </g>
   <g id="line2d_78">
    <path d="M 186.212166 284.332797 
L 186.212166 180.944421 
" clip-path="url(#p6017d74eb7)" style="fill: none; stroke: #00ffff; stroke-width: 1.5; stroke-linecap: square"/>
   </g>
   <g id="line2d_79">
    <path d="M 186.212166 273.99396 
L 186.212166 236.774144 
" clip-path="url(#p6017d74eb7)" style="fill: none; stroke: #00ffff; stroke-width: 4.5; stroke-linecap: square"/>
   </g>
   <g id="line2d_80">
    <path d="M 186.212166 259.519587 
" clip-path="url(#p6017d74eb7)" style="fill: none; stroke: #00ffff; stroke-width: 1.5; stroke-linecap: square"/>
    <g clip-path="url(#p6017d74eb7)">
     <use xlink:href="#m30f7d689f4" x="186.212166" y="259.519587" style="fill: #ffffff; stroke: #ffffff; stroke-width: 0.9"/>
    </g>
   </g>
   <g id="patch_8">
    <path d="M 122.435657 294.671635 
L 122.435657 18.118365 
" style="fill: none; stroke: #000000; stroke-width: 0.8; stroke-linejoin: miter; stroke-linecap: square"/>
   </g>
   <g id="patch_9">
    <path d="M 198.967468 294.671635 
L 198.967468 18.118365 
" style="fill: none; stroke: #000000; stroke-width: 0.8; stroke-linejoin: miter; stroke-linecap: square"/>
   </g>
   <g id="patch_10">
    <path d="M 122.435657 294.671635 
L 198.967468 294.671635 
" style="fill: none; stroke: #000000; stroke-width: 0.8; stroke-linejoin: miter; stroke-linecap: square"/>
   </g>
   <g id="patch_11">
    <path d="M 122.435657 18.118365 
L 198.967468 18.118365 
" style="fill: none; stroke: #000000; stroke-width: 0.8; stroke-linejoin: miter; stroke-linecap: square"/>
   </g>
   <g id="text_23">
    <!-- DDX3X R326H -->
    <g transform="translate(117.383438 12.118365) scale(0.12 -0.12)">
     <defs>
      <path id="DejaVuSans-48" d="M 628 4666 
L 1259 4666 
L 1259 2753 
L 3553 2753 
L 3553 4666 
L 4184 4666 
L 4184 0 
L 3553 0 
L 3553 2222 
L 1259 2222 
L 1259 0 
L 628 0 
L 628 4666 
z
" transform="scale(0.015625)"/>
     </defs>
     <use xlink:href="#DejaVuSans-44"/>
     <use xlink:href="#DejaVuSans-44" x="77.001953"/>
     <use xlink:href="#DejaVuSans-58" x="154.003906"/>
     <use xlink:href="#DejaVuSans-33" x="222.509766"/>
     <use xlink:href="#DejaVuSans-58" x="286.132812"/>
     <use xlink:href="#DejaVuSans-20" x="354.638672"/>
     <use xlink:href="#DejaVuSans-52" x="386.425781"/>
     <use xlink:href="#DejaVuSans-33" x="455.908203"/>
     <use xlink:href="#DejaVuSans-32" x="519.53125"/>
     <use xlink:href="#DejaVuSans-36" x="583.154297"/>
     <use xlink:href="#DejaVuSans-48" x="646.777344"/>
    </g>
   </g>
  </g>
  <g id="axes_3">
   <g id="patch_12">
    <path d="M 208.467948 294.671635 
L 284.99976 294.671635 
L 284.99976 18.118365 
L 208.467948 18.118365 
z
" style="fill: #ffffff"/>
   </g>
   <g id="PolyCollection_7">
    <path d="M 221.611857 295.643005 
L 220.834643 295.643005 
L 220.602119 294.432848 
L 220.269299 293.222692 
L 219.814528 292.012535 
L 219.221564 290.802379 
L 218.484287 289.592222 
L 217.610978 288.382066 
L 216.627002 287.17191 
L 215.574848 285.961753 
L 214.510978 284.751597 
L 213.499678 283.54144 
L 212.604869 282.331284 
L 211.881476 281.121127 
L 211.368047 279.910971 
L 211.082106 278.700814 
L 211.019009 277.490658 
L 211.154277 276.280502 
L 211.448689 275.070345 
L 211.85493 273.860189 
L 212.324519 272.650032 
L 212.813901 271.439876 
L 213.288938 270.229719 
L 213.727409 269.019563 
L 214.119472 267.809406 
L 214.466335 266.59925 
L 214.777533 265.389093 
L 215.067393 264.178937 
L 215.351295 262.968781 
L 215.642313 261.758624 
L 215.948775 260.548468 
L 216.27303 259.338311 
L 216.611556 258.128155 
L 216.956259 256.917998 
L 217.296599 255.707842 
L 217.622029 254.497685 
L 217.924187 253.287529 
L 218.198345 252.077373 
L 218.443828 250.867216 
L 218.663373 249.65706 
L 218.861709 248.446903 
L 219.043807 247.236747 
L 219.213375 246.02659 
L 219.372037 244.816434 
L 219.5194 243.606277 
L 219.653907 242.396121 
L 219.774103 241.185965 
L 219.879794 239.975808 
L 219.972673 238.765652 
L 220.056192 237.555495 
L 220.134776 236.345339 
L 220.212687 235.135182 
L 220.292978 233.925026 
L 220.376861 232.714869 
L 220.463631 231.504713 
L 220.551067 230.294556 
L 220.636069 229.0844 
L 220.715295 227.874244 
L 220.785637 226.664087 
L 220.844499 225.453931 
L 220.88995 224.243774 
L 220.920865 223.033618 
L 220.937106 221.823461 
L 220.939726 220.613305 
L 220.931104 219.403148 
L 220.91489 218.192992 
L 220.895689 216.982836 
L 220.878476 215.772679 
L 220.867851 214.562523 
L 220.867293 213.352366 
L 220.878604 212.14221 
L 220.901682 210.932053 
L 220.93467 209.721897 
L 220.974442 208.51174 
L 221.017261 207.301584 
L 221.05947 206.091427 
L 221.098028 204.881271 
L 221.130814 203.671115 
L 221.156682 202.460958 
L 221.175311 201.250802 
L 221.18695 200.040645 
L 221.192165 198.830489 
L 221.191651 197.620332 
L 221.186158 196.410176 
L 221.176525 195.200019 
L 221.163761 193.989863 
L 221.149133 192.779707 
L 221.134175 191.56955 
L 221.120593 190.359394 
L 221.110063 189.149237 
L 221.103968 187.939081 
L 221.103142 186.728924 
L 221.107714 185.518768 
L 221.117082 184.308611 
L 221.130056 183.098455 
L 221.145106 181.888299 
L 221.160658 180.678142 
L 221.175359 179.467986 
L 221.188248 178.257829 
L 221.198813 177.047673 
L 221.206952 175.837516 
L 221.239548 175.837516 
L 221.239548 175.837516 
L 221.247688 177.047673 
L 221.258253 178.257829 
L 221.271141 179.467986 
L 221.285842 180.678142 
L 221.301394 181.888299 
L 221.316444 183.098455 
L 221.329418 184.308611 
L 221.338787 185.518768 
L 221.343358 186.728924 
L 221.342533 187.939081 
L 221.336437 189.149237 
L 221.325907 190.359394 
L 221.312325 191.56955 
L 221.297367 192.779707 
L 221.28274 193.989863 
L 221.269976 195.200019 
L 221.260342 196.410176 
L 221.25485 197.620332 
L 221.254336 198.830489 
L 221.259551 200.040645 
L 221.27119 201.250802 
L 221.289818 202.460958 
L 221.315686 203.671115 
L 221.348472 204.881271 
L 221.38703 206.091427 
L 221.429239 207.301584 
L 221.472059 208.51174 
L 221.51183 209.721897 
L 221.544819 210.932053 
L 221.567896 212.14221 
L 221.579207 213.352366 
L 221.57865 214.562523 
L 221.568025 215.772679 
L 221.550812 216.982836 
L 221.53161 218.192992 
L 221.515396 219.403148 
L 221.506774 220.613305 
L 221.509395 221.823461 
L 221.525636 223.033618 
L 221.556551 224.243774 
L 221.602001 225.453931 
L 221.660863 226.664087 
L 221.731206 227.874244 
L 221.810432 229.0844 
L 221.895433 230.294556 
L 221.982869 231.504713 
L 222.06964 232.714869 
L 222.153522 233.925026 
L 222.233813 235.135182 
L 222.311724 236.345339 
L 222.390309 237.555495 
L 222.473828 238.765652 
L 222.566706 239.975808 
L 222.672397 241.185965 
L 222.792593 242.396121 
L 222.927101 243.606277 
L 223.074464 244.816434 
L 223.233126 246.02659 
L 223.402694 247.236747 
L 223.584792 248.446903 
L 223.783127 249.65706 
L 224.002673 250.867216 
L 224.248155 252.077373 
L 224.522313 253.287529 
L 224.824471 254.497685 
L 225.149901 255.707842 
L 225.490241 256.917998 
L 225.834945 258.128155 
L 226.173471 259.338311 
L 226.497725 260.548468 
L 226.804187 261.758624 
L 227.095206 262.968781 
L 227.379107 264.178937 
L 227.668968 265.389093 
L 227.980166 266.59925 
L 228.327028 267.809406 
L 228.719092 269.019563 
L 229.157562 270.229719 
L 229.6326 271.439876 
L 230.121982 272.650032 
L 230.59157 273.860189 
L 230.997811 275.070345 
L 231.292224 276.280502 
L 231.427492 277.490658 
L 231.364394 278.700814 
L 231.078454 279.910971 
L 230.565025 281.121127 
L 229.841631 282.331284 
L 228.946823 283.54144 
L 227.935522 284.751597 
L 226.871653 285.961753 
L 225.819499 287.17191 
L 224.835523 288.382066 
L 223.962214 289.592222 
L 223.224937 290.802379 
L 222.631973 292.012535 
L 222.177202 293.222692 
L 221.844381 294.432848 
L 221.611857 295.643005 
L 221.611857 295.643005 
z
" clip-path="url(#pe9b6a386f2)" style="fill: none; stroke: #808080"/>
   </g>
   <g id="PolyCollection_8">
    <path d="M 247.024914 296.889361 
L 246.442794 296.889361 
L 246.098538 294.672358 
L 245.49005 292.455355 
L 244.542625 290.238353 
L 243.245555 288.02135 
L 241.688911 285.804347 
L 240.059934 283.587344 
L 238.588538 281.370342 
L 237.466458 279.153339 
L 236.785822 276.936336 
L 236.529613 274.719333 
L 236.609547 272.50233 
L 236.91858 270.285328 
L 237.366565 268.068325 
L 237.890331 265.851322 
L 238.449286 263.634319 
L 239.019972 261.417317 
L 239.593026 259.200314 
L 240.168198 256.983311 
L 240.744919 254.766308 
L 241.313012 252.549305 
L 241.851125 250.332303 
L 242.335098 248.1153 
L 242.749836 245.898297 
L 243.095258 243.681294 
L 243.382696 241.464292 
L 243.626683 239.247289 
L 243.839709 237.030286 
L 244.032736 234.813283 
L 244.21791 232.59628 
L 244.408472 230.379278 
L 244.614613 228.162275 
L 244.838535 225.945272 
L 245.072864 223.728269 
L 245.303524 221.511267 
L 245.514776 219.294264 
L 245.693491 217.077261 
L 245.831735 214.860258 
L 245.928268 212.643256 
L 245.989151 210.426253 
L 246.026506 208.20925 
L 246.055019 205.992247 
L 246.087605 203.775244 
L 246.13235 201.558242 
L 246.191694 199.341239 
L 246.263124 197.124236 
L 246.340561 194.907233 
L 246.41633 192.690231 
L 246.483622 190.473228 
L 246.538505 188.256225 
L 246.580316 186.039222 
L 246.610323 183.822219 
L 246.629913 181.605217 
L 246.639593 179.388214 
L 246.639118 177.171211 
L 246.628162 174.954208 
L 246.607073 172.737206 
L 246.577695 170.520203 
L 246.544196 168.3032 
L 246.513307 166.086197 
L 246.493168 163.869194 
L 246.490692 161.652192 
L 246.50858 159.435189 
L 246.543776 157.218186 
L 246.588523 155.001183 
L 246.633553 152.784181 
L 246.671558 150.567178 
L 246.699117 148.350175 
L 246.716499 146.133172 
L 246.726097 143.91617 
L 246.730757 141.699167 
L 246.732751 139.482164 
L 246.733504 137.265161 
L 246.733755 135.048158 
L 246.733829 132.831156 
L 246.733849 130.614153 
L 246.733853 128.39715 
L 246.733854 126.180147 
L 246.733854 123.963145 
L 246.733854 121.746142 
L 246.733854 119.529139 
L 246.733851 117.312136 
L 246.733841 115.095133 
L 246.733805 112.878131 
L 246.733685 110.661128 
L 246.733346 108.444125 
L 246.732503 106.227122 
L 246.730686 104.01012 
L 246.727295 101.793117 
L 246.721865 99.576114 
L 246.714511 97.359111 
L 246.706304 95.142108 
L 246.699215 92.925106 
L 246.695407 90.708103 
L 246.696185 88.4911 
L 246.701273 86.274097 
L 246.708978 84.057095 
L 246.717087 81.840092 
L 246.723878 79.623089 
L 246.728614 77.406086 
L 246.739094 77.406086 
L 246.739094 77.406086 
L 246.743831 79.623089 
L 246.750621 81.840092 
L 246.758731 84.057095 
L 246.766435 86.274097 
L 246.771524 88.4911 
L 246.772301 90.708103 
L 246.768494 92.925106 
L 246.761405 95.142108 
L 246.753198 97.359111 
L 246.745843 99.576114 
L 246.740414 101.793117 
L 246.737022 104.01012 
L 246.735205 106.227122 
L 246.734363 108.444125 
L 246.734023 110.661128 
L 246.733904 112.878131 
L 246.733867 115.095133 
L 246.733857 117.312136 
L 246.733855 119.529139 
L 246.733854 121.746142 
L 246.733854 123.963145 
L 246.733854 126.180147 
L 246.733855 128.39715 
L 246.73386 130.614153 
L 246.733879 132.831156 
L 246.733953 135.048158 
L 246.734205 137.265161 
L 246.734958 139.482164 
L 246.736951 141.699167 
L 246.741611 143.91617 
L 246.75121 146.133172 
L 246.768591 148.350175 
L 246.796151 150.567178 
L 246.834155 152.784181 
L 246.879185 155.001183 
L 246.923933 157.218186 
L 246.959129 159.435189 
L 246.977016 161.652192 
L 246.97454 163.869194 
L 246.954401 166.086197 
L 246.923512 168.3032 
L 246.890014 170.520203 
L 246.860636 172.737206 
L 246.839547 174.954208 
L 246.82859 177.171211 
L 246.828115 179.388214 
L 246.837795 181.605217 
L 246.857385 183.822219 
L 246.887393 186.039222 
L 246.929203 188.256225 
L 246.984086 190.473228 
L 247.051378 192.690231 
L 247.127147 194.907233 
L 247.204584 197.124236 
L 247.276014 199.341239 
L 247.335358 201.558242 
L 247.380104 203.775244 
L 247.412689 205.992247 
L 247.441203 208.20925 
L 247.478557 210.426253 
L 247.539441 212.643256 
L 247.635974 214.860258 
L 247.774217 217.077261 
L 247.952933 219.294264 
L 248.164184 221.511267 
L 248.394844 223.728269 
L 248.629173 225.945272 
L 248.853096 228.162275 
L 249.059236 230.379278 
L 249.249798 232.59628 
L 249.434972 234.813283 
L 249.627999 237.030286 
L 249.841026 239.247289 
L 250.085012 241.464292 
L 250.37245 243.681294 
L 250.717872 245.898297 
L 251.13261 248.1153 
L 251.616583 250.332303 
L 252.154696 252.549305 
L 252.72279 254.766308 
L 253.299511 256.983311 
L 253.874683 259.200314 
L 254.447736 261.417317 
L 255.018422 263.634319 
L 255.577377 265.851322 
L 256.101143 268.068325 
L 256.549128 270.285328 
L 256.858161 272.50233 
L 256.938096 274.719333 
L 256.681886 276.936336 
L 256.001251 279.153339 
L 254.879171 281.370342 
L 253.407775 283.587344 
L 251.778798 285.804347 
L 250.222153 288.02135 
L 248.925083 290.238353 
L 247.977658 292.455355 
L 247.36917 294.672358 
L 247.024914 296.889361 
L 247.024914 296.889361 
z
" clip-path="url(#pe9b6a386f2)" style="fill: none; stroke: #808080"/>
   </g>
   <g id="PolyCollection_9">
    <path d="M 272.578396 298.807045 
L 271.91052 298.807045 
L 271.554845 296.363323 
L 270.954262 293.9196 
L 270.050314 291.475877 
L 268.838449 289.032154 
L 267.393333 286.588432 
L 265.86489 284.144709 
L 264.439899 281.700986 
L 263.285246 279.257263 
L 262.500824 276.813541 
L 262.102969 274.369818 
L 262.040217 271.926095 
L 262.227315 269.482372 
L 262.579253 267.03865 
L 263.032203 264.594927 
L 263.546575 262.151204 
L 264.095708 259.707481 
L 264.650426 257.263759 
L 265.171471 254.820036 
L 265.616349 252.376313 
L 265.956802 249.932591 
L 266.195165 247.488868 
L 266.367908 245.045145 
L 266.53269 242.601422 
L 266.745391 240.1577 
L 267.039118 237.713977 
L 267.414917 235.270254 
L 267.846298 232.826531 
L 268.292461 230.382809 
L 268.712636 227.939086 
L 269.07641 225.495363 
L 269.368701 223.05164 
L 269.590222 220.607918 
L 269.754285 218.164195 
L 269.880658 215.720472 
L 269.988196 213.276749 
L 270.089364 210.833027 
L 270.18929 208.389304 
L 270.288911 205.945581 
L 270.38864 203.501859 
L 270.489289 201.058136 
L 270.590686 198.614413 
L 270.691272 196.17069 
L 270.790477 193.726968 
L 270.891578 191.283245 
L 271.001205 188.839522 
L 271.124708 186.395799 
L 271.260965 183.952077 
L 271.401118 181.508354 
L 271.532353 179.064631 
L 271.643801 176.620908 
L 271.730514 174.177186 
L 271.793672 171.733463 
L 271.838044 169.28974 
L 271.868984 166.846017 
L 271.890571 164.402295 
L 271.905283 161.958572 
L 271.914721 159.514849 
L 271.920634 157.071126 
L 271.925476 154.627404 
L 271.932133 152.183681 
L 271.94309 149.739958 
L 271.959735 147.296236 
L 271.982244 144.852513 
L 272.009891 142.40879 
L 272.041318 139.965067 
L 272.074643 137.521345 
L 272.10765 135.077622 
L 272.138219 132.633899 
L 272.164794 130.190176 
L 272.186537 127.746454 
L 272.203131 125.302731 
L 272.214467 122.859008 
L 272.220555 120.415285 
L 272.221704 117.971563 
L 272.218789 115.52784 
L 272.213367 113.084117 
L 272.207468 110.640394 
L 272.203099 108.196672 
L 272.201634 105.752949 
L 272.203361 103.309226 
L 272.207416 100.865503 
L 272.212178 98.421781 
L 272.216004 95.978058 
L 272.217959 93.534335 
L 272.218149 91.090613 
L 272.217471 88.64689 
L 272.216932 86.203167 
L 272.216998 83.759444 
L 272.217435 81.315722 
L 272.217722 78.871999 
L 272.217666 76.428276 
L 272.217713 73.984553 
L 272.21869 71.540831 
L 272.221214 69.097108 
L 272.225245 66.653385 
L 272.230088 64.209662 
L 272.2348 61.76594 
L 272.238646 59.322217 
L 272.241331 56.878494 
L 272.247585 56.878494 
L 272.247585 56.878494 
L 272.25027 59.322217 
L 272.254116 61.76594 
L 272.258828 64.209662 
L 272.263671 66.653385 
L 272.267702 69.097108 
L 272.270227 71.540831 
L 272.271203 73.984553 
L 272.27125 76.428276 
L 272.271194 78.871999 
L 272.271481 81.315722 
L 272.271918 83.759444 
L 272.271985 86.203167 
L 272.271445 88.64689 
L 272.270768 91.090613 
L 272.270957 93.534335 
L 272.272912 95.978058 
L 272.276738 98.421781 
L 272.2815 100.865503 
L 272.285555 103.309226 
L 272.287282 105.752949 
L 272.285817 108.196672 
L 272.281448 110.640394 
L 272.275549 113.084117 
L 272.270127 115.52784 
L 272.267213 117.971563 
L 272.268361 120.415285 
L 272.274449 122.859008 
L 272.285785 125.302731 
L 272.302379 127.746454 
L 272.324122 130.190176 
L 272.350697 132.633899 
L 272.381266 135.077622 
L 272.414273 137.521345 
L 272.447598 139.965067 
L 272.479025 142.40879 
L 272.506672 144.852513 
L 272.529181 147.296236 
L 272.545826 149.739958 
L 272.556783 152.183681 
L 272.56344 154.627404 
L 272.568282 157.071126 
L 272.574195 159.514849 
L 272.583633 161.958572 
L 272.598345 164.402295 
L 272.619932 166.846017 
L 272.650872 169.28974 
L 272.695244 171.733463 
L 272.758402 174.177186 
L 272.845115 176.620908 
L 272.956563 179.064631 
L 273.087798 181.508354 
L 273.227951 183.952077 
L 273.364208 186.395799 
L 273.487711 188.839522 
L 273.597338 191.283245 
L 273.698439 193.726968 
L 273.797644 196.17069 
L 273.89823 198.614413 
L 273.999627 201.058136 
L 274.100277 203.501859 
L 274.200005 205.945581 
L 274.299626 208.389304 
L 274.399553 210.833027 
L 274.50072 213.276749 
L 274.608258 215.720472 
L 274.734631 218.164195 
L 274.898694 220.607918 
L 275.120215 223.05164 
L 275.412507 225.495363 
L 275.77628 227.939086 
L 276.196455 230.382809 
L 276.642618 232.826531 
L 277.073999 235.270254 
L 277.449798 237.713977 
L 277.743525 240.1577 
L 277.956226 242.601422 
L 278.121008 245.045145 
L 278.293751 247.488868 
L 278.532114 249.932591 
L 278.872567 252.376313 
L 279.317445 254.820036 
L 279.838491 257.263759 
L 280.393208 259.707481 
L 280.942341 262.151204 
L 281.456713 264.594927 
L 281.909663 267.03865 
L 282.261601 269.482372 
L 282.4487 271.926095 
L 282.385948 274.369818 
L 281.988092 276.813541 
L 281.20367 279.257263 
L 280.049017 281.700986 
L 278.624026 284.144709 
L 277.095583 286.588432 
L 275.650467 289.032154 
L 274.438603 291.475877 
L 273.534654 293.9196 
L 272.934071 296.363323 
L 272.578396 298.807045 
L 272.578396 298.807045 
z
" clip-path="url(#pe9b6a386f2)" style="fill: none; stroke: #808080"/>
   </g>
   <g id="matplotlib.axis_5">
    <g id="xtick_7">
     <g id="line2d_81">
      <g>
       <use xlink:href="#m6aacf6105f" x="221.22325" y="294.671635" style="stroke: #000000; stroke-width: 0.8"/>
      </g>
     </g>
     <g id="text_24">
      <!-- CT -->
      <g transform="translate(223.982625 314.76226) rotate(-90) scale(0.1 -0.1)">
       <use xlink:href="#DejaVuSans-43"/>
       <use xlink:href="#DejaVuSans-54" x="69.824219"/>
      </g>
     </g>
    </g>
    <g id="xtick_8">
     <g id="line2d_82">
      <g>
       <use xlink:href="#m6aacf6105f" x="246.733854" y="294.671635" style="stroke: #000000; stroke-width: 0.8"/>
      </g>
     </g>
     <g id="text_25">
      <!-- ARS -->
      <g transform="translate(249.493229 321.809135) rotate(-90) scale(0.1 -0.1)">
       <use xlink:href="#DejaVuSans-41"/>
       <use xlink:href="#DejaVuSans-52" x="68.408203"/>
       <use xlink:href="#DejaVuSans-53" x="137.890625"/>
      </g>
     </g>
    </g>
    <g id="xtick_9">
     <g id="line2d_83">
      <g>
       <use xlink:href="#m6aacf6105f" x="272.244458" y="294.671635" style="stroke: #000000; stroke-width: 0.8"/>
      </g>
     </g>
     <g id="text_26">
      <!-- GLU-40min -->
      <g transform="translate(275.003833 356.99976) rotate(-90) scale(0.1 -0.1)">
       <use xlink:href="#DejaVuSans-47"/>
       <use xlink:href="#DejaVuSans-4c" x="77.490234"/>
       <use xlink:href="#DejaVuSans-55" x="128.203125"/>
       <use xlink:href="#DejaVuSans-2d" x="201.396484"/>
       <use xlink:href="#DejaVuSans-34" x="237.480469"/>
       <use xlink:href="#DejaVuSans-30" x="301.103516"/>
       <use xlink:href="#DejaVuSans-6d" x="364.726562"/>
       <use xlink:href="#DejaVuSans-69" x="462.138672"/>
       <use xlink:href="#DejaVuSans-6e" x="489.921875"/>
      </g>
     </g>
    </g>
   </g>
   <g id="matplotlib.axis_6">
    <g id="ytick_29">
     <g id="line2d_84">
      <path d="M 208.467948 294.671635 
L 284.99976 294.671635 
" clip-path="url(#pe9b6a386f2)" style="fill: none; stroke: #b0b0b0; stroke-width: 0.2; stroke-linecap: square"/>
     </g>
     <g id="line2d_85">
      <g>
       <use xlink:href="#m7526721b9e" x="208.467948" y="294.671635" style="stroke: #000000; stroke-width: 0.8"/>
      </g>
     </g>
    </g>
    <g id="ytick_30">
     <g id="line2d_86">
      <path d="M 208.467948 273.398307 
L 284.99976 273.398307 
" clip-path="url(#pe9b6a386f2)" style="fill: none; stroke: #b0b0b0; stroke-width: 0.2; stroke-linecap: square"/>
     </g>
     <g id="line2d_87">
      <g>
       <use xlink:href="#m7526721b9e" x="208.467948" y="273.398307" style="stroke: #000000; stroke-width: 0.8"/>
      </g>
     </g>
    </g>
    <g id="ytick_31">
     <g id="line2d_88">
      <path d="M 208.467948 252.124978 
L 284.99976 252.124978 
" clip-path="url(#pe9b6a386f2)" style="fill: none; stroke: #b0b0b0; stroke-width: 0.2; stroke-linecap: square"/>
     </g>
     <g id="line2d_89">
      <g>
       <use xlink:href="#m7526721b9e" x="208.467948" y="252.124978" style="stroke: #000000; stroke-width: 0.8"/>
      </g>
     </g>
    </g>
    <g id="ytick_32">
     <g id="line2d_90">
      <path d="M 208.467948 230.85165 
L 284.99976 230.85165 
" clip-path="url(#pe9b6a386f2)" style="fill: none; stroke: #b0b0b0; stroke-width: 0.2; stroke-linecap: square"/>
     </g>
     <g id="line2d_91">
      <g>
       <use xlink:href="#m7526721b9e" x="208.467948" y="230.85165" style="stroke: #000000; stroke-width: 0.8"/>
      </g>
     </g>
    </g>
    <g id="ytick_33">
     <g id="line2d_92">
      <path d="M 208.467948 209.578321 
L 284.99976 209.578321 
" clip-path="url(#pe9b6a386f2)" style="fill: none; stroke: #b0b0b0; stroke-width: 0.2; stroke-linecap: square"/>
     </g>
     <g id="line2d_93">
      <g>
       <use xlink:href="#m7526721b9e" x="208.467948" y="209.578321" style="stroke: #000000; stroke-width: 0.8"/>
      </g>
     </g>
    </g>
    <g id="ytick_34">
     <g id="line2d_94">
      <path d="M 208.467948 188.304993 
L 284.99976 188.304993 
" clip-path="url(#pe9b6a386f2)" style="fill: none; stroke: #b0b0b0; stroke-width: 0.2; stroke-linecap: square"/>
     </g>
     <g id="line2d_95">
      <g>
       <use xlink:href="#m7526721b9e" x="208.467948" y="188.304993" style="stroke: #000000; stroke-width: 0.8"/>
      </g>
     </g>
    </g>
    <g id="ytick_35">
     <g id="line2d_96">
      <path d="M 208.467948 167.031664 
L 284.99976 167.031664 
" clip-path="url(#pe9b6a386f2)" style="fill: none; stroke: #b0b0b0; stroke-width: 0.2; stroke-linecap: square"/>
     </g>
     <g id="line2d_97">
      <g>
       <use xlink:href="#m7526721b9e" x="208.467948" y="167.031664" style="stroke: #000000; stroke-width: 0.8"/>
      </g>
     </g>
    </g>
    <g id="ytick_36">
     <g id="line2d_98">
      <path d="M 208.467948 145.758336 
L 284.99976 145.758336 
" clip-path="url(#pe9b6a386f2)" style="fill: none; stroke: #b0b0b0; stroke-width: 0.2; stroke-linecap: square"/>
     </g>
     <g id="line2d_99">
      <g>
       <use xlink:href="#m7526721b9e" x="208.467948" y="145.758336" style="stroke: #000000; stroke-width: 0.8"/>
      </g>
     </g>
    </g>
    <g id="ytick_37">
     <g id="line2d_100">
      <path d="M 208.467948 124.485007 
L 284.99976 124.485007 
" clip-path="url(#pe9b6a386f2)" style="fill: none; stroke: #b0b0b0; stroke-width: 0.2; stroke-linecap: square"/>
     </g>
     <g id="line2d_101">
      <g>
       <use xlink:href="#m7526721b9e" x="208.467948" y="124.485007" style="stroke: #000000; stroke-width: 0.8"/>
      </g>
     </g>
    </g>
    <g id="ytick_38">
     <g id="line2d_102">
      <path d="M 208.467948 103.211679 
L 284.99976 103.211679 
" clip-path="url(#pe9b6a386f2)" style="fill: none; stroke: #b0b0b0; stroke-width: 0.2; stroke-linecap: square"/>
     </g>
     <g id="line2d_103">
      <g>
       <use xlink:href="#m7526721b9e" x="208.467948" y="103.211679" style="stroke: #000000; stroke-width: 0.8"/>
      </g>
     </g>
    </g>
    <g id="ytick_39">
     <g id="line2d_104">
      <path d="M 208.467948 81.93835 
L 284.99976 81.93835 
" clip-path="url(#pe9b6a386f2)" style="fill: none; stroke: #b0b0b0; stroke-width: 0.2; stroke-linecap: square"/>
     </g>
     <g id="line2d_105">
      <g>
       <use xlink:href="#m7526721b9e" x="208.467948" y="81.93835" style="stroke: #000000; stroke-width: 0.8"/>
      </g>
     </g>
    </g>
    <g id="ytick_40">
     <g id="line2d_106">
      <path d="M 208.467948 60.665022 
L 284.99976 60.665022 
" clip-path="url(#pe9b6a386f2)" style="fill: none; stroke: #b0b0b0; stroke-width: 0.2; stroke-linecap: square"/>
     </g>
     <g id="line2d_107">
      <g>
       <use xlink:href="#m7526721b9e" x="208.467948" y="60.665022" style="stroke: #000000; stroke-width: 0.8"/>
      </g>
     </g>
    </g>
    <g id="ytick_41">
     <g id="line2d_108">
      <path d="M 208.467948 39.391693 
L 284.99976 39.391693 
" clip-path="url(#pe9b6a386f2)" style="fill: none; stroke: #b0b0b0; stroke-width: 0.2; stroke-linecap: square"/>
     </g>
     <g id="line2d_109">
      <g>
       <use xlink:href="#m7526721b9e" x="208.467948" y="39.391693" style="stroke: #000000; stroke-width: 0.8"/>
      </g>
     </g>
    </g>
    <g id="ytick_42">
     <g id="line2d_110">
      <path d="M 208.467948 18.118365 
L 284.99976 18.118365 
" clip-path="url(#pe9b6a386f2)" style="fill: none; stroke: #b0b0b0; stroke-width: 0.2; stroke-linecap: square"/>
     </g>
     <g id="line2d_111">
      <g>
       <use xlink:href="#m7526721b9e" x="208.467948" y="18.118365" style="stroke: #000000; stroke-width: 0.8"/>
      </g>
     </g>
    </g>
   </g>
   <g id="line2d_112">
    <path d="M 221.22325 284.332797 
L 221.22325 234.706377 
" clip-path="url(#pe9b6a386f2)" style="fill: none; stroke: #808080; stroke-width: 1.5; stroke-linecap: square"/>
   </g>
   <g id="line2d_113">
    <path d="M 221.22325 279.508006 
L 221.22325 260.898099 
" clip-path="url(#pe9b6a386f2)" style="fill: none; stroke: #808080; stroke-width: 4.5; stroke-linecap: square"/>
   </g>
   <g id="line2d_114">
    <path d="M 221.22325 272.615448 
" clip-path="url(#pe9b6a386f2)" style="fill: none; stroke: #808080; stroke-width: 1.5; stroke-linecap: square"/>
    <g clip-path="url(#pe9b6a386f2)">
     <use xlink:href="#m30f7d689f4" x="221.22325" y="272.615448" style="fill: #ffffff; stroke: #ffffff; stroke-width: 0.9"/>
    </g>
   </g>
   <g id="line2d_115">
    <path d="M 246.733854 284.332797 
L 246.733854 210.582422 
" clip-path="url(#pe9b6a386f2)" style="fill: none; stroke: #808080; stroke-width: 1.5; stroke-linecap: square"/>
   </g>
   <g id="line2d_116">
    <path d="M 246.733854 276.061727 
L 246.733854 249.870005 
" clip-path="url(#pe9b6a386f2)" style="fill: none; stroke: #808080; stroke-width: 4.5; stroke-linecap: square"/>
   </g>
   <g id="line2d_117">
    <path d="M 246.733854 265.72289 
" clip-path="url(#pe9b6a386f2)" style="fill: none; stroke: #808080; stroke-width: 1.5; stroke-linecap: square"/>
    <g clip-path="url(#pe9b6a386f2)">
     <use xlink:href="#m30f7d689f4" x="246.733854" y="265.72289" style="fill: #ffffff; stroke: #ffffff; stroke-width: 0.9"/>
    </g>
   </g>
   <g id="line2d_118">
    <path d="M 272.244458 284.332797 
L 272.244458 180.255165 
" clip-path="url(#pe9b6a386f2)" style="fill: none; stroke: #808080; stroke-width: 1.5; stroke-linecap: square"/>
   </g>
   <g id="line2d_119">
    <path d="M 272.244458 273.304704 
L 272.244458 236.084888 
" clip-path="url(#pe9b6a386f2)" style="fill: none; stroke: #808080; stroke-width: 4.5; stroke-linecap: square"/>
   </g>
   <g id="line2d_120">
    <path d="M 272.244458 258.830331 
" clip-path="url(#pe9b6a386f2)" style="fill: none; stroke: #808080; stroke-width: 1.5; stroke-linecap: square"/>
    <g clip-path="url(#pe9b6a386f2)">
     <use xlink:href="#m30f7d689f4" x="272.244458" y="258.830331" style="fill: #ffffff; stroke: #ffffff; stroke-width: 0.9"/>
    </g>
   </g>
   <g id="patch_13">
    <path d="M 208.467948 294.671635 
L 208.467948 18.118365 
" style="fill: none; stroke: #000000; stroke-width: 0.8; stroke-linejoin: miter; stroke-linecap: square"/>
   </g>
   <g id="patch_14">
    <path d="M 284.99976 294.671635 
L 284.99976 18.118365 
" style="fill: none; stroke: #000000; stroke-width: 0.8; stroke-linejoin: miter; stroke-linecap: square"/>
   </g>
   <g id="patch_15">
    <path d="M 208.467948 294.671635 
L 284.99976 294.671635 
" style="fill: none; stroke: #000000; stroke-width: 0.8; stroke-linejoin: miter; stroke-linecap: square"/>
   </g>
   <g id="patch_16">
    <path d="M 208.467948 18.118365 
L 284.99976 18.118365 
" style="fill: none; stroke: #000000; stroke-width: 0.8; stroke-linejoin: miter; stroke-linecap: square"/>
   </g>
   <g id="text_27">
    <!-- DDX3X L556S -->
    <g transform="translate(204.944792 12.118365) scale(0.12 -0.12)">
     <use xlink:href="#DejaVuSans-44"/>
     <use xlink:href="#DejaVuSans-44" x="77.001953"/>
     <use xlink:href="#DejaVuSans-58" x="154.003906"/>
     <use xlink:href="#DejaVuSans-33" x="222.509766"/>
     <use xlink:href="#DejaVuSans-58" x="286.132812"/>
     <use xlink:href="#DejaVuSans-20" x="354.638672"/>
     <use xlink:href="#DejaVuSans-4c" x="386.425781"/>
     <use xlink:href="#DejaVuSans-35" x="442.138672"/>
     <use xlink:href="#DejaVuSans-35" x="505.761719"/>
     <use xlink:href="#DejaVuSans-36" x="569.384766"/>
     <use xlink:href="#DejaVuSans-53" x="633.007812"/>
    </g>
   </g>
  </g>
 </g>
 <defs>
  <clipPath id="pd37e1d2f9a">
   <rect x="36.403365" y="18.118365" width="76.531812" height="276.55327"/>
  </clipPath>
  <clipPath id="p6017d74eb7">
   <rect x="122.435657" y="18.118365" width="76.531812" height="276.55327"/>
  </clipPath>
  <clipPath id="pe9b6a386f2">
   <rect x="208.467948" y="18.118365" width="76.531812" height="276.55327"/>
  </clipPath>
 </defs>
</svg>
